<?xml version="1.0" standalone="no"?>
<!DOCTYPE svg PUBLIC "-//W3C//DTD SVG 1.1//EN" "http://www.w3.org/Graphics/SVG/1.1/DTD/svg11.dtd" >
<svg xmlns="http://www.w3.org/2000/svg" xmlns:xlink="http://www.w3.org/1999/xlink" version="1.1">
<metadata>
Created by FontForge 20201107 at Fri Jul 28 00:14:02 2000
 By 
(C) Tepid Monkey Fonts--www.fontframe.com/tepidmonkey
</metadata>
<defs>
<font id="EightyPercentOutline" horiz-adv-x="798" >
  <font-face 
    font-family="Eighty Percent Outline"
    font-weight="3326"
    font-stretch="normal"
    units-per-em="1000"
    panose-1="0 0 33 0 0 0 0 0 0 0"
    ascent="800"
    descent="-200"
    x-height="442"
    cap-height="752"
    bbox="-61 -270 1194 1041"
    underline-thickness="20"
    underline-position="-143"
    unicode-range="U+0020-F002"
  />
<missing-glyph horiz-adv-x="500" 
d="M63 0v800h375v-800h-375zM125 63h250v675h-250v-675z" />
    <glyph glyph-name=".notdef" horiz-adv-x="500" 
d="M63 0v800h375v-800h-375zM125 63h250v675h-250v-675z" />
    <glyph glyph-name=".null" horiz-adv-x="0" 
 />
    <glyph glyph-name="nonmarkingreturn" horiz-adv-x="321" 
 />
    <glyph glyph-name="space" unicode=" " horiz-adv-x="321" 
 />
    <glyph glyph-name="exclam" unicode="!" horiz-adv-x="373" 
d="M338 714q-59 -97 -84 -239q-19 -125 -37 -250q-32 13 -93 21q-66 10 -93 18q3 44 27 218q19 133 16 218l8 4l-11 2l20 3l3 1v-1q106 14 139 14q40 0 105 -9zM299 688v7q-49 12 -69 12q-16 0 -47.5 -5t-47.5 -5q-19 0 -41 5v-125q0 -1 -10 -55q-30 -156 -30 -225
q0 -23 32 -23q7 0 20 1.5t17 1.5q14 0 40 -9t39 -9q15 110 30 219q22 127 67 210zM183 91q0 -28 -27 -45q-23 -14 -53 -14q-81 0 -81 52q0 35 21.5 56t56.5 21q32 0 57 -18q26 -21 26 -52zM156 93q0 19 -19.5 35.5t-38.5 16.5q-17 0 -35 -20.5t-18 -38.5q0 -30 54 -30
q57 0 57 37z" />
    <glyph glyph-name="quotedbl" unicode="&#x22;" horiz-adv-x="552" 
d="M506 687q-11 -50 -17 -142q-5 -99 -13 -142q-11 7 -112 25q-85 15 -85 39q0 34 11 99.5t11 98.5q0 28 -29 37q71 20 120 20q67 0 114 -35zM477 682q-41 21 -51 21q-51 0 -101 -9q0 -79 -18 -221q22 -15 71 -22q71 -9 77 -11q7 81 22 242zM279 767q-1 -10 -7 -23
q-9 -20 -10 -22q-7 -20 -23 -144t-14 -146q-7 -3 -13 -3q-5 0 -13 2t-13 2q-15 0 -42 -11.5t-42 -11.5q-10 0 -19 3q-30 60 -30 152q0 31 4.5 93t4.5 92q16 -5 25 -19l14 17q131 19 178 19zM247 744q-37 0 -160 -18q-7 -115 -7 -183q0 -87 22 -109q32 9 95 29q16 94 50 281z
" />
    <glyph glyph-name="numbersign" unicode="#" horiz-adv-x="813" 
d="M767 529q0 -22 -5 -67t-5 -67q-84 23 -124 23q-28 0 -39 -7.5t-10 -32.5v-33l96 -4q59 -5 87 -29q0 -13 -4.5 -39.5t-4.5 -40.5q0 -28 5 -60q-51 13 -88 13q-16 0 -41 -2q-32 -2 -40 -2l-4 -4q0 -19 5 -55.5t5 -54.5q0 -39 -17 -50q-14 5 -64 5q-31 0 -43 14t-12 47
q0 22 6 56q8 47 9 56l-9 1q-8 0 -21 -4q-16 -5 -21 -6q-16 -1 -31.5 -2.5t-28.5 -15.5v-35q1 -27 1 -35q0 -43 -15 -85q-11 1 -30 0q-22 -1 -30 -1q-54 0 -82 23l-10 21l12 144l-9 1q-15 0 -43 -2.5t-43 -2.5q-78 0 -78 48q0 28 10 63q13 45 34 45q20 0 58 -9t58 -10v79
l-2 3q-22 0 -65.5 -5t-65.5 -5q-25 0 -25 24q0 22 7 54q5 27 10 53q-2 1 -16 13q83 17 91 17q20 0 39 -7q0 33 -2 103q-3 67 -3 103q23 6 52 6q40 0 78 -6q58 -9 58 -28q0 -13 -16.5 -52t-16.5 -68q22 3 47 3t54 -4q0 23 -2.5 70t-2.5 72q67 -5 201 -20v-29q0 -7 -6 -15
q-9 -12 -10 -14q-7 -16 -7 -67q0 -37 20 -44q6 -2 51 -2q98 0 98 -38zM739 302q-41 21 -84 21q-14 0 -41.5 -6.5t-41.5 -6.5q-12 0 -16 7q0 19 5 51q5 38 6 51q30 24 73 24q13 0 89 -12q5 34 10 104q-30 11 -60 11q-12 0 -34.5 -4t-33.5 -4q-38 0 -38 87q0 32 9.5 57
t10.5 34q-49 7 -145 21v-91q0 -7 5 -21t5 -21l-1 -10l-11 -6q-10 0 -28.5 7t-29.5 7q-28 0 -76 -8l-11 9v57q0 14 8.5 38.5t9.5 36.5q-51 16 -80 16q-23 0 -46 -7v-143q0 -12 7.5 -33t7.5 -33q0 -8 -2 -18q-58 30 -76 30q-15 0 -52 -9l-12 -103q57 6 105 6q49 0 58 -8
q0 -10 -2 -56q-1 -34 0 -56q-4 -7 -14 -21q-86 29 -116 29q-7 0 -14 -4q-4 -30 -13 -90q13 -11 50 -11q18 0 55 4.5t56 4.5q9 0 16 -11v-16l-10 -10q1 -10 1 -21q0 -15 -4 -44t-4 -44q0 -50 55 -50q23 0 51 10q12 24 12 73q0 39 -10 55q7 26 73 38q46 6 92 13
q0 -25 -4.5 -77t-3.5 -78v-7q19 -18 23 -18q10 0 29 2.5t27 2.5v61q0 14 -8.5 40t-8.5 39q0 20 39 20q86 0 134 -5q8 61 9 96zM499 459q-16 -54 -35 -159q-66 15 -139 15l-5 149l18 13q10 1 38 4q24 2 38 2q19 0 85 -24zM473 443q-31 17 -61 17q-11 0 -32.5 -2t-30.5 -3
v-121q8 2 20 2q13 0 34 -3q27 -4 33 -4v1q11 18 21 55q11 46 16 58z" />
    <glyph glyph-name="dollar" unicode="$" horiz-adv-x="646" 
d="M603 646q-44 -107 -41 -156l-19 -10q-14 28 -99.5 67t-120.5 39q-22 0 -51 -13q-34 -15 -34 -34q0 -32 69 -71q49 -26 98 -51q15 -9 47.5 -46t32.5 -49q0 -5 -5 -12q-6 -10 -7 -12q-7 -15 -9.5 -51.5t-12.5 -54.5q-15 -27 -48 -37q-45 -13 -56 -21q7 -95 7 -139
q-102 4 -103 4q-37 0 -69 -5q19 59 19 109l-1 1q-9 0 -40 -3q-26 -2 -41 -2q-97 0 -97 52v142h14q15 1 23 -8q38 -12 75 -23q44 -14 77 -14q89 0 89 61q0 35 -52 73q-6 5 -105 65q-65 40 -83 70q-11 18 -11 60q0 61 65 92q52 25 126 25q25 0 46 -3l2 10q0 11 -7 30.5
t-8 27.5q38 31 102 31q41 0 50 -1q33 -5 33 -27q0 -11 -21 -88q7 2 14 2q13 0 38 -8.5t39 -8.5q3 0 10 4.5t12 4.5q10 0 27 -8zM574 634q0 11 -22 10l-13 -8q-33 0 -131 18v25q0 14 11 39.5t11 39.5l-2 8q-9 1 -29 2t-30 1q-46 0 -67 -20q2 -7 14 -96h-19q-17 19 -48 19
q-61 0 -111 -20q-66 -26 -66 -77q0 -55 65 -99q61 -34 121 -69q66 -44 66 -98q0 -42 -33 -65q-28 -19 -71 -19q-36 0 -86 14q-42 12 -83 24v-6q0 -12 -3 -34.5t-3 -33.5q0 -18 11 -41q13 -26 29 -26q60 0 138 11l7 -9q-4 -35 -17 -105q15 -1 37 -3l8 -7q12 0 35 2.5t34 2.5
v43q1 48 -9 95q21 12 74 26q34 9 46 31q16 30 16 110q0 41 -64 78q-58 32 -117 65q-63 42 -63 97q70 53 122 53q23 0 41 -13q2 9 12 11q22 -23 73 -47q40 -19 81 -37l20 56q15 43 15 52z" />
    <glyph glyph-name="percent" unicode="%" horiz-adv-x="873" 
d="M835 238q0 -69 -50 -130q-53 -64 -121 -64q-57 0 -102.5 50t-45.5 107q0 51 20 98q14 33 59.5 66.5t80.5 33.5q52 0 105.5 -54.5t53.5 -106.5zM807 240q0 39 -40 88q-43 52 -80 52l-4 -7q-80 -13 -112 -64q-28 -43 -28 -129q0 -41 40 -76.5t81 -35.5q60 0 103 57
q40 53 40 115zM726 208q0 -30 -20 -49.5t-50 -19.5q-26 0 -42 19t-16 46q0 29 16.5 49.5t45.5 20.5q28 0 47 -19t19 -47zM707 213q0 19 -22 30q-18 10 -39 10q-8 0 -18.5 -21.5t-10.5 -30.5q0 -13 13.5 -25.5t26.5 -12.5q18 0 34 16t16 34zM712 661q0 -30 -76 -167
q-124 -222 -142 -256q-77 -151 -78 -216q-15 2 -31 2q-30 0 -89.5 -15.5t-91.5 -13.5h-24v24q0 34 130 239q131 209 228 412l-34 23q149 -9 202 -9q6 -20 6 -23zM689 657q0 9 -43 9q-45 0 -84 -2q-36 -44 -90 -158q-64 -137 -84 -170l-96 -150q-54 -88 -81 -157q59 8 177 21
v12q-2 45 149.5 310t151.5 285zM399 530q0 -52 -63 -94q-58 -38 -112 -38q-10 0 -27.5 -4.5t-27.5 -4.5q-48 0 -91 37.5t-43 85.5q0 70 54 132.5t123 62.5q66 0 126.5 -56t60.5 -121zM371 532q0 40 -29 90q-8 14 -49.5 40t-57.5 26l-3 -1q-1 -6 -8 -7.5t-17 -0.5
q-14 1 -13 1q-57 0 -99 -60q-37 -55 -37 -115q0 -38 44 -67q38 -25 79 -25q32 0 90 20q63 22 81.5 44t18.5 55zM281 523q0 -34 -29 -56.5t-64 -22.5q-30 0 -48.5 16t-18.5 45q0 38 25.5 65t63.5 27q33 0 52 -20.5t19 -53.5zM257 525q0 53 -46 53q-27 0 -46.5 -20.5
t-19.5 -47.5q0 -42 42 -42q26 0 48 16.5t22 40.5z" />
    <glyph glyph-name="ampersand" unicode="&#x26;" horiz-adv-x="756" 
d="M718 332q-4 -8 -15 -17.5t-20 -33.5q-11 -27 -17 -35q-14 -18 -27 -36q-19 -26 -19 -38q0 -18 25 -51q19 -24 39 -47v-22q-5 -1 -54 -12q-32 -8 -54 -8q-45 0 -62 33q-12 35 -24 71q-40 -22 -79 -44q-46 -23 -87 -23q-10 0 -30 2t-30 2h-114q-11 0 -38.5 13t-38.5 22
q-45 34 -45 94q0 10 12 46q28 79 66 117q50 44 101 87q-3 7 -31 31q-34 28 -49 49q-26 34 -26 71q0 62 81 96q62 26 135 26q46 0 103 -39q62 -42 62 -85q0 -41 -33 -64q5 -7 5 -19q0 -38 -35 -88q19 -37 102 -130q21 22 42 43q33 33 40 33q9 0 27 -11l27 -16q10 -5 61 -17z
M672 317q-19 11 -58 31q-78 -55 -75 -89q-30 8 -82 76q-58 77 -82 92q3 12 6 17q5 10 14 10l10 -4q20 3 20 85q30 44 30 68q0 8 -2 17q-48 54 -70 58l-11 -4q-9 0 -22 16t-24 16q-60 0 -120 -24q-77 -31 -77 -81q0 -40 40 -82q33 -34 75 -56v-23q-69 -47 -85 -59
q-55 -42 -70 -73q-8 -16 -22 -54q-16 -43 -16 -54q0 -53 61 -83q48 -25 106 -25q12 0 35 4.5t34 4.5q6 0 17 -4.5t18 -4.5q89 0 176 85q11 -14 22 -48.5t21 -47.5q16 -21 46 -21q6 0 61 14q-26 39 -37 59q-18 34 -25 64q54 27 86 120zM368 548q0 -12 -7.5 -35.5t-7.5 -35.5
h-28q-27 21 -53 41q-33 27 -33 55q0 18 20 43.5t37 25.5q20 0 46 -36.5t26 -57.5zM340 551q0 19 -33 50q-4 -4 -12 -5q-5 5 -9 15q-24 -26 -24 -38q0 -31 65 -58q13 20 13 36zM409 167q-78 -43 -124 -43q-22 0 -46.5 11.5t-47.5 23.5q-21 43 -21 70q0 53 34 91t86 48l11 -17
l-1 -4q0 -24 43 -84.5t66 -65.5v-30zM375 181q-20 28 -61 83q-51 70 -54 70q-10 0 -33.5 -25.5t-27.5 -36.5q-6 -18 -6 -52q0 -41 16 -41q8 5 14 5q9 0 13 -18q33 -19 49 -19q15 0 33.5 12t21.5 27q10 -14 19 -14q7 0 16 9z" />
    <glyph glyph-name="quotesingle" unicode="'" horiz-adv-x="294" 
d="M248 738q-48 -107 -68 -296q11 0 -50 0q-28 0 -55 19.5t-27 45.5q0 21 7 55q8 40 9 53q2 20 1 51q-2 45 -2 51q55 38 130 38q37 0 55 -17zM224 729q0 11 -16 11q-48 0 -122 -33q0 -6 2 -17.5t2 -17.5q0 -25 -9.5 -74.5t-9.5 -74.5q0 -23 16 -38t39 -15h33q7 58 31 172
q2 7 19 46q15 35 15 41z" />
    <glyph glyph-name="parenleft" unicode="(" horiz-adv-x="464" 
d="M430 639q-21 -41 -38 -43l-11 4q-23 -3 -69 -42q-42 -35 -58 -60q-39 -56 -54 -96q-19 -49 -19 -109q0 -86 62 -149q46 -46 140 -89q-35 -56 -69 -56q-3 0 -23.5 10t-55.5 10q-2 0 -27 11q-81 36 -131.5 115t-50.5 169q0 97 50 191q47 89 126 153q19 15 84 51
q69 39 83 39h33q7 -52 1 -114zM389 724h-4q-26 2 -97 -41q-106 -63 -169 -156q-70 -102 -70 -218q0 -32 17 -82q15 -45 34 -76.5t61 -64.5q47 -36 79 -36q3 0 9.5 2.5t10.5 2.5q14 0 31 -13.5t26 -13.5q12 0 25 13l1 5q-71 28 -128 91q-62 71 -62 140q0 90 49 180t125 142
q17 9 51 30q5 31 11 95z" />
    <glyph glyph-name="parenright" unicode=")" horiz-adv-x="432" 
d="M389 378q0 -65 -30 -146q-28 -76 -69 -132q-16 -21 -40.5 -31t-48.5 -20q-2 -1 -14 -10q-8 -7 -15 -7q-5 0 -13 2.5t-13 2.5q-12 0 -16 -14q-25 3 -40 54.5t-41 64.5q6 5 13.5 10.5t13.5 5.5q12 0 13 -9q53 2 98 93q41 79 41 139q0 108 -89 210q-16 17 -32 35t-26 37
l62 42q50 33 58 33t12 -4.5t8 -9.5q12 -6 34 -20q47 -38 92 -151q42 -108 42 -175zM365 381q0 65 -53 187q-60 137 -113 137q-22 0 -86 -53q59 -53 99 -125q44 -81 44 -151q0 -63 -47 -144q-51 -87 -108 -98q1 -18 18 -73l23 -1l-2 9q0 5 2 14l19 -17l1 1q27 5 53.5 11
t48.5 28q43 44 73 129q28 80 28 146z" />
    <glyph glyph-name="asterisk" unicode="*" horiz-adv-x="612" 
d="M573 572q0 -5 -1 -20t-1 -23q-25 -23 -49 -36q-27 -13 -54 -25q2 -12 40 -77q41 -73 47 -87l-8 -16q-28 3 -70 2q-69 -2 -71 -2q-25 0 -43 57q-11 40 -22 79q-11 -17 -18 -59q-8 -51 -13 -63h-17q-44 1 -103 -15q-6 5 -6 19q0 32 45 159q-11 5 -29 6q-13 2 -34 1
q-29 -1 -31 -1q-59 0 -87 21q0 9 6 28.5t6 30.5q0 21 -3 45q19 6 18 6q6 0 15.5 -4.5t14.5 -4.5q48 0 118 -17q3 10 3 20q0 14 -9 40.5t-9 41.5v39q24 -5 20 -5q22 0 61.5 18t61.5 18q6 0 17.5 -2.5t16.5 -2.5v-40q-1 -64 20 -109q18 3 160 50q7 -15 2 -47q6 -10 6 -25z
M540 540v69q-49 -17 -149 -44q-35 51 -35 131q0 12 1 24q-19 -1 -63 -14q-40 -11 -63 -10q1 -26 14.5 -79t13.5 -82q-87 33 -170 34q-2 -21 -8 -63q30 -13 87 -12q65 1 90 -5q0 -30 -22 -83t-23 -81q18 -5 20 -5q18 0 60 15q8 36 16 73q13 47 39 59q10 -16 22.5 -62
t24.5 -64q19 -30 54 -30q6 0 37 2q22 1 36 -1v14q-26 42 -51 84q-40 68 -40 76q0 14 9 13q-5 -1 23 -1q16 0 46.5 14t30.5 28z" />
    <glyph glyph-name="plus" unicode="+" horiz-adv-x="679" 
d="M644 257q-118 19 -204 19l-2 -6q3 -11 3 -35q0 -33 -6 -98t-6 -97q-6 1 -91 11q-56 7 -86 24l18 84q9 49 10 85q-164 -18 -188 -18q-15 0 -32 12q-20 13 -20 27q0 21 13 56q14 39 16 55q108 -13 132 -13q14 0 41 3.5t39 4.5v9q0 15 -3 43.5t-3 42.5q0 83 15 180
q74 11 107 11q20 0 37 -3l10 -10q22 -2 35 -8q0 -35 -11 -105t-11 -105q0 -9 9 -9q15 0 45 2.5t45 2.5q49 0 81 -24q-9 -23 -9 -53q0 -39 16 -88zM609 287q-4 29 -4 100q0 13 -37 13q-36 0 -129 -17q-10 25 -10 27q0 23 11 69.5t11 69.5v72l-7 -2q-10 0 -31.5 5t-32.5 5h-47
q-35 -1 -35 -112q0 -30 4 -81q4 -59 4 -82l-9 -11h-10q-126 0 -192 9q-21 -55 -22 -86q20 -15 57 -15q26 0 78 10.5t79 10.5q21 0 21 -25q0 -31 -9 -80q-11 -62 -13 -80q39 -4 115 -17q13 166 13 190q0 5 -2 13t-2 12q0 11 12 19q62 -5 187 -17z" />
    <glyph glyph-name="comma" unicode="," horiz-adv-x="375" 
d="M310 54q0 -47 -43.5 -97t-88.5 -50q-12 0 -12 16q0 9 7.5 18t14.5 17q9 15 18 67q-15 15 -55 28t-53 24q-26 20 -26 59q0 34 29 55q26 19 61 19q16 0 26 -11t19 -14q45 -14 74 -49.5t29 -81.5zM287 54q0 37 -33.5 76t-69.5 39q-11 0 -21 -5l7 18q-19 4 -28 4
q-15 0 -31 -20t-16 -36q0 -28 55 -53q47 -21 80 -20q0 -3 2 -10t2 -11q0 -27 -25 -91q26 1 52 41t26 68z" />
    <glyph glyph-name="hyphen" unicode="-" horiz-adv-x="503" 
d="M443 374q0 -27 -11 -69q-16 -57 -18 -69q-191 0 -300 27q-13 7 -40 18q-2 8 -2 18q0 68 31 103q18 0 55.5 -1.5t56.5 -1.5q12 0 36.5 2t36.5 2t33.5 -4.5t32.5 -4.5q10 0 28.5 6.5t27.5 6.5q8 0 31 -10q2 -11 2 -23zM424 370q0 2 -5 13l-84 -6l-2 2l-3 -6q-34 9 -91 9
q-15 0 -67 -2q-42 -1 -67 0q-9 -74 -9 -79q25 -16 131 -30q92 -12 141 -12q12 0 20 1q36 75 36 110z" />
    <glyph glyph-name="hyphen" unicode="&#x2010;" horiz-adv-x="503" 
d="M443 374q0 -27 -11 -69q-16 -57 -18 -69q-191 0 -300 27q-13 7 -40 18q-2 8 -2 18q0 68 31 103q18 0 55.5 -1.5t56.5 -1.5q12 0 36.5 2t36.5 2t33.5 -4.5t32.5 -4.5q10 0 28.5 6.5t27.5 6.5q8 0 31 -10q2 -11 2 -23zM424 370q0 2 -5 13l-84 -6l-2 2l-3 -6q-34 9 -91 9
q-15 0 -67 -2q-42 -1 -67 0q-9 -74 -9 -79q25 -16 131 -30q92 -12 141 -12q12 0 20 1q36 75 36 110z" />
    <glyph glyph-name="period" unicode="." horiz-adv-x="351" 
d="M290 125q0 -40 -42 -62q-33 -18 -77 -18q-41 0 -70 19q-34 21 -34 59q0 41 28 76t68 35q7 0 15 -7q12 -9 14 -10q17 -4 49 -17q16 -10 32.5 -33.5t16.5 -41.5zM267 125q0 38 -49 62q-40 20 -82 20q-16 0 -30 -30q-12 -26 -12 -45q0 -66 78 -66q31 0 60 14q35 17 35 45z
" />
    <glyph glyph-name="slash" unicode="/" horiz-adv-x="554" 
d="M521 718q0 -9 -88 -188q-76 -156 -105 -211q-39 -71 -78 -141q-46 -85 -67 -147q-13 -9 -41 -9q-12 0 -36 2.5t-36 2.5q-3 0 -16.5 -6.5t-17.5 -7.5q0 58 24 105q4 9 17 19t17 22q10 33 33 77q35 67 39 75q9 19 20 59.5t19.5 59.5t30 53.5t30.5 50.5q7 25 25 73
q3 7 31 45q21 28 21 47q0 12 -7 24q111 11 174 11q11 0 11 -16zM485 706q-62 0 -109 -6q-22 -33 -63 -102q-8 -26 -30 -77q-22 -34 -60 -105q-11 -40 -39 -119q-21 -43 -64 -127q-4 -9 -26 -38q-17 -23 -19.5 -38.5t-8.5 -43.5q23 -4 42 -4q16 0 30 6q21 10 27 12
q15 35 40 81q120 219 280 561z" />
    <glyph glyph-name="zero" unicode="0" horiz-adv-x="660" 
d="M608 435q0 -418 -178 -418q-6 0 -16 5l-12 -12q-53 -11 -52 -11q-8 0 -62 18l-66 21q-167 55 -167 288q0 120 102 252q108 139 224 139q22 0 89 -19q73 -19 82 -32l-1 4l9 3q48 -135 48 -238zM589 448q0 90 -43 199q-41 20 -100 42q-9 -5 -20 -9q-6 1 -19 7t-19 6
q-113 0 -214 -132q-96 -124 -96 -241q0 -89 37 -168q19 -41 73 -71q28 -15 95 -39q16 -6 47 -15l11 5q9 -1 10 -10l1 1q13 1 32 8q27 11 32 12q25 3 72 16q56 29 83 178q18 101 18 211zM469 308q0 -62 -33 -107q-37 -49 -97 -49q-59 0 -95 39.5t-36 98.5q0 53 37 125
q42 81 89 81q2 0 28 -18q17 -10 34 -21t30 -27q43 -57 43 -122zM446 306q0 45 -30 96q-32 56 -73 63l-4 7l-3 1q-36 0 -73 -73q-32 -65 -32 -107q0 -48 26 -81q28 -36 75 -36q50 0 82 39t32 91z" />
    <glyph glyph-name="one" unicode="1" horiz-adv-x="306" 
d="M303 696q0 -8 -11 -34q-13 -29 -15 -36q-3 -32 -11 -94q-10 -30 -25 -91q-10 -55 -11 -131q1 83 1 -131q0 -140 -64 -140q-9 0 -66 2q-40 2 -66 0q-9 18 -9 105q0 196 17 405q4 45 4 76q0 15 -7.5 40t-8.5 38l20 17l17 -14q4 0 18 -2.5t21 -2.5q22 0 64.5 7t64.5 7
q67 0 67 -21zM272 688q-31 1 -69 1h-70q-41 -1 -69 -1q0 -80 -6 -252q-5 -167 -5 -252q0 -61 2 -115q18 0 58 -2.5t61 -2.5q8 0 19.5 21t11.5 30v228q0 36 12 87q11 42 21 85q3 13 12 88q7 53 22 85z" />
    <glyph glyph-name="two" unicode="2" horiz-adv-x="630" 
d="M583 39q-36 9 -64 9q-17 0 -50.5 -4t-50.5 -4q6 0 -34 8q-24 4 -81 4q-43 0 -130.5 -5.5t-131.5 -5.5v15q-1 9 -1 15q0 22 8 33l-1 27q13 17 37 65q21 42 41 62q31 31 41 40q25 21 47 33q37 18 69 54q37 42 37 77q0 43 -52 80q-48 34 -93 34q-22 0 -44 -11
q-25 -13 -31 -33q-17 34 -17 80q0 16 2.5 50t1.5 52q22 -8 38 -8q12 0 36 7.5t36 7.5q85 0 175 -54q84 -50 138 -125l30 -38q14 -23 14 -47q0 -27 -11 -48t-83 -86q-49 -43 -97 -87q14 -1 29 -1q32 0 80 7q64 9 80 11q13 -34 15.5 -107t16.5 -107zM543 62v139q0 6 -8 24h-51
q-22 0 -66 -8.5t-66 -8.5q-27 0 -39 10q29 33 92 96l76 62q45 42 45 81t-75 118q-71 76 -112 90q-20 7 -71 19q-57 14 -69 14q-94 0 -94 -47v-67q46 16 64 16q60 0 114 -39q60 -42 60 -99q0 -54 -58 -105q-57 -46 -115 -92q-69 -64 -89 -142q-12 -44 -12 -49v-6q239 6 251 6
q62 0 87 -15q21 0 57 5q42 6 56 7z" />
    <glyph glyph-name="three" unicode="3" horiz-adv-x="697" 
d="M657 556q0 -35 -4.5 -66.5t-49.5 -64t-79 -32.5l-2 -1q4 -8 31 -42q29 -38 35 -48q11 -19 29 -67q19 -51 19 -68q0 -43 -99 -85q-81 -34 -139 -40q-54 -6 -155 -6q-32 0 -81 29q-54 32 -54 61q0 21 7 55q10 41 12 54l16 8q22 -25 39.5 -33.5t51.5 -8.5q47 0 91 19
q56 24 56 65q0 28 -48 65t-77 37q-6 0 -17 -1.5t-16 -2.5l-7 29q8 4 44 4q32 0 79 29q51 32 51 61q0 32 -53 54q-44 19 -81 19q-58 0 -120 -43q-10 16 -20 46q-12 35 -19 47q-12 15 -33 46q-3 12 -21 32q6 13 19 19q5 1 42 12q97 29 225 29q112 0 210 -50q118 -60 118 -161z
M635 552q0 97 -121 150q-94 41 -206 41q-47 0 -115 -13q-58 -12 -115 -23l4 -18q29 -28 41 -57q21 -52 25 -59q51 30 103 30q51 0 103 -24q64 -28 64 -73q0 -31 -44 -64q-33 -26 -72 -41q102 -56 102 -111q0 -46 -50 -81q-46 -31 -94 -31q-49 0 -107 21q-17 -51 -17 -69
q0 -38 73 -57q51 -13 108 -13q66 0 167 30q124 37 124 83q0 43 -32 98q-12 21 -59 85q-30 42 -27 55q74 12 106 38q39 33 39 103z" />
    <glyph glyph-name="four" unicode="4" horiz-adv-x="648" 
d="M612 411q0 -72 -18 -114q-6 -14 -28 -14q-11 0 -31 4t-31 4q-18 0 -45 -7q-6 -27 -5 -130q1 -81 -26 -127q-12 1 -26 1q-17 0 -50 -3t-50 -3q-8 0 -23.5 5t-23.5 5q-1 8 -5.5 22.5t-4.5 22.5q0 36 11.5 107.5t11.5 107.5q-28 0 -69 -9q-57 -12 -69 -13q-27 -1 -80 -6
q-11 12 -10 106v67q25 58 86 125q54 54 108 109q9 9 19 15l4 14q23 2 95 18q59 12 95 12q8 0 23.5 -2.5t22.5 -2.5q3 -7 3 -18q0 -27 -14 -79t-14 -79q0 -21 6 -53q8 -52 9 -54q11 1 34 5.5t35 4.5q10 0 28 -2.5t27 -3.5q5 -16 5 -35zM585 424q-9 4 -24 4q-37 0 -91 -19
l-12 11q-8 58 -8 113q0 59 10 114q9 9 8 26l-1 29q-21 4 -24 4q-33 0 -83 -9q-67 -13 -83 -15q-6 -7 -106 -110q-76 -78 -91.5 -110t-15.5 -109q0 -4 5 -56h73q24 0 68 12t68 12q10 0 18 -2q-1 -10 -14 -109q-9 -66 -9 -110q0 -37 15 -45q8 -5 49 -5q96 0 96 62
q0 27 -3.5 80t-3.5 79q0 16 2 24t36 17q29 7 43 7q11 0 31.5 -1.5t29.5 -2.5q17 54 17 109zM285 543q0 -9 -4 -17l4 -7q-3 -39 -5 -77q-4 -46 -20 -74q-19 6 -45 21q-34 20 -34 30q0 12 43 70q34 46 55 70q6 -7 6 -16zM257 492q-18 -22 -25 -33q-18 -25 -18 -35
q14 -23 31 -24l4 3q6 20 8 89z" />
    <glyph glyph-name="five" unicode="5" horiz-adv-x="603" 
d="M633 690q-47 -57 -88 -160q-10 2 -53 41q-40 36 -76 36q-63 0 -89 -85l134 -66q87 -50 87 -105q0 -109 -20 -169q-22 -67 -123 -116q-91 -44 -170 -44q-41 0 -126 31q-96 36 -96 67q0 21 14 61q15 46 32 46q-2 0 27.5 -22.5t65.5 -22.5q57 0 119 40q68 45 68 100
q0 51 -109 86q-71 23 -154 33q23 97 80 290q11 8 23 8q6 0 17 -4.5t17 -4.5l254 1q7 0 19 -19q7 0 22.5 2.5t23.5 2.5q11 0 101 -27zM598 676q-83 24 -209 28q-106 4 -213 7q-28 -86 -38 -123q-20 -69 -28 -125q257 -58 257 -139q0 -64 -76 -117q-70 -49 -137 -49
q-8 0 -10 6l-1 -1q-45 -1 -80 28q-17 -49 -21 -79q34 -23 95.5 -42.5t102.5 -19.5q75 0 160 40q98 47 109 112q11 62 11 154q0 47 -90 95q-66 28 -132 57q5 43 37 83q36 44 77 44q34 0 67 -27q40 -32 55 -36q21 34 64 104z" />
    <glyph glyph-name="six" unicode="6" horiz-adv-x="651" 
d="M610 261q0 -127 -63 -177q-77 -62 -190 -62q-102 0 -194 49q-110 58 -110 151q0 71 41 161q18 39 81 149q32 55 113 217q56 -5 204 -24q0 -43 -28 -98q-37 -70 -43 -93q-1 -13 -7 -40q-4 -13 -19 -33q-17 -23 -21 -31q6 1 32 4q20 2 32 2q43 0 98 -31q59 -33 68 -70
q6 -26 6 -74zM587 267q0 56 -10.5 78.5t-71.5 46.5q-56 22 -87 22t-58 -19t-28 -19q-16 0 -12 10v12q23 31 82 137q63 115 63 133v39q-58 9 -158 18q-71 -124 -141 -248q-89 -170 -89 -257q0 -60 49 -97q34 -25 110.5 -51t118.5 -26q51 0 113 22q71 25 91 62q28 56 28 137z
M461 236q0 -36 -33 -60.5t-70 -24.5q-60 0 -60 60q0 35 33 58q30 20 66 20q64 0 64 -53zM433 238q0 34 -44 34q-14 0 -41 -25t-27 -38t14 -24.5t27 -11.5q25 0 48 20t23 45z" />
    <glyph glyph-name="seven" unicode="7" horiz-adv-x="605" 
d="M574 697q0 -35 -68 -213q-58 -153 -90 -222q-26 -54 -33 -72q-17 -41 -23 -76l-10 -4q1 -15 13 -29q-169 -10 -285 -26q-1 24 11 41.5t24 34.5q15 37 49 110q27 53 98 161q12 17 24 35q14 22 14 37q-19 8 -76.5 18.5t-79.5 10.5q-10 0 -29 -2.5t-28 -2.5q-19 0 -63 21
q6 77 25 210q50 -5 271 -5q42 0 125.5 -4.5t124.5 -4.5q6 -17 6 -18zM544 687q-116 18 -254 18q-97 0 -226 -9q-6 -53 -18 -158q10 -12 31 -13q-4 0 35 0q28 0 138 -16q24 -3 47 -5q29 -7 29 -29q0 -20 -38 -80q-27 -39 -54 -79t-60 -113q-39 -89 -55 -117q61 7 210 17v14
q-1 24 66 174q83 186 85 192q37 98 64 204z" />
    <glyph glyph-name="eight" unicode="8" horiz-adv-x="677" 
d="M640 481q0 -40 -49 -74q-36 -25 -85 -40q69 -50 69 -125q0 -74 -61 -137.5t-135 -63.5q-52 0 -157 26q-116 30 -141 59q-34 40 -34 80q0 64 34 104q26 30 90 63q-66 29 -93 65.5t-27 106.5q0 71 90 133q83 57 157 57q20 0 76 -17l5 -15q86 -16 119 -30q55 -24 94 -77
q48 -67 48 -115zM616 483q0 14 -6 31q-32 86 -98 126q-37 21 -110 36q-57 11 -65 29q-20 2 -37 2h-43q-21 0 -84 -38.5t-75 -57.5q-23 -34 -23 -79q0 -69 37 -102q23 -21 75 -34t65 -26l-16 -22q-16 7 -33 7q-51 0 -92 -47.5t-41 -98.5q0 -37 35 -72q21 -21 130 -48
q101 -25 142 -25q62 0 119 55t57 117q0 49 -26 79q-14 17 -47 36q-26 14 -27 25q49 18 99 37q64 30 64 70zM432 510q0 -31 -20.5 -52t-51.5 -21q-39 0 -63 24t-24 63q0 66 48 66q42 0 73 -19q38 -22 38 -61zM408 512q0 23 -26 41.5t-49 18.5q-37 0 -37 -46q0 -27 16 -45
t43 -18q22 0 37.5 14t15.5 35zM396 204q0 -33 -24 -52t-58 -19q-37 0 -59.5 20t-22.5 56q0 21 23 53.5t43 32.5q17 0 57.5 -37t40.5 -54zM372 197q0 13 -31 44t-43 31q-11 0 -27 -25.5t-16 -37.5q0 -23 19 -37q16 -12 40 -12q20 0 37 9q21 10 21 28z" />
    <glyph glyph-name="nine" unicode="9" horiz-adv-x="626" 
d="M576 520q0 -59 -22.5 -138t-53.5 -131q-38 -50 -77 -100q-54 -72 -47 -106q-29 -17 -91 -17q-84 0 -84 36q0 8 126 225l-7 3l-81 13q-192 33 -192 167q0 76 56 138q50 56 126 84q32 12 65.5 23.5t66.5 11.5q95 0 155 -57t60 -152zM548 514q0 76 -29 117.5t-102 68.5
q-21 7 -45 7q-109 0 -198 -61q-100 -69 -100 -174q0 -152 275 -152q12 0 12 -15t-58 -110q-61 -99 -69 -132q22 -8 52 -8l52 1q14 40 48 85q31 38 61 76q47 60 74 140t27 157zM403 451q0 -33 -22.5 -56.5t-55.5 -23.5q-82 0 -82 68q0 39 27 73.5t64 38.5q-3 -16 -3 -20l1 -8
q31 -2 51 -21.5t20 -50.5zM384 449q0 27 -13 37q-8 6 -30 9.5t-33 10.5l4 8l-1 6q-18 -8 -31 -33t-13 -46q0 -46 62 -46q16 0 35.5 19t19.5 35z" />
    <glyph glyph-name="colon" unicode=":" horiz-adv-x="311" 
d="M268 382q0 -71 -101 -71q-46 0 -79 36.5t-33 82.5q0 38 35 84q14 3 29 3q57 0 103 -39.5t46 -95.5zM244 385q0 29 -17 56l-10 -2q-1 0 -15 12.5t-27 15.5q-11 23 -15 25q-6 6 -27 6q-26 0 -40.5 -18t-14.5 -44q0 -41 27.5 -71t67.5 -30q71 0 71 50zM253 114
q0 -35 -39 -67t-75 -32q-34 0 -58 27t-24 63q0 41 40.5 78.5t81.5 37.5q27 0 52 -41q22 -37 22 -66zM230 118q0 26 -18.5 52.5t-43.5 26.5t-56.5 -33.5t-31.5 -58.5q0 -61 59 -61q33 0 62 21t29 53z" />
    <glyph glyph-name="semicolon" unicode=";" horiz-adv-x="285" 
d="M247 412q0 -37 -29.5 -61t-67.5 -24q-36 0 -58.5 22t-22.5 58q0 40 19.5 66t56.5 26q38 0 69 -24q33 -27 33 -63zM224 407q0 30 -22 51.5t-52 21.5q-58 0 -58 -70q0 -59 58 -59q26 0 50 15.5t24 40.5zM210 62q0 -42 -38 -87t-79 -45q-11 0 -11 16q0 6 53 84v7
q-66 26 -66 57q0 27 29.5 59.5t57.5 32.5q9 0 17 -5t22 -24q4 -8 9.5 -46t5.5 -49zM188 69q0 14 -9.5 40.5t-10.5 39.5q-13 8 -18 15q-54 -35 -54 -64q0 -20 24 -30q19 -8 42 -7q0 -35 -6 -48l-24 -40q24 12 40 39t16 55z" />
    <glyph glyph-name="less" unicode="&#x3c;" horiz-adv-x="620" 
d="M573 700q0 -17 -14 -99.5t-20 -94.5q-12 -28 -98 -78q-60 -33 -119 -67q36 -36 118 -71q91 -40 124 -65v-174h-23q-21 12 -73 36q-48 21 -73 38q-14 14 -46.5 38t-156.5 86q-98 49 -148 99q22 28 33 68q8 36 17 73q171 96 472 238q7 -23 7 -27zM545 690
q-77 -35 -228 -109q-188 -93 -196.5 -107t-25 -60t-16.5 -58q0 -26 123 -90q78 -40 157 -81q87 -60 177 -95v125q-18 10 -128 64q-78 38 -122 72v14q27 18 142 81q62 34 85 76q29 52 32 168z" />
    <glyph glyph-name="equal" unicode="=" horiz-adv-x="590" 
d="M564 575q0 -1 -19 -39.5t-19 -61.5q0 -15 8 -26l-17 -17q-44 23 -149 23q-43 0 -130 -6.5t-131 -6.5q-22 0 -48 23q12 62 39 150q272 -9 425 -9q19 0 41 -12v-18zM535 581q-15 1 -319 1q-1 0 -102 13q-8 -29 -17 -58q-9 -33 -9 -58l2 -9q-5 -1 106 -1q19 0 49.5 11.5
t38.5 11.5q44 0 108 -10l108 -16q3 17 19 57q14 36 16 58zM498 240q0 -36 -20 -81q-24 -12 -73 -12q-14 0 -36 7q-25 8 -35 10q-57 7 -144 7h-144q-12 8 -16 29q5 21 5 30l-1 10l-5 6l2 7q-4 9 -4 22q0 17 8 43q14 40 14 42q15 -13 36 -13q6 0 19 1.5t20 1.5q14 0 119 -11
q27 0 81 -3l9 -11q93 -10 162 -10q0 -12 1.5 -37t1.5 -38zM472 287q-37 1 -111 6q-21 2 -77 16q-48 11 -76.5 11t-72.5 2q-52 1 -72 1q-11 -18 -11 -33q0 -9 4.5 -27t4.5 -27q0 9 -5 -38l48 1q139 0 244 -12q10 -1 35 -9q22 -7 35 -7q55 0 54 83v33z" />
    <glyph glyph-name="greater" unicode="&#x3e;" horiz-adv-x="569" 
d="M548 424q-25 -82 -25 -144q0 -17 2 -33h-12q-105 2 -231 -63q-41 -22 -207 -129h-21q-6 17 -13 62q-6 40 -16 62v22q18 1 49 32q40 39 44 43q15 10 43 20q32 12 44 19q36 22 125 93q-66 54 -107 79l-106 62q-56 41 -56 103q0 36 35 107q-1 -26 8 -38.5t50 -41.5l56 -40
q152 -115 157 -119q109 -75 170 -84zM514 415q-78 24 -213 124q-102 78 -204 155q-6 -20 -6 -40q0 -74 69 -110q70 -42 211 -124v-23q-50 -34 -152 -99q-34 -21 -69 -42q-38 -24 -64 -50q-15 -15 -28 -22q13 -86 13 -96h10q23 11 55 34q49 34 53 36q37 24 115 60
q82 38 118 45q20 5 70 3q4 42 22 149z" />
    <glyph glyph-name="question" unicode="?" horiz-adv-x="533" 
d="M504 478q0 -66 -48 -119.5t-114 -53.5q-6 0 -18 2.5t-18 2.5q-8 0 -88 -26q-1 -11 -1 -47q-110 5 -168 5q9 39 9 73q0 52 -20 90h92q51 -1 105 39q59 42 59 90q0 40 -55 67q-47 24 -92 24q-38 0 -115 -44q0 32 4 89q5 65 6 89q43 26 144 26q109 0 213.5 -99t104.5 -208z
M478 478q0 100 -93 194t-192 94q-77 0 -128 -22q-4 -40 -9 -120q62 24 98 24q52 0 104 -32q60 -36 60 -84q0 -66 -73 -110q-64 -40 -139 -40q-15 0 -29 3q7 -21 7 -53q0 -24 -5 -71q41 0 119 -4v13q0 16 2 31q33 13 101 31q96 15 125 33q52 31 52 113zM223 89
q0 -29 -25.5 -52.5t-54.5 -23.5q-40 0 -71 36t-31 76q0 26 35 48q32 19 60 19q30 0 58.5 -36t28.5 -67zM195 93q0 27 -19 53.5t-44 26.5q-22 0 -47 -18t-25 -39q0 -28 31 -53.5t61 -25.5q43 0 43 56z" />
    <glyph glyph-name="at" unicode="@" horiz-adv-x="906" 
d="M868 405q0 -74 -51.5 -146t-122.5 -89q-16 -4 -40 -12l31 1q4 -20 9 -40t20 -33q-2 -13 -13 -22q-25 -5 -118 -38q-74 -27 -117 -27q-63 0 -174 33q-80 24 -139 86l-52 60q-22 32 -42 105q-18 70 -18 114q0 34 15 74q17 45 121 145q108 105 148 105q9 0 25.5 -2t24.5 -2
q22 0 54 6l54 10q41 6 116 6q59 0 118 -32q55 -31 94 -81q27 -35 43 -106q14 -61 14 -115zM759 444q0 27 -13 71q-16 52 -35 53q-6 62 -146 62q-23 0 -66.5 -7t-65.5 -7q-40 0 -140 -54t-120 -88q-13 -23 -13 -64q0 -118 133 -229q6 -33 40 -38l5 -11q8 0 38 -3q23 -2 38 -2
q38 0 95 11q84 15 95 17q-94 11 -110 96l-6 3q-12 -1 -45 -19t-45 -18q-62 0 -111 44q-52 46 -52 106q0 68 58 119q55 49 123 49q25 0 73 -35l10 19q34 12 62 12q18 0 40 -13.5t22 -30.5q0 -16 -18 -36q-25 -29 -33 -42q-17 -31 -17 -76q0 -36 27 -48q18 -8 59 -8
q33 0 58 15q29 19 26 51q34 38 34 101zM845 431q0 25 -15 87t-27 81q-32 51 -83 83q-55 34 -112 34q-43 0 -130 -9.5t-131 -9.5q-57 0 -112 -50q-43 -47 -87 -94q-15 -14 -45 -51q-34 -55 -34 -117q0 -28 12 -92q13 -69 25 -86q10 -8 29 -27q68 -83 129 -111q43 -19 166 -39
q46 -7 41 -7q44 0 96 22q25 12 87 48l8 -16l14 4q-4 16 -9 49h-37q-29 0 -85.5 -13t-85.5 -13h-110q-10 0 -22 6l-9 15q-36 6 -43 42q-139 115 -139 234q0 55 15 83q22 39 132.5 97.5t157.5 58.5q4 0 12.5 -2.5t12.5 -2.5q21 0 60.5 9t59.5 9q30 0 69.5 -9.5t62 -24
t44.5 -80.5q20 -59 20 -93q0 -63 -32 -125q-38 -72 -95 -72q-123 0 -123 82q0 48 19 84q24 36 47 72q-15 16 -52 16q-27 0 -34 -13q-3 -5 -7 -38h-18q-19 32 -27 40q-18 20 -42 20q-54 0 -106 -41t-52 -95q0 -56 37.5 -91.5t93.5 -35.5q35 0 76 19q9 16 11 19q6 8 16 14
q14 -20 18 -37t8 -35q7 -23 48 -38q33 -12 64 -12q26 0 43 12.5t23 12.5q4 0 7 -2t6 -2q25 0 75 63q47 59 53 89t6 79zM464 369q0 -29 -23.5 -44.5t-53.5 -15.5q-26 0 -45 15t-19 41q0 18 15.5 46.5t32.5 28.5q29 0 59 -21q34 -22 34 -50zM441 372q0 22 -24 34
q-20 11 -44 11q-27 -44 -27 -52q0 -32 41 -32q19 0 36.5 10t17.5 29z" />
    <glyph glyph-name="A" unicode="A" horiz-adv-x="801" 
d="M758 59q-46 -13 -165 -13q-28 0 -54 -6q-12 26 -22 97q-10 66 -23 88h-20q-47 1 -123 -12q-1 -28 -25 -116l-12 5q-11 -21 -21 -42q-15 -29 -30 -29q-3 0 -10 2.5t-10 2.5t-8 -2.5t-8 -2.5q-13 0 -38.5 2.5t-38.5 2.5q-17 0 -51 -4.5t-51 -4.5l-14 15q56 137 171 410
q14 31 32 89q20 64 30 89q14 24 37 74l-3 20q14 7 40 7t71.5 13t66.5 15l96 3q11 -65 39 -194q12 -30 33 -91q13 -59 27 -118q20 -92 32 -104q19 -20 37 -95q17 -68 17 -103q-1 -1 -2 2zM729 90v8q1 43 -28 105q-37 82 -43 101q-10 60 -38 180q-17 41 -43 126q-7 43 -23 129
h-20q-37 0 -102 -10q-71 -11 -96 -23q-17 -9 -29 -37q-23 -67 -72 -199q-25 -53 -72 -162q-44 -114 -89 -248q-10 0 195 0q4 24 24 60q24 41 29 59l8 44q8 29 26 31q1 -14 18 -14q16 0 47 7.5t47 7.5q32 0 53 -17q11 -76 12 -79q8 -46 20 -77q5 -14 10 -14q14 0 85.5 9
t80.5 13zM510 381l-8 -16q-5 1 -16.5 5t-17.5 4q-14 0 -40.5 -4.5t-39.5 -4.5l-11 6q-8 4 -8 15q0 9 17 52q1 4 16 69q10 39 34 62q21 -3 43 -80q30 -107 31 -108zM474 395q-8 35 -17 70q-11 43 -25 65q-10 -32 -19 -64q-11 -39 -11 -65l2 -8q39 9 49 9q6 0 21 -7z" />
    <glyph glyph-name="B" unicode="B" horiz-adv-x="593" 
d="M558 561q0 -76 -34 -109q-23 -22 -103 -50l-4 -2q20 -17 57 -55q12 -15 34.5 -66.5t22.5 -67.5q0 -69 -58 -120q-53 -46 -125 -52q-36 -4 -92 -14q-62 -12 -91 -12q-84 0 -112 59q-19 39 -19 134q0 86 13 256.5t13 256.5q0 4 -3 12.5t-4 12.5l8 11q2 1 21 7q13 5 22 5
q25 0 60 -8q55 -13 59 -14l108 -14q64 -9 105 -25q33 -14 72 -53.5t48 -72.5q2 -7 2 -19zM539 558q0 30 -43 75q-40 42 -72.5 54.5t-81.5 19.5q-42 5 -85 10q-6 1 -69 13q-42 8 -69 8q-25 0 -39 -7l1 -86q0 -115 -12 -253q0 -7 -4 -30q-3 -18 -3 -29v-226q0 -30 39 -52
q34 -19 67 -19q3 0 8.5 2.5t9.5 2.5q123 0 203 29q119 43 119 143q0 50 -47 109q-43 55 -91 78q-11 5 -11 16l11 11q23 -5 37 -5q56 0 94 40t38 96zM332 524q-30 -28 -83 -28q-38 0 -75 13q0 29 27 133l14 -19q15 7 31 7q34 0 61 -27.5t26 -61.5zM305 549q2 25 -18.5 44
t-46.5 19q-24 0 -30 -32q-4 -25 -7 -51q20 -11 41 -11t61 16v15zM350 254q0 -47 -35 -73q-31 -23 -80 -23q-26 0 -61 16q8 93 21 167l5 -1q10 28 42 28q45 0 76.5 -34t31.5 -80zM326 249q0 33 -23 66.5t-54 33.5q-16 0 -45 -10l1 -53q1 -45 -7 -90q28 -13 48 -13
q29 0 54.5 19t25.5 47z" />
    <glyph glyph-name="C" unicode="C" horiz-adv-x="688" 
d="M706 628q-35 -40 -70 -79q-26 -30 -52 -103q-21 14 -37.5 33t-28.5 25q-18 8 -59 8q-71 0 -116 -50t-45 -121q0 -63 37 -102t99 -39q50 0 75 40l36 82q13 -1 21 -10.5t51.5 -98t43.5 -93.5q0 -53 -128 -86q-97 -26 -174 -26q-25 0 -76 8q-57 8 -72 17q-11 8 -33 25
l-59 40q-35 24 -54 45q-28 30 -52 84.5t-24 92.5q0 170 91 281q75 93 153 129.5t198 36.5q73 0 144 -15q100 -22 114 -64q8 -20 17 -60zM678 635q0 8 -18.5 40.5t-25 39t-94.5 20t-106 13.5q-173 0 -293 -110q-124 -114 -124 -285q0 -87 36.5 -152.5t162.5 -140.5
q46 -27 120 -27q21 0 54 2q43 2 53 3l15 10q170 10 170 88q0 11 -74 134q-20 -47 -47 -68t-76 -21q-63 0 -112 41.5t-49 103.5q0 92 52 149q53 61 143 61q66 0 110 -42q29 59 55 87q48 52 48 54z" />
    <glyph glyph-name="D" unicode="D" horiz-adv-x="710" 
d="M42 18q-3 9 -3 17q0 7 2.5 20t2.5 20v143q0 28 5 77q6 55 7 77q3 128 11 383q31 15 89 15q86 0 223 -32q143 -34 211 -73q80 -45 80 -172q0 -49 -11 -120q-9 -59 -19 -119q-18 -134 -185 -199q-94 -36 -413 -37zM578 170q29 38 48 138q15 81 15 148q0 148 -64 187
q-83 51 -226 78q-121 23 -240 23h-14l-6 -5q-8 -137 -8 -180q0 -18 2 -54.5t2 -54.5q0 -33 -5 -82q-9 -81 -9 -82q-6 -67 -5 -177v-60q21 -9 70 -9q148 0 238 20q146 32 192 120zM459 424q0 -90 -25 -134q-29 -48 -110 -80q-43 -17 -68 -17q-10 0 -21 14.5t-11 24.5
q0 9 4.5 27t4.5 28q0 24 -1 72t-1 71q0 65 5 111q12 17 38 17q35 0 131 -46q54 -26 54 -88zM436 406q0 38 -14 57l-11 -9q-5 8 -16 22.5t-58.5 38t-65.5 23.5q-9 0 -14 -5l-1 -128q0 -32 1 -92v-91h23q36 0 90.5 38t59.5 72q6 41 6 74z" />
    <glyph glyph-name="E" unicode="E" horiz-adv-x="633" 
d="M598 761q0 -19 -5.5 -83t-5.5 -93q0 -24 3 -37q-6 -15 -19 -15q-5 0 -13.5 4.5t-13.5 4.5q-3 0 -9 -2t-9 -2q-7 0 -24 9q-20 10 -25 12q-34 10 -101 10q-36 0 -75 -5q-20 -39 -21 -94h38q6 0 16.5 4.5t16.5 4.5q18 0 55.5 2.5t57.5 2.5l25 -1q0 -46 -29 -206q-25 6 -54 6
q-24 0 -70 -5.5t-69 -5.5q-13 -8 -15 -31l-2 -36l3 -4q27 9 48 9q18 0 50 -6q36 -6 50 -7q60 2 179 -2q0 -46 -15 -178l-11 -13q-193 18 -294 18q-27 0 -79.5 -7t-79.5 -7q-31 0 -66 17q8 125 25 433q11 194 11 214q0 45 -27 39l2 20q18 8 91 20q70 11 96 11q161 0 365 -1z
M570 736h-36q-32 0 -93 -2.5t-90 -2.5q-17 0 -50 4t-50 4q-28 0 -160 -23q3 -20 3 -41q0 -28 -6.5 -83.5t-6.5 -83.5v-191q0 -33 -9 -100.5t-9 -101.5v-77q28 0 98 5q63 3 98 3q73 0 280 -9q7 44 17 132q-89 17 -248 17q-10 0 -28.5 -4.5t-28.5 -4.5q-11 0 -24 2l-11 9
q7 34 23 103q178 16 204 15q7 50 22 149h-132q-11 0 -32 -5t-31 -5q-22 0 -22 18l12 37q10 32 10 89q30 6 66 6q38 0 115 -8q27 -6 83 -14l14 -11h5l8 3q0 24 9 171z" />
    <glyph glyph-name="F" unicode="F" horiz-adv-x="620" 
d="M566 591q0 -13 6.5 -35.5t6.5 -27.5q0 -1 -3 -1q-32 0 -98 8.5t-98 8.5q-37 0 -47.5 -14.5t-9.5 -50.5q31 -1 80 0q63 1 80 1q-4 -91 -4 -119q0 -46 4 -85q-42 7 -74 7q14 0 -109 -8q-18 -30 -13 -261q-23 -8 -119 -10q-103 -3 -134 -10q0 152 17 379q14 190 28 379
q22 2 125 9q77 6 125 6q33 0 98 -4t98 -4q9 0 26.5 5t24.5 5q2 0 2 -2q0 -15 -4 -38q-4 -29 -5 -38q-3 -44 -3 -100zM547 567q0 102 -10 165q-93 9 -176 9q-65 0 -259 -11q-3 -26 -8 -111q-7 -113 -14 -172q-10 -84 -10 -78v-153q0 -20 -6.5 -58t-6.5 -57v-78q25 1 77.5 7.5
t79.5 6.5q24 0 44 -4q10 106 11 265l10 12q17 -9 56 -9q22 0 61 3q43 5 61 5q0 11 -1 31t-1 29q0 16 3 45.5t4 42.5h-132q-3 0 -10 -6.5t-13 -6.5q-13 0 -17 12q8 35 19 106q0 5 2 10q7 -7 192 -7q25 0 44 2z" />
    <glyph glyph-name="G" unicode="G" horiz-adv-x="639" 
d="M666 613q-19 -10 -55 -29.5t-84 -77.5q-9 6 -19.5 27.5t-23.5 31.5q-20 15 -58 15q-75 0 -129 -74q-50 -68 -50 -145q0 -64 38.5 -104t101.5 -40q16 0 21 13q10 30 12 91q-1 -26 -1 94q8 3 13 3q7 0 17 -5l15 -8q17 -7 130 -6q4 -14 4 -40q0 -49 -13 -153
q-13 -99 -12 -152q-16 2 -33 2q-23 0 -66.5 -5.5t-65.5 -5.5q-67 0 -150 22q-94 26 -135 63q-52 48 -89 113q-41 74 -41 136q0 151 113.5 260.5t265.5 109.5q25 0 102.5 -15t95.5 -24q54 -30 96 -97zM631 625q-9 18 -33 38.5t-43 20.5q-10 0 -16 -8q-8 11 -4 22
q-117 27 -172 27q2 0 -41 -8q-134 -24 -215 -107q-86 -89 -86 -222q0 -59 34 -129q36 -73 84 -104q11 -4 34 -15l-3 -8q44 -29 114 -46q64 -16 123 -16l10 11q31 -2 58 -2q38 0 70 3q9 79 26 235l-5 12l3 13l-1 1q1 21 1 24v9q-64 0 -122 12q-5 -58 -16 -173
q-14 -20 -42 -20q-160 0 -160 165q0 93 55 165q60 79 151 79q53 0 100 -48q11 9 96 69z" />
    <glyph glyph-name="H" unicode="H" horiz-adv-x="681" 
d="M614 44q-15 4 -26 4q-10 0 -28 -4t-27 -4q-8 0 -22 4.5t-21 4.5q-14 0 -75 -9q-12 11 -16 20q11 133 11 263q-13 6 -47 6q-59 0 -84 -12l-1 -81q0 -98 12 -170l6 1l14 -1l-12 -22q-9 -13 -20 -13q-5 0 -14 2.5t-14 2.5q-39 0 -96 -14q-47 -12 -94 -23v212q0 8 4.5 21.5
t4.5 20.5v301q0 24 4 75t4 77v19l-11 16q84 18 157 17l39 -1q15 -24 15 -52q0 -13 -3.5 -38.5t-3.5 -38.5v-154l4 -7q14 -5 104 -6q2 5 2 15q0 27 -1 82t-1 82q0 7 -4.5 19t-4.5 19v61q179 -19 236 -19q0 -6 4.5 -18.5t4.5 -18.5v-639zM589 485q0 83 -3 208q-32 5 -28 5
q-6 0 -17 -5t-17 -5q-11 0 -31 9.5t-31 9.5q-44 0 -68 -5q7 -32 7 -80l2 -81q0 -12 4 -45q3 -28 3 -45q0 -12 -11 -18q-15 0 -45.5 5t-46.5 5q-21 0 -50 -6l-10 11v175q0 11 3 34.5t3 35.5q0 41 -40 41q-46 0 -106 -9q-2 -26 -11 -129q-8 -79 -8 -129v-438q44 9 172 30v245
q0 5 -3.5 14.5t-3.5 14.5q0 6 3 14h169q8 -113 8 -111q0 -27 -4 -81t-4 -83v-7q65 7 87 7l28 -1l6 -6q-9 0 40 4q-7 45 -7 96q0 53 5 160t5 160z" />
    <glyph glyph-name="I" unicode="I" horiz-adv-x="367" 
d="M308 738q0 -110 -5.5 -331t-5.5 -332q0 -47 -5 -61l-6 -6q-13 7 -41 14l-6 -8q-13 0 -39.5 -2.5t-40.5 -2.5h-88l7 13q0 55 1 153q1 107 1 154q0 6 -3.5 18t-3.5 18v217q0 19 5.5 55t5.5 55q0 17 -4 33h-2l-17 11q22 16 90 16q76 0 157 -14zM285 455v251q0 24 -136 23
h-30l17 -14h-31q-8 -208 -8 -408q0 -166 8 -270q56 -5 46 -5q13 0 38 8t38 8q17 0 39 -9q-2 26 -2 54q0 61 10.5 181.5t10.5 180.5z" />
    <glyph glyph-name="J" unicode="J" horiz-adv-x="682" 
d="M652 748l-6 -114q-5 -67 -16 -113q0 -3 -6 -19q-4 -12 -4 -20q0 -23 -3 -73.5t-3 -75.5q0 -38 5 -66q-14 -5 -20 -29q-4 -18 -8 -37q-2 -5 -51 -92q-40 -73 -196 -73q-192 0 -294 136q-18 23 -18 33q0 23 46 70q33 32 65 65q10 -7 13 -20q2 -9 1 -25q-2 -23 -2 -24
q0 -31 35 -47q27 -14 61 -14q123 0 129 115q6 6 8 39q1 23 0 61q-1 51 -1 47q0 130 30 258l30 -1l65 1q23 0 69.5 9t70.5 9zM623 720h-10q-28 -11 -89 -11t-90 -11q-12 -40 -15 -168q-5 -143 -15 -201q-18 -104 -68 -127q-31 -15 -79 -15q-53 0 -89 23q-44 27 -39 77
q-64 -67 -64 -79q0 -72 117 -114q89 -33 178 -33q86 0 127 27q15 10 41 54q26 41 31 62q1 15 7 45q2 7 17 36q14 25 14 31v175q0 14 7 36q8 27 9 37q10 64 10 156z" />
    <glyph glyph-name="K" unicode="K" horiz-adv-x="732" 
d="M717 710l-3 -18q-121 -97 -256 -246l-16 -16q-12 -12 -12 -17q0 -23 71 -127q65 -95 94 -124q18 -14 50 -48q12 -20 36 -62l-14 -20q-56 12 -107 12q-61 0 -166 -22l-4 33q-55 70 -164 210q-13 -27 -16 -114q-3 -68 0 -119q-14 0 -45 2t-48 2q-55 0 -81 -14q-12 5 -21 20
q-1 -1 -1 29q0 69 15 192q17 135 20 191q1 68 3 136q2 80 16 135q-12 6 -19 17l18 17q14 -10 75 -10q46 0 156 8q-23 -157 -22 -199v-28q49 70 138 142l4 14q32 8 50 53zM673 692q-17 7 -87 14q-61 5 -93 5q-5 0 -33 -34q-33 -39 -36 -42q-45 -39 -89 -78q-47 -46 -71 -96
q-9 12 -18 13q0 44 11 130t12 128q-44 -8 -181 -8q-9 -73 -9 -210q0 -43 -11 -110q-14 -87 -16 -110q-10 -106 -10 -231q18 -8 48 -8q25 0 93 9q12 92 12 214q0 46 24 52q18 -35 61 -102q11 -15 71 -83q45 -51 64 -89q110 13 213 14q-34 50 -105 148q-50 67 -64 87
q-35 51 -54 94q-8 3 -8 11q0 17 124 138q95 93 152 144z" />
    <glyph glyph-name="L" unicode="L" horiz-adv-x="617" 
d="M606 35q-24 5 -39 5q-10 0 -29.5 -4.5t-29.5 -4.5q-16 0 -48 4t-48 4q-144 0 -270 -24q-81 -16 -93 -16q-21 0 -37 8v298q0 14 4.5 39.5t4.5 39.5v312q0 29 -15 75h148q13 0 57 -11.5t52 -17.5q-7 -17 -6 -149q2 -149 0 -169q-1 -8 -5 -26t-4 -28v-113l8 -6q102 4 307 12
q7 -35 43 -228zM572 64q-9 73 -26 175q-37 0 -113.5 -6.5t-116.5 -6.5q-57 0 -101 4q19 192 19 355q0 28 -3 73q-3 60 -4 73q-31 16 -88 16q-113 0 -103 -1v-675q0 -19 8 -43q43 4 128 14v0l5 11q149 8 230 8q36 0 83 -5q12 7 65 8h17z" />
    <glyph glyph-name="M" unicode="M" horiz-adv-x="943" 
d="M875 28h-28v6v5q-26 5 -57 5q-41 0 -99 -8q-50 -7 -99 -14q-3 51 -2 128l2 127q-89 -74 -131 -140h-22q-70 90 -148 168q-12 -41 -12 -100q0 -19 1 -56t1 -56q0 -13 4.5 -38t4.5 -38q-33 7 -71 7q-21 0 -64.5 -3t-65.5 -3q-14 6 -14 18q0 7 5.5 17.5t6.5 13.5
q11 35 11 129v472q0 9 -5 25t-5 25t4 17q-6 2 -30 -1l22 22q17 2 235 15q24 -37 52 -96q24 -50 48 -99q25 -43 74 -128q77 152 160 280q131 26 162 26q60 0 60 -26v-700zM846 62v662q-105 0 -172 -19q-23 -24 -63 -79q-43 -74 -78 -153q-7 -21 -25 -61q-8 -14 -21 -17
l-178 342q-54 4 -86 4q-40 0 -105 -7l-4 2v0q7 -69 7 -162q0 -36 -1.5 -108.5t-1.5 -108.5q0 -28 1.5 -84t1.5 -84q0 -84 -12 -143q17 -5 23 -5q26 0 65 7q56 11 65 12q0 24 -1 74t-1 75q0 137 24 138q55 -58 168 -172q40 41 81 82q67 67 74 67l12 -3v-7v-138q0 -10 -4 -31
t-4 -31q0 -11 4.5 -31.5t4.5 -30.5q14 1 85 9q52 7 86 7q33 0 55 -6z" />
    <glyph glyph-name="N" unicode="N" horiz-adv-x="746" 
d="M717 739q-17 -35 -21 -102q-5 -73 -15 -103l-7 -20v-175q0 -12 -4.5 -37t-4.5 -37q0 -23 2.5 -68t2.5 -67q0 -26 19 -50l-18 -24q-8 12 -18 12q-4 0 -10 -7t-13 -7q-9 0 -27 4.5t-28 4.5q-24 0 -79 5q-51 4 -79 3q-15 19 -105 116q-65 71 -99 123q0 -44 25 -129.5
t25 -130.5q-22 2 -45 2q-75 0 -168 -26v51q0 50 -3 145q-3 99 -3 145q0 24 4.5 70.5t4.5 69.5q0 197 -20 249q80 6 133 6q60 0 111 -7q71 -109 214 -328q4 24 4 141q0 14 4.5 41t4.5 41q0 16 -24 88zM680 715q-122 -2 -155 0q0 -33 -3 -174q-2 -107 0 -174l-7 -16h-15
q-13 26 -116.5 193.5t-112.5 174.5q-26 21 -110 21q10 0 -93 -3q5 -636 5 -676q51 10 162 17q-1 41 -24 121t-23 123q0 18 3 33l16 12q64 -94 173 -212q17 -23 46 -53q24 -14 104 -14q23 0 60 2q46 2 59 2q-5 246 -5 256q0 201 36 367z" />
    <glyph glyph-name="O" unicode="O" horiz-adv-x="773" 
d="M728 450q0 -212 -84 -305q-88 -100 -298 -100q-13 0 -65 16q-46 14 -66 22q-101 41 -135 108q-29 55 -29 172q0 78 18 126q3 9 54 113q5 10 17 29q32 41 112 73q75 30 133 30q63 0 116 -16q73 -21 92 -64l-4 -5q56 -25 97 -81q42 -59 42 -118zM708 429q0 48 -32 107
t-74 81q-51 27 -51 39q0 5 3 8q-50 43 -165 43q-141 0 -230 -102q-84 -96 -84 -240q0 -78 13 -123q18 -65 67 -100q43 -30 102.5 -49.5t111.5 -19.5q108 0 188 37q96 46 123 138q28 101 28 181zM523 320q0 -63 -28.5 -95.5t-89.5 -49.5q-28 -7 -38 -7q-71 0 -112 38.5
t-41 108.5q0 64 40 131q46 76 106 76q83 0 126 -62q37 -53 37 -140zM500 320q0 68 -30 118q-35 60 -99 60q-57 0 -97 -62q-36 -56 -36 -116q0 -57 33 -93t89 -36q57 0 98.5 36.5t41.5 92.5z" />
    <glyph glyph-name="P" unicode="P" horiz-adv-x="612" 
d="M593 559q0 -143 -101 -197q-73 -39 -228 -39l-13 6l-2 -4q7 -188 7 -257q0 -24 -13 -35q-136 0 -225 -16q0 -9 0 129q0 86 9 258t9 258q0 62 17 81t79 19q143 0 276 -40q185 -56 185 -163zM570 559q0 84 -147 134q-102 35 -219 42q-10 1 -33.5 4.5t-36.5 3.5
q-48 0 -54 -5t-6 -49t-10.5 -133.5t-10.5 -134.5v-145q0 -8 -4.5 -25t-4.5 -26v-175q17 -3 39 -3q39 0 145 17q5 20 5 67q0 37 -4.5 112t-4.5 114q17 0 54 -1.5t55 -1.5q237 0 237 205zM443 529q0 -44 -25 -69t-69 -25q-51 0 -96 29q0 10 -2 42q-1 26 -1 42q0 49 10 67l8 -1
q10 -1 27 5t25 6q34 0 78.5 -31.5t44.5 -64.5zM417 518q0 36 -30.5 60t-68.5 24q-40 0 -40 -42q0 -5 1 -16v-17q0 -25 -7 -41q28 -25 71 -25q74 0 74 57z" />
    <glyph glyph-name="Q" unicode="Q" horiz-adv-x="851" 
d="M798 131q-98 -63 -158 -115q-23 19 -66 60q-23 -3 -74 -25q-46 -20 -76 -20q-6 0 -14 5q-11 7 -13 7q-19 8 -58 13q-43 5 -60 10q-122 39 -175 99q-60 68 -60 189q0 165 110 270q108 102 274 102q62 0 108 -7q68 -10 152 -60q100 -60 100 -116q0 -21 2 -62t2 -62
q0 -142 -63 -175q6 -21 32 -48q10 -11 37 -65zM587 672l-10 15q-41 15 -168 15q-130 0 -235 -96q-108 -99 -108 -228q0 -110 43 -173.5t146 -101.5q117 -44 196 -44q32 0 125 51q62 -55 61 -55q11 0 64 40q43 32 65 52q-41 40 -72 102q44 31 59.5 64t15.5 89q0 107 -7 139
q-10 48 -69 87q-48 31 -106 44zM588 415q0 -21 -10.5 -62t-19.5 -59q-20 -38 -75 -58q-46 -16 -97 -16q-102 0 -133 61q-7 14 -18 61t-11 61q0 11 17 63q37 119 155 119q74 0 131 -47q61 -50 61 -123zM560 412q0 46 -9 64q-11 23 -49 46q-44 28 -50 31q-27 13 -58 13
q-57 0 -99.5 -50t-42.5 -108q0 -163 136 -163q172 0 172 167z" />
    <glyph glyph-name="R" unicode="R" horiz-adv-x="718" 
d="M677 541q0 -67 -63 -137q-54 -60 -123 -95q-5 -2 -13 -7q19 -38 31 -59l64 -94q44 -67 44 -96v-35q-34 0 -103 9t-104 9q-3 0 -8 -2.5t-8 -2.5q-19 0 -47 8q-23 7 -46 13q-11 25 -24 74.5t-22 73.5l-12 -168q-14 0 -44 4.5t-46 4.5q-18 0 -50 -3q-35 -2 -49 -3l-20 8v137
q0 27 15 206q8 110 32 329q7 44 26.5 59.5t86.5 15.5q69 0 163 -13q108 -14 157.5 -35.5t103.5 -83.5q59 -67 59 -117zM653 541q0 43 -56 106q-52 59 -97.5 77.5t-148.5 30.5q-88 10 -156 10q-56 0 -70 -9q-20 -13 -25 -65q-40 -378 -40 -587q0 -28 2 -44q41 3 78 3
q38 0 73 -3l11 12q5 61 12 182l16 20q9 -23 26 -88q14 -57 31 -86q22 -40 129 -47q75 -3 151 -6q-3 48 -64 132q-67 92 -77 136q49 24 54 27q30 16 50 33q37 31 67 75q34 52 34 91zM427 495q0 -42 -66 -67q-51 -19 -103 -19q-6 0 -14 4q0 60 37 206l-8 -2q19 23 37 23
q32 0 74.5 -55.5t42.5 -89.5zM403 495q0 35 -38.5 78.5t-73.5 45.5q3 -10 3 -24q0 -29 -12 -80q-14 -55 -15 -81h13q31 -1 73 16q50 19 50 45z" />
    <glyph glyph-name="S" unicode="S" horiz-adv-x="761" 
d="M720 612q0 -6 -43 -68q-26 -38 -52 -75q-16 49 -58 90q-47 46 -94 46q-39 0 -39 -45q0 -46 53 -98q49 -45 98 -89q53 -55 53 -108q0 -83 -110 -165q-103 -78 -189 -78q-75 0 -168 29q-35 11 -92 47q-67 43 -67 67q0 7 32 50q37 50 40 54q11 20 29 70q17 -66 74 -104
q53 -35 123 -35q37 0 64 12q37 16 37 49t-66 81q-9 7 -127 80q-74 45 -86 71q-11 23 -11 60q0 82 83 136q73 47 159 46h48q92 -1 201 -55q33 -11 65 -23q43 -19 43 -45zM692 612q0 19 -50 36q-56 18 -65 35q-111 30 -182 30q-50 0 -94 -8q-52 -9 -102 -52q-55 -47 -55 -95
q0 -40 23 -68q17 -20 91 -68q92 -60 121 -82q60 -48 60 -79q0 -44 -41 -66q-32 -17 -79 -17q-59 0 -115 23q-64 26 -90 70l-74 -103q2 -30 106 -75q98 -43 137 -43h48q83 0 180 67q104 71 104 150q0 44 -53 96q-49 44 -98 89q-53 55 -53 103q0 75 62 75q44 0 91 -33t64 -75
q64 77 64 90z" />
    <glyph glyph-name="T" unicode="T" horiz-adv-x="701" 
d="M667 520q-96 35 -231 38v-11q0 -40 -6 -100q-10 -92 -11 -99q-4 -51 -5 -163q-1 -107 -7 -163q-33 6 -73 7q-28 1 -74 -1q-54 -2 -75 -2q-8 0 -16 4v27q0 6 9 80l26 201q11 89 11 94v104q-14 1 -36 0q-28 -1 -35 -1q-40 0 -122 30v185q20 12 27 12q27 0 79 -6t78 -6
q176 0 441 -26q6 -68 20 -204zM634 589q0 101 -17 111q-28 16 -235 24q-141 6 -257 6q-53 0 -80 -2v-142q62 -23 129 -23q9 0 28 2.5t29 2.5q13 0 17 -12l-50 -504q100 6 191 0q0 15 -1.5 48t-1.5 50q0 71 10 194q1 19 10 84q7 52 7 84q0 37 -9 68l10 12q128 -28 220 -28v25
z" />
    <glyph glyph-name="U" unicode="U" horiz-adv-x="761" 
d="M750 674q-12 -24 -26 -33q-20 -137 -38 -279q-5 -41 -27 -96q-19 -46 -37 -93q-19 -51 -83 -110q-69 -64 -119 -64q-129 0 -173 16q-58 21 -135 110q-70 81 -81 150q-19 122 -19 279q0 39 6 102q8 80 9 101q25 -18 72 -18q21 0 62.5 2.5t62.5 2.5q43 0 85 -8l-18 -20h-8
l2 -1q-8 -11 -9 -118q1 157 1 -132q0 -30 -10 -87t-10 -86q0 -28 33 -55t62 -27q19 0 52 14q10 -1 10 -10q12 3 32 24q17 18 26 32q15 26 18 64q1 8 2 67v24l11 9q2 20 11 89q8 55 8 89q0 42 -11 67q39 0 119 -2.5t120 -2.5zM697 649l-18 -1q-24 0 -70 4.5t-68 4.5v-11
q0 -42 -4 -114q-6 -81 -6 -113l-15 -13q1 -8 1 -19q0 -71 -27 -128q-34 -73 -97 -73q-158 0 -158 119q0 3 8 45q2 38 7 113q0 85 9 254q-72 4 -209 4q-15 -44 -15 -176q0 -199 24 -286q15 -53 86 -132t122 -94q33 -10 85 -10q164 0 234 133q7 14 14 44.5t15 45.5
q32 55 41 111q4 59 9 117q33 83 32 175z" />
    <glyph glyph-name="V" unicode="V" horiz-adv-x="792" 
d="M763 686q0 -5 -22 -50q-14 -27 -28 -55q-8 -23 -25 -70q-66 -166 -218 -417q-19 -25 -56 -77l-24 10q1 -9 -8 -9l-11 4q-35 -1 -63 -1q-80 0 -143 13q-3 76 -29 184l-44 182q-40 191 -90 297q78 5 233 15q13 -72 21 -105q14 -56 33 -100q17 -39 43 -179q38 90 77 179
q47 105 94 170q132 32 199 32q61 0 61 -23zM730 684q-18 4 -43 4q-107 0 -159 -30q-44 -25 -73 -89q-28 -73 -57 -146q-18 -50 -62 -145q-6 -11 -11 -11l-17 5v17q0 70 -13 118q-1 4 -40 111q-10 29 -23 85q-15 60 -23 85q-55 -7 -165 -14q37 -96 68 -229q4 -17 50 -234
q3 -30 12 -90q2 -6 13 -32q8 -19 6 -34h155q8 0 25.5 -4.5t26.5 -4.5q14 0 62 89q12 22 57 113q19 39 62 112t62 110q15 41 48 122q12 23 24 45q14 26 15 47z" />
    <glyph glyph-name="W" unicode="W" horiz-adv-x="928" 
d="M884 699q0 -46 -23 -114q-26 -79 -30 -112q-8 -63 -37 -222q-26 -140 -33 -222q-7 -2 -14 -2q-10 0 -24 5q-18 6 -24 7q-35 6 -102 6q-10 0 -30.5 -4.5t-30.5 -4.5q-14 0 -37 18q-4 54 -25 130q-19 64 -37 127q-38 -92 -54 -135q-28 -77 -42 -140q-45 6 -175 10
q-13 13 -13 59q0 14 -3 27q-14 83 -45 250q-34 164 -82 329l198 15l15 -17q-13 -12 -13 -30q0 -12 28 -105q26 -88 35 -113q32 86 101 254q3 0 138 11l-1 -26q-4 -107 57 -251q22 74 44 147q35 117 47 130q16 21 83 21q15 0 39.5 -1.5t30.5 -1.5q33 0 58 5q1 -31 1 -50z
M860 719q-20 -1 -53 0q-43 2 -54 2q-36 0 -55 -6q-71 -160 -90 -255q-2 -20 -4 -39q-4 -23 -18 -33q-52 45 -89 309l-39 1q-35 1 -52 -10q-24 -15 -61 -135q-44 -140 -54 -157l-7 -7q-8 1 -13 12q-4 53 -36 148q-33 99 -38 148q-48 -1 -143 -8q43 -142 69 -274
q6 -54 21 -163q3 -14 18 -72q12 -45 12 -74q0 -38 21 -38q102 0 121 -1q31 83 62 167q52 137 63 143q12 -12 45 -142q20 -81 40 -163l11 -8q29 4 71 4q69 0 125 -8l53 262l-6 6q13 103 27 193q37 31 48 91q5 30 5 107z" />
    <glyph glyph-name="X" unicode="X" horiz-adv-x="814" 
d="M785 708q-26 -29 -124 -151q-106 -130 -106 -135q0 -11 50 -125q46 -107 61 -134q11 -17 31 -50q8 -14 7 -54v-22q-28 21 -82 21q-31 0 -85 -7q-61 -9 -85 -10q-19 92 -61 275q-7 -15 -7 -26q0 -10 6 -19q-42 -121 -70 -238q-19 12 -73 12q-29 0 -88 -4t-88 -4
q-15 0 -28 1q47 76 93 151q78 126 78 135q0 4 -15 23q-19 23 -20 24q-22 34 -62 126q-37 83 -67 123l-15 3q-17 29 -17 44q0 10 9 16q14 9 107 41q111 38 122 43h20q13 -27 36 -82q19 -66 59 -196q33 70 71 134q14 21 38 67l-3 26q67 10 155 10q105 0 153 -18zM745 695
q-19 8 -34 8q-24 0 -72 -3t-72 -3q-36 0 -58 -5l-68 -136q-44 -89 -71 -130q-23 48 -56 157q-33 103 -58 155q-8 -3 -107 -41q-64 -25 -109 -31l5 -15l8 11q43 -86 135 -255q3 -4 32 -41q26 -33 26 -37q0 -7 -71 -122q-75 -121 -85 -150q102 14 166 14q25 0 49 -2l34 142
q24 98 39 133l11 6h6q22 -28 74 -281q104 6 210 12l2 3q-5 18 -22 46q-23 38 -26 44q-17 32 -42.5 99.5t-42.5 99.5q-26 51 -26 53q0 7 80 106q69 86 95 116q9 11 48 47z" />
    <glyph glyph-name="Y" unicode="Y" 
d="M793 719q-14 -39 -96 -100q-145 -108 -154 -117q-89 -76 -118 -149q-9 -21 -11 -159q-3 -149 -10 -185q-118 8 -155 8q-12 0 -35.5 -4.5t-35.5 -4.5t-18 14v16q0 47 22.5 140.5t22.5 140.5q0 7 -99.5 159.5t-99.5 177.5v42h22q39 -1 99 16q80 23 98 26q26 -47 50 -120
q19 -62 39 -123q100 166 100 196q0 6 -4 27q1 0 137 9q83 6 138 6q13 0 108 -16zM750 702q-7 1 -36 6q-22 3 -36 3l-54 -6q-6 -12 -19 -12q-20 0 -61 5t-62 5q-24 0 -44 -5q-2 -17 -48 -117q-45 -96 -59 -118q-9 -13 -20 -16q-20 36 -48 134q-26 87 -56 130q-40 -12 -79 -23
q-48 -13 -81 -13q-5 0 -22 4l2 -18q12 -5 21 -29q5 -19 11 -37q22 -56 66 -114q30 -38 60 -75q48 -62 48 -71q0 -49 -22.5 -145t-22.5 -145q0 -9 29 -9q16 0 48 1.5t48 1.5q40 0 62 -6q21 27 21 83q0 14 -2 41t-2 38q0 159 14 189q33 70 160 166q151 114 184 152z" />
    <glyph glyph-name="Z" unicode="Z" horiz-adv-x="743" 
d="M708 704q0 -24 -5 -60q-9 -53 -10 -60q-6 -53 -9 -134q-41 -46 -135 -110q-99 -69 -137 -108q33 0 97.5 3t95.5 3q23 0 34 -4q0 -36 -4.5 -110t-4.5 -110q-9 -1 -28 -5.5t-29 -4.5q-22 0 -64.5 9t-64.5 9h-228q-11 0 -33.5 4.5t-33.5 4.5t-33 -2t-33 -2q-10 0 -32 11
t-22 19q0 100 25 148q20 39 155 141q143 108 179 159q-149 0 -218 -7q-8 -1 -47 -7q-29 -5 -48 -5l-11 7q12 172 12 179q0 42 -6 70q15 0 52 3q33 3 52 3q68 0 203 -18.5t203 -18.5q10 0 119 14q9 -7 9 -21zM680 686l-2 10q-46 -8 -82 -8q-6 0 -112 10l-240 23q-88 8 -93 8
q-10 0 -27 -4.5t-24 -5.5v-57q1 -26 -4 -75q-6 -52 -6 -76q88 14 188 14q54 0 168 -5q-34 -35 -105 -101q-22 -20 -71 -54t-71 -55q-17 -15 -46 -39q-42 -35 -54.5 -56t-28.5 -76q-7 -25 -7 -23v-60q63 -1 195 -8q129 -7 196 -7q12 0 20 1q0 9 12 9l30 -11t48 -11q22 0 36 7
q2 20 9 77q6 49 6 77q0 18 -3 29q-91 -10 -248 -19v24q2 1 158 122q131 101 134 111q24 78 24 229z" />
    <glyph glyph-name="bracketleft" unicode="[" horiz-adv-x="373" 
d="M362 747q-5 -22 -5.5 -66t-4.5 -64h-182q-8 -92 -17 -184q-8 -104 -8 -184v-106q80 -29 139 -29q27 0 46 -12q-3 -44 -28 -91q-21 14 -72 14q-34 0 -101 -8t-100 -8v26q0 562 56 709q16 -3 33 -3q15 0 47 4t49 4t54.5 2t56.5 2q7 0 18 -2q15 -3 19 -4zM333 636l-4 10
q4 14 2 42.5t1 40.5h-36q-28 0 -100 -8q-64 -8 -96 -6q-12 -34 -15 -89l-6 -90q-7 -64 -11 -119q-1 -11 -7 -41q-5 -26 -5 -41v-299l9 -4q24 0 70.5 11t71.5 11q24 0 83 -3q8 11 17 37l-3 7q-46 1 -102 11q-80 14 -80 37q0 10 4.5 29.5t4.5 29.5v248q0 7 4.5 20t4.5 20
l11 146h182z" />
    <glyph glyph-name="backslash" unicode="\" horiz-adv-x="567" 
d="M535 15q-26 13 -56 14q51 -2 -57 -2q-23 0 -36 9q-22 63 -69 148l-78 144q-41 80 -100 206q-84 181 -97 208h69q54 1 109 -4l3 -9q0 -2 -2 -7.5t-2 -8.5q0 -7 26 -44q28 -40 31 -50q2 -13 8 -37q8 -29 37 -73q34 -50 42.5 -70t20 -60.5t19.5 -59.5q12 -18 34 -55
q8 -15 19 -50.5t20 -51.5q12 -11 34 -36q8 -13 14 -40q6 -30 11 -41v-30zM505 56q-4 21 -18 63q-36 75 -68 131q-13 18 -34 56q-11 40 -40 120q-11 25 -37.5 68.5t-37.5 64.5q-24 53 -80 154q-35 6 -90 6h-20q39 -90 122 -268q23 -48 81 -150q56 -96 81 -150q19 -41 23 -48
q15 -26 35 -38q24 -14 60 -14q7 0 23 5z" />
    <glyph glyph-name="bracketright" unicode="]" horiz-adv-x="435" 
d="M399 657q0 -69 -11 -164q-11 -82 -22 -163q-11 -47 -24 -141q-2 -29 0 -76q2 -62 2 -76l-40 24v-29l-132 -1q-14 0 -42.5 -4.5t-43.5 -4.5q-28 0 -48 13q1 32 3 64q3 52 16 52q12 0 35.5 -7t36.5 -7q24 0 62 10l13 9q2 54 8 161q10 89 20 268q-10 2 -27 1q-22 -3 -27 -3
q-26 0 -99 20q2 30 14 76q16 60 31 60q48 0 137 -14q95 -15 131 -31q7 -27 7 -37zM376 672q-22 16 -120 31q-81 11 -132 12q-16 -58 -17 -95q43 -7 153 -8q0 -18 -5 -47q-7 -38 -8 -48q-14 -139 -14 -375l-15 -13q-82 -15 -96 -15q-10 0 -29 1.5t-26 1.5v-7q0 -19 -4 -56
q26 -5 57 -5q21 0 79 5q49 3 78 2l1 6l-4 14l9 11l34 -4q0 48 6 143q21 148 53 446z" />
    <glyph glyph-name="asciicircum" unicode="^" horiz-adv-x="535" 
d="M486 393q0 -13 -22.5 -23t-37.5 -10q-32 0 -68 9q-46 12 -55.5 31t-9.5 54q-2 53 -2 55l-5 -19q-19 -19 -29.5 -47.5t-20.5 -55.5q-23 0 -69 -2.5t-69 -2.5q-10 0 -41 17q5 32 34 76q5 7 51 66.5t94 147.5l-8 -1l-5 9q28 18 47 22q12 2 54 2q54 0 88 -8q7 -34 22 -102
q5 -55 27 -161q2 -6 15 -28q10 -16 10 -29zM450 395q-6 19 -17 57q-2 8 -17 125q-14 100 -21 108q-12 12 -33 12q-79 0 -97 -14t-96.5 -129t-78.5 -129v-15q82 0 129 6q15 25 32 70q-1 7 1 21q4 11 40 61h15q3 -18 18 -153q46 -28 95 -28q19 0 30 8z" />
    <glyph glyph-name="underscore" unicode="_" horiz-adv-x="772" 
d="M704 96q0 -17 -19 -50t-19 -34q0 -6 37 -17q-100 2 -199 4q-118 3 -199 20l2 -3q-20 -9 -99 -9q-7 0 -131 1l-14 14q21 40 21 81q0 6 -1 18l-1 1l-5 12q10 11 94 11q210 0 272 -2q190 -8 254 -35q7 -4 7 -12zM677 85q-29 19 -95 19q-1 0 -29 4q-53 9 -185 9
q-16 0 -48.5 4t-48.5 4h-163q0 -3 -12 -92q44 -6 113 -6q70 0 88 9l7 -15l1 7q111 -1 332 -11q11 14 40 68z" />
    <glyph glyph-name="grave" unicode="`" horiz-adv-x="296" 
d="M318 808q-11 5 -25 5q-22 0 -53 -9q-26 -8 -53 -16q-5 6 -5 20q0 6 -14 10q-27 9 -61 38q-28 23 -56 47q-24 14 -69 48v46l13 -17l7 -2l5 8q8 3 43 9t45 6q52 0 103 -52q55 -56 89 -60q10 -14 31 -43v-38zM286 851q0 4 -19 20q-37 12 -65.5 39t-56.5 55l-11 -4
q-28 18 -41 18q-28 0 -80 -21q5 -3 153 -115q14 -5 40 -22q6 -2 14 -2q19 0 39 8q27 9 27 24z" />
    <glyph glyph-name="a" unicode="a" horiz-adv-x="571" 
d="M521 320q0 -62 -13 -150l-24 -148q-17 3 -74 2q-46 -1 -72 10l-10 24q-97 -36 -118 -36q-92 0 -142 111q-6 15 -6 23q0 18 37 100q20 44 57 58q26 10 82 10q22 0 65 -1.5t63 -1.5l1 -1l1 9q0 28 -17 53q-19 29 -45 29q-61 0 -111 -13q-70 -17 -89 -53h-24v97q0 11 9 32.5
t10 31.5q72 45 143 45q34 0 105 -7q83 -8 96 -18q8 -8 24 -25q43 -45 43 -65v-112h7zM494 259v159q0 30 -28 57.5t-58 27.5q-22 0 -65 12.5t-65 12.5q-80 0 -114 -13q-56 -22 -54 -88l1 -28q19 18 84 31q54 10 93 10q48 0 75 -37q23 -33 23 -83q0 -8 -1 -21l-15 -12
q-17 15 -87 15q-113 0 -132 -14q-15 -12 -40.5 -61.5t-25.5 -68.5q0 -39 42 -75.5t81 -36.5q10 0 53 13q29 10 58 19q9 12 16 12q4 0 20 -4v-35q26 -3 53 -3q28 0 57 8q0 1 18 101q11 61 11 102zM332 181q0 -28 -28.5 -50.5t-57.5 -22.5q-23 0 -43 17t-20 40q0 30 32 52.5
t63 22.5q22 0 38 -18t16 -41zM309 185q0 9 -11 22.5t-20 13.5q-17 0 -44.5 -17.5t-27.5 -34.5q0 -9 11.5 -23.5t20.5 -14.5q23 0 47 16t24 38z" />
    <glyph glyph-name="b" unicode="b" horiz-adv-x="649" 
d="M612 264q0 -43 -29 -101q-31 -62 -66 -77q-48 -22 -97 -44q-58 -24 -103 -24q-74 0 -112 64q-5 -28 0 -54q-12 -14 -57 -14q-15 0 -108 10q-2 38 -2 80q0 64 9 192t9 192q0 14 3 223q9 17 27 27l-1 -6q47 0 94 1q56 1 93 12q0 15 8 -340q24 27 80.5 52t93.5 25
q14 0 51 -6q41 -6 47 -10q10 -7 11 -12q1 -8 1 -15q2 -13 14 -30q15 -21 18 -28q16 -40 16 -117zM545 441q-4 6 -14 10q5 -5 14 -10zM588 271q0 99 -27 130q-11 11 -22 23q-7 9 -14 29q-18 5 -43 5q-65 0 -122 -26q-71 -32 -75 -88q-9 -14 -28 -14q-3 9 -3 18q0 12 5 23v241
q0 17 -4.5 51t-4.5 50q-33 5 -82 7q-41 1 -83 2v9q-9 -74 -9 -176q1 138 1 -177q0 -14 -4 -37q-5 -27 -5 -36q-5 -65 -5 -221q0 -36 7 -41q4 -2 46 -2q34 0 55 1l4 4q6 74 2 137h27q2 -53 26 -93q29 -49 77 -49q32 0 80 15q55 18 68 38q56 1 97 63q36 55 36 114zM502 245
q0 -42 -36 -75.5t-78 -33.5q-56 0 -56 70q0 30 32 70.5t62 40.5q28 0 52 -22t24 -50zM478 243q0 19 -14.5 34t-33.5 15l5 -6l-13 -12q-11 5 -16 5q-18 0 -34 -31.5t-16 -51.5q0 -35 36 -35q28 0 57 27t29 55z" />
    <glyph glyph-name="c" unicode="c" horiz-adv-x="562" 
d="M525 410q0 -13 -23.5 -60.5t-22.5 -81.5h-28v4q1 21 -36 36q-30 11 -56 11q-41 0 -66.5 -22.5t-25.5 -62.5q0 -30 12 -57q16 -32 43 -32q25 0 69.5 24t59.5 46q0 -70 -24 -189q-46 4 -140 4q-97 0 -168 53q-78 58 -78 152q0 107 101 175q89 59 202 59q15 0 44 -1h45
q20 0 56 -20t36 -38zM497 406q0 17 -32 31q-27 12 -48 12h-51q-112 0 -201 -53q-105 -63 -105 -167q0 -12 16 -49q34 -76 112 -105q57 -21 156 -21q5 0 31 1q19 2 31 0q10 42 14 95q-68 -24 -94 -24q-39 0 -61.5 31t-22.5 71q0 51 31.5 84t82.5 33t105 -34q36 96 36 95z" />
    <glyph glyph-name="d" unicode="d" horiz-adv-x="591" 
d="M578 706q0 -28 -10 -70q-15 -61 -16 -68q-15 -88 -34 -238q-23 -176 -32 -238q-5 -36 -30 -61q-27 0 -54 1q-32 1 -49 17q0 15 -2 43q-48 -52 -135 -52q-72 0 -135.5 58.5t-63.5 130.5q0 52 51 105q20 22 92 79q9 7 29 20q39 19 92 19q26 0 52 -7q34 52 46 134
q6 38 12 143q60 -15 101 -15q8 0 23 3.5t22 3.5q15 0 41 -8zM550 688q-91 -6 -134 -1l-24 -152q-23 -123 -47 -123q-8 0 -17 12q-18 7 -41 7q-76 0 -156 -62q-86 -66 -86 -140q0 -64 54 -114.5t117 -50.5q29 0 69 16q44 17 56 38q5 10 11.5 21t15.5 11q12 0 13 -7
q0 -2 -1 -3q-1 -5 -1.5 -18.5t-0.5 -20.5q0 -46 28 -46q-1 0 43 6q23 83 38 221q20 176 28 224q2 10 21 90q13 55 14 92zM338 235q0 -39 -28 -71.5t-67 -32.5q-71 0 -71 72q0 18 12 57q13 44 26 44l8 -5l3 4q-6 1 41 1q76 0 76 -69zM315 231q0 25 -17.5 40.5t-42.5 15.5
q-30 0 -47 -29q-14 -24 -14 -56q0 -42 44 -42q30 0 53.5 21t23.5 50z" />
    <glyph glyph-name="e" unicode="e" horiz-adv-x="578" 
d="M536 295q0 -9 -2.5 -24l-3.5 -21q-37 12 -135 12q-13 0 -88 -2q-54 -1 -89 1q-11 -37 -11 -47q0 -36 51 -70q48 -31 86 -31q20 0 67 26q42 24 63 42l16 -8q0 -11 -5 -47q-4 -29 -4 -47q0 -23 6 -42q-6 -15 -19 -15q-142 0 -283 28.5t-141 172.5q0 98 93 172q88 69 189 69
q72 0 138 -48q72 -52 72 -121zM514 302q0 59 -67 101q-60 37 -123 37q-94 0 -172 -62q-85 -66 -85 -158q0 -66 31 -101t141 -56q88 -18 157 -18q27 0 61 13q2 16 1 30l-1 47q-75 -45 -111 -45q-45 0 -101 36q-61 40 -61 83q0 52 29 81q14 -11 35 -11q42 0 124 2.5t123 2.5
q19 0 19 18zM393 335q-13 -16 -67 -16q-63 0 -96 13q59 73 74 73q43 0 50 -10q20 -30 30 -38q2 -8 9 -22zM359 347v5q-36 24 -47 24q-12 0 -37 -29q30 -1 84 0z" />
    <glyph glyph-name="f" unicode="f" horiz-adv-x="527" 
d="M551 601q0 -17 -11.5 -50t-21.5 -46q-32 -1 -81 -11q0 9 6.5 26.5t6.5 27.5q0 39 -62 39q-38 0 -59 -38q-17 -32 -17 -73q0 -38 31 -38q5 0 19 1.5t22 1.5q94 0 94 -30v-121q-90 -8 -171 -1q-1 -8 -1 -17q0 -31 10.5 -91.5t10.5 -91.5q0 3 -7 -40q-20 -18 -76 -22
q-74 -5 -77 -5q0 42 6.5 127t6.5 126q-20 0 -61.5 -8.5t-64.5 -8.5q-35 0 -72 16q28 59 20 158q8 -2 61 -20q37 -12 63 -13q0 12 -2 42q-1 26 -1 41q0 90 62 164q65 79 153 79q25 0 51 -10q31 -13 36 -31q43 -8 78 -26q48 -25 48 -57zM523 594q0 28 -20 41q-12 8 -44 15.5
t-45 15.5q-16 14 -32 27q-13 8 -46 8q-46 0 -99 -39t-69 -83q-20 -56 -20 -147q0 -8 13 -49l-8 -18q-41 12 -122 36q-1 -42 -19 -109q5 -7 13 -7q36 0 95 8q74 10 94 11q-4 -37 -19 -110q6 -24 0 -142l66 2q42 5 42 35q0 22 -6 55q-9 44 -11 55q-6 53 -6 118q15 0 45 -4.5
t46 -4.5q13 0 39 2.5t39 2.5q-1 57 0 104q-19 2 -42 2q-22 0 -76 -4q-7 -7 -14 -7q-30 0 -30 72q0 55 26 90q30 40 82 40q34 0 56.5 -17.5t22.5 -47.5q0 -10 -3 -21q52 2 52 70z" />
    <glyph glyph-name="g" unicode="g" horiz-adv-x="608" 
d="M559 453q0 -38 -1 -30l-12 -15q-4 -108 -9 -216q-11 -181 -22 -190q-3 -35 -6 -71q-5 -42 -15 -69q-22 -55 -107 -73q-46 -10 -139 -10q-135 0 -179 26q2 19 29 110l18 8q8 -27 60 -49q46 -21 79 -21q42 0 64 46q3 4 28 81q2 5 13 24q8 14 8 25q0 8 -4 23t-4 23
q-16 -2 -47 -14t-48 -12q-79 0 -153 82t-74 162q0 14 11 41.5t20 38.5q22 25 107 54q81 28 119 28q122 0 131 -53q2 21 5 43.5t27 22.5q9 0 27.5 -4.5t27.5 -4.5q11 0 43 10q3 -8 3 -16zM527 435q-55 9 -61 9q-11 0 -14 -5v-7q2 -65 -29 -65q-16 0 -18 19q-4 28 -8 35
q-12 18 -50 18q-68 0 -167 -37q-119 -44 -119 -99q0 -56 57 -140q60 -90 113 -90q31 0 73 11q46 12 67 29l12 -12q0 -12 4 -36t4 -36q0 -15 -7 -21q-10 -9 -14 -18l-28 -94q-24 -66 -55 -66h-34q-33 0 -76 21.5t-62 23.5q-6 -22 -21 -51q25 -17 78 -21q14 -1 84 -1
q176 0 210 60q19 32 34 158q14 107 14 169q0 13 -2.5 40.5t-2.5 40.5q0 29 7 80q7 55 7 80zM349 220q0 -34 -41 -57q-35 -20 -72 -20q-70 0 -70 59q0 22 23 69q24 52 43 52q7 0 18 -7q15 -10 16 -11q46 -22 56 -30q27 -21 27 -55zM315 218q0 26 -28.5 53.5t-54.5 27.5
q-10 0 -26.5 -41.5t-16.5 -55.5q0 -35 48 -35q26 0 50 12q28 15 28 39z" />
    <glyph glyph-name="h" unicode="h" horiz-adv-x="584" 
d="M544 358q0 -92 -14 -138q-17 -52 -17 -95q0 -7 3.5 -21t3.5 -21q0 -12 -16 -28q-7 -1 -51 -11q-31 -7 -52 -7q-33 0 -72 19q0 17 23 72t23 91q0 82 -66 82q-42 0 -59 -79q-6 -54 -13 -108q-6 -25 -15 -76q-88 -26 -120 -26q-10 0 -28 2.5t-27 2.5v47q0 -6 7 24
q3 13 3 104q0 105 11 277q15 211 17 276q8 -14 14 -22l7 -3q24 0 73 7t74 7q37 0 68 -12q0 -23 -15 -58q-18 -45 -21 -58q-10 -46 -10 -130v-42h2q24 13 70 29q50 18 70 28q6 2 13.5 15t12.5 13q101 0 101 -161zM521 361q0 54 -11 78q-17 36 -64 36q-31 0 -84 -22t-73 -44
q-16 -17 -23 -17q-19 0 -19 24q0 100 10 174q3 17 17 60q13 37 14 60q-62 -5 -185 -14v-19q0 -62 -5 -148q-8 -132 -9 -148q-1 -26 -8 -92q-6 -58 -6 -92v-157l45 -1q44 0 80 19q19 83 19 133q0 43 27 85q30 48 70 48q39 0 62 -30t23 -71q0 -34 -14 -77l-28 -74q23 -8 38 -8
q12 0 33.5 4.5t31.5 4.5q8 13 18 13q4 0 8 -2v51q0 24 8 53l14 52q11 50 11 121z" />
    <glyph glyph-name="i" unicode="i" horiz-adv-x="308" 
d="M261 583q0 -35 -21 -55.5t-55 -20.5q-30 0 -52.5 18.5t-22.5 48.5q0 23 21.5 53t44.5 30q29 0 57 -23t28 -51zM242 585q0 20 -16.5 33t-38.5 13q-54 0 -54 -55q0 -17 16.5 -32.5t33.5 -15.5q23 0 41 17t18 40zM260 441q0 -20 -7 -53q-8 -39 -9 -53.5t-1 -113.5
q0 -33 -2.5 -98t-2.5 -95q-24 0 -72.5 -5t-73.5 -5q-14 0 -28 1q-16 25 -16 34q0 126 14 388q6 0 18 2.5t19 2.5q5 0 13.5 -2t13.5 -2zM233 421q-62 -5 -149 1q-14 -247 -14 -280q0 -58 14 -95h21q68 0 111 8q3 35 2 87q-2 95 -2 88q0 33 8.5 96.5t8.5 94.5z" />
    <glyph glyph-name="j" unicode="j" horiz-adv-x="607" 
d="M541 598q0 -28 -28.5 -49.5t-57.5 -21.5q-27 0 -47.5 21.5t-20.5 48.5q0 31 22 56.5t53 25.5q23 0 51 -29t28 -52zM513 604q0 19 -14 34.5t-32 15.5q-23 0 -39.5 -15t-16.5 -38q0 -21 14 -39t35 -18q22 0 37.5 19t15.5 41zM576 458q-2 -8 -8 -73q-3 -43 -20.5 -123
t-21.5 -119l-8 -142q-8 -83 -42 -133q-24 -34 -88 -59q-59 -23 -106 -23q-25 0 -91 17q-94 24 -116 65q-22 63 -44 125v20q9 4 55 14q33 7 49 25h24q-1 -10 -5 -32t-4 -34q0 -23 8.5 -31t29.5 -8q16 0 60 6q48 7 54 12q18 14 30 64q10 42 10 74q0 33 -5.5 99.5t-5.5 100.5
q0 140 61 140q12 0 35.5 -2.5t34.5 -2.5q36 0 114 20zM542 423h-29q-24 -16 -68 -18q-19 14 -40 14q-48 0 -48 -68q0 -40 2.5 -120.5t2.5 -120.5q0 -51 -10 -88.5t-11 -39.5q-8 -23 -23 -34q-29 -21 -149 -20h-18q-24 25 -24 66q0 11 2 23q-38 -13 -70 -20q2 -32 20 -79
q20 -54 42 -66q26 -15 79 -29t82 -14q58 0 113 29q61 31 81.5 79.5t27.5 127.5l12 130q13 85 17 124q8 69 9 124z" />
    <glyph glyph-name="k" unicode="k" horiz-adv-x="596" 
d="M554 423q-39 -21 -100 -77q-69 -64 -69 -95q0 -13 15 -26q12 -11 23 -22q20 -22 40 -67l32 -72v-21q-4 -1 -36 -10q-22 -6 -37 -6q-31 0 -94 11q-72 13 -83.5 26.5t-21.5 40.5l-16 44q1 -25 2 -75l-1 -22q-58 -6 -171 -25q0 22 -1 62q-1 44 -1 63q0 57 12 172t12 173v142
q0 12 4.5 36.5t4.5 38t23 23.5q-13 -175 -13 -385q0 -24 -9.5 -72.5t-9.5 -73.5v-146q43 4 129 9q0 14 -3 43t-3 44q0 27 7 52h24l20 -64q14 -41 28 -59q11 -13 68 -22q45 -7 77 -7q10 0 20 14l37 -5l1 5l-9 12q-13 50 -34 82l-36 48q-28 36 -28 44t71 87q82 93 85 97
q-19 1 -65 5q-42 3 -65 3q-24 0 -79 -61q-47 -51 -66 -85q-19 7 -19 21q0 45 52 203q14 39 29 79q18 50 20 80l-4 5q-173 14 -244 67q103 -36 281 -47v-25q-15 -7 -21 -32q-4 -20 -9 -40q-35 -109 -69 -240q8 9 25 14.5t26 20.5q21 35 28 42q18 22 43 22q29 0 82 -5
q57 -5 82 -5l14 41v-80z" />
    <glyph glyph-name="l" unicode="l" horiz-adv-x="339" 
d="M322 753q0 -11 -12 -29t-14 -25q-25 -86 -25 -336q0 -33 3 -99t3 -99q0 -101 -17 -133q-46 6 -84 6q-32 0 -131 -11q-16 45 -16 157q0 94 10 227q10 55 24 166q0 1 4 149q171 40 253 40q2 -8 2 -13zM289 743q-43 -1 -199 -34q1 -16 1 -34q0 -44 -15 -159
q-23 -168 -23 -312q0 -84 8 -148q130 11 179 5q9 47 11 106q2 40 0 106q-2 85 -2 106q0 3 10 127q2 54 11 162q9 24 19 75z" />
    <glyph glyph-name="m" unicode="m" horiz-adv-x="855" 
d="M806 70q-47 -25 -68 -25q-12 0 -75 25q11 55 21 60l7 -7q-1 22 -19.5 42.5t-39.5 20.5q-22 0 -44.5 -26.5t-22.5 -48.5q0 -3 13 -79q-157 0 -166 -1q-21 24 -21 46q0 10 4 31t4 32q0 64 -50 64q-43 0 -74 -45q-26 -41 -26 -86q0 -14 4 -22q10 3 10 -9q0 -22 -87 -35
q-56 -7 -111 -13l-12 15q5 82 5 211q0 191 -16 246q129 38 193 39v-141l1 -1q24 33 65 61q46 31 82 31q101 0 110 -146q30 48 82 91q61 50 107 50q29 0 74 -32.5t45 -60.5v-160q0 -9 -5 -26t-5 -26q0 -16 15 -75zM779 287q0 58 -8 83q-4 14 -36.5 35.5t-48.5 21.5
q-61 0 -112 -55q-31 -34 -68 -103q-29 -56 -38 -56q-7 16 -9 38q-1 15 1 41q1 32 1 39q0 49 -15 72q-19 28 -65 28q-25 0 -64 -24.5t-54 -46.5q-9 -20 -31 -59q-8 12 -17 12q0 18 -4 58q-3 37 -3 58q0 28 5 51q-88 -14 -137 -30q5 -429 5 -426q69 12 143 17q-2 11 -2 23
q0 60 35 109q39 55 96 55q70 0 70 -72q0 -12 -3 -35.5t-3 -35.5q0 -32 75 -32l58 2q-8 16 -8 37q0 31 21 72q24 46 53 46q41 0 72 -24.5t31 -64.5q0 -8 -13.5 -13.5t-13.5 -21.5q24 -9 36 -9q5 0 13 5t13 5q9 0 14 -12l9 3q-1 38 0 104q2 77 2 105z" />
    <glyph glyph-name="n" unicode="n" horiz-adv-x="643" 
d="M583 63q0 -10 -9 -22q-44 -8 -88 -15q-52 -8 -90 -8q-12 0 -18 13l1 19l7 5q0 17 9.5 49.5t9.5 49.5q0 117 -65 117q-46 0 -70 -79q-17 -56 -17 -117v-12l8 -14v-21q-8 -1 -60 -9q-36 -6 -59 -6q-12 0 -35.5 2.5t-34.5 2.5l1 38q0 13 -7.5 36.5t-7.5 33.5q0 14 4 37
q6 28 6 37q10 98 22 280q17 4 152 15l13 -106q25 41 96 64q58 18 118 18q36 0 68 -16q42 -21 42 -193q0 -69 -2 -90q0 -10 -5.5 -29t-5.5 -30q0 -17 8.5 -31.5t8.5 -18.5zM554 260q0 32 -6 89q-8 69 -18 80q-17 19 -61 19q-70 0 -127 -27q-66 -30 -90 -87l-19 13
q0 15 -4.5 45t-4.5 45q0 18 5 30q-27 1 -43 1q-13 0 -38 -5.5t-36 -5.5l-4 -6v-153l-12 -14q0 -11 1 -33t1 -32q0 -18 -4 -55t-4 -56q0 -67 11 -67q81 0 132 13q-3 19 -3 43q0 71 21 124q29 73 89 73q46 0 72 -48q21 -40 21 -89q0 -20 -9 -54q-11 -37 -13 -53h42
q62 -1 94 17q-7 13 -7 29q0 21 7 79t7 85z" />
    <glyph glyph-name="o" unicode="o" horiz-adv-x="646" 
d="M597 259q0 -42 -66.5 -134t-106.5 -106q-30 -10 -61 -10q-29 0 -71 10q-34 9 -69 18q-68 16 -121.5 77.5t-53.5 130.5q0 44 21.5 75t44.5 62q69 102 203 102q97 0 90 -37q66 -13 107 -53q34 -33 67 -100q16 -32 16 -35zM571 253q0 52 -34 97q-32 41 -83 62q-20 5 -58 20
q-18 11 -35.5 21t-43.5 10q-185 0 -246 -189q-5 -18 -5 -23q0 -28 22 -73.5t44 -68.5q33 -33 113 -57q72 -21 128 -21q9 0 43 12q31 11 42 17q25 15 43 52q27 57 31 62q39 58 39 79zM412 218q0 -36 -34.5 -60.5t-72.5 -24.5q-33 0 -62.5 25t-29.5 58q0 36 29.5 73.5
t64.5 37.5q25 0 65 -42t40 -67zM387 218q0 27 -28.5 55.5t-55.5 28.5q-31 0 -49 -32q-15 -26 -15 -59q0 -17 19 -37t36 -20q37 0 62 14q31 17 31 50z" />
    <glyph glyph-name="p" unicode="p" horiz-adv-x="682" 
d="M642 299q0 -13 -3.5 -37t-3.5 -37q0 -80 -25 -125q-26 -49 -95 -85q-95 -49 -144 -49q-37 0 -75 16q-41 17 -60 45q-12 -40 -15.5 -126.5t-17.5 -128.5h-166v127q0 41 6 100q5 50 11 99q12 132 30 396q15 -15 32 -15q7 0 18 5q16 7 17 7q22 7 73 6h28l11 -13
q2 -36 16 -107q68 42 83 49q44 21 93 21q58 0 96 -21.5t71 -70.5q20 -30 20 -56zM619 297q0 57 -60 95q-52 32 -114 32q-40 0 -83 -23q-30 -16 -62 -45q-28 -23 -29 -23q4 0 -16 4q-9 47 -19 137h-51q-12 0 -33.5 -9t-32.5 -9q-10 0 -9 9l-9 -4v-152q0 -53 -18 -155
t-18 -154v-200q26 -4 69 -4q44 0 51 7l16 146q9 85 21 146h15l8 -10q12 -92 129 -92q19 0 48 11q33 12 47 14q4 12 29 21q35 13 38 15q36 23 63 84q9 20 11 46q2 18 0 48q-2 36 -2 48l1 24l8 -17zM501 194q0 -77 -143 -77q-67 0 -67 59q0 30 32.5 80t61.5 50q7 0 14 -7
l12 -11l56 -22q34 -19 34 -72zM476 214q0 29 -26 44q-22 13 -53 12q-7 9 -15 9q-18 0 -40.5 -40.5t-22.5 -60.5q0 -38 61 -38q36 0 64 18q32 21 32 56z" />
    <glyph glyph-name="q" unicode="q" horiz-adv-x="684" 
d="M633 455l-2 -7q-9 -8 -23 -30q-47 -124 -47 -577q0 -14 -18 -27q-37 -7 -75 -14q-44 -8 -75 -8q-35 0 -44 13q-7 9 -7 45q0 31 15 86q15 60 17 86l-4 4h-106q-81 0 -149 47q-76 53 -77 130l-1 43q-1 29 6 53q19 60 133 113q103 47 176 47q66 0 111 -32q8 48 77 48
q6 0 43 -3q25 -1 42 1q8 -8 8 -18zM590 445q-30 8 -47 8q-15 0 -38 -5l-15 -11q-1 -31 -28 -49q-24 52 -131 52q-44 0 -142 -48q-101 -51 -118 -87q-14 -30 -14 -93q0 -5 13 -44q42 -120 263 -120q11 0 32 6t32 6l5 -11v-37q0 -26 -16 -79t-16 -82q0 -35 18 -35q31 0 73 10
q35 9 71 18q0 5 6 23q4 14 4 23q0 22 -1 65v65q0 52 8 106q14 91 14 98q4 57 8 113q6 73 19 108zM426 263l-28 8l-5 -6q0 -19 12.5 -51t12.5 -48q0 -20 -13 -44q-15 -27 -34 -27h-28q-57 0 -100 32q-46 35 -46 90q0 38 16 72q21 43 55 43q80 0 158 -69zM398 173q0 12 -8 19
q-11 8 -13 13q2 26 2 36q0 67 -73 67q-7 0 -17 -3q-9 -11 -19 -11q-9 0 -11 10q-16 -2 -30 -36q-13 -29 -13 -49q0 -1 11 -12l1 2q1 -33 37 -60t69 -27t58 23q6 25 6 28z" />
    <glyph glyph-name="r" unicode="r" horiz-adv-x="511" 
d="M479 494q0 -45 -19 -105q-18 -51 -36 -101q-12 1 -24 1q-123 0 -164 -109q-1 -4 -8.5 -7t-7.5 -23q0 -66 10 -118q-27 0 -83 -5t-84 -5q-31 0 -31 34q0 37 9 110t9 109v99q0 62 -6 77q37 16 95 25q49 7 98 15l1 -21q0 -11 -3 -30q-3 -22 -4 -30l5 -10q51 74 177 74
q18 0 37 -1l4 21h25zM450 440q0 16 -26 16q-42 0 -92 -19q-56 -21 -76 -51q-5 -17 -18 -48l-13 7q-12 23 -14 44v44l-1 28q-38 -4 -77 -8q-60 -9 -60 -26q0 -18 3 -54.5t3 -54.5q0 -52 -7 -132q-11 -117 -12 -133q15 -3 38 -3q35 0 100 9q-5 11 -5 28q0 35 19 104
q14 50 54 76q25 16 76 28q45 11 57.5 22.5t31.5 57t19 65.5z" />
    <glyph glyph-name="s" unicode="s" horiz-adv-x="605" 
d="M568 485q-17 -39 -33.5 -79t-16.5 -83l-10 -18q-43 52 -48 56q-29 27 -66 27q-43 0 -43 -50q0 -22 32 -57q45 -52 59 -74q31 -53 31 -117q0 -38 -98 -54q-57 -9 -130 -9q-2 0 -29 7q-52 12 -104 25q-73 23 -73 61q0 18 6.5 53t7.5 53q5 9 12 18t14 10q2 -57 52 -95
q46 -34 106 -34q33 0 56 13q28 16 28 47q0 20 -16.5 27t-33.5 13q-160 88 -160 215q10 16 93 41q78 22 106 22q13 0 38.5 -4.5t38.5 -4.5q19 0 56.5 7t56.5 7q40 0 68 -23zM539 480q-37 9 -72 9q-13 0 -36 -9t-33 -9q-14 0 -42.5 4.5t-43.5 4.5q-29 0 -99 -20
q-79 -23 -79 -43q0 -53 56 -102q52 -37 103 -73q56 -41 56 -77q0 -61 -81 -61q-156 0 -194 63q-12 -35 -12 -45q0 -27 86 -49q70 -18 110 -18q32 0 91 6q68 8 84.5 17.5t16.5 26.5q0 47 -33 96q-5 7 -61 74q-33 39 -33 63q0 29 22.5 52t51.5 23q47 0 94 -45l30 54
q17 33 18 58z" />
    <glyph glyph-name="t" unicode="t" horiz-adv-x="552" 
d="M515 49q-15 3 -27 3q-14 0 -40.5 -8t-40.5 -8q-7 0 -23 13q-19 16 -23 18q-44 19 -89 38.5t-65 45.5q-26 33 -26 94q0 24 9 55q-50 16 -142 15q-1 32 -3 64t-14 63q59 6 154 7q5 12 6 47q2 49 2 52l-9 8l-1 8q0 4 2.5 12t2.5 12q0 7 -4 16q7 18 7 19q0 8 -8 14v12
q24 17 78 17q96 0 92 -1l2 -227q40 0 96 11q19 -116 19 -140q-48 -4 -99 -1v-44q0 -22 21 -57q23 -39 42 -39q2 0 12.5 7t17.5 7q8 0 23.5 -3t23.5 -3q0 -8 -2.5 -24.5t-2.5 -24.5q0 -13 4.5 -39t4.5 -39zM487 82q-5 44 -1 74q-40 -7 -49 -7q-45 0 -72 49q-21 41 -21 90
q0 32 10 46q25 -3 49 -3q20 0 40 2v36q0 10 -4.5 27t-4.5 24q-34 -4 -102 -11l-2 2q-1 -1 -1.5 -2.5t-2.5 -1.5l-7 16q9 24 9 82q0 19 -2 64q-1 41 -1 64q-52 6 -82 6q-17 0 -32 -1q8 -50 8 -132q0 -14 -4.5 -43t-4.5 -44q-46 4 -80 4q-32 0 -60 -3q1 -70 1 -77
q41 -5 123 -11q13 -7 19 -15q-7 -37 -7 -64q0 -62 34 -98q23 -23 80 -48q66 -29 92 -48q13 1 37 10q31 11 38 13z" />
    <glyph glyph-name="u" unicode="u" horiz-adv-x="612" 
d="M571 464q0 -9 -9 -22q-10 -16 -12 -22q-2 -9 -2 -47q0 -28 -6 -49l-30 -126q-21 -75 -54 -113q-43 -50 -114 -50q-21 0 -98 17q-96 20 -150 87t-54 165q0 23 5 67t5 66q0 23 -12 29v24q11 1 33.5 3.5t34.5 2.5q28 0 84 -15q66 -16 66 -33q0 -24 -15.5 -67t-15.5 -67
q0 -35 31 -78q33 -46 67 -46q39 0 67 51q24 44 24 87q0 40 -28 83.5t-30 64.5q34 3 76 3q21 0 63.5 -1t63.5 -1q10 0 10 -13zM537 449l-147 4q47 -75 47 -133q0 -51 -32 -101q-36 -56 -83 -56t-84 55q-35 50 -35 99q0 26 10 63q8 31 17 62q-16 9 -53.5 19.5t-54.5 10.5
q4 0 -41 -5q-17 -102 -17 -149q0 -111 52 -170q49 -57 158 -77q64 -12 74 -12q15 0 50.5 11.5t44.5 20.5q15 15 47 120q30 99 34 133q0 32 4 95z" />
    <glyph glyph-name="v" unicode="v" horiz-adv-x="695" 
d="M667 401q-12 -10 -41 -57q-48 -68 -97 -136q-48 -74 -45 -160q-17 2 -34 2q-20 0 -59 -3t-59 -3q-37 0 -69 35q-26 32 -51 64q-70 82 -101 129q-47 70 -72 148q122 22 162 22q44 0 59 -27q11 -32 21 -65q7 -19 54 -86l22 86q18 60 38 73q12 8 51 8q33 0 98.5 -6.5
t97.5 -6.5q15 0 25 -17zM625 399h-34q-15 0 -42.5 -5t-41.5 -5l13 12q-27 3 -75 3q-43 0 -61 -50q-6 -16 -17 -93q-8 -51 -27 -53l-39 51q-22 31 -32.5 56.5t-19.5 51.5q-15 39 -23 44.5t-28 5.5q-41 0 -130 -18v-10q13 -20 33 -61t31 -60q21 -33 99 -111q84 -86 107 -86
q20 0 59.5 2.5t58.5 2.5q3 60 34 119q18 34 67 99.5t68 104.5z" />
    <glyph glyph-name="w" unicode="w" horiz-adv-x="814" 
d="M789 379q-69 -55 -105 -116q-23 -39 -49 -118q-30 -89 -54 -138q-22 11 -117 28q-89 16 -99 26.5t-12 34.5q1 -17 1 39q0 21 -4 32q-18 -19 -40 -79q-16 -45 -32 -89q-9 1 -61 10q-37 6 -61 6q-26 0 -36 -8l-20 14q-13 116 -39 262q-10 40 -19 81q-11 49 -11 83
q25 5 194 24q1 -8 4 -90q3 -57 20 -85q8 19 76 131q13 -4 32 -4q25 0 73.5 6t72.5 6q12 -7 12 -18q0 -10 -7.5 -32t-7.5 -34q0 -25 7 -52q2 5 16 67q9 41 32 57q10 6 72 12q52 5 78 5q7 0 84 -39v-22zM757 387q-2 26 -102 26q-86 0 -101 -27q-1 -2 -21 -86q-17 -68 -35 -68
q-11 0 -11 29q0 24 -4 74t-4 76q-40 -2 -118 -14q-32 -9 -59 -47t-30 -73q-2 -16 -4 -21q-5 -9 -18 -12q-31 42 -39 98q-4 52 -8 105q-45 -8 -151 -17l-1 -7q0 -30 15 -77q20 -60 23 -75q23 -121 33 -226q4 0 59 -8q35 -5 59 -5q27 0 41 31q8 27 16.5 55t55.5 74h14
q8 -21 11 -53l4 -54q32 -19 88 -26q89 -12 92 -13q40 91 79 182q48 98 116 159z" />
    <glyph glyph-name="x" unicode="x" horiz-adv-x="696" 
d="M655 426q-11 -8 -36.5 -19t-37.5 -21q-18 -16 -65 -72q-51 -61 -51 -74q0 -4 10 -18q14 -18 15 -19q20 -32 44 -92q19 -48 39 -96q-2 -12 -16 -12q-56 0 -142 22q-108 28 -108 66q0 8 3 23t3 23t-2 15q-9 -13 -33 -63q-19 -40 -37 -59q-6 1 -13 7q-10 9 -12 10
q-25 15 -96 15q-32 0 -80 -5v24l80 68q47 40 72 75q-68 59 -94 88q-56 64 -54 109l1 18l13 10q15 1 56 6q36 5 57 5q2 0 38 -7q33 -48 96 -145q26 37 26 89q0 14 -2 26q16 22 47 25q44 5 52 8q31 13 32 13q6 0 186 -14l9 -8v-21zM609 432q-60 13 -113 13q-80 0 -139 -30
q-3 -36 -14 -82q-15 -66 -29 -66q-30 0 -124 163q-28 6 -32 6q-12 0 -39 -7t-42 -5l4 -11q0 -3 -2 -10.5t-2 -11.5q0 -34 74.5 -98.5t74.5 -63.5q0 -14 -63 -71l-80 -72q87 -1 152 -18q58 132 92 132q5 -31 5 -38q0 -8 -2 -23t-2 -23q0 -12 2 -20q9 -41 206 -64v15
q0 8 -49.5 102l-49.5 94q0 23 74 96q49 47 98 93z" />
    <glyph glyph-name="y" unicode="y" horiz-adv-x="716" 
d="M703 419q-7 -15 -25 -31q-11 -4 -21 -12q-94 -74 -179 -185t-135 -225q-9 -14 -29 -42q-55 -80 -86 -155q-29 19 -43.5 22.5t-50.5 3.5q-62 0 -97 -11l-7 20q57 56 86 97q31 46 58 116q23 17 60 100q-23 17 -68 53q-39 34 -87 91q-62 73 -62 100v26l6 -2l-6 22
q134 44 219 67q9 -13 64 -128q10 -20 47 -74q30 41 59 83q39 59 39 87q0 8 -4 14l8 18q54 -17 164 -41q30 -2 90 -14zM648 407l-8 1q-5 0 -16 -2t-17 -2q-27 0 -67 12q-56 17 -66 19q-9 -23 -31 -69q-8 -15 -30.5 -41.5t-30.5 -40.5q-6 -20 -21 -58h-24q-3 18 -18 42
q-13 20 -27 39q-17 39 -34 79q-28 59 -47 59q-37 0 -181 -63q10 -8 23 -32q10 -18 19 -36q79 -125 203 -188q-28 -41 -64 -108q-56 -104 -59 -111q-11 -19 -38 -43q-32 -29 -41 -41h6q7 -1 18.5 1.5t17.5 2.5q29 0 98 -15q4 6 24 46q11 21 45 60.5t44 62.5l-3 10q0 12 36 69
q111 175 289 347z" />
    <glyph glyph-name="z" unicode="z" horiz-adv-x="581" 
d="M541 92q0 -4 -1 -20q-1 -12 0 -20q-12 -29 -33 -30q-13 7 -80 18q-63 10 -86 10q-6 0 -11 -11q-120 -14 -248 -14q-3 9 -3 19q0 29 33 97q7 15 89 91q73 68 103 93q-34 7 -128 4q-81 -2 -126 15q15 77 15 83q0 14 -5 21q34 13 115 13q48 0 166 -8q106 -7 166 -5v-14
q2 -70 -30.5 -134t-90.5 -101q-23 -15 -50 -50q101 11 160 11q26 0 35 -15q1 -8 5.5 -25.5t4.5 -27.5zM519 85q0 38 -19 51q-29 0 -88 -6t-89 -6q-26 0 -35 19q20 24 65 65q49 34 90 89q47 65 46 115l-6 9q-277 16 -316 16q-40 0 -78 -2q-1 -10 -5 -33.5t-4 -36.5l1 -3
l10 -7h136q13 0 40.5 -4.5t40.5 -4.5q25 0 53 11v-27q-153 -84 -224 -197q-2 -3 -19 -22t-17 -20q0 -25 4 -40q37 -4 33 -4q38 0 113 8t113 8q23 0 67 -6t66 -6t22 34zM101 90l5 3l13 1q-10 0 -18 -4z" />
    <glyph glyph-name="braceleft" unicode="{" horiz-adv-x="428" 
d="M394 94q0 -14 -18.5 -38t-31.5 -24h-45q-42 0 -65 14q-19 12 -44 49q-6 6 -16 20q3 57 3 75l-1 47q-5 6 -15 19l1 12q0 37 -38 58q-33 18 -72 16q4 41 -1 60q19 12 48 15.5t39 9.5q17 11 25 46q6 29 6 24q0 22 -9 64t-9 64q0 123 137 123q35 0 85 -31q8 -19 8 -54t-8 -58
q-22 7 -39 7q-52 0 -52 -84q0 -11 1 -30.5t1 -25.5q0 -84 -31 -114q16 -13 42 -44q0 -16 -1 -50t-1 -51q0 -37 26 -59q7 -6 49 -29q26 -14 26 -31zM370 96q-9 6 -29.5 12t-29.5 13q-18 12 -31 54q-11 35 -11 63q0 35 17 51q-13 16 -27 32q-19 22 -30 22l-12 -9
q-11 12 -11 26q0 9 5 20q7 -13 15 -13q13 0 38 52q-8 64 -8 102t24 106q23 2 47 3q31 5 31 26q0 15 -6 44q-34 20 -93 20q-84 0 -84 -89q0 -28 11 -84t11 -84q0 -33 -36 -50q-7 -3 -63 -19q-14 -4 -14 -8v-20q37 -16 73 -32q26 -17 31 -73l11 -11q-1 -38 -2 -113v-17
q5 -3 39 -43q22 -26 57 -26q7 0 19 6.5t19 6.5q12 0 13 -9q9 2 26 41z" />
    <glyph glyph-name="bar" unicode="|" horiz-adv-x="243" 
d="M198 743q0 -10 -7 -28q-7 -22 -9 -28q-18 -86 -18 -233q0 -45 8.5 -134.5t8.5 -133.5q0 -12 -7 -21v-39q1 -125 -11 -261q-15 -6 -17 -6q-10 0 -40 12t-39 19v114q1 80 -1 221q-2 156 -2 221q0 30 2.5 88.5t2.5 88.5q0 51 -5 79l1 2l-4 1q1 31 20 32l11 -4q15 1 48 15
q30 12 51 12q7 -7 7 -17zM172 735q-27 -8 -81 -22l-1 -102v-639q0 -8 3 -22.5t3 -22.5q0 -9 -4 -23q24 -9 38 -9l10 4q15 243 15 254v162q0 25 -6 75t-6 75q0 188 19 233q5 11 10 37z" />
    <glyph glyph-name="braceright" unicode="}" horiz-adv-x="457" 
d="M417 327q-30 -9 -61 -17q-36 -13 -52 -33q-11 -12 -13 -36q-1 -20 -3 -40l-10 -13q-1 -17 -17 -126q-86 -39 -109 -39q-18 0 -52.5 13t-42.5 27q-4 16 -16 47v28q6 -1 16.5 -5t15.5 -4q45 0 62 7q27 12 27 51q0 14 -2 42t-2 42q0 17 1 35q39 5 79 36q-38 39 -44 47
q-17 25 -17 61q0 12 1 28l3 1l-4 10q0 7 7.5 20.5t7.5 20.5q0 8 -18 8q25 48 25 61q0 29 -39 42q-28 10 -65 10q1 9 4 33q3 21 3 33q0 21 -12 35l27 1q13 0 20 -8h6q41 1 95 -41q43 -33 74 -76q-2 -11 -1 -27q2 -23 2 -28q0 -24 -9 -72.5t-9 -72.5q0 -53 50 -53q26 0 67 12
q2 -20 5 -60zM387 348l-2 7q-16 -4 -30 -4q-28 0 -72 25l-6 -3l-12 -22q2 31 14 115q11 73 11 114l-2 4q-8 3 -6 12q8 3 8 14q0 22 -55.5 68t-78.5 46h-28q-2 -16 -5 -50l66 -18q38 -16 38 -48q0 -26 -11 -76t-11 -76q0 -37 13 -57q4 -7 22 -23q12 -9 9 -23l6 4l4 -6
q0 -23 -30 -41q-25 -12 -50 -25q7 -35 7 -79q0 -74 -24 -86q-44 -7 -87 -15q4 -12 4 -28q36 -26 55 -26q10 0 49 7.5t44.5 11t25.5 103.5q21 104 35 125.5t44 33.5q27 8 55 16zM248 350l-1 -1v0v0v0z" />
    <glyph glyph-name="asciitilde" unicode="~" horiz-adv-x="628" 
d="M590 322l-27 5q-41 -59 -121 -59q-40 0 -90 36t-84 36q-42 0 -87 -29t-67 -68l-31 -7q-7 20 -17 61q-1 32 -12 81q-10 19 -10 23q0 23 66 73q62 47 91 54q44 11 77 11q53 0 89 -28q13 -10 48 -52q24 -28 45 -28q45 0 82 35h27q3 -48 21 -144zM560 356q0 13 -13 80
q-59 -28 -87 -28q-34 0 -59 29q-45 52 -47 54q-36 29 -97 29q-40 0 -108 -44q-72 -47 -72 -84q0 -77 21 -120q89 91 175 91q36 0 88.5 -36t87.5 -36q23 0 65 21q46 24 46 44z" />
    <glyph glyph-name="exclamdown" unicode="&#xa1;" horiz-adv-x="385" 
d="M340 534q0 -35 -21.5 -56.5t-56.5 -21.5q-32 0 -58 19.5t-26 51.5q0 28 28 44q23 14 53 14q81 0 81 -51zM316 531q0 30 -53 30q-57 0 -57 -37q0 -18 19 -34.5t38 -16.5q18 0 35.5 20.5t17.5 37.5zM330 353q-3 -44 -27 -217q-18 -134 -15 -218l-8 -5l10 -2l-19 -3l-3 -1v1
q-107 -14 -139 -14q-40 0 -105 9q59 97 84 239q18 126 37 251q32 -14 92 -22q67 -9 93 -18zM308 321q0 22 -32 22q-7 0 -20 -1t-17 -1q-14 0 -40 8.5t-39 9.5l-30 -220q-22 -127 -67 -210v-7q49 -11 69 -11q16 0 47.5 4.5t47.5 4.5q18 0 41 -4v124q0 1 10 55q30 156 30 226z
" />
    <glyph glyph-name="cent" unicode="&#xa2;" horiz-adv-x="543" 
d="M520 520q0 -12 -23.5 -45t-22.5 -67h-29l1 4q1 21 -36 40q-32 17 -56 17q-66 0 -119 -29q-63 -36 -63 -96q0 -41 54 -77q49 -34 91 -32h4v1q30 2 68 19q42 19 57 40q0 -40 -24 -159q-36 3 -83 4q-3 -67 -10 -132q-15 -5 -17 -5q-11 0 -41 9.5t-40 15.5l1 116
q-83 14 -137 65q-59 55 -59 136t60 141q53 53 137 78q1 24 1 43q0 40 -6 62l2 2l-4 1q1 25 21 25l10 -3q15 1 48 11t52 10q7 -6 7 -13q0 -8 -6 -22q-8 -18 -9 -22q-8 -29 -14 -79h47q32 -1 46 -1q20 0 54 -19q38 -21 38 -39zM492 516q0 17 -32 31q-27 12 -48 12h-58
q-12 0 -44 -4q2 42 4 57q4 37 14 55q5 8 10 29q-27 -7 -82 -17q-1 -53 -1 -134q-200 -59 -200 -206q0 -12 16 -49q26 -60 74 -88q39 -23 111 -34v-75q0 -6 2.5 -17.5t2.5 -17.5q0 -8 -4 -18q25 -8 39 -8l10 3l12 129h21q21 2 62 1q6 25 14 75q-68 -24 -95 -24q-53 0 -109 34
q-64 38 -64 88q0 66 71 114q64 43 133 43q36 0 105 -44q2 6 20 34q16 25 16 31z" />
    <glyph glyph-name="sterling" unicode="&#xa3;" horiz-adv-x="691" 
d="M676 19q-21 4 -38 4q-11 0 -32.5 -5.5t-32.5 -5.5q-14 0 -44 3t-46 3q-23 -1 -61 0h-60q-28 0 -78.5 -6.5t-67.5 -6.5q-6 0 -62 9t-60 10q6 68 11 135q7 80 21 133q-30 2 -51 8q-24 7 -47 14q-12 24 -12 47q0 21 14 45h97h14l54 138q37 85 80 128q55 56 130 56
q83 0 159.5 -71t85.5 -153l-124 9l-3 22q-4 26 -50.5 58t-74.5 32q-32 0 -64 -48q-29 -44 -29 -79q-9 -11 -13 -45q-3 -24 -5 -48h7q11 0 31 7.5t31 7.5q8 0 34 -9q13 -28 13 -46q0 -7 -6.5 -21.5t-4.5 -33.5q-39 -1 -115 -10l-5 -139l7 -7q62 4 188.5 2t189.5 1
q8 -46 19 -138zM645 47q-3 29 -7 86q-316 -13 -335 -13q-36 0 -67 3l10 82q6 51 6 83q0 20 -2 36q37 1 110 8q1 9 11.5 22t10.5 21t-10 22q-59 -9 -87 -9h-26q2 29 15 87q34 88 44 106q37 65 84 65q34 0 87 -38q56 -41 56 -73l80 -7q0 62 -80 123q-76 59 -140 59
q-73 0 -133 -71q-52 -60 -70 -140q-5 -20 -19 -49q-10 -21 -14 -61q-137 -5 -130 -5q0 -16 5 -50q42 -21 115 -18l-2 -25q-3 -24 -19 -110q-15 -77 -15 -102q0 -12 5 -32l13 1q19 1 54.5 -7t51.5 -8q9 0 16 1v1l6 10q20 2 41 2q26 0 77.5 -3.5t77.5 -3.5q65 0 98 -3
q13 8 63 10h19z" />
    <glyph glyph-name="yen" unicode="&#xa5;" horiz-adv-x="655" 
d="M629 719q-16 -42 -115.5 -151.5t-132.5 -194.5q-5 -12 -6 -68l3 -8q12 0 34 8t34 8q7 0 34 -9q12 -28 12 -46q0 -6 -6 -21t-5 -34q-29 -1 -99 -9v-10q1 -111 -12 -175q-119 8 -125 8q-8 1 -9 -1l7 -5q-2 -3 -9 -3q-12 0 -18 14v16q0 66 5 143q-23 2 -53 11q-25 8 -51 15
q-12 25 -12 47q0 21 15 46q37 3 111 7v12q1 10 -12.5 40t-21.5 41q-97 140 -139 221q-16 32 -16 35v42h21q27 -1 65 17q44 21 63 25q58 -105 109 -253q36 52 73 105q56 82 56 101q0 4 -3 27q18 1 57 8q35 7 58 7q18 0 44 -6q39 -9 44 -10zM585 702q-14 1 -32 1q-77 0 -99 -5
q-3 -28 -137 -245q-8 -13 -20 -16q-19 35 -58 139q-34 89 -66 135q-16 -4 -44 -22q-21 -14 -46 -14q-4 0 -22 4l2 -18q12 -5 20 -29q6 -19 12 -37q8 -22 86 -124q70 -93 69 -116v-49l4 -24q-134 -5 -126 -5q0 -16 5 -49q42 -22 116 -19q-5 -79 -5 -149q0 -25 25 -25
q6 0 20 2t20 2q11 0 32 -6q21 28 21 86q0 22 -8 99q59 2 95 7q2 9 12 22t10 21t-9 22q-60 -9 -107 -9q0 53 7 123q34 73 101 157q61 70 122 141z" />
    <glyph glyph-name="brokenbar" unicode="&#xa6;" horiz-adv-x="233" 
d="M196 759l-15 -27q-18 -42 -18 -113q0 -22 8.5 -65t8.5 -65q0 -5 -8 -10l1 -21q1 -89 -44 -89q-23 0 -64 17l1 53q0 32 -1 88q-2 62 -2 88q0 15 2.5 43t2.5 43q0 24 -6 38l2 1l-4 1q0 11 11 13q-1 0 19 0q17 0 49.5 6.5t49.5 6.5zM170 755q-26 -4 -80 -10l-1 -53v-266
q0 -4 3 -11t3 -11q0 -3 -5 -11q14 -2 24 -2q28 0 36 23q3 12 3 48v90q0 12 -5.5 36t-5.5 36q0 91 18 113q5 5 10 18zM171 -38q0 -76 -16 -94t-90 -18h-20l-7 8q8 17 17 34q16 34 16 66q0 24 -8.5 70t-8.5 70q0 5 7 10v18q0 61 11 127q15 3 17 3q41 0 80 -15l-1 -56
q-1 -40 1 -112q2 -78 2 -111zM139 223q0 3 5 11q-26 4 -39 4l-10 -2q-15 -117 -15 -122v-59q0 -17 6 -51t6 -52q0 -34 -14 -62l-14 -28q25 1 51 2q31 4 31 29v154q-1 124 -1 154q0 4 -3 11t-3 11z" />
    <glyph glyph-name="section" unicode="&#xa7;" horiz-adv-x="654" 
d="M693 610q0 -4 -42 -34q-45 -32 -51 -41q-13 39 -123 60q-78 15 -151 15q-20 0 -26 -3.5t-6 -22.5q0 -45 77 -79q72 -27 143 -54q77 -37 77 -89q0 -55 -71 -145q46 -26 57 -41q17 -22 17 -67q0 -82 -62 -127q-56 -39 -141 -38l-48 1q-93 1 -201 54q-32 12 -65 24
q-43 19 -43 45q0 3 43.5 34.5t49.5 40.5q13 -40 123 -61q78 -14 151 -14q20 0 26 3.5t6 22.5q0 45 -76 77l-140 54q-75 35 -75 88q0 32 34 75l56 66q-68 36 -73 40q-26 23 -26 75q0 82 63 126q55 39 140 38h48q93 -1 201 -55q33 -12 65 -23q43 -19 43 -45zM646 618
q0 19 -44 27q-49 8 -57 25q-45 14 -89 28q-53 15 -91 15q-212 0 -212 -138q0 -78 106 -114q-26 -27 -58 -74q-40 -59 -40 -82q0 -39 76 -70q70 -27 140 -53q76 -34 76 -82q0 -32 -12 -44t-44 -12q-80 0 -152 12q-108 16 -123 51q-1 -2 -27 -21q-21 -14 -21 -22q0 -19 44 -27
q49 -9 57 -25q45 -14 89 -28q52 -16 91 -16q212 0 212 138q0 73 -83 106q18 19 49 79.5t31 81.5q0 40 -77 72q-71 27 -143 54q-77 35 -77 82q0 33 11.5 44.5t44.5 11.5q79 0 152 -11q108 -17 122 -52q2 2 28 21q21 15 21 23zM431 342q0 -28 -30 -52q-12 -10 -53 -33
q-16 13 -33 26q-20 17 -20 35q0 24 34 49q25 20 51 39q16 -13 33.5 -28t17.5 -36zM396 328q0 7 -5.5 20t-4.5 20q-50 -26 -50 -33q0 -13 13 -38q14 5 30.5 12t16.5 19z" />
    <glyph glyph-name="dieresis" unicode="&#xa8;" horiz-adv-x="443" 
d="M474 942q0 -51 -35.5 -93t-85.5 -42q-64 0 -64 92q0 41 32.5 70.5t74.5 29.5q34 0 75 -32q3 -12 3 -25zM457 929q0 49 -56 49q-37 0 -64 -24.5t-27 -60.5q0 -64 45 -64q26 0 51 16l-3 8q0 2 12 14t14 24q20 10 24 14.5t4 23.5zM208 887q0 -24 -35.5 -45t-61.5 -21
q-31 0 -59.5 35t-28.5 67q0 31 24 52.5t56 21.5q37 0 71 -36t34 -74zM186 897q0 23 -30 51t-53 28q-55 0 -55 -53q0 -29 19.5 -55t47.5 -26q24 0 47.5 16.5t23.5 38.5z" />
    <glyph glyph-name="copyright" unicode="&#xa9;" horiz-adv-x="709" 
d="M651 295q0 -121 -86 -186q-78 -59 -203 -59q-122 0 -211 55q-105 65 -105 180q0 109 65 201q71 103 175 103q124 0 162 -15l64 -24q37 -15 61 -32q78 -53 78 -223zM622 295q0 153 -83 216q-73 55 -233 55q-93 0 -161 -88q-63 -82 -63 -177q0 -134 83 -185q65 -40 208 -40
q249 0 249 219zM513 426q-18 -21 -36 -41q-12 -15 -26 -54q-1 0 -29 25q-11 10 -35 10q-33 0 -53.5 -23.5t-20.5 -55.5q0 -29 16.5 -47t44.5 -18q23 0 35 21q9 20 17 40q15 -2 40 -47t25 -58q0 -27 -65 -45q-50 -14 -88 -14q-52 0 -75 12q-112 62 -112 145q0 99 62 162
t160 63q136 0 140 -75zM489 431q-7 16 -20 36q-3 3 -44 9t-51 6q-82 0 -140.5 -54t-58.5 -136q0 -59 46 -105.5t106 -46.5q-6 0 50 3l7 5q81 4 81 38q-10 19 -31 56q-19 -39 -61 -39q-33 0 -58.5 22t-25.5 55q0 46 27.5 76.5t73.5 30.5q30 0 52 -17q13 26 47 61z" />
    <glyph glyph-name="ordfeminine" unicode="&#xaa;" horiz-adv-x="449" 
d="M390 589q0 -46 -10 -111q-9 -54 -18 -109q-12 2 -54 2q-33 -1 -53 7l-7 17q-72 -26 -87 -26q-35 0 -72 32.5t-37 66.5q0 13 27 74q24 51 109 51q16 0 46 -1.5t41 -1.5l1 -1l1 6q0 21 -13 40.5t-33 19.5q-122 0 -146 -48h-18v71q0 9 6.5 24.5t7.5 23.5q52 33 105 33
q25 0 77 -5q61 -7 71 -13q6 -7 18 -19q31 -33 31 -48v-82h5zM370 544v117q0 22 -20.5 42.5t-43.5 20.5q-16 0 -47.5 9t-47.5 9q-59 0 -84 -10q-41 -16 -40 -65l1 -20q14 13 62 23q39 7 68 7q36 0 55 -26.5t17 -62.5l-1 -15l-10 -8q-13 11 -59 11q-89 0 -101 -10t-31 -46.5
t-19 -49.5q0 -29 31 -56t60 -27q7 0 39 10l42 14q7 8 12 8q3 0 15 -3v-26q19 -1 38 -1q21 0 42 5q0 1 14 75q8 45 8 75zM251 486q0 -20 -21 -36.5t-42 -16.5q-18 0 -32.5 12t-14.5 30q0 22 23.5 38.5t46.5 16.5q16 0 28 -13.5t12 -30.5zM234 489q0 7 -8.5 17t-14.5 10
q-13 0 -33 -13t-20 -25q0 -7 8.5 -17.5t14.5 -10.5q18 0 35.5 11.5t17.5 27.5z" />
    <glyph glyph-name="guillemotleft" unicode="&#xab;" horiz-adv-x="446" 
d="M397 103q-7 -7 -33.5 -19t-38.5 -13l-111 186l111 183q23 -3 37 -12q8 -6 26 -28l-75 -145zM364 106l-82 149l77 139q-4 7 -9 14.5t-12 8.5l-97 -162l97 -161q17 1 26 12zM217 103q-7 -7 -33.5 -19t-38.5 -13l-111 186l111 183q23 -3 37 -12q8 -6 26 -28l-75 -145z
M184 106l-82 149l77 139q-4 7 -9 14.5t-12 8.5l-97 -162l97 -161q17 1 26 12z" />
    <glyph glyph-name="logicalnot" unicode="&#xac;" horiz-adv-x="554" 
d="M477 -94h-58v144h-351v52h409v-196z" />
    <glyph glyph-name="registered" unicode="&#xae;" horiz-adv-x="709" 
d="M651 295q0 -121 -86 -186q-78 -59 -203 -59q-122 0 -211 55q-105 65 -105 180q0 116 68 206q73 98 185 98q106 0 149 -15q122 -43 161 -95q42 -55 42 -184zM622 295q0 153 -84 217q-73 54 -232 54q-93 0 -161 -88q-63 -82 -63 -177q0 -134 83 -185q65 -40 208 -40
q249 0 249 219zM533 391q0 -37 -34 -75q-29 -32 -67 -50q22 -36 44 -71q26 -43 26 -79q-95 0 -171 19q-5 11 -17 55q-1 -22 -4 -67q-115 2 -103 2l-14 6v74q0 52 11 164q13 135 27 145t49 10q109 0 166 -25q28 -13 56 -45q31 -36 31 -63zM511 391q0 21 -28 52q-26 28 -48 37
q-50 22 -162 22q-18 0 -26 -5q-13 -6 -23 -154q-9 -128 -8 -177l1 -18q38 3 71 0l2 3q3 31 7 94l14 18q16 -46 32 -91q8 -21 30 -24l104 -6q-4 23 -35 66.5t-38 68.5q107 52 107 114zM404 367q0 -23 -35 -38q-28 -11 -56 -11l-12 4q0 36 17 103l-11 -3q20 25 32 25
q19 0 42 -30t23 -50zM382 367q0 16 -15.5 34t-30.5 24v-11q1 -14 -5 -37q-7 -27 -8 -36q16 -1 35 6q24 8 24 20z" />
    <glyph glyph-name="macron" unicode="&#xaf;" horiz-adv-x="430" 
d="M376 554q0 -23 -12 -50q-15 -32 -17 -48q-129 0 -240 27q-13 7 -41 18q-1 8 -1 18q0 29 31 63q18 0 55.5 -1.5t55.5 -1.5q9 0 27 2t27 2q11 0 13.5 -4.5t12.5 -4.5t28 6.5t28 6.5q7 0 31 -10q2 -11 2 -23zM356 550q0 2 -4 13q-13 -1 -85 -6l-1 2l-3 -6q-34 9 -69 9
q-12 0 -48 -2q-30 -1 -48 0q-1 -6 -5 -18.5t-4 -20.5q25 -17 102 -30q69 -12 110 -12q12 0 20 1q1 2 22 33q13 22 13 37z" />
    <glyph glyph-name="macron" unicode="&#x2c9;" horiz-adv-x="430" 
d="M376 554q0 -23 -12 -50q-15 -32 -17 -48q-129 0 -240 27q-13 7 -41 18q-1 8 -1 18q0 29 31 63q18 0 55.5 -1.5t55.5 -1.5q9 0 27 2t27 2q11 0 13.5 -4.5t12.5 -4.5t28 6.5t28 6.5q7 0 31 -10q2 -11 2 -23zM356 550q0 2 -4 13q-13 -1 -85 -6l-1 2l-3 -6q-34 9 -69 9
q-12 0 -48 -2q-30 -1 -48 0q-1 -6 -5 -18.5t-4 -20.5q25 -17 102 -30q69 -12 110 -12q12 0 20 1q1 2 22 33q13 22 13 37z" />
    <glyph glyph-name="degree" unicode="&#xb0;" horiz-adv-x="306" 
d="M254 623q0 -35 -39 -66.5t-74 -31.5t-58.5 26.5t-23.5 62.5q0 41 40 78.5t81 37.5q27 0 52 -41q22 -37 22 -66zM231 627q0 26 -17 52q-20 28 -45 28t-56.5 -34t-31.5 -59q0 -61 60 -61q32 0 61 21.5t29 52.5z" />
    <glyph glyph-name="plusminus" unicode="&#xb1;" horiz-adv-x="616" 
d="M590 407q-119 19 -184 19l-2 -6q3 -11 3 -55q0 -26 -6 -78t-6 -77q-37 6 -75 12q-44 7 -71 23q8 42 17 84q10 49 10 85q-5 0 -78 -11q-47 -7 -79 -7q-15 0 -34 12.5t-19 26.5q0 18 13.5 47.5t15.5 43.5q109 -13 132 -13q9 0 25.5 4t24.5 4v9q0 8 -2.5 23t-2.5 23
q0 63 14 160q74 11 78 11q20 0 36 -3l10 -10q22 -2 36 -8q0 -29 -11.5 -85t-11.5 -85q0 -9 9 -9q15 0 45 2.5t45 2.5q30 0 61 -24q-8 -23 -8 -33q0 -39 15 -88zM555 437v56q-2 37 -21 37q-36 0 -129 -17q-10 25 -10 27q0 18 11 49.5t11 49.5v72l-6 -2l-11.5 5t-23.5 5
q-58 0 -70 -15t-12 -79q0 -22 4 -60q4 -42 4 -61l-8 -11h-10q-97 0 -163 9q-7 -16 -14 -33t-8 -33q21 -15 57 -15q22 0 63.5 10.5t63.5 10.5q21 0 21 -25q0 -31 -9 -80q-11 -62 -13 -80q28 -3 86 -17q12 166 12 170q0 5 -1.5 13t-1.5 12q0 11 11 19q75 -6 167 -17zM522 119
q0 -23 -12 -46q-14 -26 -17 -42q-26 0 -79 -1.5t-79 -1.5q-97 0 -143 13q-9 3 -20 17.5t-19 16.5q0 1 -1 1t-0.5 -1.5l0.5 -1.5v0q0 39 31 74q18 0 55 -1.5t56 -1.5q12 0 37 2t37 2q11 0 32.5 -5t33.5 -5q9 0 27.5 6.5t28.5 6.5q7 0 31 -10q1 -11 1 -22zM503 114q0 3 -4 14
q-14 -2 -85 -7l-1 2l-4 -6q-34 9 -90 9q-15 0 -67 -1q-42 -2 -68 -1q0 -6 -4.5 -22.5t-4.5 -26.5q36 -22 272 -22q12 0 21 1q2 5 21 29q14 17 14 31z" />
    <glyph glyph-name="twosuperior" unicode="&#xb2;" horiz-adv-x="461" 
d="M403 384q-19 6 -35 6q-9 0 -27 -2.5t-28 -2.5q-9 0 -30 3.5t-32 3.5q-24 0 -71.5 -3.5t-71.5 -3.5v17q-1 12 4 18l-1 15q12 24 43 69l64 50q42 34 42 61q0 23 -27.5 42.5t-52.5 19.5q-33 0 -40 -24q-10 18 -10 44q0 8 1.5 26.5t1.5 28.5q12 -5 20 -5q7 0 20 4.5t20 4.5
q46 0 95 -30q45 -27 75 -67q24 -34 24 -47q0 -26 -41 -65q-32 -27 -63 -55l16 -1q17 -1 43 3q37 6 43 7q8 -19 9.5 -58.5t8.5 -58.5zM381 397v76q0 1 -4 13h-28q-12 0 -35.5 -4.5t-36.5 -4.5q-14 0 -21 5q16 18 50 52l42 34q24 23 24 44q0 22 -39.5 64t-62.5 49
q-54 18 -76 18q-51 0 -51 -26v-36q25 9 35 9q32 0 63 -22t31 -53t-37 -63t-73 -62q-39 -40 -39 -86v-3q130 3 133 3q38 0 51 -8q12 0 31 2q23 3 31 4z" />
    <glyph glyph-name="threesuperior" unicode="&#xb3;" horiz-adv-x="452" 
d="M395 639q0 -69 -68 -83q3 -8 33 -50q24 -34 24 -64q0 -35 -82 -53q-57 -13 -116 -13q-16 0 -41 15q-28 16 -28 30q0 11 4 28q5 21 6 28l8 4q18 -22 46 -22q24 0 46 10q28 12 28 33q0 22 -30 38q-26 13 -49 11l-4 15q4 2 23 2q15 0 40 15.5t25 30.5q0 16 -27 27
q-22 9 -41 9q-29 0 -60 -21q-1 1 -21 45q-14 33 -26 41l9 10q3 0 22 5q49 15 113 15q57 0 106 -25q60 -31 60 -81zM384 637q0 49 -61 75q-48 21 -104 21q-24 0 -59 -7q-29 -5 -57 -11l2 -9q14 -14 20 -29q11 -27 13 -30q25 15 52 15q26 0 52 -12q32 -14 32 -36
q0 -31 -58 -54q51 -28 51 -56q0 -23 -24 -39.5t-48 -16.5q-26 0 -55 10q-8 -25 -8 -34q0 -20 36 -29q26 -7 55 -7q33 0 84 15q63 19 63 43q0 25 -30.5 69.5t-29.5 50.5q37 6 54 19q20 17 20 52z" />
    <glyph glyph-name="acute" unicode="&#xb4;" horiz-adv-x="334" 
d="M358 1003l-7 -32q-11 -11 -33 -25q-30 -19 -35 -23q-28 -24 -56 -47q-34 -29 -61 -38q-14 -4 -14 -10v-6q0 -8 -6 -14l-52 16q-31 9 -53 9q-14 0 -25 -5v38q11 14 31 43q34 4 89 60q51 52 102 52q11 0 46 -6t43 -9l5 -8zM321 978q-52 21 -80 21q-13 0 -42 -18l-11 4
q-27 -28 -55.5 -55t-66.5 -39q-18 -16 -18 -20q0 -15 26 -24q21 -8 40 -8q8 0 14 2q6 6 20.5 12t19.5 10q51 39 153 115z" />
    <glyph glyph-name="mu" unicode="&#xb5;" horiz-adv-x="603" 
d="M572 414q0 -9 -9 -22q-11 -16 -12 -22q-2 -9 -2 -47q0 -28 -6 -49q-35 -133 -53 -164q-44 -75 -145 -75q-26 0 -155 26l-3 -272l-139 15l-6 450q0 23 5.5 67.5t5.5 65.5q0 23 -12 29v24q11 1 33.5 3.5t34.5 2.5q28 0 84 -15q66 -16 66 -33q0 -24 -16 -67t-16 -67
q0 -34 33 -55q29 -19 65 -19q41 0 66.5 24t25.5 64t-28 83.5t-31 64.5q35 3 77 3q21 0 63.5 -1t63.5 -1q10 0 10 -13zM538 399l-147 4q46 -75 46 -133q0 -49 -32.5 -78t-82.5 -29q-48 0 -83 28t-35 76q0 26 10 63l16 62q-15 9 -52.5 19.5t-54.5 10.5q4 0 -41 -5
q-18 -106 -17 -149l6 -438l96 -12l4 277q12 -2 89 -22q56 -14 89 -14q15 0 50.5 11.5t43.5 20.5q16 16 48 97q30 78 34 106q0 32 4 95z" />
    <glyph glyph-name="mu" unicode="&#x3bc;" horiz-adv-x="603" 
d="M572 414q0 -9 -9 -22q-11 -16 -12 -22q-2 -9 -2 -47q0 -28 -6 -49q-35 -133 -53 -164q-44 -75 -145 -75q-26 0 -155 26l-3 -272l-139 15l-6 450q0 23 5.5 67.5t5.5 65.5q0 23 -12 29v24q11 1 33.5 3.5t34.5 2.5q28 0 84 -15q66 -16 66 -33q0 -24 -16 -67t-16 -67
q0 -34 33 -55q29 -19 65 -19q41 0 66.5 24t25.5 64t-28 83.5t-31 64.5q35 3 77 3q21 0 63.5 -1t63.5 -1q10 0 10 -13zM538 399l-147 4q46 -75 46 -133q0 -49 -32.5 -78t-82.5 -29q-48 0 -83 28t-35 76q0 26 10 63l16 62q-15 9 -52.5 19.5t-54.5 10.5q4 0 -41 -5
q-18 -106 -17 -149l6 -438l96 -12l4 277q12 -2 89 -22q56 -14 89 -14q15 0 50.5 11.5t43.5 20.5q16 16 48 97q30 78 34 106q0 32 4 95z" />
    <glyph glyph-name="paragraph" unicode="&#xb6;" horiz-adv-x="722" 
d="M656 146q0 -138 0 -129q-55 10 -115 10q-12 11 -12 54q0 82 -7.5 246t-7.5 245q0 44 2 83l-46 -9q16 -258 16 -500q0 -138 0 -129q-55 10 -115 10q-12 11 -12 54q0 39 -7 132q-7 85 -5 132l-2 4l-12 -5q-22 0 -64.5 -8.5t-63.5 -8.5q-27 0 -55 11q-78 31 -96 65
q-14 27 -14 117v43q0 108 124 161q92 38 218 38h170q52 0 69 -12q20 -15 20 -62q0 -21 -1.5 -63t-1.5 -63q0 -69 9 -207.5t9 -208.5zM630 225q0 9 -4.5 26t-4.5 25v145q0 45 -10.5 134.5t-10.5 134.5q0 6 1.5 19t1.5 20q0 12 -22 14q1 0 -31 0q-70 0 -240 -8
q-95 -4 -162 -41q-85 -47 -85 -131q0 -120 16 -153q27 -56 132 -56q27 0 80.5 11.5t80.5 11.5q2 -274 14 -319l20 -6l-5 -3q4 -2 20 -2q22 0 39 3v175q0 9 -4.5 26t-4.5 25l-3 399l94 2q1 -82 5 -276q4 -177 4 -276q0 -47 5 -67l20 -6l-5 -3q4 -2 20 -2q22 0 39 3v175z" />
    <glyph glyph-name="middot" unicode="&#xb7;" horiz-adv-x="321" 
d="M259 310q0 -35 -27 -58.5t-62 -23.5q-42 0 -79.5 40t-37.5 82q0 27 41 51q37 22 66 22q35 0 67 -38.5t32 -74.5zM230 310q0 33 -21 61.5t-53 28.5q-26 0 -52.5 -18t-26.5 -43t33.5 -56.5t59.5 -31.5q60 0 60 59z" />
    <glyph glyph-name="middot" unicode="&#x2219;" horiz-adv-x="321" 
d="M259 310q0 -35 -27 -58.5t-62 -23.5q-42 0 -79.5 40t-37.5 82q0 27 41 51q37 22 66 22q35 0 67 -38.5t32 -74.5zM230 310q0 33 -21 61.5t-53 28.5q-26 0 -52.5 -18t-26.5 -43t33.5 -56.5t59.5 -31.5q60 0 60 59z" />
    <glyph glyph-name="cedilla" unicode="&#xb8;" horiz-adv-x="224" 
d="M216 -86q-2 -34 -11 -101q-5 -21 -69 -41q-45 -14 -84 -19l-17 66q22 11 44 21q25 15 25 37q0 36 -37 36q-6 0 -17 -1t-15 -1l-3 156l130 -14l-6 -72q43 -32 60 -67zM191 -123q0 65 -73 91v59h-51v-81q81 0 81 -76q-28 -57 -73 -58v-30q34 0 75 30.5t41 64.5z" />
    <glyph glyph-name="onesuperior" unicode="&#xb9;" horiz-adv-x="248" 
d="M213 748q0 -5 -6 -18q-7 -16 -8 -20l-6 -51q-5 -16 -14 -49q-5 -29 -5 -141q0 -76 -35 -76q-78 0 -71 1q-5 10 -5 62q0 43 6 128t6 127q0 8 -4 21.5t-5 20.5l11 9l9 -7q28 -3 21 -3q12 0 35 3.5t35 3.5q36 0 36 -11zM196 743l-31 1h-12h-69q0 -43 -3 -137q-3 -90 -3 -136
q0 -33 1 -62q10 0 31.5 -1t32.5 -1q5 0 11 11t6 16v123q0 13 16 95.5t20 90.5z" />
    <glyph glyph-name="ordmasculine" unicode="&#xba;" horiz-adv-x="505" 
d="M454 566q0 -32 -51 -103t-82 -81q-23 -8 -47 -8q-87 0 -159 46q-83 53 -83 135q0 34 16.5 58t34.5 48q53 78 156 78q74 0 69 -29q50 -10 82 -41q26 -25 52 -76q12 -25 12 -27zM434 561q0 40 -26 75q-25 31 -64 48q-15 3 -45 14q-13 9 -26.5 17t-33.5 8q-149 0 -189 -145
q-4 -17 -4 -18q0 -22 17 -57t34 -52q25 -26 86 -44q55 -16 98 -16q8 0 33 9t33 13q19 11 33 40q21 44 24 48q30 45 30 60zM312 534q0 -28 -27 -46.5t-56 -18.5q-25 0 -47.5 19.5t-22.5 44.5q0 27 22.5 56t49.5 29q19 0 50 -32t31 -52zM292 534q0 21 -21.5 43t-42.5 22
q-24 0 -36.5 -22.5t-12.5 -47.5q0 -13 14.5 -28t27.5 -15q71 0 71 48z" />
    <glyph glyph-name="guillemotright" unicode="&#xbb;" horiz-adv-x="452" 
d="M397 257l-112 -186q-11 1 -38 13t-34 19l84 152l-75 145q18 22 27 28q13 9 36 12zM369 255l-97 162q-7 -1 -11.5 -8.5t-9.5 -14.5l77 -139l-82 -149q9 -11 26 -12zM217 257l-112 -186q-11 1 -38 13t-34 19l84 152l-75 145q18 22 27 28q13 9 36 12zM189 255l-97 162
q-7 -1 -11.5 -8.5t-9.5 -14.5l77 -139l-82 -149q9 -11 26 -12z" />
    <glyph glyph-name="onequarter" unicode="&#xbc;" horiz-adv-x="729" 
d="M691 237q0 -70 -26 -70q-5 0 -16.5 2t-16.5 2q-11 0 -25 -4q-3 -15 -3 -72q0 -44 -14 -70q-13 2 -35 0q-27 -2 -35 -2q-4 0 -12.5 2.5t-13.5 2.5q0 5 -2.5 13t-2.5 12q0 20 6 59t6 59q-26 0 -120 -15q-5 7 -5 65v30q11 25 53 74.5t65 63.5l1 7q13 1 53 10q32 7 52 7
q5 0 13 -1.5t12 -1.5l2 -10q0 -15 -7.5 -43.5t-7.5 -43.5q0 1 8 -59q6 0 18.5 2.5t19.5 2.5q5 0 15 -1t15 -2q3 -9 3 -19zM676 244q-5 2 -13 2q-20 0 -51 -10l-6 6q-4 32 -4 62q0 33 5 63q5 5 5 14l-1 16q-11 3 -13 3q-18 0 -46 -6q-37 -7 -45 -8q-40 -40 -79 -80
q-39 -45 -39 -101q0 -3 3 -31h40q13 0 37.5 7t37.5 7l10 -1q0 -6 -8 -61q-5 -36 -5 -60q0 -21 8 -25q5 -3 27 -3q53 0 53 34q0 14 -1.5 42t-1.5 42q0 30 42 30q8 0 20 -1t16 -1q9 30 9 60zM511 309l-2 -9l2 -4q-2 -21 -3 -42q-2 -25 -11 -41q-43 15 -43 29t54 77zM495 281
q-11 -14 -23 -37q8 -13 17 -13l2 2q4 11 4 48zM178 739q0 -5 -6 -18q-7 -16 -8 -20l-6 -51q-6 -16 -14 -49q-5 -29 -5 -141q0 -75 -35 -75q-79 0 -71 0q-5 10 -5 63q0 42 5.5 127t5.5 127q0 8 -4 21.5t-4 20.5l11 9l9 -7q28 -3 21 -3q12 0 35 3.5t35 3.5q36 0 36 -11z
M161 735l-31 1h-13l-68 -1q0 -43 -3 -135t-3 -138q0 -32 1 -61q10 0 31.5 -1.5t32.5 -1.5q5 0 11 11t6 17v122q0 13 16 95.5t20 91.5zM529 718q0 -9 -87 -188q-77 -156 -105 -211q-39 -71 -78 -141q-46 -85 -68 -147q-12 -9 -41 -9q-12 0 -36 2.5t-36 2.5q-3 0 -16 -6.5
t-18 -7.5q0 58 24 105q4 9 17.5 19t16.5 22q10 33 33 77q36 67 39 75q9 19 20 59.5t19.5 59.5t30.5 53.5t30 50.5q7 25 25 73q4 7 32 45q20 28 20 47q0 12 -6 24q110 11 174 11q10 0 10 -16zM494 706q-63 0 -109 -6q-23 -33 -63 -102q-9 -26 -30 -77q-22 -34 -61 -105
q-10 -40 -39 -119q-20 -43 -63 -127q-5 -9 -26 -38q-17 -23 -20 -38.5t-9 -43.5q24 -4 42 -4q17 0 31 6q20 10 27 12q14 35 39 81q120 219 281 561z" />
    <glyph glyph-name="onehalf" unicode="&#xbd;" horiz-adv-x="717" 
d="M689 18q-19 5 -35 5q-9 0 -27 -2t-27 -2q-10 0 -31 3t-32 3q-24 0 -71.5 -3t-71.5 -3v17q-1 11 4 18l-1 14q12 25 43 70l64 50q42 34 42 60q0 24 -27.5 43.5t-51.5 19.5q-34 0 -41 -24q-10 18 -10 43q0 9 1.5 27.5t1.5 28.5q12 -5 20 -5q7 0 20 4.5t20 4.5q46 0 95 -30
q45 -27 75 -68q24 -33 24 -46q0 -26 -41 -65q-32 -28 -63 -55l16 -1q17 -1 43 3q37 6 44 7q7 -19 8.5 -58.5t8.5 -58.5zM668 31v76l-5 12h-28q-12 0 -35.5 -4.5t-35.5 -4.5q-15 0 -22 6q16 18 51 52q20 17 41 34q24 22 24 44q0 21 -39.5 63t-62.5 50q-53 18 -76 18
q-51 0 -51 -26v-36q25 8 35 8q33 0 62 -20q32 -23 32 -55q0 -30 -37 -62t-73 -62q-39 -40 -39 -86l1 -4q129 3 132 3q39 0 52 -8q11 0 30 3q24 3 31 4zM183 745q0 -5 -6 -19.5t-7 -18.5q-2 -17 -7 -51q-5 -16 -13 -49q-5 -29 -5 -142q0 -75 -35 -75q-79 0 -71 1q-5 10 -5 62
q0 43 5.5 127.5t5.5 127.5q0 8 -4 21.5t-4 19.5l10 10l9 -8q28 -3 22 -3q11 0 34 4t35 4q36 0 36 -11zM167 740l-31 1h-13l-69 -1q0 -43 -2.5 -134.5t-2.5 -137.5q0 -33 1 -62q9 0 32 -1q20 -2 32 -2q4 0 10 11.5t6 16.5v123q0 12 16.5 95t20.5 91zM515 718q0 -9 -88 -188
q-76 -156 -105 -211q-39 -71 -78 -141q-45 -85 -67 -147q-12 -9 -41 -9q-12 0 -36 2.5t-36 2.5q-3 0 -16.5 -6.5t-17.5 -7.5q0 58 24 105q4 9 17 19t17 22q10 33 33 77q35 67 39 75q9 19 20 59.5t19.5 59.5t30 53.5t30.5 50.5q7 25 25 73q3 7 31 45q21 28 21 47q0 12 -7 24
q111 11 174 11q11 0 11 -16zM479 706q-62 0 -109 -6q-22 -33 -63 -102q-8 -26 -30 -77q-22 -34 -60 -105q-11 -40 -39 -119q-21 -43 -64 -127q-4 -9 -26 -38q-16 -23 -19 -38.5t-9 -43.5q23 -4 42 -4q16 0 30 6q21 10 27 12q15 35 40 81q120 219 280 561z" />
    <glyph glyph-name="threequarters" unicode="&#xbe;" horiz-adv-x="845" 
d="M807 237q0 -70 -26 -70q-5 0 -16.5 2t-16.5 2q-11 0 -25 -4q-4 -15 -3 -72q0 -44 -14 -70q-14 2 -35 0q-27 -2 -35 -2q-4 0 -12.5 2.5t-13.5 2.5q0 5 -2.5 13t-2.5 12q0 20 6 59t6 59q-26 0 -120 -15q-5 7 -5 65v30q11 25 53 74.5t64 63.5l2 7q13 1 53 10q32 7 52 7
q5 0 13 -1.5t12 -1.5l2 -10q0 -15 -7.5 -43.5t-7.5 -43.5q0 1 8 -59q6 0 18.5 2.5t19.5 2.5q5 0 15 -1t15 -2q3 -9 3 -19zM792 244q-5 2 -13 2q-20 0 -51 -10l-6 6q-4 32 -4 62q0 33 5 63q5 5 5 14l-1 16q-11 3 -13 3q-18 0 -46 -6q-37 -7 -45 -8q-40 -40 -79 -80
q-39 -45 -39 -101q0 -3 3 -31h40q13 0 37.5 7t37.5 7l10 -1q0 -6 -8 -61q-5 -36 -5 -60q0 -21 8 -25q5 -3 27 -3q53 0 53 34q0 14 -2 42t-2 42q0 30 43 30q7 0 19.5 -1t16.5 -1q9 30 9 60zM627 309l-2 -9l2 -4q-2 -21 -3 -42q-2 -25 -11 -41q-43 15 -43 29t54 77zM611 281
q-11 -14 -23 -37q8 -13 17 -13l2 2q4 11 4 48zM645 718q0 -9 -88 -188q-76 -156 -104 -211q-39 -71 -78 -141q-46 -85 -68 -147q-12 -9 -41 -9q-12 0 -36 2.5t-36 2.5q-3 0 -16 -6.5t-18 -7.5q0 58 24 105q4 9 17.5 19t16.5 22q10 33 33 77q36 67 39 75q9 19 20 59.5
t19.5 59.5t30.5 53.5t30 50.5q7 25 25 73q4 7 31 45q21 28 21 47q0 12 -6 24q110 11 174 11q10 0 10 -16zM610 706q-63 0 -109 -6q-23 -33 -63 -102q-9 -26 -30 -77q-22 -34 -61 -105q-10 -40 -39 -119q-20 -43 -63 -127q-5 -9 -26 -38q-17 -23 -20 -38.5t-9 -43.5
q24 -4 42 -4q17 0 31 6q20 10 27 12q14 35 39 81q120 219 281 561zM332 645q0 -69 -68 -83q3 -8 33 -50q24 -34 24 -64q0 -35 -82 -53q-57 -13 -116 -13q-16 0 -42 15.5t-26 29.5q0 11 3 28q5 21 6 28l9 4q18 -22 45 -22q24 0 46 10q28 12 28 33q0 22 -30 38q-26 13 -49 11
l-4 15q4 2 23 2q15 0 40 15.5t25 30.5t-27 27q-22 9 -41 9q-29 0 -60 -22q-1 2 -21 46q-14 33 -26 40l9 10q3 1 22 6q49 15 113 15q57 0 106 -25q60 -31 60 -81zM321 643q0 48 -61 75q-48 21 -104 21q-24 0 -59 -7q-28 -6 -57 -11l2 -10q14 -13 20 -28q11 -27 13 -30
q25 15 52 15q26 0 52 -12q32 -14 32 -36q0 -31 -58 -54q51 -28 51 -56q0 -23 -24 -39.5t-48 -16.5q-25 0 -54 10q-9 -25 -9 -34q0 -20 37 -29q25 -7 54 -7q33 0 84 15q63 19 63 42q0 25 -30.5 70t-29.5 50q38 7 54 20q20 16 20 52z" />
    <glyph glyph-name="questiondown" unicode="&#xbf;" horiz-adv-x="544" 
d="M496 480q0 -26 -36 -48q-31 -19 -59 -19q-31 0 -59 36t-28 67q0 29 25.5 52.5t54.5 23.5q40 0 71 -36t31 -76zM477 489q0 28 -31 53.5t-61 25.5q-43 0 -43 -56q0 -27 18 -52q20 -28 45 -28q22 0 47 18t25 39zM505 25q0 -33 -5 -90q-5 -65 -5 -89q-43 -26 -144 -26
q-110 0 -213 98q-106 100 -106 209q0 66 48.5 119.5t114.5 53.5q6 0 18 -2.5t18 -2.5q8 0 88 26q1 11 0 47q110 -5 169 -5q-9 -38 -9 -73q0 -51 20 -90h-93q-50 1 -105 -38q-59 -43 -59 -91q0 -40 56 -67q47 -24 91 -24q38 0 116 45zM481 -19q-62 -24 -99 -24q-51 0 -104 32
q-59 36 -59 84q0 66 73 110q64 40 139 40q15 0 29 -2q-7 20 -7 52q0 24 5 71q-41 0 -120 4l1 -13q0 -15 -2 -31q-33 -12 -101 -31q-97 -15 -126 -33q-51 -31 -51 -113q0 -100 92.5 -194t192.5 -94q77 0 127 22q4 40 10 120z" />
    <glyph glyph-name="Agrave" unicode="&#xc0;" 
d="M755 59q-46 -13 -165 -13q-28 0 -54 -6q-12 26 -22 97q-10 66 -23 88h-20q-47 1 -123 -12q-1 -28 -25 -116l-12 5q-11 -21 -21 -42q-15 -29 -30 -29q-3 0 -10 2.5t-10 2.5t-8 -2.5t-8 -2.5q-13 0 -38.5 2.5t-38.5 2.5q-17 0 -51 -4.5t-51 -4.5l-14 15q56 137 171 410
q14 31 32 89q20 64 30 89q14 24 37 74l-3 20q14 7 40 7t71.5 13t66.5 15l96 3q11 -65 39 -194q12 -30 33 -91q13 -59 27 -118q20 -92 32 -104q19 -20 37 -95q17 -68 17 -103q-1 -1 -2 2zM726 90v8q1 43 -28 105q-37 82 -43 101q-10 60 -38 180q-17 41 -43 126q-7 43 -23 129
h-20q-37 0 -102 -10q-71 -11 -96 -23q-17 -9 -29 -37q-23 -67 -72 -199q-25 -53 -72 -162q-44 -114 -89 -248q-10 0 195 0q4 24 24 60q24 41 29 59l8 44q8 29 26 31q1 -14 18 -14q16 0 47 7.5t47 7.5q32 0 53 -17q11 -76 12 -79q8 -46 20 -77q5 -14 10 -14q14 0 85.5 9
t80.5 13zM507 381l-8 -16q-5 1 -16.5 5t-17.5 4q-14 0 -40.5 -4.5t-39.5 -4.5l-11 6q-8 4 -8 15q0 9 17 52q1 4 16 69q10 39 34 62q21 -3 43 -80q30 -107 31 -108zM471 395q-8 35 -17 70q-11 43 -25 65q-10 -32 -19 -64q-11 -39 -11 -65l2 -8q39 9 49 9q6 0 21 -7zM466 808
q-11 5 -25 5q-22 0 -53 -9q-26 -8 -53 -16q-5 6 -5 20q0 6 -14 10q-27 9 -61 38q-28 23 -56 47q-24 14 -69 48v46l13 -17l7 -2l5 8q8 3 43 9t45 6q52 0 103 -52q55 -56 89 -60q10 -14 31 -43v-38zM434 851q0 4 -19 20q-37 12 -65.5 39t-56.5 55l-11 -4q-28 18 -41 18
q-28 0 -80 -21q5 -3 153 -115q14 -5 40 -22q6 -2 14 -2q19 0 39 8q27 9 27 24z" />
    <glyph glyph-name="Aacute" unicode="&#xc1;" 
d="M755 59q-46 -13 -165 -13q-28 0 -54 -6q-12 26 -22 97q-10 66 -23 88h-20q-47 1 -123 -12q-1 -28 -25 -116l-12 5q-11 -21 -21 -42q-15 -29 -30 -29q-3 0 -10 2.5t-10 2.5t-8 -2.5t-8 -2.5q-13 0 -38.5 2.5t-38.5 2.5q-17 0 -51 -4.5t-51 -4.5l-14 15q56 137 171 410
q14 31 32 89q20 64 30 89q14 24 37 74l-3 20q14 7 40 7t71.5 13t66.5 15l96 3q11 -65 39 -194q12 -30 33 -91q13 -59 27 -118q20 -92 32 -104q19 -20 37 -95q17 -68 17 -103q-1 -1 -2 2zM726 90v8q1 43 -28 105q-37 82 -43 101q-10 60 -38 180q-17 41 -43 126q-7 43 -23 129
h-20q-37 0 -102 -10q-71 -11 -96 -23q-17 -9 -29 -37q-23 -67 -72 -199q-25 -53 -72 -162q-44 -114 -89 -248q-10 0 195 0q4 24 24 60q24 41 29 59l8 44q8 29 26 31q1 -14 18 -14q16 0 47 7.5t47 7.5q32 0 53 -17q11 -76 12 -79q8 -46 20 -77q5 -14 10 -14q14 0 85.5 9
t80.5 13zM507 381l-8 -16q-5 1 -16.5 5t-17.5 4q-14 0 -40.5 -4.5t-39.5 -4.5l-11 6q-8 4 -8 15q0 9 17 52q1 4 16 69q10 39 34 62q21 -3 43 -80q30 -107 31 -108zM471 395q-8 35 -17 70q-11 43 -25 65q-10 -32 -19 -64q-11 -39 -11 -65l2 -8q39 9 49 9q6 0 21 -7zM574 1003
l-7 -32q-11 -11 -33 -25q-30 -19 -35 -23q-28 -24 -56 -47q-34 -29 -61 -38q-14 -4 -14 -10v-6q0 -8 -6 -14l-52 16q-31 9 -53 9q-14 0 -25 -5v38q11 14 31 43q34 4 89 60q51 52 102 52q11 0 46 -6t43 -9l5 -8zM537 978q-52 21 -80 21q-13 0 -42 -18l-11 4
q-27 -28 -55.5 -55t-66.5 -39q-18 -16 -18 -20q0 -15 26 -24q21 -8 40 -8q8 0 14 2q6 6 20.5 12t19.5 10q51 39 153 115z" />
    <glyph glyph-name="Acircumflex" unicode="&#xc2;" horiz-adv-x="799" 
d="M756 59q-46 -13 -165 -13q-28 0 -54 -6q-12 26 -22 97q-10 66 -23 88h-20q-47 1 -123 -12q-1 -28 -25 -116l-12 5q-11 -21 -21 -42q-15 -29 -30 -29q-3 0 -10 2.5t-10 2.5t-8 -2.5t-8 -2.5q-13 0 -38.5 2.5t-38.5 2.5q-17 0 -51 -4.5t-51 -4.5l-14 15q56 137 171 410
q14 31 32 89q20 64 30 89q14 24 37 74l-3 20q14 7 40 7t71.5 13t66.5 15l96 3q11 -65 39 -194q12 -30 33 -91q13 -59 27 -118q20 -92 32 -104q19 -20 37 -95q17 -68 17 -103q-1 -1 -2 2zM727 90v8q1 43 -28 105q-37 82 -43 101q-10 60 -38 180q-17 41 -43 126q-7 43 -23 129
h-20q-37 0 -102 -10q-71 -11 -96 -23q-17 -9 -29 -37q-23 -67 -72 -199q-25 -53 -72 -162q-44 -114 -89 -248q-10 0 195 0q4 24 24 60q24 41 29 59l8 44q8 29 26 31q1 -14 18 -14q16 0 47 7.5t47 7.5q32 0 53 -17q11 -76 12 -79q8 -46 20 -77q5 -14 10 -14q14 0 85.5 9
t80.5 13zM508 381l-8 -16q-5 1 -16.5 5t-17.5 4q-14 0 -40.5 -4.5t-39.5 -4.5l-11 6q-8 4 -8 15q0 9 17 52q1 4 16 69q10 39 34 62q21 -3 43 -80q30 -107 31 -108zM472 395q-8 35 -17 70q-11 43 -25 65q-10 -32 -19 -64q-11 -39 -11 -65l2 -8q39 9 49 9q6 0 21 -7zM536 813
q0 -9 -15.5 -16t-25.5 -7q-65 0 -79 24q-4 6 -12 77l-4 -13q-12 -13 -19.5 -32t-14.5 -37q-15 0 -46 -1.5t-47 -1.5q-6 0 -27 11q3 21 53 94q62 91 68 102l-6 -1l-3 6q25 16 68 16q36 0 59 -5q11 -71 33 -178q2 -4 10 -17t8 -21zM511 814q-4 13 -11 39q-9 74 -26 157
q-8 8 -22 8q-53 0 -66 -9q-19 -15 -68.5 -90t-49.5 -94q55 0 87 3q11 33 50 103h9q3 -12 13 -104q31 -18 64 -18q13 0 20 5z" />
    <glyph glyph-name="Atilde" unicode="&#xc3;" 
d="M755 59q-46 -13 -165 -13q-28 0 -54 -6q-12 26 -22 97q-10 66 -23 88h-20q-47 1 -123 -12q-1 -28 -25 -116l-12 5q-11 -21 -21 -42q-15 -29 -30 -29q-3 0 -10 2.5t-10 2.5t-8 -2.5t-8 -2.5q-13 0 -38.5 2.5t-38.5 2.5q-17 0 -51 -4.5t-51 -4.5l-14 15q56 137 171 410
q14 31 32 89q20 64 30 89q14 24 37 74l-3 20q14 7 40 7t71.5 13t66.5 15l96 3q11 -65 39 -194q12 -30 33 -91q13 -59 27 -118q20 -92 32 -104q19 -20 37 -95q17 -68 17 -103q-1 -1 -2 2zM726 90v8q1 43 -28 105q-37 82 -43 101q-10 60 -38 180q-17 41 -43 126q-7 43 -23 129
h-20q-37 0 -102 -10q-71 -11 -96 -23q-17 -9 -29 -37q-23 -67 -72 -199q-25 -53 -72 -162q-44 -114 -89 -248q-10 0 195 0q4 24 24 60q24 41 29 59l8 44q8 29 26 31q1 -14 18 -14q16 0 47 7.5t47 7.5q32 0 53 -17q11 -76 12 -79q8 -46 20 -77q5 -14 10 -14q14 0 85.5 9
t80.5 13zM507 381l-8 -16q-5 1 -16.5 5t-17.5 4q-14 0 -40.5 -4.5t-39.5 -4.5l-11 6q-8 4 -8 15q0 9 17 52q1 4 16 69q10 39 34 62q21 -3 43 -80q30 -107 31 -108zM471 395q-8 35 -17 70q-11 43 -25 65q-10 -32 -19 -64q-11 -39 -11 -65l2 -8q39 9 49 9q6 0 21 -7zM505 884
l-19 4q-13 -19 -51.5 -42t-58.5 -23q-30 0 -66 37.5t-61 37.5q-28 0 -54 -34q-10 -13 -36 -59l-23 -5q-5 14 -12 44q-1 23 -9 60q-7 13 -7 16q0 17 48 53q45 34 66 40q32 7 56 7q39 0 59 -20q8 -7 25 -38q11 -20 27 -20q13 0 43 19q25 16 38 29h20q3 -36 15 -106zM484 909
q0 10 -10 59l-42 -26q-29 -17 -43 -17q-25 0 -37 21q-23 38 -24 40q-21 21 -65 21q-29 0 -80 -33t-51 -60q0 -56 15 -88q23 28 45 57q28 31 61 31q27 0 64 -37t64 -37q17 0 60 27t43 42z" />
    <glyph glyph-name="Adieresis" unicode="&#xc4;" 
d="M755 59q-46 -13 -165 -13q-28 0 -54 -6q-12 26 -22 97q-10 66 -23 88h-20q-47 1 -123 -12q-1 -28 -25 -116l-12 5q-11 -21 -21 -42q-15 -29 -30 -29q-3 0 -10 2.5t-10 2.5t-8 -2.5t-8 -2.5q-13 0 -38.5 2.5t-38.5 2.5q-17 0 -51 -4.5t-51 -4.5l-14 15q56 137 171 410
q14 31 32 89q20 64 30 89q14 24 37 74l-3 20q14 7 40 7t71.5 13t66.5 15l96 3q11 -65 39 -194q12 -30 33 -91q13 -59 27 -118q20 -92 32 -104q19 -20 37 -95q17 -68 17 -103q-1 -1 -2 2zM726 90v8q1 43 -28 105q-37 82 -43 101q-10 60 -38 180q-17 41 -43 126q-7 43 -23 129
h-20q-37 0 -102 -10q-71 -11 -96 -23q-17 -9 -29 -37q-23 -67 -72 -199q-25 -53 -72 -162q-44 -114 -89 -248q-10 0 195 0q4 24 24 60q24 41 29 59l8 44q8 29 26 31q1 -14 18 -14q16 0 47 7.5t47 7.5q32 0 53 -17q11 -76 12 -79q8 -46 20 -77q5 -14 10 -14q14 0 85.5 9
t80.5 13zM507 381l-8 -16q-5 1 -16.5 5t-17.5 4q-14 0 -40.5 -4.5t-39.5 -4.5l-11 6q-8 4 -8 15q0 9 17 52q1 4 16 69q10 39 34 62q21 -3 43 -80q30 -107 31 -108zM471 395q-8 35 -17 70q-11 43 -25 65q-10 -32 -19 -64q-11 -39 -11 -65l2 -8q39 9 49 9q6 0 21 -7zM553 942
q0 -51 -35.5 -93t-85.5 -42q-64 0 -64 92q0 41 32.5 70.5t74.5 29.5q34 0 75 -32q3 -12 3 -25zM536 929q0 49 -56 49q-37 0 -64 -24.5t-27 -60.5q0 -64 45 -64q26 0 51 16l-3 8q0 2 12 14t14 24q20 10 24 14.5t4 23.5zM287 887q0 -24 -35.5 -45t-61.5 -21q-31 0 -59.5 35
t-28.5 67q0 31 24 52.5t56 21.5q37 0 71 -36t34 -74zM265 897q0 23 -30 51t-53 28q-55 0 -55 -53q0 -29 19.5 -55t47.5 -26q24 0 47.5 16.5t23.5 38.5z" />
    <glyph glyph-name="Aring" unicode="&#xc5;" 
d="M755 59q-46 -13 -165 -13q-28 0 -54 -6q-12 26 -22 97q-10 66 -23 88h-20q-47 1 -123 -12q-1 -28 -25 -116l-12 5q-11 -21 -21 -42q-15 -29 -30 -29q-3 0 -10 2.5t-10 2.5t-8 -2.5t-8 -2.5q-13 0 -38.5 2.5t-38.5 2.5q-17 0 -51 -4.5t-51 -4.5l-14 15q56 137 171 410
q14 31 32 89q20 64 30 89q14 24 37 74l-3 20q14 7 40 7t71.5 13t66.5 15l96 3q11 -65 39 -194q12 -30 33 -91q13 -59 27 -118q20 -92 32 -104q19 -20 37 -95q17 -68 17 -103q-1 -1 -2 2zM726 90v8q1 43 -28 105q-37 82 -43 101q-10 60 -38 180q-17 41 -43 126q-7 43 -23 129
h-20q-37 0 -102 -10q-71 -11 -96 -23q-17 -9 -29 -37q-23 -67 -72 -199q-25 -53 -72 -162q-44 -114 -89 -248q-10 0 195 0q4 24 24 60q24 41 29 59l8 44q8 29 26 31q1 -14 18 -14q16 0 47 7.5t47 7.5q32 0 53 -17q11 -76 12 -79q8 -46 20 -77q5 -14 10 -14q14 0 85.5 9
t80.5 13zM507 381l-8 -16q-5 1 -16.5 5t-17.5 4q-14 0 -40.5 -4.5t-39.5 -4.5l-11 6q-8 4 -8 15q0 9 17 52q1 4 16 69q10 39 34 62q21 -3 43 -80q30 -107 31 -108zM471 395q-8 35 -17 70q-11 43 -25 65q-10 -32 -19 -64q-11 -39 -11 -65l2 -8q39 9 49 9q6 0 21 -7zM455 852
q0 -35 -38.5 -66.5t-74.5 -31.5q-34 0 -58 26.5t-24 62.5q0 41 40.5 78.5t81.5 37.5q27 0 51 -41q22 -37 22 -66zM433 856q0 26 -18.5 53t-43.5 27t-56.5 -34t-31.5 -59q0 -61 59 -61q33 0 62 21.5t29 52.5z" />
    <glyph glyph-name="AE" unicode="&#xc6;" horiz-adv-x="986" 
d="M940 223q0 -45 -15 -177l-11 -14q-192 18 -244 18q-24 0 -64 -4q-47 -6 -63 -6q-12 25 -23 97q-9 66 -22 88h-19q-48 1 -124 -12q-1 -27 -25 -116l-12 5q-11 -21 -21 -42q-15 -29 -30 -29q-4 0 -10.5 2.5t-9.5 2.5t-8 -2.5t-8 -2.5q-13 0 -38.5 2.5t-38.5 2.5
q-17 0 -51 -4.5t-51 -4.5l-14 15q55 137 171 410q14 31 32 89q20 64 30 89q14 24 37 74l-3 20q15 7 20 8q-11 -1 21 -1q25 0 70.5 13t66.5 15l210 20q118 10 210 10h26q0 -18 -6 -82.5t-6 -93.5q0 -24 3 -36q-6 -16 -18 -16q-6 0 -14.5 5t-13.5 5q-3 0 -9 -2.5t-9 -2.5
q-5 0 -8 9t-11 12q-24 10 -100 10q-37 0 -76 -5q-20 -39 -20 -94h38q6 0 16 4.5t16 4.5q18 0 57 3q36 2 56 2l26 -1v-72q1 -79 -9 -134q-25 7 -55 7q-23 0 -69.5 -6t-69.5 -6q-7 -5 -7 -15q0 -7 6.5 -25t3.5 -27l3 -3q28 8 58 8q19 0 50 -5q36 -6 50 -7q43 0 129 -3z
M917 197q-90 18 -199 18q-11 0 -33 -5t-33 -5q-12 0 -25 2q8 22 8 30q0 13 -8.5 35t-8.5 35q0 5 2 12q178 16 204 16q2 15 2 33q0 5 -3 58q-2 35 2 57h-131q-11 0 -32 -4.5t-32 -4.5q-21 0 -21 17q0 -1 12 37q10 33 10 89q30 6 66 6q46 0 114 -8q17 -6 53 -13l14 -11h5l9 2
q0 24 8 171h-35q-27 1 -78 -2t-76 -3q-32 0 -87 -9q-60 -10 -86 -11q-146 -8 -198 -33q-17 -8 -29 -37q-23 -67 -72 -199q-25 -53 -72 -162q-45 -117 -89 -248q-10 0 195 0q3 24 24 60q24 41 29 59l8 44q8 29 26 31q1 -14 17 -14t47.5 7.5t47.5 7.5q32 0 53 -17l12 -80
q8 -48 21 -78q5 -12 9 -12q17 0 51.5 3.5t51.5 3.5q23 0 229 -9q7 43 18 131zM514 381l-8 -16q-6 1 -17 5t-17 4q-14 0 -40.5 -4.5t-39.5 -4.5l-12 6q-8 4 -8 15q0 9 17 52q2 4 17 69q10 39 34 62q21 -3 43 -80q30 -107 31 -108zM478 395q-9 35 -17 70q-11 43 -25 65
q-10 -32 -19 -64q-11 -39 -11 -65l1 -8q39 9 49 9q7 0 22 -7z" />
    <glyph glyph-name="Ccedilla" unicode="&#xc7;" horiz-adv-x="688" 
d="M707 628q-36 -40 -71 -79q-26 -30 -51 -103q-21 14 -38 33t-28 24q-19 9 -60 9q-70 0 -115.5 -50t-45.5 -121q0 -63 37 -102t99 -39q51 0 75 40q18 41 37 82q12 -1 22 -12q6 -7 49.5 -96t43.5 -94q0 -49 -111 -80q-68 -18 -154 -25v-57q43 -32 60 -67q-2 -34 -11 -101
q-5 -21 -68 -41q-45 -14 -85 -19l-17 66q22 11 44 21q25 15 25 37q0 36 -37 36q-6 0 -17 -1t-15 -1l-3 132q-23 2 -61 13q-11 8 -33 25l-58 40q-35 24 -55 45q-27 29 -51.5 84t-24.5 93q0 171 91 281q76 93 153.5 129.5t198.5 36.5q72 0 143 -15q102 -22 114 -64
q8 -20 18 -60zM679 635q0 8 -19 40.5t-25 39t-96 20.5q-86 13 -105 13q-173 0 -293 -110q-123 -114 -123 -285q0 -105 54 -176q44 -59 145 -117q29 -17 89 -17q1 -30 1 -120q81 0 81 -76q-28 -57 -73 -58v-30q35 0 75.5 30.5t40.5 64.5q0 65 -73 91v91h7q68 0 152 22
q112 30 112 78q0 11 -74 134q-21 -47 -46 -67q-29 -22 -77 -22q-63 0 -111 41q-51 42 -51 104q0 92 52 149q54 61 144 61q66 0 110 -42q28 59 55 87q48 52 48 54z" />
    <glyph glyph-name="Egrave" unicode="&#xc8;" horiz-adv-x="618" 
d="M587 761q0 -19 -5.5 -83t-5.5 -93q0 -24 3 -37q-6 -15 -19 -15q-5 0 -13.5 4.5t-13.5 4.5q-3 0 -9 -2t-9 -2q-7 0 -24 9q-20 10 -25 12q-34 10 -101 10q-36 0 -75 -5q-20 -39 -21 -94h38q6 0 16.5 4.5t16.5 4.5q18 0 55.5 2.5t57.5 2.5l25 -1q0 -46 -29 -206q-25 6 -54 6
q-24 0 -70 -5.5t-69 -5.5q-13 -8 -15 -31l-2 -36l3 -4q27 9 48 9q18 0 50 -6q36 -6 50 -7q60 2 179 -2q0 -46 -15 -178l-11 -13q-193 18 -294 18q-27 0 -79.5 -7t-79.5 -7q-31 0 -66 17q8 125 25 433q11 194 11 214q0 45 -27 39l2 20q18 8 91 20q70 11 96 11q161 0 365 -1z
M559 736h-36q-32 0 -93 -2.5t-90 -2.5q-17 0 -50 4t-50 4q-28 0 -160 -23q3 -20 3 -41q0 -28 -6.5 -83.5t-6.5 -83.5v-191q0 -33 -9 -100.5t-9 -101.5v-77q28 0 98 5q63 3 98 3q73 0 280 -9q7 44 17 132q-89 17 -248 17q-10 0 -28.5 -4.5t-28.5 -4.5q-11 0 -24 2l-11 9
q7 34 23 103q178 16 204 15q7 50 22 149h-132q-11 0 -32 -5t-31 -5q-22 0 -22 18l12 37q10 32 10 89q30 6 66 6q38 0 115 -8q27 -6 83 -14l14 -11h5l8 3q0 24 9 171zM460 808q-11 5 -25 5q-22 0 -53 -9q-26 -8 -53 -16q-5 6 -5 20q0 6 -14 10q-27 9 -61 38q-28 23 -56 47
q-24 14 -69 48v46l13 -17l7 -2l5 8q8 3 43 9t45 6q52 0 103 -52q55 -56 89 -60q10 -14 31 -43v-38zM428 851q0 4 -19 20q-37 12 -65.5 39t-56.5 55l-11 -4q-28 18 -41 18q-28 0 -80 -21q5 -3 153 -115q14 -5 40 -22q6 -2 14 -2q19 0 39 8q27 9 27 24z" />
    <glyph glyph-name="Eacute" unicode="&#xc9;" horiz-adv-x="604" 
d="M573 761q0 -19 -5.5 -83t-5.5 -93q0 -24 3 -37q-6 -15 -19 -15q-5 0 -13.5 4.5t-13.5 4.5q-3 0 -9 -2t-9 -2q-7 0 -24 9q-20 10 -25 12q-34 10 -101 10q-36 0 -75 -5q-20 -39 -21 -94h38q6 0 16.5 4.5t16.5 4.5q18 0 55.5 2.5t57.5 2.5l25 -1q0 -46 -29 -206q-25 6 -54 6
q-24 0 -70 -5.5t-69 -5.5q-13 -8 -15 -31l-2 -36l3 -4q27 9 48 9q18 0 50 -6q36 -6 50 -7q60 2 179 -2q0 -46 -15 -178l-11 -13q-193 18 -294 18q-27 0 -79.5 -7t-79.5 -7q-31 0 -66 17q8 125 25 433q11 194 11 214q0 45 -27 39l2 20q18 8 91 20q70 11 96 11q161 0 365 -1z
M545 736h-36q-32 0 -93 -2.5t-90 -2.5q-17 0 -50 4t-50 4q-28 0 -160 -23q3 -20 3 -41q0 -28 -6.5 -83.5t-6.5 -83.5v-191q0 -33 -9 -100.5t-9 -101.5v-77q28 0 98 5q63 3 98 3q73 0 280 -9q7 44 17 132q-89 17 -248 17q-10 0 -28.5 -4.5t-28.5 -4.5q-11 0 -24 2l-11 9
q7 34 23 103q178 16 204 15q7 50 22 149h-132q-11 0 -32 -5t-31 -5q-22 0 -22 18l12 37q10 32 10 89q30 6 66 6q38 0 115 -8q27 -6 83 -14l14 -11h5l8 3q0 24 9 171zM554 1003l-7 -32q-11 -11 -33 -25q-30 -19 -35 -23q-28 -24 -56 -47q-34 -29 -61 -38q-14 -4 -14 -10v-6
q0 -8 -6 -14l-52 16q-31 9 -53 9q-14 0 -25 -5v38q11 14 31 43q34 4 89 60q51 52 102 52q11 0 46 -6t43 -9l5 -8zM517 978q-52 21 -80 21q-13 0 -42 -18l-11 4q-27 -28 -55.5 -55t-66.5 -39q-18 -16 -18 -20q0 -15 26 -24q21 -8 40 -8q8 0 14 2q6 6 20.5 12t19.5 10
q51 39 153 115z" />
    <glyph glyph-name="Ecircumflex" unicode="&#xca;" horiz-adv-x="623" 
d="M593 761q0 -19 -5.5 -83t-5.5 -93q0 -24 3 -37q-6 -15 -19 -15q-5 0 -13.5 4.5t-13.5 4.5q-3 0 -9 -2t-9 -2q-7 0 -24 9q-20 10 -25 12q-34 10 -101 10q-36 0 -75 -5q-20 -39 -21 -94h38q6 0 16.5 4.5t16.5 4.5q18 0 55.5 2.5t57.5 2.5l25 -1q0 -46 -29 -206q-25 6 -54 6
q-24 0 -70 -5.5t-69 -5.5q-13 -8 -15 -31l-2 -36l3 -4q27 9 48 9q18 0 50 -6q36 -6 50 -7q60 2 179 -2q0 -46 -15 -178l-11 -13q-193 18 -294 18q-27 0 -79.5 -7t-79.5 -7q-31 0 -66 17q8 125 25 433q11 194 11 214q0 45 -27 39l2 20q18 8 91 20q70 11 96 11q161 0 365 -1z
M565 736h-36q-32 0 -93 -2.5t-90 -2.5q-17 0 -50 4t-50 4q-28 0 -160 -23q3 -20 3 -41q0 -28 -6.5 -83.5t-6.5 -83.5v-191q0 -33 -9 -100.5t-9 -101.5v-77q28 0 98 5q63 3 98 3q73 0 280 -9q7 44 17 132q-89 17 -248 17q-10 0 -28.5 -4.5t-28.5 -4.5q-11 0 -24 2l-11 9
q7 34 23 103q178 16 204 15q7 50 22 149h-132q-11 0 -32 -5t-31 -5q-22 0 -22 18l12 37q10 32 10 89q30 6 66 6q38 0 115 -8q27 -6 83 -14l14 -11h5l8 3q0 24 9 171zM445 813q0 -9 -15.5 -16t-25.5 -7q-65 0 -79 24q-4 6 -12 77l-4 -13q-12 -13 -19.5 -32t-14.5 -37
q-15 0 -46 -1.5t-47 -1.5q-6 0 -27 11q3 21 53 94q62 91 68 102l-6 -1l-3 6q25 16 68 16q36 0 59 -5q11 -71 33 -178q2 -4 10 -17t8 -21zM420 814q-4 13 -11 39q-9 74 -26 157q-8 8 -22 8q-53 0 -66 -9q-19 -15 -68.5 -90t-49.5 -94q55 0 87 3q11 33 50 103h9q3 -12 13 -104
q31 -18 64 -18q13 0 20 5z" />
    <glyph glyph-name="Edieresis" unicode="&#xcb;" horiz-adv-x="607" 
d="M576 761q0 -19 -5.5 -83t-5.5 -93q0 -24 3 -37q-6 -15 -19 -15q-5 0 -13.5 4.5t-13.5 4.5q-3 0 -9 -2t-9 -2q-7 0 -24 9q-20 10 -25 12q-34 10 -101 10q-36 0 -75 -5q-20 -39 -21 -94h38q6 0 16.5 4.5t16.5 4.5q18 0 55.5 2.5t57.5 2.5l25 -1q0 -46 -29 -206q-25 6 -54 6
q-24 0 -70 -5.5t-69 -5.5q-13 -8 -15 -31l-2 -36l3 -4q27 9 48 9q18 0 50 -6q36 -6 50 -7q60 2 179 -2q0 -46 -15 -178l-11 -13q-193 18 -294 18q-27 0 -79.5 -7t-79.5 -7q-31 0 -66 17q8 125 25 433q11 194 11 214q0 45 -27 39l2 20q18 8 91 20q70 11 96 11q161 0 365 -1z
M548 736h-36q-32 0 -93 -2.5t-90 -2.5q-17 0 -50 4t-50 4q-28 0 -160 -23q3 -20 3 -41q0 -28 -6.5 -83.5t-6.5 -83.5v-191q0 -33 -9 -100.5t-9 -101.5v-77q28 0 98 5q63 3 98 3q73 0 280 -9q7 44 17 132q-89 17 -248 17q-10 0 -28.5 -4.5t-28.5 -4.5q-11 0 -24 2l-11 9
q7 34 23 103q178 16 204 15q7 50 22 149h-132q-11 0 -32 -5t-31 -5q-22 0 -22 18l12 37q10 32 10 89q30 6 66 6q38 0 115 -8q27 -6 83 -14l14 -11h5l8 3q0 24 9 171zM536 942q0 -51 -35.5 -93t-85.5 -42q-64 0 -64 92q0 41 32.5 70.5t74.5 29.5q34 0 75 -32q3 -12 3 -25z
M519 929q0 49 -56 49q-37 0 -64 -24.5t-27 -60.5q0 -64 45 -64q26 0 51 16l-3 8q0 2 12 14t14 24q20 10 24 14.5t4 23.5zM270 887q0 -24 -35.5 -45t-61.5 -21q-31 0 -59.5 35t-28.5 67q0 31 24 52.5t56 21.5q37 0 71 -36t34 -74zM248 897q0 23 -30 51t-53 28q-55 0 -55 -53
q0 -29 19.5 -55t47.5 -26q24 0 47.5 16.5t23.5 38.5z" />
    <glyph glyph-name="Igrave" unicode="&#xcc;" horiz-adv-x="467" 
d="M408 738q0 -110 -5.5 -331t-5.5 -332q0 -47 -5 -61l-6 -6q-13 7 -41 14l-6 -8q-13 0 -39.5 -2.5t-40.5 -2.5h-88l7 13q0 55 1 153q1 107 1 154q0 6 -3.5 18t-3.5 18v217q0 19 5.5 55t5.5 55q0 17 -4 33h-2l-17 11q22 16 90 16q76 0 157 -14zM385 455v251q0 24 -136 23
h-30l17 -14h-31q-8 -208 -8 -408q0 -166 8 -270q56 -5 46 -5q13 0 38 8t38 8q17 0 39 -9q-2 26 -2 54q0 61 10.5 181.5t10.5 180.5zM393 808q-11 5 -25 5q-22 0 -53 -9q-26 -8 -53 -16q-5 6 -5 20q0 6 -14 10q-27 9 -61 38q-28 23 -56 47q-24 14 -69 48v46l13 -17l7 -2l5 8
q8 3 43 9t45 6q52 0 103 -52q55 -56 89 -60q10 -14 31 -43v-38zM361 851q0 4 -19 20q-37 12 -65.5 39t-56.5 55l-11 -4q-28 18 -41 18q-28 0 -80 -21q5 -3 153 -115q14 -5 40 -22q6 -2 14 -2q19 0 39 8q27 9 27 24z" />
    <glyph glyph-name="Iacute" unicode="&#xcd;" horiz-adv-x="350" 
d="M282 738q0 -110 -5.5 -331t-5.5 -332q0 -47 -5 -61l-6 -6q-13 7 -41 14l-6 -8q-13 0 -39.5 -2.5t-40.5 -2.5h-88l7 13q0 55 1 153q1 107 1 154q0 6 -3.5 18t-3.5 18v217q0 19 5.5 55t5.5 55q0 17 -4 33h-2l-17 11q22 16 90 16q76 0 157 -14zM259 455v251q0 24 -136 23
h-30l17 -14h-31q-8 -208 -8 -408q0 -166 8 -270q56 -5 46 -5q13 0 38 8t38 8q17 0 39 -9q-2 26 -2 54q0 61 10.5 181.5t10.5 180.5zM375 1003l-7 -32q-11 -11 -33 -25q-30 -19 -35 -23q-28 -24 -56 -47q-34 -29 -61 -38q-14 -4 -14 -10v-6q0 -8 -6 -14l-52 16q-31 9 -53 9
q-14 0 -25 -5v38q11 14 31 43q34 4 89 60q51 52 102 52q11 0 46 -6t43 -9l5 -8zM338 978q-52 21 -80 21q-13 0 -42 -18l-11 4q-27 -28 -55.5 -55t-66.5 -39q-18 -16 -18 -20q0 -15 26 -24q21 -8 40 -8q8 0 14 2q6 6 20.5 12t19.5 10q51 39 153 115z" />
    <glyph glyph-name="Icircumflex" unicode="&#xce;" horiz-adv-x="379" 
d="M321 738q0 -110 -5.5 -331t-5.5 -332q0 -47 -5 -61l-6 -6q-13 7 -41 14l-6 -8q-13 0 -39.5 -2.5t-40.5 -2.5h-88l7 13q0 55 1 153q1 107 1 154q0 6 -3.5 18t-3.5 18v217q0 19 5.5 55t5.5 55q0 17 -4 33h-2l-17 11q22 16 90 16q76 0 157 -14zM298 455v251q0 24 -136 23
h-30l17 -14h-31q-8 -208 -8 -408q0 -166 8 -270q56 -5 46 -5q13 0 38 8t38 8q17 0 39 -9q-2 26 -2 54q0 61 10.5 181.5t10.5 180.5zM285 813q0 -9 -15.5 -16t-25.5 -7q-65 0 -79 24q-4 6 -12 77l-4 -13q-12 -13 -19.5 -32t-14.5 -37q-15 0 -46 -1.5t-47 -1.5q-6 0 -27 11
q3 21 53 94q62 91 68 102l-6 -1l-3 6q25 16 68 16q36 0 59 -5q11 -71 33 -178q2 -4 10 -17t8 -21zM260 814q-4 13 -11 39q-9 74 -26 157q-8 8 -22 8q-53 0 -66 -9q-19 -15 -68.5 -90t-49.5 -94q55 0 87 3q11 33 50 103h9q3 -12 13 -104q31 -18 64 -18q13 0 20 5z" />
    <glyph glyph-name="Idieresis" unicode="&#xcf;" horiz-adv-x="412" 
d="M354 738q0 -110 -5.5 -331t-5.5 -332q0 -47 -5 -61l-6 -6q-13 7 -41 14l-6 -8q-13 0 -39.5 -2.5t-40.5 -2.5h-88l7 13q0 55 1 153q1 107 1 154q0 6 -3.5 18t-3.5 18v217q0 19 5.5 55t5.5 55q0 17 -4 33h-2l-17 11q22 16 90 16q76 0 157 -14zM331 455v251q0 24 -136 23
h-30l17 -14h-31q-8 -208 -8 -408q0 -166 8 -270q56 -5 46 -5q13 0 38 8t38 8q17 0 39 -9q-2 26 -2 54q0 61 10.5 181.5t10.5 180.5zM426 942q0 -51 -35.5 -93t-85.5 -42q-64 0 -64 92q0 41 32.5 70.5t74.5 29.5q34 0 75 -32q3 -12 3 -25zM409 929q0 49 -56 49
q-37 0 -64 -24.5t-27 -60.5q0 -64 45 -64q26 0 51 16l-3 8q0 2 12 14t14 24q20 10 24 14.5t4 23.5zM160 887q0 -24 -35.5 -45t-61.5 -21q-31 0 -59.5 35t-28.5 67q0 31 24 52.5t56 21.5q37 0 71 -36t34 -74zM138 897q0 23 -30 51t-53 28q-55 0 -55 -53q0 -29 19.5 -55
t47.5 -26q24 0 47.5 16.5t23.5 38.5z" />
    <glyph glyph-name="Eth" unicode="&#xd0;" horiz-adv-x="749" 
d="M81 18q-2 9 -2 17q0 7 2.5 20t2.5 20q0 171 6 235q-16 3 -89 27q-1 9 -1 19q0 67 31 103q18 0 67 -2l8 298q32 15 90 15q86 0 222 -32q141 -33 212 -73q79 -44 79 -172q0 -49 -11 -120q-9 -59 -18 -119q-18 -133 -186 -199q-95 -37 -413 -37zM617 170q30 38 48 138
q15 81 15 148q0 149 -64 187q-86 51 -226 78q-119 23 -239 23h-14l-6 -5q-9 -138 -9 -180q0 -17 2 -51.5t2 -51.5l-3 -19q-91 -1 -90 -1q-10 -72 -10 -79q41 -25 96 -19q-12 -82 -12 -221v-68q20 -9 70 -9q148 0 238 20q146 32 192 120zM499 424q0 -91 -26 -134
q-28 -48 -110 -80q-42 -17 -68 -17q-9 0 -20 14.5t-11 24.5q0 13 4 41t3 45l25 -3q11 0 20 1q35 76 35 110q0 3 -4 14q-26 -2 -78 -9q1 37 7 110q11 17 37 17q34 0 131 -46q55 -25 55 -88zM475 406q0 38 -14 57l-11 -9q-4 8 -16 23t-58.5 38t-65.5 23q-9 0 -14 -5
q-1 -73 -1 -81q44 12 43 12q7 0 31 -11q2 -11 2 -22q0 -28 -12 -70q-16 -57 -18 -68h-45v-71h24q35 0 89.5 38t59.5 72q6 40 6 74z" />
    <glyph glyph-name="Ntilde" unicode="&#xd1;" horiz-adv-x="731" 
d="M704 739q-17 -35 -21 -102q-5 -73 -15 -103l-7 -20v-175q0 -12 -4.5 -37t-4.5 -37q0 -23 2.5 -68t2.5 -67q0 -26 19 -50l-18 -24q-8 12 -18 12q-4 0 -10 -7t-13 -7q-9 0 -27 4.5t-28 4.5q-24 0 -79 5q-51 4 -79 3q-15 19 -105 116q-65 71 -99 123q0 -44 25 -129.5
t25 -130.5q-22 2 -45 2q-75 0 -168 -26v51q0 50 -3 145q-3 99 -3 145q0 24 4.5 70.5t4.5 69.5q0 197 -20 249q80 6 133 6q60 0 111 -7q71 -109 214 -328q4 24 4 141q0 14 4.5 41t4.5 41q0 16 -24 88zM667 715q-122 -2 -155 0q0 -33 -3 -174q-2 -107 0 -174l-7 -16h-15
q-13 26 -116.5 193.5t-112.5 174.5q-26 21 -110 21q10 0 -93 -3q5 -636 5 -676q51 10 162 17q-1 41 -24 121t-23 123q0 18 3 33l16 12q64 -94 173 -212q17 -23 46 -53q24 -14 104 -14q23 0 60 2q46 2 59 2q-5 246 -5 256q0 201 36 367zM494 884l-19 4q-13 -19 -51.5 -42
t-58.5 -23q-30 0 -66 37.5t-61 37.5q-28 0 -54 -34q-10 -13 -36 -59l-23 -5q-5 14 -12 44q-1 23 -9 60q-7 13 -7 16q0 17 48 53q45 34 66 40q32 7 56 7q39 0 59 -20q8 -7 25 -38q11 -20 27 -20q13 0 43 19q25 16 38 29h20q3 -36 15 -106zM473 909q0 10 -10 59l-42 -26
q-29 -17 -43 -17q-25 0 -37 21q-23 38 -24 40q-21 21 -65 21q-29 0 -80 -33t-51 -60q0 -56 15 -88q23 28 45 57q28 31 61 31q27 0 64 -37t64 -37q17 0 60 27t43 42z" />
    <glyph glyph-name="Ograve" unicode="&#xd2;" horiz-adv-x="754" 
d="M714 450q0 -212 -84 -305q-88 -100 -298 -100q-13 0 -65 16q-46 14 -66 22q-101 41 -135 108q-29 55 -29 172q0 78 18 126q3 9 54 113q5 10 17 29q32 41 112 73q75 30 133 30q63 0 116 -16q73 -21 92 -64l-4 -5q56 -25 97 -81q42 -59 42 -118zM694 429q0 48 -32 107
t-74 81q-51 27 -51 39q0 5 3 8q-50 43 -165 43q-141 0 -230 -102q-84 -96 -84 -240q0 -78 13 -123q18 -65 67 -100q43 -30 102.5 -49.5t111.5 -19.5q108 0 188 37q96 46 123 138q28 101 28 181zM509 320q0 -63 -28.5 -95.5t-89.5 -49.5q-28 -7 -38 -7q-71 0 -112 38.5
t-41 108.5q0 64 40 131q46 76 106 76q83 0 126 -62q37 -53 37 -140zM486 320q0 68 -30 118q-35 60 -99 60q-57 0 -97 -62q-36 -56 -36 -116q0 -57 33 -93t89 -36q57 0 98.5 36.5t41.5 92.5zM453 808q-11 5 -25 5q-22 0 -53 -9q-26 -8 -53 -16q-5 6 -5 20q0 6 -14 10
q-27 9 -61 38q-28 23 -56 47q-24 14 -69 48v46l13 -17l7 -2l5 8q8 3 43 9t45 6q52 0 103 -52q55 -56 89 -60q10 -14 31 -43v-38zM421 851q0 4 -19 20q-37 12 -65.5 39t-56.5 55l-11 -4q-28 18 -41 18q-28 0 -80 -21q5 -3 153 -115q14 -5 40 -22q6 -2 14 -2q19 0 39 8
q27 9 27 24z" />
    <glyph glyph-name="Oacute" unicode="&#xd3;" horiz-adv-x="754" 
d="M714 450q0 -212 -84 -305q-88 -100 -298 -100q-13 0 -65 16q-46 14 -66 22q-101 41 -135 108q-29 55 -29 172q0 78 18 126q3 9 54 113q5 10 17 29q32 41 112 73q75 30 133 30q63 0 116 -16q73 -21 92 -64l-4 -5q56 -25 97 -81q42 -59 42 -118zM694 429q0 48 -32 107
t-74 81q-51 27 -51 39q0 5 3 8q-50 43 -165 43q-141 0 -230 -102q-84 -96 -84 -240q0 -78 13 -123q18 -65 67 -100q43 -30 102.5 -49.5t111.5 -19.5q108 0 188 37q96 46 123 138q28 101 28 181zM509 320q0 -63 -28.5 -95.5t-89.5 -49.5q-28 -7 -38 -7q-71 0 -112 38.5
t-41 108.5q0 64 40 131q46 76 106 76q83 0 126 -62q37 -53 37 -140zM486 320q0 68 -30 118q-35 60 -99 60q-57 0 -97 -62q-36 -56 -36 -116q0 -57 33 -93t89 -36q57 0 98.5 36.5t41.5 92.5zM561 1003l-7 -32q-11 -11 -33 -25q-30 -19 -35 -23q-28 -24 -56 -47
q-34 -29 -61 -38q-14 -4 -14 -10v-6q0 -8 -6 -14l-52 16q-31 9 -53 9q-14 0 -25 -5v38q11 14 31 43q34 4 89 60q51 52 102 52q11 0 46 -6t43 -9l5 -8zM524 978q-52 21 -80 21q-13 0 -42 -18l-11 4q-27 -28 -55.5 -55t-66.5 -39q-18 -16 -18 -20q0 -15 26 -24q21 -8 40 -8
q8 0 14 2q6 6 20.5 12t19.5 10q51 39 153 115z" />
    <glyph glyph-name="Ocircumflex" unicode="&#xd4;" horiz-adv-x="754" 
d="M714 450q0 -212 -84 -305q-88 -100 -298 -100q-13 0 -65 16q-46 14 -66 22q-101 41 -135 108q-29 55 -29 172q0 78 18 126q3 9 54 113q5 10 17 29q32 41 112 73q75 30 133 30q63 0 116 -16q73 -21 92 -64l-4 -5q56 -25 97 -81q42 -59 42 -118zM694 429q0 48 -32 107
t-74 81q-51 27 -51 39q0 5 3 8q-50 43 -165 43q-141 0 -230 -102q-84 -96 -84 -240q0 -78 13 -123q18 -65 67 -100q43 -30 102.5 -49.5t111.5 -19.5q108 0 188 37q96 46 123 138q28 101 28 181zM509 320q0 -63 -28.5 -95.5t-89.5 -49.5q-28 -7 -38 -7q-71 0 -112 38.5
t-41 108.5q0 64 40 131q46 76 106 76q83 0 126 -62q37 -53 37 -140zM486 320q0 68 -30 118q-35 60 -99 60q-57 0 -97 -62q-36 -56 -36 -116q0 -57 33 -93t89 -36q57 0 98.5 36.5t41.5 92.5zM432 813q0 -9 -15.5 -16t-25.5 -7q-65 0 -79 24q-4 6 -12 77l-4 -13
q-12 -13 -19.5 -32t-14.5 -37q-15 0 -46 -1.5t-47 -1.5q-6 0 -27 11q3 21 53 94q62 91 68 102l-6 -1l-3 6q25 16 68 16q36 0 59 -5q11 -71 33 -178q2 -4 10 -17t8 -21zM407 814q-4 13 -11 39q-9 74 -26 157q-8 8 -22 8q-53 0 -66 -9q-19 -15 -68.5 -90t-49.5 -94q55 0 87 3
q11 33 50 103h9q3 -12 13 -104q31 -18 64 -18q13 0 20 5z" />
    <glyph glyph-name="Otilde" unicode="&#xd5;" horiz-adv-x="754" 
d="M714 450q0 -212 -84 -305q-88 -100 -298 -100q-13 0 -65 16q-46 14 -66 22q-101 41 -135 108q-29 55 -29 172q0 78 18 126q3 9 54 113q5 10 17 29q32 41 112 73q75 30 133 30q63 0 116 -16q73 -21 92 -64l-4 -5q56 -25 97 -81q42 -59 42 -118zM694 429q0 48 -32 107
t-74 81q-51 27 -51 39q0 5 3 8q-50 43 -165 43q-141 0 -230 -102q-84 -96 -84 -240q0 -78 13 -123q18 -65 67 -100q43 -30 102.5 -49.5t111.5 -19.5q108 0 188 37q96 46 123 138q28 101 28 181zM509 320q0 -63 -28.5 -95.5t-89.5 -49.5q-28 -7 -38 -7q-71 0 -112 38.5
t-41 108.5q0 64 40 131q46 76 106 76q83 0 126 -62q37 -53 37 -140zM486 320q0 68 -30 118q-35 60 -99 60q-57 0 -97 -62q-36 -56 -36 -116q0 -57 33 -93t89 -36q57 0 98.5 36.5t41.5 92.5zM492 884l-19 4q-13 -19 -51.5 -42t-58.5 -23q-30 0 -66 37.5t-61 37.5
q-28 0 -54 -34q-10 -13 -36 -59l-23 -5q-5 14 -12 44q-1 23 -9 60q-7 13 -7 16q0 17 48 53q45 34 66 40q32 7 56 7q39 0 59 -20q8 -7 25 -38q11 -20 27 -20q13 0 43 19q25 16 38 29h20q3 -36 15 -106zM471 909q0 10 -10 59l-42 -26q-29 -17 -43 -17q-25 0 -37 21
q-23 38 -24 40q-21 21 -65 21q-29 0 -80 -33t-51 -60q0 -56 15 -88q23 28 45 57q28 31 61 31q27 0 64 -37t64 -37q17 0 60 27t43 42z" />
    <glyph glyph-name="Odieresis" unicode="&#xd6;" horiz-adv-x="754" 
d="M714 450q0 -212 -84 -305q-88 -100 -298 -100q-13 0 -65 16q-46 14 -66 22q-101 41 -135 108q-29 55 -29 172q0 78 18 126q3 9 54 113q5 10 17 29q32 41 112 73q75 30 133 30q63 0 116 -16q73 -21 92 -64l-4 -5q56 -25 97 -81q42 -59 42 -118zM694 429q0 48 -32 107
t-74 81q-51 27 -51 39q0 5 3 8q-50 43 -165 43q-141 0 -230 -102q-84 -96 -84 -240q0 -78 13 -123q18 -65 67 -100q43 -30 102.5 -49.5t111.5 -19.5q108 0 188 37q96 46 123 138q28 101 28 181zM509 320q0 -63 -28.5 -95.5t-89.5 -49.5q-28 -7 -38 -7q-71 0 -112 38.5
t-41 108.5q0 64 40 131q46 76 106 76q83 0 126 -62q37 -53 37 -140zM486 320q0 68 -30 118q-35 60 -99 60q-57 0 -97 -62q-36 -56 -36 -116q0 -57 33 -93t89 -36q57 0 98.5 36.5t41.5 92.5zM540 942q0 -51 -35.5 -93t-85.5 -42q-64 0 -64 92q0 41 32.5 70.5t74.5 29.5
q34 0 75 -32q3 -12 3 -25zM523 929q0 49 -56 49q-37 0 -64 -24.5t-27 -60.5q0 -64 45 -64q26 0 51 16l-3 8q0 2 12 14t14 24q20 10 24 14.5t4 23.5zM274 887q0 -24 -35.5 -45t-61.5 -21q-31 0 -59.5 35t-28.5 67q0 31 24 52.5t56 21.5q37 0 71 -36t34 -74zM252 897
q0 23 -30 51t-53 28q-55 0 -55 -53q0 -29 19.5 -55t47.5 -26q24 0 47.5 16.5t23.5 38.5z" />
    <glyph glyph-name="multiply" unicode="&#xd7;" horiz-adv-x="528" 
d="M473 73l-53 -52l-149 127l-164 -130l-53 52l148 153l-146 164l53 52l159 -144l152 144l53 -52l-133 -164zM451 83l-145 145l144 147l-37 37l-145 -145l-144 143l-37 -37l145 -144l-145 -145l37 -37l145 145l145 -146z" />
    <glyph glyph-name="Oslash" unicode="&#xd8;" horiz-adv-x="770" 
d="M726 450q0 -212 -84 -305q-89 -100 -298 -100q-14 0 -75 19q-19 -37 -28 -63q-13 -8 -41 -8q-12 0 -36 2t-36 2q-3 0 -16.5 -6.5t-17.5 -7.5q0 24 58 130q-65 40 -87 108q-16 49 -16 142q0 78 17 126q3 7 55 113q9 19 16 29q30 40 112 73q77 30 133 30q39 0 78 -7
q21 24 21 43q0 12 -7 24q111 10 174 10q11 0 11 -16q0 -7 -67 -142q54 -26 93 -80q41 -58 41 -116zM706 429q0 48 -32.5 107t-73.5 81q-14 7 -42 23q38 77 65 136q-62 0 -109 -6q-3 -6 -50 -70q-44 7 -77 7q-142 0 -230 -102q-85 -96 -85 -240q0 -182 81 -223q11 -3 32 -10
q-21 -33 -35 -74q-3 -8 -13 -19.5t-13 -18.5q23 -4 42 -4q16 0 31 7q20 9 27 11q13 33 42 76q10 -3 50 -22q34 -15 50 -15q109 0 188 37q97 46 123 138q29 101 29 181zM521 320q0 -85 -60 -124q-51 -34 -138 -29h-17q42 61 90 151q40 78 80 157q45 -77 45 -155zM497 320
q0 55 -20 100q-18 -35 -136 -229h16q56 -3 98 34.5t42 94.5zM375 525q-12 -25 -27 -74.5t-26 -72.5q-70 -150 -71.5 -152t-3.5 -2q-1 0 -6.5 9.5t-8.5 9.5q-2 0 -3 -3q-18 31 -18 75q0 62 39 127q43 71 99 79zM336 492q-44 -16 -73 -71q-28 -51 -28 -101q0 -25 7 -47
q9 23 30 59q24 42 32.5 60t16.5 49q12 41 15 51z" />
    <glyph glyph-name="Ugrave" unicode="&#xd9;" horiz-adv-x="743" 
d="M733 674q-12 -24 -26 -33q-20 -137 -38 -279q-5 -41 -27 -96q-19 -46 -37 -93q-19 -51 -83 -110q-69 -64 -119 -64q-129 0 -173 16q-58 21 -135 110q-70 81 -81 150q-19 122 -19 279q0 39 6 102q8 80 9 101q25 -18 72 -18q21 0 62.5 2.5t62.5 2.5q43 0 85 -8l-18 -20h-8
l2 -1q-8 -11 -9 -118q1 157 1 -132q0 -30 -10 -87t-10 -86q0 -28 33 -55t62 -27q19 0 52 14q10 -1 10 -10q12 3 32 24q17 18 26 32q15 26 18 64q1 8 2 67v24l11 9q2 20 11 89q8 55 8 89q0 42 -11 67q39 0 119 -2.5t120 -2.5zM680 649l-18 -1q-24 0 -70 4.5t-68 4.5v-11
q0 -42 -4 -114q-6 -81 -6 -113l-15 -13q1 -8 1 -19q0 -71 -27 -128q-34 -73 -97 -73q-158 0 -158 119q0 3 8 45q2 38 7 113q0 85 9 254q-72 4 -209 4q-15 -44 -15 -176q0 -199 24 -286q15 -53 86 -132t122 -94q33 -10 85 -10q164 0 234 133q7 14 14 44.5t15 45.5
q32 55 41 111q4 59 9 117q33 83 32 175zM452 808q-11 5 -25 5q-22 0 -53 -9q-26 -8 -53 -16q-5 6 -5 20q0 6 -14 10q-27 9 -61 38q-28 23 -56 47q-24 14 -69 48v46l13 -17l7 -2l5 8q8 3 43 9t45 6q52 0 103 -52q55 -56 89 -60q10 -14 31 -43v-38zM420 851q0 4 -19 20
q-37 12 -65.5 39t-56.5 55l-11 -4q-28 18 -41 18q-28 0 -80 -21q5 -3 153 -115q14 -5 40 -22q6 -2 14 -2q19 0 39 8q27 9 27 24z" />
    <glyph glyph-name="Uacute" unicode="&#xda;" horiz-adv-x="743" 
d="M733 674q-12 -24 -26 -33q-20 -137 -38 -279q-5 -41 -27 -96q-19 -46 -37 -93q-19 -51 -83 -110q-69 -64 -119 -64q-129 0 -173 16q-58 21 -135 110q-70 81 -81 150q-19 122 -19 279q0 39 6 102q8 80 9 101q25 -18 72 -18q21 0 62.5 2.5t62.5 2.5q43 0 85 -8l-18 -20h-8
l2 -1q-8 -11 -9 -118q1 157 1 -132q0 -30 -10 -87t-10 -86q0 -28 33 -55t62 -27q19 0 52 14q10 -1 10 -10q12 3 32 24q17 18 26 32q15 26 18 64q1 8 2 67v24l11 9q2 20 11 89q8 55 8 89q0 42 -11 67q39 0 119 -2.5t120 -2.5zM680 649l-18 -1q-24 0 -70 4.5t-68 4.5v-11
q0 -42 -4 -114q-6 -81 -6 -113l-15 -13q1 -8 1 -19q0 -71 -27 -128q-34 -73 -97 -73q-158 0 -158 119q0 3 8 45q2 38 7 113q0 85 9 254q-72 4 -209 4q-15 -44 -15 -176q0 -199 24 -286q15 -53 86 -132t122 -94q33 -10 85 -10q164 0 234 133q7 14 14 44.5t15 45.5
q32 55 41 111q4 59 9 117q33 83 32 175zM560 1003l-7 -32q-11 -11 -33 -25q-30 -19 -35 -23q-28 -24 -56 -47q-34 -29 -61 -38q-14 -4 -14 -10v-6q0 -8 -6 -14l-52 16q-31 9 -53 9q-14 0 -25 -5v38q11 14 31 43q34 4 89 60q51 52 102 52q11 0 46 -6t43 -9l5 -8zM523 978
q-52 21 -80 21q-13 0 -42 -18l-11 4q-27 -28 -55.5 -55t-66.5 -39q-18 -16 -18 -20q0 -15 26 -24q21 -8 40 -8q8 0 14 2q6 6 20.5 12t19.5 10q51 39 153 115z" />
    <glyph glyph-name="Ucircumflex" unicode="&#xdb;" horiz-adv-x="743" 
d="M733 674q-12 -24 -26 -33q-20 -137 -38 -279q-5 -41 -27 -96q-19 -46 -37 -93q-19 -51 -83 -110q-69 -64 -119 -64q-129 0 -173 16q-58 21 -135 110q-70 81 -81 150q-19 122 -19 279q0 39 6 102q8 80 9 101q25 -18 72 -18q21 0 62.5 2.5t62.5 2.5q43 0 85 -8l-18 -20h-8
l2 -1q-8 -11 -9 -118q1 157 1 -132q0 -30 -10 -87t-10 -86q0 -28 33 -55t62 -27q19 0 52 14q10 -1 10 -10q12 3 32 24q17 18 26 32q15 26 18 64q1 8 2 67v24l11 9q2 20 11 89q8 55 8 89q0 42 -11 67q39 0 119 -2.5t120 -2.5zM680 649l-18 -1q-24 0 -70 4.5t-68 4.5v-11
q0 -42 -4 -114q-6 -81 -6 -113l-15 -13q1 -8 1 -19q0 -71 -27 -128q-34 -73 -97 -73q-158 0 -158 119q0 3 8 45q2 38 7 113q0 85 9 254q-72 4 -209 4q-15 -44 -15 -176q0 -199 24 -286q15 -53 86 -132t122 -94q33 -10 85 -10q164 0 234 133q7 14 14 44.5t15 45.5
q32 55 41 111q4 59 9 117q33 83 32 175zM431 813q0 -9 -15.5 -16t-25.5 -7q-65 0 -79 24q-4 6 -12 77l-4 -13q-12 -13 -19.5 -32t-14.5 -37q-15 0 -46 -1.5t-47 -1.5q-6 0 -27 11q3 21 53 94q62 91 68 102l-6 -1l-3 6q25 16 68 16q36 0 59 -5q11 -71 33 -178q2 -4 10 -17
t8 -21zM406 814q-4 13 -11 39q-9 74 -26 157q-8 8 -22 8q-53 0 -66 -9q-19 -15 -68.5 -90t-49.5 -94q55 0 87 3q11 33 50 103h9q3 -12 13 -104q31 -18 64 -18q13 0 20 5z" />
    <glyph glyph-name="Udieresis" unicode="&#xdc;" horiz-adv-x="743" 
d="M733 674q-12 -24 -26 -33q-20 -137 -38 -279q-5 -41 -27 -96q-19 -46 -37 -93q-19 -51 -83 -110q-69 -64 -119 -64q-129 0 -173 16q-58 21 -135 110q-70 81 -81 150q-19 122 -19 279q0 39 6 102q8 80 9 101q25 -18 72 -18q21 0 62.5 2.5t62.5 2.5q43 0 85 -8l-18 -20h-8
l2 -1q-8 -11 -9 -118q1 157 1 -132q0 -30 -10 -87t-10 -86q0 -28 33 -55t62 -27q19 0 52 14q10 -1 10 -10q12 3 32 24q17 18 26 32q15 26 18 64q1 8 2 67v24l11 9q2 20 11 89q8 55 8 89q0 42 -11 67q39 0 119 -2.5t120 -2.5zM680 649l-18 -1q-24 0 -70 4.5t-68 4.5v-11
q0 -42 -4 -114q-6 -81 -6 -113l-15 -13q1 -8 1 -19q0 -71 -27 -128q-34 -73 -97 -73q-158 0 -158 119q0 3 8 45q2 38 7 113q0 85 9 254q-72 4 -209 4q-15 -44 -15 -176q0 -199 24 -286q15 -53 86 -132t122 -94q33 -10 85 -10q164 0 234 133q7 14 14 44.5t15 45.5
q32 55 41 111q4 59 9 117q33 83 32 175zM539 942q0 -51 -35.5 -93t-85.5 -42q-64 0 -64 92q0 41 32.5 70.5t74.5 29.5q34 0 75 -32q3 -12 3 -25zM522 929q0 49 -56 49q-37 0 -64 -24.5t-27 -60.5q0 -64 45 -64q26 0 51 16l-3 8q0 2 12 14t14 24q20 10 24 14.5t4 23.5z
M273 887q0 -24 -35.5 -45t-61.5 -21q-31 0 -59.5 35t-28.5 67q0 31 24 52.5t56 21.5q37 0 71 -36t34 -74zM251 897q0 23 -30 51t-53 28q-55 0 -55 -53q0 -29 19.5 -55t47.5 -26q24 0 47.5 16.5t23.5 38.5z" />
    <glyph glyph-name="Yacute" unicode="&#xdd;" horiz-adv-x="785" 
d="M782 719q-14 -39 -96 -100q-145 -108 -154 -117q-89 -76 -118 -149q-9 -21 -11 -159q-3 -149 -10 -185q-118 8 -155 8q-12 0 -35.5 -4.5t-35.5 -4.5t-18 14v16q0 47 22.5 140.5t22.5 140.5q0 7 -99.5 159.5t-99.5 177.5v42h22q39 -1 99 16q80 23 98 26q26 -47 50 -120
q19 -62 39 -123q100 166 100 196q0 6 -4 27q1 0 137 9q83 6 138 6q13 0 108 -16zM739 702q-7 1 -36 6q-22 3 -36 3l-54 -6q-6 -12 -19 -12q-20 0 -61 5t-62 5q-24 0 -44 -5q-2 -17 -48 -117q-45 -96 -59 -118q-9 -13 -20 -16q-20 36 -48 134q-26 87 -56 130q-40 -12 -79 -23
q-48 -13 -81 -13q-5 0 -22 4l2 -18q12 -5 21 -29q5 -19 11 -37q22 -56 66 -114q30 -38 60 -75q48 -62 48 -71q0 -49 -22.5 -145t-22.5 -145q0 -9 29 -9q16 0 48 1.5t48 1.5q40 0 62 -6q21 27 21 83q0 14 -2 41t-2 38q0 159 14 189q33 70 160 166q151 114 184 152zM565 1003
l-7 -32q-11 -11 -33 -25q-30 -19 -35 -23q-28 -24 -56 -47q-34 -29 -61 -38q-14 -4 -14 -10v-6q0 -8 -6 -14l-52 16q-31 9 -53 9q-14 0 -25 -5v38q11 14 31 43q34 4 89 60q51 52 102 52q11 0 46 -6t43 -9l5 -8zM528 978q-52 21 -80 21q-13 0 -42 -18l-11 4
q-27 -28 -55.5 -55t-66.5 -39q-18 -16 -18 -20q0 -15 26 -24q21 -8 40 -8q8 0 14 2q6 6 20.5 12t19.5 10q51 39 153 115z" />
    <glyph glyph-name="Thorn" unicode="&#xde;" horiz-adv-x="623" 
d="M596 419q0 -143 -101 -197q-73 -39 -228 -39l-12 6l-3 -4q1 -16 4 -59q3 -36 3 -58q0 -24 -13 -35q-135 0 -225 -16q0 -9 0 129q0 186 27 629l179 3l9 -167q152 -6 228 -33q132 -45 132 -159zM573 419q0 165 -366 175l-9 153h-121q-1 -40 -18 -348q-12 -212 -12 -349
q17 -3 39 -3q40 0 145 17q5 21 5 67q0 15 -4.5 42.5t-4.5 43.5q16 0 55 -1q36 -2 54 -2q237 0 237 205zM426 389q0 -44 -25 -69t-69 -25q-51 0 -96 29q0 10 -2 42q-1 26 -1 42q0 49 10 67l8 -1q10 -1 27 5t25 6q34 0 78.5 -31.5t44.5 -64.5zM400 378q0 36 -30.5 60t-68.5 24
q-40 0 -40 -42q0 -5 1 -16v-17q0 -25 -7 -41q28 -25 71 -25q74 0 74 57z" />
    <glyph glyph-name="germandbls" unicode="&#xdf;" horiz-adv-x="591" 
d="M557 561q0 -76 -35 -109q-23 -22 -102 -50l-4 -2q20 -17 56 -55q12 -15 34.5 -66.5t22.5 -67.5q0 -93 -85 -139q-49 -26 -166 -48l-11 158q105 0 105 44q0 31 -48.5 78.5t-80.5 47.5v165q18 0 60 17l1 9q1 29 -25 50.5t-56 21.5q-12 -70 -14 -210.5t-13 -208.5
q-3 -16 -32 -183q-85 0 -113 59q-19 39 -19 134q0 86 13 256.5t13 256.5q0 4 -3 12.5t-3 12.5l7 11q2 1 22 7q13 5 22 5q24 0 59 -8q55 -13 59 -14l108 -14q64 -9 106 -25q33 -13 72 -53t48 -73q2 -7 2 -19zM538 558q0 30 -44 75q-40 42 -72.5 54.5t-81.5 19.5l-84 10
q-7 1 -69 13q-42 8 -70 8q-25 0 -38 -7l1 -86q0 -112 -12 -253q-1 -7 -5 -30q-3 -18 -3 -29v-226q0 -30 30 -52q27 -20 58 -20q28 162 28 248q0 69 9 179l14 180l26 -7l7 1q-3 0 5 -4q5 -2 8 -2q33 0 60 -27.5t26 -60.5v-18q-33 -30 -70 -30l8 -127q45 0 86 -45t41 -91
q0 -37 -35 -57q-28 -16 -68 -16l6 -109q101 23 139 44q68 40 68 120q0 50 -47 109q-43 55 -91 78q-11 5 -11 16l11 11q23 -5 37 -5q56 0 94.5 40t38.5 96z" />
    <glyph glyph-name="agrave" unicode="&#xe0;" horiz-adv-x="555" 
d="M504 320q0 -62 -13 -150l-24 -148q-17 3 -74 2q-46 -1 -72 10l-10 24q-97 -36 -118 -36q-92 0 -142 111q-6 15 -6 23q0 18 37 100q20 44 57 58q26 10 82 10q22 0 65 -1.5t63 -1.5l1 -1l1 9q0 28 -17 53q-19 29 -45 29q-61 0 -111 -13q-70 -17 -89 -53h-24v97q0 11 9 32.5
t10 31.5q72 45 143 45q34 0 105 -7q83 -8 96 -18q8 -8 24 -25q43 -45 43 -65v-112h7zM477 259v159q0 30 -28 57.5t-58 27.5q-22 0 -65 12.5t-65 12.5q-80 0 -114 -13q-56 -22 -54 -88l1 -28q19 18 84 31q54 10 93 10q48 0 75 -37q23 -33 23 -83q0 -8 -1 -21l-15 -12
q-17 15 -87 15q-113 0 -132 -14q-15 -12 -40.5 -61.5t-25.5 -68.5q0 -39 42 -75.5t81 -36.5q10 0 53 13q29 10 58 19q9 12 16 12q4 0 20 -4v-35q26 -3 53 -3q28 0 57 8q0 1 18 101q11 61 11 102zM315 181q0 -28 -28.5 -50.5t-57.5 -22.5q-23 0 -43 17t-20 40q0 30 32 52.5
t63 22.5q22 0 38 -18t16 -41zM292 185q0 9 -11 22.5t-20 13.5q-17 0 -44.5 -17.5t-27.5 -34.5q0 -9 11.5 -23.5t20.5 -14.5q23 0 47 16t24 38zM446 564q-11 5 -25 5q-22 0 -53 -9q-26 -8 -53 -16q-5 6 -5 20q0 6 -14 10q-27 9 -61 38q-28 23 -56 47q-24 14 -69 48v46l13 -17
l7 -2l5 8q8 3 43 9t45 6q52 0 103 -52q55 -56 89 -60q10 -14 31 -43v-38zM414 607q0 4 -19 20q-37 12 -65.5 39t-56.5 55l-11 -4q-28 18 -41 18q-28 0 -80 -21q5 -3 153 -115q14 -5 40 -22q6 -2 14 -2q19 0 39 8q27 9 27 24z" />
    <glyph glyph-name="aacute" unicode="&#xe1;" horiz-adv-x="521" 
d="M467 320q0 -62 -13 -150l-24 -148q-17 3 -74 2q-46 -1 -72 10l-10 24q-97 -36 -118 -36q-92 0 -142 111q-6 15 -6 23q0 18 37 100q20 44 57 58q26 10 82 10q22 0 65 -1.5t63 -1.5l1 -1l1 9q0 28 -17 53q-19 29 -45 29q-61 0 -111 -13q-70 -17 -89 -53h-24v97q0 11 9 32.5
t10 31.5q72 45 143 45q34 0 105 -7q83 -8 96 -18q8 -8 24 -25q43 -45 43 -65v-112h7zM440 259v159q0 30 -28 57.5t-58 27.5q-22 0 -65 12.5t-65 12.5q-80 0 -114 -13q-56 -22 -54 -88l1 -28q19 18 84 31q54 10 93 10q48 0 75 -37q23 -33 23 -83q0 -8 -1 -21l-15 -12
q-17 15 -87 15q-113 0 -132 -14q-15 -12 -40.5 -61.5t-25.5 -68.5q0 -39 42 -75.5t81 -36.5q10 0 53 13q29 10 58 19q9 12 16 12q4 0 20 -4v-35q26 -3 53 -3q28 0 57 8q0 1 18 101q11 61 11 102zM278 181q0 -28 -28.5 -50.5t-57.5 -22.5q-23 0 -43 17t-20 40q0 30 32 52.5
t63 22.5q22 0 38 -18t16 -41zM255 185q0 9 -11 22.5t-20 13.5q-17 0 -44.5 -17.5t-27.5 -34.5q0 -9 11.5 -23.5t20.5 -14.5q23 0 47 16t24 38zM517 759l-7 -32q-11 -11 -33 -25q-30 -19 -35 -23q-28 -24 -56 -47q-34 -29 -61 -38q-14 -4 -14 -10v-6q0 -8 -6 -14l-52 16
q-31 9 -53 9q-14 0 -25 -5v38q11 14 31 43q34 4 89 60q51 52 102 52q11 0 46 -6t43 -9l5 -8zM480 734q-52 21 -80 21q-13 0 -42 -18l-11 4q-27 -28 -55.5 -55t-66.5 -39q-18 -16 -18 -20q0 -15 26 -24q21 -8 40 -8q8 0 14 2q6 6 20.5 12t19.5 10q51 39 153 115z" />
    <glyph glyph-name="acircumflex" unicode="&#xe2;" horiz-adv-x="558" 
d="M507 320q0 -62 -13 -150l-24 -148q-17 3 -74 2q-46 -1 -72 10l-10 24q-97 -36 -118 -36q-92 0 -142 111q-6 15 -6 23q0 18 37 100q20 44 57 58q26 10 82 10q22 0 65 -1.5t63 -1.5l1 -1l1 9q0 28 -17 53q-19 29 -45 29q-61 0 -111 -13q-70 -17 -89 -53h-24v97q0 11 9 32.5
t10 31.5q72 45 143 45q34 0 105 -7q83 -8 96 -18q8 -8 24 -25q43 -45 43 -65v-112h7zM480 259v159q0 30 -28 57.5t-58 27.5q-22 0 -65 12.5t-65 12.5q-80 0 -114 -13q-56 -22 -54 -88l1 -28q19 18 84 31q54 10 93 10q48 0 75 -37q23 -33 23 -83q0 -8 -1 -21l-15 -12
q-17 15 -87 15q-113 0 -132 -14q-15 -12 -40.5 -61.5t-25.5 -68.5q0 -39 42 -75.5t81 -36.5q10 0 53 13q29 10 58 19q9 12 16 12q4 0 20 -4v-35q26 -3 53 -3q28 0 57 8q0 1 18 101q11 61 11 102zM318 181q0 -28 -28.5 -50.5t-57.5 -22.5q-23 0 -43 17t-20 40q0 30 32 52.5
t63 22.5q22 0 38 -18t16 -41zM295 185q0 9 -11 22.5t-20 13.5q-17 0 -44.5 -17.5t-27.5 -34.5q0 -9 11.5 -23.5t20.5 -14.5q23 0 47 16t24 38zM428 569q0 -9 -15.5 -16t-25.5 -7q-65 0 -79 24q-4 6 -12 77l-4 -13q-12 -13 -19.5 -32t-14.5 -37q-15 0 -46 -1.5t-47 -1.5
q-6 0 -27 11q3 21 53 94q62 91 68 102l-6 -1l-3 6q25 16 68 16q36 0 59 -5q11 -71 33 -178q2 -4 10 -17t8 -21zM403 570q-4 13 -11 39q-9 74 -26 157q-8 8 -22 8q-53 0 -66 -9q-19 -15 -68.5 -90t-49.5 -94q55 0 87 3q11 33 50 103h9q3 -12 13 -104q31 -18 64 -18q13 0 20 5
z" />
    <glyph glyph-name="atilde" unicode="&#xe3;" horiz-adv-x="542" 
d="M489 320q0 -62 -13 -150l-24 -148q-17 3 -74 2q-46 -1 -72 10l-10 24q-97 -36 -118 -36q-92 0 -142 111q-6 15 -6 23q0 18 37 100q20 44 57 58q26 10 82 10q22 0 65 -1.5t63 -1.5l1 -1l1 9q0 28 -17 53q-19 29 -45 29q-61 0 -111 -13q-70 -17 -89 -53h-24v97q0 11 9 32.5
t10 31.5q72 45 143 45q34 0 105 -7q83 -8 96 -18q8 -8 24 -25q43 -45 43 -65v-112h7zM462 259v159q0 30 -28 57.5t-58 27.5q-22 0 -65 12.5t-65 12.5q-80 0 -114 -13q-56 -22 -54 -88l1 -28q19 18 84 31q54 10 93 10q48 0 75 -37q23 -33 23 -83q0 -8 -1 -21l-15 -12
q-17 15 -87 15q-113 0 -132 -14q-15 -12 -40.5 -61.5t-25.5 -68.5q0 -39 42 -75.5t81 -36.5q10 0 53 13q29 10 58 19q9 12 16 12q4 0 20 -4v-35q26 -3 53 -3q28 0 57 8q0 1 18 101q11 61 11 102zM300 181q0 -28 -28.5 -50.5t-57.5 -22.5q-23 0 -43 17t-20 40q0 30 32 52.5
t63 22.5q22 0 38 -18t16 -41zM277 185q0 9 -11 22.5t-20 13.5q-17 0 -44.5 -17.5t-27.5 -34.5q0 -9 11.5 -23.5t20.5 -14.5q23 0 47 16t24 38zM470 640l-19 4q-13 -19 -51.5 -42t-58.5 -23q-30 0 -66 37.5t-61 37.5q-28 0 -54 -34q-10 -13 -36 -59l-23 -5q-5 14 -12 44
q-1 23 -9 60q-7 13 -7 16q0 17 48 53q45 34 66 40q32 7 56 7q39 0 59 -20q8 -7 25 -38q11 -20 27 -20q13 0 43 19q25 16 38 29h20q3 -36 15 -106zM449 665q0 10 -10 59l-42 -26q-29 -17 -43 -17q-25 0 -37 21q-23 38 -24 40q-21 21 -65 21q-29 0 -80 -33t-51 -60
q0 -56 15 -88q23 28 45 57q28 31 61 31q27 0 64 -37t64 -37q17 0 60 27t43 42z" />
    <glyph glyph-name="adieresis" unicode="&#xe4;" horiz-adv-x="556" 
d="M494 320q0 -62 -13 -150l-24 -148q-17 3 -74 2q-46 -1 -72 10l-10 24q-97 -36 -118 -36q-92 0 -142 111q-6 15 -6 23q0 18 37 100q20 44 57 58q26 10 82 10q22 0 65 -1.5t63 -1.5l1 -1l1 9q0 28 -17 53q-19 29 -45 29q-61 0 -111 -13q-70 -17 -89 -53h-24v97q0 11 9 32.5
t10 31.5q72 45 143 45q34 0 105 -7q83 -8 96 -18q8 -8 24 -25q43 -45 43 -65v-112h7zM467 259v159q0 30 -28 57.5t-58 27.5q-22 0 -65 12.5t-65 12.5q-80 0 -114 -13q-56 -22 -54 -88l1 -28q19 18 84 31q54 10 93 10q48 0 75 -37q23 -33 23 -83q0 -8 -1 -21l-15 -12
q-17 15 -87 15q-113 0 -132 -14q-15 -12 -40.5 -61.5t-25.5 -68.5q0 -39 42 -75.5t81 -36.5q10 0 53 13q29 10 58 19q9 12 16 12q4 0 20 -4v-35q26 -3 53 -3q28 0 57 8q0 1 18 101q11 61 11 102zM305 181q0 -28 -28.5 -50.5t-57.5 -22.5q-23 0 -43 17t-20 40q0 30 32 52.5
t63 22.5q22 0 38 -18t16 -41zM282 185q0 9 -11 22.5t-20 13.5q-17 0 -44.5 -17.5t-27.5 -34.5q0 -9 11.5 -23.5t20.5 -14.5q23 0 47 16t24 38zM523 698q0 -51 -35.5 -93t-85.5 -42q-64 0 -64 92q0 41 32.5 70.5t74.5 29.5q34 0 75 -32q3 -12 3 -25zM506 685q0 49 -56 49
q-37 0 -64 -24.5t-27 -60.5q0 -64 45 -64q26 0 51 16l-3 8q0 2 12 14t14 24q20 10 24 14.5t4 23.5zM257 643q0 -24 -35.5 -45t-61.5 -21q-31 0 -59.5 35t-28.5 67q0 31 24 52.5t56 21.5q37 0 71 -36t34 -74zM235 653q0 23 -30 51t-53 28q-55 0 -55 -53q0 -29 19.5 -55
t47.5 -26q24 0 47.5 16.5t23.5 38.5z" />
    <glyph glyph-name="aring" unicode="&#xe5;" horiz-adv-x="564" 
d="M506 320q0 -62 -13 -150l-24 -148q-17 3 -74 2q-46 -1 -72 10l-10 24q-97 -36 -118 -36q-92 0 -142 111q-6 15 -6 23q0 18 37 100q20 44 57 58q26 10 82 10q22 0 65 -1.5t63 -1.5l1 -1l1 9q0 28 -17 53q-19 29 -45 29q-61 0 -111 -13q-70 -17 -89 -53h-24v97q0 11 9 32.5
t10 31.5q72 45 143 45q34 0 105 -7q83 -8 96 -18q8 -8 24 -25q43 -45 43 -65v-112h7zM479 259v159q0 30 -28 57.5t-58 27.5q-22 0 -65 12.5t-65 12.5q-80 0 -114 -13q-56 -22 -54 -88l1 -28q19 18 84 31q54 10 93 10q48 0 75 -37q23 -33 23 -83q0 -8 -1 -21l-15 -12
q-17 15 -87 15q-113 0 -132 -14q-15 -12 -40.5 -61.5t-25.5 -68.5q0 -39 42 -75.5t81 -36.5q10 0 53 13q29 10 58 19q9 12 16 12q4 0 20 -4v-35q26 -3 53 -3q28 0 57 8q0 1 18 101q11 61 11 102zM317 181q0 -28 -28.5 -50.5t-57.5 -22.5q-23 0 -43 17t-20 40q0 30 32 52.5
t63 22.5q22 0 38 -18t16 -41zM294 185q0 9 -11 22.5t-20 13.5q-17 0 -44.5 -17.5t-27.5 -34.5q0 -9 11.5 -23.5t20.5 -14.5q23 0 47 16t24 38zM318 660q0 -35 -38.5 -66.5t-74.5 -31.5q-34 0 -58 26.5t-24 62.5q0 41 40.5 78.5t81.5 37.5q27 0 51 -41q22 -37 22 -66z
M296 664q0 26 -18.5 53t-43.5 27t-56.5 -34t-31.5 -59q0 -61 59 -61q33 0 62 21.5t29 52.5z" />
    <glyph glyph-name="ae" unicode="&#xe6;" horiz-adv-x="808" 
d="M771 330q0 -8 -3 -23t-3 -21q-37 11 -135 11q-13 0 -88 -1q-54 -1 -89 0q-11 -37 -11 -47q0 -36 51 -70q47 -31 86 -31q20 0 67 27q42 23 62 42l17 -8q-1 -12 -5 -47q-4 -30 -4 -48q0 -60 5 -81q-5 -15 -18 -15q-28 0 -83 -2.5t-82 -2.5q-26 0 -76.5 7t-72.5 7
q-9 0 -14.5 -3.5t-8.5 -3.5q-8 0 -41 14l-10 24q-97 -36 -118 -36q-92 0 -142 111q-7 15 -7 23q0 18 38 100q20 44 57 58q25 10 82 10q21 0 64.5 -1.5t62.5 -1.5l2 -1l1 9q0 28 -17 53q-19 29 -45 29q-61 0 -111 -13q-70 -17 -89 -53h-24v97q0 11 9 32.5t10 31.5
q72 45 143 45q56 0 165 -11t165 -11q70 0 140 -64.5t70 -134.5zM749 338q0 59 -65 113.5t-125 54.5q-50 0 -147 11t-147 11q-80 0 -114 -13q-56 -22 -54 -88v-28q19 18 85 31q54 10 93 10q48 0 74 -37q24 -33 24 -83q0 -8 -2 -21l-14 -12q-18 15 -87 15q-113 0 -132 -14
q-15 -12 -40.5 -62t-25.5 -68q0 -39 42 -75.5t81 -36.5q10 0 53 13q29 10 58 19q9 12 16 12q4 0 20 -4v-35q26 -3 52 -3q40 0 118.5 -3.5t118.5 -3.5q27 0 61 13q1 17 1 64q0 3 -1 52q-76 -45 -111 -45q-46 0 -102 37q-61 39 -61 83q0 51 30 80q14 -10 35 -10q41 0 123.5 2
t123.5 2q19 0 19 19zM628 371q-14 -16 -68 -16q-63 0 -95 13q58 72 74 72q43 0 50 -9q20 -30 30 -38q2 -8 9 -22zM594 382v5q-36 25 -47 25q-12 0 -37 -29q30 -1 84 -1zM319 181q0 -28 -28.5 -50.5t-57.5 -22.5q-23 0 -43 17t-20 40q0 30 32 52.5t63 22.5q22 0 38 -18
t16 -41zM296 185q0 9 -11.5 22.5t-19.5 13.5q-18 0 -45 -17.5t-27 -34.5q0 -9 11.5 -23.5t20.5 -14.5q23 0 47 16t24 38z" />
    <glyph glyph-name="ccedilla" unicode="&#xe7;" horiz-adv-x="574" 
d="M530 410q0 -13 -23 -60.5t-23 -81.5h-28v4q2 21 -36 36q-29 11 -56 11q-41 0 -66 -22.5t-25 -62.5q0 -30 12 -57q16 -32 42 -32t70.5 24t59.5 46q0 -70 -24 -189q-28 4 -85 8l-5 -52q44 -32 60 -67q-1 -34 -11 -101q-4 -21 -68 -41q-44 -14 -85 -19l-17 66q22 11 44 21
q26 15 26 37q0 36 -37 36q-6 0 -16 -1q-13 -1 -17 -1l-2 131q-77 17 -123 65q-50 52 -50 127q0 107 101 175q89 59 201 59q15 0 45 -1h45q20 0 55.5 -20t35.5 -38zM502 406q0 17 -32 31q-27 12 -47 12h-51q-112 0 -201 -53q-105 -63 -105 -167q0 -12 16 -49
q45 -104 179 -117q-4 -31 -7 -116q82 0 81 -76q-27 -57 -73 -58v-30q35 0 75.5 30.5t40.5 64.5q0 65 -73 91q0 30 5 88q43 -3 47 -3q62 0 54 1q11 42 15 95q-69 -24 -94 -24q-39 0 -61.5 31t-22.5 71q0 51 31.5 84t81.5 33q52 0 106 -34l20 50q15 38 15 45z" />
    <glyph glyph-name="egrave" unicode="&#xe8;" horiz-adv-x="560" 
d="M527 295q0 -9 -2.5 -24l-3.5 -21q-37 12 -135 12q-13 0 -88 -2q-54 -1 -89 1q-11 -37 -11 -47q0 -36 51 -70q48 -31 86 -31q20 0 67 26q42 24 63 42l16 -8q0 -11 -5 -47q-4 -29 -4 -47q0 -23 6 -42q-6 -15 -19 -15q-142 0 -283 28.5t-141 172.5q0 98 93 172q88 69 189 69
q72 0 138 -48q72 -52 72 -121zM505 302q0 59 -67 101q-60 37 -123 37q-94 0 -172 -62q-85 -66 -85 -158q0 -66 31 -101t141 -56q88 -18 157 -18q27 0 61 13q2 16 1 30l-1 47q-75 -45 -111 -45q-45 0 -101 36q-61 40 -61 83q0 52 29 81q14 -11 35 -11q42 0 124 2.5t123 2.5
q19 0 19 18zM384 335q-13 -16 -67 -16q-63 0 -96 13q59 73 74 73q43 0 50 -10q20 -30 30 -38q2 -8 9 -22zM350 347v5q-36 24 -47 24q-12 0 -37 -29q30 -1 84 0zM459 564q-11 5 -25 5q-22 0 -53 -9q-26 -8 -53 -16q-5 6 -5 20q0 6 -14 10q-27 9 -61 38q-28 23 -56 47
q-24 14 -69 48v46l13 -17l7 -2l5 8q8 3 43 9t45 6q52 0 103 -52q55 -56 89 -60q10 -14 31 -43v-38zM427 607q0 4 -19 20q-37 12 -65.5 39t-56.5 55l-11 -4q-28 18 -41 18q-28 0 -80 -21q5 -3 153 -115q14 -5 40 -22q6 -2 14 -2q19 0 39 8q27 9 27 24z" />
    <glyph glyph-name="eacute" unicode="&#xe9;" horiz-adv-x="521" 
d="M487 295q0 -9 -2.5 -24l-3.5 -21q-37 12 -135 12q-13 0 -88 -2q-54 -1 -89 1q-11 -37 -11 -47q0 -36 51 -70q48 -31 86 -31q20 0 67 26q42 24 63 42l16 -8q0 -11 -5 -47q-4 -29 -4 -47q0 -23 6 -42q-6 -15 -19 -15q-142 0 -283 28.5t-141 172.5q0 98 93 172q88 69 189 69
q72 0 138 -48q72 -52 72 -121zM465 302q0 59 -67 101q-60 37 -123 37q-94 0 -172 -62q-85 -66 -85 -158q0 -66 31 -101t141 -56q88 -18 157 -18q27 0 61 13q2 16 1 30l-1 47q-75 -45 -111 -45q-45 0 -101 36q-61 40 -61 83q0 52 29 81q14 -11 35 -11q42 0 124 2.5t123 2.5
q19 0 19 18zM344 335q-13 -16 -67 -16q-63 0 -96 13q59 73 74 73q43 0 50 -10q20 -30 30 -38q2 -8 9 -22zM310 347v5q-36 24 -47 24q-12 0 -37 -29q30 -1 84 0zM527 759l-7 -32q-11 -11 -33 -25q-30 -19 -35 -23q-28 -24 -56 -47q-34 -29 -61 -38q-14 -4 -14 -10v-6
q0 -8 -6 -14l-52 16q-31 9 -53 9q-14 0 -25 -5v38q11 14 31 43q34 4 89 60q51 52 102 52q11 0 46 -6t43 -9l5 -8zM490 734q-52 21 -80 21q-13 0 -42 -18l-11 4q-27 -28 -55.5 -55t-66.5 -39q-18 -16 -18 -20q0 -15 26 -24q21 -8 40 -8q8 0 14 2q6 6 20.5 12t19.5 10
q51 39 153 115z" />
    <glyph glyph-name="ecircumflex" unicode="&#xea;" horiz-adv-x="559" 
d="M525 295q0 -9 -2.5 -24l-3.5 -21q-37 12 -135 12q-13 0 -88 -2q-54 -1 -89 1q-11 -37 -11 -47q0 -36 51 -70q48 -31 86 -31q20 0 67 26q42 24 63 42l16 -8q0 -11 -5 -47q-4 -29 -4 -47q0 -23 6 -42q-6 -15 -19 -15q-142 0 -283 28.5t-141 172.5q0 98 93 172q88 69 189 69
q72 0 138 -48q72 -52 72 -121zM503 302q0 59 -67 101q-60 37 -123 37q-94 0 -172 -62q-85 -66 -85 -158q0 -66 31 -101t141 -56q88 -18 157 -18q27 0 61 13q2 16 1 30l-1 47q-75 -45 -111 -45q-45 0 -101 36q-61 40 -61 83q0 52 29 81q14 -11 35 -11q42 0 124 2.5t123 2.5
q19 0 19 18zM382 335q-13 -16 -67 -16q-63 0 -96 13q59 73 74 73q43 0 50 -10q20 -30 30 -38q2 -8 9 -22zM348 347v5q-36 24 -47 24q-12 0 -37 -29q30 -1 84 0zM436 569q0 -9 -15.5 -16t-25.5 -7q-65 0 -79 24q-4 6 -12 77l-4 -13q-12 -13 -19.5 -32t-14.5 -37
q-15 0 -46 -1.5t-47 -1.5q-6 0 -27 11q3 21 53 94q62 91 68 102l-6 -1l-3 6q25 16 68 16q36 0 59 -5q11 -71 33 -178q2 -4 10 -17t8 -21zM411 570q-4 13 -11 39q-9 74 -26 157q-8 8 -22 8q-53 0 -66 -9q-19 -15 -68.5 -90t-49.5 -94q55 0 87 3q11 33 50 103h9q3 -12 13 -104
q31 -18 64 -18q13 0 20 5z" />
    <glyph glyph-name="edieresis" unicode="&#xeb;" horiz-adv-x="559" 
d="M518 295q0 -9 -2.5 -24l-3.5 -21q-37 12 -135 12q-13 0 -88 -2q-54 -1 -89 1q-11 -37 -11 -47q0 -36 51 -70q48 -31 86 -31q20 0 67 26q42 24 63 42l16 -8q0 -11 -5 -47q-4 -29 -4 -47q0 -23 6 -42q-6 -15 -19 -15q-142 0 -283 28.5t-141 172.5q0 98 93 172q88 69 189 69
q72 0 138 -48q72 -52 72 -121zM496 302q0 59 -67 101q-60 37 -123 37q-94 0 -172 -62q-85 -66 -85 -158q0 -66 31 -101t141 -56q88 -18 157 -18q27 0 61 13q2 16 1 30l-1 47q-75 -45 -111 -45q-45 0 -101 36q-61 40 -61 83q0 52 29 81q14 -11 35 -11q42 0 124 2.5t123 2.5
q19 0 19 18zM375 335q-13 -16 -67 -16q-63 0 -96 13q59 73 74 73q43 0 50 -10q20 -30 30 -38q2 -8 9 -22zM341 347v5q-36 24 -47 24q-12 0 -37 -29q30 -1 84 0zM537 698q0 -51 -35.5 -93t-85.5 -42q-64 0 -64 92q0 41 32.5 70.5t74.5 29.5q34 0 75 -32q3 -12 3 -25zM520 685
q0 49 -56 49q-37 0 -64 -24.5t-27 -60.5q0 -64 45 -64q26 0 51 16l-3 8q0 2 12 14t14 24q20 10 24 14.5t4 23.5zM271 643q0 -24 -35.5 -45t-61.5 -21q-31 0 -59.5 35t-28.5 67q0 31 24 52.5t56 21.5q37 0 71 -36t34 -74zM249 653q0 23 -30 51t-53 28q-55 0 -55 -53
q0 -29 19.5 -55t47.5 -26q24 0 47.5 16.5t23.5 38.5z" />
    <glyph glyph-name="igrave" unicode="&#xec;" horiz-adv-x="457" 
d="M417 441q0 -20 -7 -53q-8 -39 -9 -53.5t-1 -113.5q0 -33 -2.5 -98t-2.5 -95q-24 0 -73 -5t-73 -5q-15 0 -28 1q-16 25 -16 34q0 126 14 388q5 0 17.5 2.5t19.5 2.5q4 0 13 -2t13 -2zM390 421q-62 -5 -149 1q-14 -247 -14 -280q0 -58 13 -95h21q69 0 111 8q4 35 3 88
q-2 94 -2 87q0 33 8 96.5t9 94.5zM393 564q-11 5 -25 5q-22 0 -53 -9q-26 -8 -53 -16q-5 6 -5 20q0 6 -14 10q-27 9 -61 38q-28 23 -56 47q-24 14 -69 48v46l13 -17l7 -2l5 8q8 3 43 9t45 6q52 0 103 -52q55 -56 89 -60q10 -14 31 -43v-38zM361 607q0 4 -19 20
q-37 12 -65.5 39t-56.5 55l-11 -4q-28 18 -41 18q-28 0 -80 -21q5 -3 153 -115q14 -5 40 -22q6 -2 14 -2q19 0 39 8q27 9 27 24z" />
    <glyph glyph-name="iacute" unicode="&#xed;" horiz-adv-x="337" 
d="M277 441q0 -20 -7 -53q-8 -39 -9 -53.5t-1 -113.5q0 -33 -2.5 -98t-2.5 -95q-24 0 -73 -5t-73 -5q-15 0 -28 1q-16 25 -16 34q0 126 14 388q5 0 17.5 2.5t19.5 2.5q4 0 13 -2t13 -2zM250 421q-62 -5 -149 1q-14 -247 -14 -280q0 -58 13 -95h21q69 0 111 8q4 35 3 88
q-2 94 -2 87q0 33 8 96.5t9 94.5zM361 759l-7 -32q-11 -11 -33 -25q-30 -19 -35 -23q-28 -24 -56 -47q-34 -29 -61 -38q-14 -4 -14 -10v-6q0 -8 -6 -14l-52 16q-31 9 -53 9q-14 0 -25 -5v38q11 14 31 43q34 4 89 60q51 52 102 52q11 0 46 -6t43 -9l5 -8zM324 734
q-52 21 -80 21q-13 0 -42 -18l-11 4q-27 -28 -55.5 -55t-66.5 -39q-18 -16 -18 -20q0 -15 26 -24q21 -8 40 -8q8 0 14 2q6 6 20.5 12t19.5 10q51 39 153 115z" />
    <glyph glyph-name="icircumflex" unicode="&#xee;" horiz-adv-x="362" 
d="M320 441q0 -20 -7 -53q-8 -39 -9 -53.5t-1 -113.5q0 -33 -2.5 -98t-2.5 -95q-24 0 -73 -5t-73 -5q-15 0 -28 1q-16 25 -16 34q0 126 14 388q5 0 17.5 2.5t19.5 2.5q4 0 13 -2t13 -2zM293 421q-62 -5 -149 1q-14 -247 -14 -280q0 -58 13 -95h21q69 0 111 8q4 35 3 88
q-2 94 -2 87q0 33 8 96.5t9 94.5zM275 569q0 -9 -15.5 -16t-25.5 -7q-65 0 -79 24q-4 6 -12 77l-4 -13q-12 -13 -19.5 -32t-14.5 -37q-15 0 -46 -1.5t-47 -1.5q-6 0 -27 11q3 21 53 94q62 91 68 102l-6 -1l-3 6q25 16 68 16q36 0 59 -5q11 -71 33 -178q2 -4 10 -17t8 -21z
M250 570q-4 13 -11 39q-9 74 -26 157q-8 8 -22 8q-53 0 -66 -9q-19 -15 -68.5 -90t-49.5 -94q55 0 87 3q11 33 50 103h9q3 -12 13 -104q31 -18 64 -18q13 0 20 5z" />
    <glyph glyph-name="idieresis" unicode="&#xef;" horiz-adv-x="454" 
d="M411 441q0 -20 -7 -53q-8 -39 -9 -53.5t-1 -113.5q0 -33 -2.5 -98t-2.5 -95q-24 0 -73 -5t-73 -5q-15 0 -28 1q-16 25 -16 34q0 126 14 388q5 0 17.5 2.5t19.5 2.5q4 0 13 -2t13 -2zM384 421q-62 -5 -149 1q-14 -247 -14 -280q0 -58 13 -95h21q69 0 111 8q4 35 3 88
q-2 94 -2 87q0 33 8 96.5t9 94.5zM474 698q0 -51 -35.5 -93t-85.5 -42q-64 0 -64 92q0 41 32.5 70.5t74.5 29.5q34 0 75 -32q3 -12 3 -25zM457 685q0 49 -56 49q-37 0 -64 -24.5t-27 -60.5q0 -64 45 -64q26 0 51 16l-3 8q0 2 12 14t14 24q20 10 24 14.5t4 23.5zM208 643
q0 -24 -35.5 -45t-61.5 -21q-31 0 -59.5 35t-28.5 67q0 31 24 52.5t56 21.5q37 0 71 -36t34 -74zM186 653q0 23 -30 51t-53 28q-55 0 -55 -53q0 -29 19.5 -55t47.5 -26q24 0 47.5 16.5t23.5 38.5z" />
    <glyph glyph-name="eth" unicode="&#xf0;" horiz-adv-x="620" 
d="M571 228q0 -95 -60 -152t-155 -57q-34 0 -67 11.5t-65 23.5q-76 27 -127 84q-55 63 -55 138q0 136 192 167q27 6 81 13l6 3q-7 16 -24 46q-40 -4 -64 -4q-22 0 -42 7l-40 14q-1 9 -1 18q0 69 31 104l37 -1l-22 41q0 36 83 36q64 0 91 -17q-1 -6 -1 -13q0 -20 17 -47
q16 -3 46 -3q10 0 28.5 4t27.5 4q8 0 31 -10q2 -11 2 -22q0 -23 -12 -49q-15 -31 -18 -46l-13 1q38 -51 66 -141q27 -86 27 -153zM543 234q0 73 -29 157.5t-73 144.5l25 5q1 2 22 34q13 21 13 36q0 3 -4 14q-24 -1 -49 -1q-36 -1 -42 -8h-29q-34 46 -44 76l-3 1h-49
q-31 0 -52 -8q5 -21 26 -60q-9 0 -36 -2q-23 -2 -36 -2q-9 -73 -9 -79q23 -15 68 -15q14 0 36 2q27 1 33 2q45 -75 45 -88q0 -15 -12 -15q-275 0 -275 -152q0 -105 99 -174q90 -61 198 -61q26 0 46 7q73 29 102 69t29 117zM394 246q0 -34 -28.5 -60.5t-63.5 -26.5
q-67 0 -67 98q0 68 81 68q33 0 55.5 -23t22.5 -56zM375 247q0 16 -19.5 35.5t-35.5 19.5q-62 0 -62 -47q0 -68 47 -68q23 0 46.5 18.5t23.5 41.5z" />
    <glyph glyph-name="ntilde" unicode="&#xf1;" horiz-adv-x="609" 
d="M565 63q0 -10 -9 -22q-44 -8 -88 -15q-52 -8 -90 -8q-12 0 -18 13l1 19l7 5q0 17 9.5 49.5t9.5 49.5q0 117 -65 117q-46 0 -70 -79q-17 -56 -17 -117v-12l8 -14v-21q-8 -1 -60 -9q-36 -6 -59 -6q-12 0 -35.5 2.5t-34.5 2.5l1 38q0 13 -7.5 36.5t-7.5 33.5q0 14 4 37
q6 28 6 37q10 98 22 280q17 4 152 15l13 -106q25 41 96 64q58 18 118 18q36 0 68 -16q42 -21 42 -193q0 -69 -2 -90q0 -10 -5.5 -29t-5.5 -30q0 -17 8.5 -31.5t8.5 -18.5zM536 260q0 32 -6 89q-8 69 -18 80q-17 19 -61 19q-70 0 -127 -27q-66 -30 -90 -87l-19 13
q0 15 -4.5 45t-4.5 45q0 18 5 30q-27 1 -43 1q-13 0 -38 -5.5t-36 -5.5l-4 -6v-153l-12 -14q0 -11 1 -33t1 -32q0 -18 -4 -55t-4 -56q0 -67 11 -67q81 0 132 13q-3 19 -3 43q0 71 21 124q29 73 89 73q46 0 72 -48q21 -40 21 -89q0 -20 -9 -54q-11 -37 -13 -53h42
q62 -1 94 17q-7 13 -7 29q0 21 7 79t7 85zM500 640l-19 4q-13 -19 -51.5 -42t-58.5 -23q-30 0 -66 37.5t-61 37.5q-28 0 -54 -34q-10 -13 -36 -59l-23 -5q-5 14 -12 44q-1 23 -9 60q-7 13 -7 16q0 17 48 53q45 34 66 40q32 7 56 7q39 0 59 -20q8 -7 25 -38q11 -20 27 -20
q13 0 43 19q25 16 38 29h20q3 -36 15 -106zM479 665q0 10 -10 59l-42 -26q-29 -17 -43 -17q-25 0 -37 21q-23 38 -24 40q-21 21 -65 21q-29 0 -80 -33t-51 -60q0 -56 15 -88q23 28 45 57q28 31 61 31q27 0 64 -37t64 -37q17 0 60 27t43 42z" />
    <glyph glyph-name="ograve" unicode="&#xf2;" horiz-adv-x="632" 
d="M585 259q0 -42 -66.5 -134t-106.5 -106q-30 -10 -61 -10q-29 0 -71 10q-34 9 -69 18q-68 16 -121.5 77.5t-53.5 130.5q0 44 21.5 75t44.5 62q69 102 203 102q97 0 90 -37q66 -13 107 -53q34 -33 67 -100q16 -32 16 -35zM559 253q0 52 -34 97q-32 41 -83 62q-20 5 -58 20
q-18 11 -35.5 21t-43.5 10q-185 0 -246 -189q-5 -18 -5 -23q0 -28 22 -73.5t44 -68.5q33 -33 113 -57q72 -21 128 -21q9 0 43 12q31 11 42 17q25 15 43 52q27 57 31 62q39 58 39 79zM400 218q0 -36 -34.5 -60.5t-72.5 -24.5q-33 0 -62.5 25t-29.5 58q0 36 29.5 73.5
t64.5 37.5q25 0 65 -42t40 -67zM375 218q0 27 -28.5 55.5t-55.5 28.5q-31 0 -49 -32q-15 -26 -15 -59q0 -17 19 -37t36 -20q37 0 62 14q31 17 31 50zM457 564q-11 5 -25 5q-22 0 -53 -9q-26 -8 -53 -16q-5 6 -5 20q0 6 -14 10q-27 9 -61 38q-28 23 -56 47q-24 14 -69 48v46
l13 -17l7 -2l5 8q8 3 43 9t45 6q52 0 103 -52q55 -56 89 -60q10 -14 31 -43v-38zM425 607q0 4 -19 20q-37 12 -65.5 39t-56.5 55l-11 -4q-28 18 -41 18q-28 0 -80 -21q5 -3 153 -115q14 -5 40 -22q6 -2 14 -2q19 0 39 8q27 9 27 24z" />
    <glyph glyph-name="oacute" unicode="&#xf3;" horiz-adv-x="613" 
d="M575 259q0 -42 -66.5 -134t-106.5 -106q-30 -10 -61 -10q-29 0 -71 10q-34 9 -69 18q-68 16 -121.5 77.5t-53.5 130.5q0 44 21.5 75t44.5 62q69 102 203 102q97 0 90 -37q66 -13 107 -53q34 -33 67 -100q16 -32 16 -35zM549 253q0 52 -34 97q-32 41 -83 62q-20 5 -58 20
q-18 11 -35.5 21t-43.5 10q-185 0 -246 -189q-5 -18 -5 -23q0 -28 22 -73.5t44 -68.5q33 -33 113 -57q72 -21 128 -21q9 0 43 12q31 11 42 17q25 15 43 52q27 57 31 62q39 58 39 79zM390 218q0 -36 -34.5 -60.5t-72.5 -24.5q-33 0 -62.5 25t-29.5 58q0 36 29.5 73.5
t64.5 37.5q25 0 65 -42t40 -67zM365 218q0 27 -28.5 55.5t-55.5 28.5q-31 0 -49 -32q-15 -26 -15 -59q0 -17 19 -37t36 -20q37 0 62 14q31 17 31 50zM555 759l-7 -32q-11 -11 -33 -25q-30 -19 -35 -23q-28 -24 -56 -47q-34 -29 -61 -38q-14 -4 -14 -10v-6q0 -8 -6 -14
l-52 16q-31 9 -53 9q-14 0 -25 -5v38q11 14 31 43q34 4 89 60q51 52 102 52q11 0 46 -6t43 -9l5 -8zM518 734q-52 21 -80 21q-13 0 -42 -18l-11 4q-27 -28 -55.5 -55t-66.5 -39q-18 -16 -18 -20q0 -15 26 -24q21 -8 40 -8q8 0 14 2q6 6 20.5 12t19.5 10q51 39 153 115z" />
    <glyph glyph-name="ocircumflex" unicode="&#xf4;" horiz-adv-x="633" 
d="M585 259q0 -42 -66.5 -134t-106.5 -106q-30 -10 -61 -10q-29 0 -71 10q-34 9 -69 18q-68 16 -121.5 77.5t-53.5 130.5q0 44 21.5 75t44.5 62q69 102 203 102q97 0 90 -37q66 -13 107 -53q34 -33 67 -100q16 -32 16 -35zM559 253q0 52 -34 97q-32 41 -83 62q-20 5 -58 20
q-18 11 -35.5 21t-43.5 10q-185 0 -246 -189q-5 -18 -5 -23q0 -28 22 -73.5t44 -68.5q33 -33 113 -57q72 -21 128 -21q9 0 43 12q31 11 42 17q25 15 43 52q27 57 31 62q39 58 39 79zM400 218q0 -36 -34.5 -60.5t-72.5 -24.5q-33 0 -62.5 25t-29.5 58q0 36 29.5 73.5
t64.5 37.5q25 0 65 -42t40 -67zM375 218q0 27 -28.5 55.5t-55.5 28.5q-31 0 -49 -32q-15 -26 -15 -59q0 -17 19 -37t36 -20q37 0 62 14q31 17 31 50zM436 569q0 -9 -15.5 -16t-25.5 -7q-65 0 -79 24q-4 6 -12 77l-4 -13q-12 -13 -19.5 -32t-14.5 -37q-15 0 -46 -1.5
t-47 -1.5q-6 0 -27 11q3 21 53 94q62 91 68 102l-6 -1l-3 6q25 16 68 16q36 0 59 -5q11 -71 33 -178q2 -4 10 -17t8 -21zM411 570q-4 13 -11 39q-9 74 -26 157q-8 8 -22 8q-53 0 -66 -9q-19 -15 -68.5 -90t-49.5 -94q55 0 87 3q11 33 50 103h9q3 -12 13 -104q31 -18 64 -18
q13 0 20 5z" />
    <glyph glyph-name="otilde" unicode="&#xf5;" horiz-adv-x="634" 
d="M588 259q0 -42 -66.5 -134t-106.5 -106q-30 -10 -61 -10q-29 0 -71 10q-34 9 -69 18q-68 16 -121.5 77.5t-53.5 130.5q0 44 21.5 75t44.5 62q69 102 203 102q97 0 90 -37q66 -13 107 -53q34 -33 67 -100q16 -32 16 -35zM562 253q0 52 -34 97q-32 41 -83 62q-20 5 -58 20
q-18 11 -35.5 21t-43.5 10q-185 0 -246 -189q-5 -18 -5 -23q0 -28 22 -73.5t44 -68.5q33 -33 113 -57q72 -21 128 -21q9 0 43 12q31 11 42 17q25 15 43 52q27 57 31 62q39 58 39 79zM403 218q0 -36 -34.5 -60.5t-72.5 -24.5q-33 0 -62.5 25t-29.5 58q0 36 29.5 73.5
t64.5 37.5q25 0 65 -42t40 -67zM378 218q0 27 -28.5 55.5t-55.5 28.5q-31 0 -49 -32q-15 -26 -15 -59q0 -17 19 -37t36 -20q37 0 62 14q31 17 31 50zM499 640l-19 4q-13 -19 -51.5 -42t-58.5 -23q-30 0 -66 37.5t-61 37.5q-28 0 -54 -34q-10 -13 -36 -59l-23 -5
q-5 14 -12 44q-1 23 -9 60q-7 13 -7 16q0 17 48 53q45 34 66 40q32 7 56 7q39 0 59 -20q8 -7 25 -38q11 -20 27 -20q13 0 43 19q25 16 38 29h20q3 -36 15 -106zM478 665q0 10 -10 59l-42 -26q-29 -17 -43 -17q-25 0 -37 21q-23 38 -24 40q-21 21 -65 21q-29 0 -80 -33
t-51 -60q0 -56 15 -88q23 28 45 57q28 31 61 31q27 0 64 -37t64 -37q17 0 60 27t43 42z" />
    <glyph glyph-name="odieresis" unicode="&#xf6;" horiz-adv-x="613" 
d="M575 259q0 -42 -66.5 -134t-106.5 -106q-30 -10 -61 -10q-29 0 -71 10q-34 9 -69 18q-68 16 -121.5 77.5t-53.5 130.5q0 44 21.5 75t44.5 62q69 102 203 102q97 0 90 -37q66 -13 107 -53q34 -33 67 -100q16 -32 16 -35zM549 253q0 52 -34 97q-32 41 -83 62q-20 5 -58 20
q-18 11 -35.5 21t-43.5 10q-185 0 -246 -189q-5 -18 -5 -23q0 -28 22 -73.5t44 -68.5q33 -33 113 -57q72 -21 128 -21q9 0 43 12q31 11 42 17q25 15 43 52q27 57 31 62q39 58 39 79zM390 218q0 -36 -34.5 -60.5t-72.5 -24.5q-33 0 -62.5 25t-29.5 58q0 36 29.5 73.5
t64.5 37.5q25 0 65 -42t40 -67zM365 218q0 27 -28.5 55.5t-55.5 28.5q-31 0 -49 -32q-15 -26 -15 -59q0 -17 19 -37t36 -20q37 0 62 14q31 17 31 50zM534 698q0 -51 -35.5 -93t-85.5 -42q-64 0 -64 92q0 41 32.5 70.5t74.5 29.5q34 0 75 -32q3 -12 3 -25zM517 685
q0 49 -56 49q-37 0 -64 -24.5t-27 -60.5q0 -64 45 -64q26 0 51 16l-3 8q0 2 12 14t14 24q20 10 24 14.5t4 23.5zM268 643q0 -24 -35.5 -45t-61.5 -21q-31 0 -59.5 35t-28.5 67q0 31 24 52.5t56 21.5q37 0 71 -36t34 -74zM246 653q0 23 -30 51t-53 28q-55 0 -55 -53
q0 -29 19.5 -55t47.5 -26q24 0 47.5 16.5t23.5 38.5z" />
    <glyph glyph-name="divide" unicode="&#xf7;" horiz-adv-x="615" 
d="M409 523q0 -34 -36 -54q-29 -15 -68 -15q-35 0 -61 16q-30 18 -30 51q0 36 24.5 66.5t59.5 30.5q6 0 15 -7t11 -8q14 -3 42 -15q14 -8 28.5 -28.5t14.5 -36.5zM389 523q0 33 -42 54q-35 17 -72 17q-14 0 -26 -26q-11 -22 -11 -39q0 -57 68 -57q27 0 52 12q31 15 31 39z
M605 388q0 -23 -12 -45q-15 -27 -18 -43q-45 0 -135 -1.5t-135 -1.5q-200 0 -241 13q-9 3 -19.5 17.5t-19.5 16.5q0 1 -1 1l0.5 -1.5t0 -1.5t-0.5 1q0 38 31 73q18 0 55.5 -1.5t55.5 -1.5q48 0 142.5 2t141.5 2q11 0 33 -5t33 -5q10 0 28 7t28 7q8 0 31 -11q2 -11 2 -22z
M585 383q0 3 -4 14q-15 -2 -85 -7l-1 2l-3 -6q-35 10 -169 10q-24 0 -133 -3q-82 -2 -133 0q-1 -6 -5.5 -22.5t-4.5 -26.5q39 -22 482 -22q12 0 21 1q2 5 21 29q14 18 14 31zM405 163q0 -35 -36 -54q-30 -16 -68 -16q-35 0 -61 16q-30 19 -30 52q0 35 24.5 65.5t59.5 30.5
q6 0 13 -6q11 -8 12 -9q15 -3 43 -14q14 -9 28.5 -29.5t14.5 -35.5zM385 163q0 33 -43 53q-34 18 -72 18q-14 0 -26 -27q-10 -22 -10 -39q0 -57 68 -57q27 0 52 12q31 15 31 40z" />
    <glyph glyph-name="oslash" unicode="&#xf8;" horiz-adv-x="647" 
d="M598 259q0 -42 -66.5 -134t-106.5 -106q-29 -10 -61 -10q-26 0 -60 8q-13 -33 -26 -71q-8 -5 -55 -11l-62 -6q0 29 36 116q-59 23 -103.5 80.5t-44.5 119.5q0 44 19 75q23 31 47 62q68 102 203 102q60 0 81 -16l29 57l-6 24q110 11 124 11q10 0 10 -16q0 -8 -61 -134
q49 -35 87 -116q5 -8 10.5 -17.5t5.5 -17.5zM572 253q0 77 -108 147q18 44 57 131q-13 0 -59 -5q-21 -30 -60 -92q-43 29 -84 29q-98 0 -156.5 -46.5t-89.5 -142.5q-6 -18 -6 -23q0 -28 22.5 -74t44.5 -68t94 -51q-24 -59 -36 -92l6 -3v0q0 -2 6 -2q31 0 60 8q18 43 32 71
q54 -9 78 -9q10 0 43 11.5t44 18.5t61.5 91.5t50.5 100.5zM460 215q0 -40 -45 -71q-38 -25 -82 -32q32 65 82 181q45 -56 45 -78zM438 217q0 21 -16 45q-22 -44 -67 -132q36 7 59.5 30t23.5 57zM356 341q-30 -68 -97 -200q-43 45 -43 71q0 44 36 90.5t78 46.5zM323 321
q-33 -6 -59 -40.5t-26 -69.5q0 -13 18 -34z" />
    <glyph glyph-name="ugrave" unicode="&#xf9;" horiz-adv-x="585" 
d="M558 464q0 -9 -9 -22q-10 -16 -12 -22q-2 -9 -2 -47q0 -28 -6 -49l-30 -126q-21 -75 -54 -113q-43 -50 -114 -50q-21 0 -98 17q-96 20 -150 87t-54 165q0 23 5 67t5 66q0 23 -12 29v24q11 1 33.5 3.5t34.5 2.5q28 0 84 -15q66 -16 66 -33q0 -24 -15.5 -67t-15.5 -67
q0 -35 31 -78q33 -46 67 -46q39 0 67 51q24 44 24 87q0 40 -28 83.5t-30 64.5q34 3 76 3q21 0 63.5 -1t63.5 -1q10 0 10 -13zM524 449l-147 4q47 -75 47 -133q0 -51 -32 -101q-36 -56 -83 -56t-84 55q-35 50 -35 99q0 26 10 63q8 31 17 62q-16 9 -53.5 19.5t-54.5 10.5
q4 0 -41 -5q-17 -102 -17 -149q0 -111 52 -170q49 -57 158 -77q64 -12 74 -12q15 0 50.5 11.5t44.5 20.5q15 15 47 120q30 99 34 133q0 32 4 95zM445 564q-11 5 -25 5q-22 0 -53 -9q-26 -8 -53 -16q-5 6 -5 20q0 6 -14 10q-27 9 -61 38q-28 23 -56 47q-24 14 -69 48v46
l13 -17l7 -2l5 8q8 3 43 9t45 6q52 0 103 -52q55 -56 89 -60q10 -14 31 -43v-38zM413 607q0 4 -19 20q-37 12 -65.5 39t-56.5 55l-11 -4q-28 18 -41 18q-28 0 -80 -21q5 -3 153 -115q14 -5 40 -22q6 -2 14 -2q19 0 39 8q27 9 27 24z" />
    <glyph glyph-name="uacute" unicode="&#xfa;" horiz-adv-x="575" 
d="M546 464q0 -9 -9 -22q-10 -16 -12 -22q-2 -9 -2 -47q0 -28 -6 -49l-30 -126q-21 -75 -54 -113q-43 -50 -114 -50q-21 0 -98 17q-96 20 -150 87t-54 165q0 23 5 67t5 66q0 23 -12 29v24q11 1 33.5 3.5t34.5 2.5q28 0 84 -15q66 -16 66 -33q0 -24 -15.5 -67t-15.5 -67
q0 -35 31 -78q33 -46 67 -46q39 0 67 51q24 44 24 87q0 40 -28 83.5t-30 64.5q34 3 76 3q21 0 63.5 -1t63.5 -1q10 0 10 -13zM512 449l-147 4q47 -75 47 -133q0 -51 -32 -101q-36 -56 -83 -56t-84 55q-35 50 -35 99q0 26 10 63q8 31 17 62q-16 9 -53.5 19.5t-54.5 10.5
q4 0 -41 -5q-17 -102 -17 -149q0 -111 52 -170q49 -57 158 -77q64 -12 74 -12q15 0 50.5 11.5t44.5 20.5q15 15 47 120q30 99 34 133q0 32 4 95zM541 759l-7 -32q-11 -11 -33 -25q-30 -19 -35 -23q-28 -24 -56 -47q-34 -29 -61 -38q-14 -4 -14 -10v-6q0 -8 -6 -14l-52 16
q-31 9 -53 9q-14 0 -25 -5v38q11 14 31 43q34 4 89 60q51 52 102 52q11 0 46 -6t43 -9l5 -8zM504 734q-52 21 -80 21q-13 0 -42 -18l-11 4q-27 -28 -55.5 -55t-66.5 -39q-18 -16 -18 -20q0 -15 26 -24q21 -8 40 -8q8 0 14 2q6 6 20.5 12t19.5 10q51 39 153 115z" />
    <glyph glyph-name="ucircumflex" unicode="&#xfb;" horiz-adv-x="587" 
d="M558 464q0 -9 -9 -22q-10 -16 -12 -22q-2 -9 -2 -47q0 -28 -6 -49l-30 -126q-21 -75 -54 -113q-43 -50 -114 -50q-21 0 -98 17q-96 20 -150 87t-54 165q0 23 5 67t5 66q0 23 -12 29v24q11 1 33.5 3.5t34.5 2.5q28 0 84 -15q66 -16 66 -33q0 -24 -15.5 -67t-15.5 -67
q0 -35 31 -78q33 -46 67 -46q39 0 67 51q24 44 24 87q0 40 -28 83.5t-30 64.5q34 3 76 3q21 0 63.5 -1t63.5 -1q10 0 10 -13zM524 449l-147 4q47 -75 47 -133q0 -51 -32 -101q-36 -56 -83 -56t-84 55q-35 50 -35 99q0 26 10 63q8 31 17 62q-16 9 -53.5 19.5t-54.5 10.5
q4 0 -41 -5q-17 -102 -17 -149q0 -111 52 -170q49 -57 158 -77q64 -12 74 -12q15 0 50.5 11.5t44.5 20.5q15 15 47 120q30 99 34 133q0 32 4 95zM424 569q0 -9 -15.5 -16t-25.5 -7q-65 0 -79 24q-4 6 -12 77l-4 -13q-12 -13 -19.5 -32t-14.5 -37q-15 0 -46 -1.5t-47 -1.5
q-6 0 -27 11q3 21 53 94q62 91 68 102l-6 -1l-3 6q25 16 68 16q36 0 59 -5q11 -71 33 -178q2 -4 10 -17t8 -21zM399 570q-4 13 -11 39q-9 74 -26 157q-8 8 -22 8q-53 0 -66 -9q-19 -15 -68.5 -90t-49.5 -94q55 0 87 3q11 33 50 103h9q3 -12 13 -104q31 -18 64 -18q13 0 20 5
z" />
    <glyph glyph-name="udieresis" unicode="&#xfc;" horiz-adv-x="591" 
d="M550 464q0 -9 -9 -22q-10 -16 -12 -22q-2 -9 -2 -47q0 -28 -6 -49l-30 -126q-21 -75 -54 -113q-43 -50 -114 -50q-21 0 -98 17q-96 20 -150 87t-54 165q0 23 5 67t5 66q0 23 -12 29v24q11 1 33.5 3.5t34.5 2.5q28 0 84 -15q66 -16 66 -33q0 -24 -15.5 -67t-15.5 -67
q0 -35 31 -78q33 -46 67 -46q39 0 67 51q24 44 24 87q0 40 -28 83.5t-30 64.5q34 3 76 3q21 0 63.5 -1t63.5 -1q10 0 10 -13zM516 449l-147 4q47 -75 47 -133q0 -51 -32 -101q-36 -56 -83 -56t-84 55q-35 50 -35 99q0 26 10 63q8 31 17 62q-16 9 -53.5 19.5t-54.5 10.5
q4 0 -41 -5q-17 -102 -17 -149q0 -111 52 -170q49 -57 158 -77q64 -12 74 -12q15 0 50.5 11.5t44.5 20.5q15 15 47 120q30 99 34 133q0 32 4 95zM524 698q0 -51 -35.5 -93t-85.5 -42q-64 0 -64 92q0 41 32.5 70.5t74.5 29.5q34 0 75 -32q3 -12 3 -25zM507 685q0 49 -56 49
q-37 0 -64 -24.5t-27 -60.5q0 -64 45 -64q26 0 51 16l-3 8q0 2 12 14t14 24q20 10 24 14.5t4 23.5zM258 643q0 -24 -35.5 -45t-61.5 -21q-31 0 -59.5 35t-28.5 67q0 31 24 52.5t56 21.5q37 0 71 -36t34 -74zM236 653q0 23 -30 51t-53 28q-55 0 -55 -53q0 -29 19.5 -55
t47.5 -26q24 0 47.5 16.5t23.5 38.5z" />
    <glyph glyph-name="yacute" unicode="&#xfd;" horiz-adv-x="702" 
d="M689 419q-7 -15 -25 -31q-11 -4 -21 -12q-94 -74 -179 -185t-135 -225q-9 -14 -29 -42q-55 -80 -86 -155q-29 19 -43.5 22.5t-50.5 3.5q-62 0 -97 -11l-7 20q57 56 86 97q31 46 58 116q23 17 60 100q-23 17 -68 53q-39 34 -87 91q-62 73 -62 100v26l6 -2l-6 22
q134 44 219 67q9 -13 64 -128q10 -20 47 -74q30 41 59 83q39 59 39 87q0 8 -4 14l8 18q54 -17 164 -41q30 -2 90 -14zM634 407l-8 1q-5 0 -16 -2t-17 -2q-27 0 -67 12q-56 17 -66 19q-9 -23 -31 -69q-8 -15 -30.5 -41.5t-30.5 -40.5q-6 -20 -21 -58h-24q-3 18 -18 42
q-13 20 -27 39q-17 39 -34 79q-28 59 -47 59q-37 0 -181 -63q10 -8 23 -32q10 -18 19 -36q79 -125 203 -188q-28 -41 -64 -108q-56 -104 -59 -111q-11 -19 -38 -43q-32 -29 -41 -41h6q7 -1 18.5 1.5t17.5 2.5q29 0 98 -15q4 6 24 46q11 21 45 60.5t44 62.5l-3 10q0 12 36 69
q111 175 289 347zM583 759l-7 -32q-11 -11 -33 -25q-30 -19 -35 -23q-28 -24 -56 -47q-34 -29 -61 -38q-14 -4 -14 -10v-6q0 -8 -6 -14l-52 16q-31 9 -53 9q-14 0 -25 -5v38q11 14 31 43q34 4 89 60q51 52 102 52q11 0 46 -6t43 -9l5 -8zM546 734q-52 21 -80 21
q-13 0 -42 -18l-11 4q-27 -28 -55.5 -55t-66.5 -39q-18 -16 -18 -20q0 -15 26 -24q21 -8 40 -8q8 0 14 2q6 6 20.5 12t19.5 10q51 39 153 115z" />
    <glyph glyph-name="thorn" unicode="&#xfe;" horiz-adv-x="680" 
d="M641 299q0 -13 -4 -37t-4 -37q0 -80 -24 -125q-27 -49 -95 -85q-95 -49 -144 -49q-38 0 -75 16q-41 17 -61 45q-12 -40 -15 -126.5t-17 -128.5h-167v127q0 41 7 100q5 50 10 99q11 124 18 303q6 151 12 303q16 -15 33 -15q6 0 17 5q16 7 18 7q22 7 73 6h27l11 -13
q3 -25 4 -164q0 -115 12 -153q69 42 83 49q45 21 94 21q104 0 166 -92q21 -30 21 -56zM617 297q0 57 -60 95q-52 32 -113 32q-40 0 -84 -23q-29 -16 -62 -45q-27 -23 -28 -23q4 0 -17 4q-11 62 -12 173q-1 127 -6 174h-51q-12 0 -33.5 -9t-33.5 -9q-10 0 -9 9l-8 -4v-362
q0 -53 -18.5 -155t-18.5 -154v-200q27 -4 70 -4t51 7q7 73 15 146q10 85 22 146h14l8 -10q12 -92 130 -92q19 0 48 11q33 12 47 14q4 12 29 22q35 12 38 14q36 23 62 84q9 20 11 46q2 18 1 48q-2 36 -2 48v24l8 -17zM500 194q0 -77 -143 -77q-67 0 -67 59q0 30 32.5 80
t60.5 50q7 0 15 -7l12 -11q27 -11 55 -22q35 -19 35 -72zM474 214q0 29 -26 44q-21 13 -53 12q-6 9 -15 9q-17 0 -39.5 -40.5t-22.5 -60.5q0 -38 61 -38q36 0 63 18q32 21 32 56z" />
    <glyph glyph-name="ydieresis" unicode="&#xff;" horiz-adv-x="700" 
d="M688 419q-7 -15 -25 -31q-11 -4 -21 -12q-94 -74 -179 -185t-135 -225q-9 -14 -29 -42q-55 -80 -86 -155q-29 19 -43.5 22.5t-50.5 3.5q-62 0 -97 -11l-7 20q57 56 86 97q31 46 58 116q23 17 60 100q-23 17 -68 53q-39 34 -87 91q-62 73 -62 100v26l6 -2l-6 22
q134 44 219 67q9 -13 64 -128q10 -20 47 -74q30 41 59 83q39 59 39 87q0 8 -4 14l8 18q54 -17 164 -41q30 -2 90 -14zM633 407l-8 1q-5 0 -16 -2t-17 -2q-27 0 -67 12q-56 17 -66 19q-9 -23 -31 -69q-8 -15 -30.5 -41.5t-30.5 -40.5q-6 -20 -21 -58h-24q-3 18 -18 42
q-13 20 -27 39q-17 39 -34 79q-28 59 -47 59q-37 0 -181 -63q10 -8 23 -32q10 -18 19 -36q79 -125 203 -188q-28 -41 -64 -108q-56 -104 -59 -111q-11 -19 -38 -43q-32 -29 -41 -41h6q7 -1 18.5 1.5t17.5 2.5q29 0 98 -15q4 6 24 46q11 21 45 60.5t44 62.5l-3 10q0 12 36 69
q111 175 289 347zM561 698q0 -51 -35.5 -93t-85.5 -42q-64 0 -64 92q0 41 32.5 70.5t74.5 29.5q34 0 75 -32q3 -12 3 -25zM544 685q0 49 -56 49q-37 0 -64 -24.5t-27 -60.5q0 -64 45 -64q26 0 51 16l-3 8q0 2 12 14t14 24q20 10 24 14.5t4 23.5zM295 643q0 -24 -35.5 -45
t-61.5 -21q-31 0 -59.5 35t-28.5 67q0 31 24 52.5t56 21.5q37 0 71 -36t34 -74zM273 653q0 23 -30 51t-53 28q-55 0 -55 -53q0 -29 19.5 -55t47.5 -26q24 0 47.5 16.5t23.5 38.5z" />
    <glyph glyph-name="dotlessi" unicode="&#x131;" horiz-adv-x="315" 
d="M264 441q0 -20 -7 -53q-8 -39 -9 -53.5t-1 -113.5q0 -33 -2.5 -98t-2.5 -95q-24 0 -73 -5t-73 -5q-15 0 -28 1q-16 25 -16 34q0 126 14 388q5 0 17.5 2.5t19.5 2.5q4 0 13 -2t13 -2zM237 421q-62 -5 -149 1q-14 -247 -14 -280q0 -58 13 -95h21q69 0 111 8q4 35 3 88
q-2 94 -2 87q0 33 8 96.5t9 94.5z" />
    <glyph glyph-name="OE" unicode="&#x152;" horiz-adv-x="975" 
d="M939 535q-6 -15 -19 -15q-5 0 -13.5 4.5t-13.5 4.5q-3 0 -9 -2t-9 -2t-42.5 15t-67.5 15q-36 0 -75 -4q-20 -39 -21 -94h38q6 0 16.5 4.5t16.5 4.5q17 0 55 2.5t58 1.5h25q0 -47 -29 -206q-25 6 -54 6q-24 0 -70 -6t-69 -6q-13 -8 -14.5 -28.5t-2.5 -38.5l3 -3q27 9 48 9
q18 0 51.5 -6t48.5 -7q43 1 129 -2q0 -26 -15 -158l-12 -13q-362 34 -551 34q-13 0 -65 16q-46 14 -67 22q-100 41 -135 108q-28 55 -28 172q0 78 17 126q3 6 55 113q10 19 17 29q30 41 112 73q75 30 132 30q81 0 245 7q156 7 244 7h39q0 -90 32 -213zM910 552
q0 28 -16.5 84t-14.5 87h-36q-79 1 -229 -8q-157 -8 -230 -8q-142 0 -230 -102q-85 -96 -85 -240q0 -168 81 -223q99 -69 214 -69q98 0 257 -12q202 -15 257 -17q7 37 17 112q-89 17 -199 17q-9 0 -27.5 -5t-28.5 -5q-11 0 -24 2l-12 10l24 102q178 17 204 16q7 50 22 149
h-132q-11 0 -32 -5t-32 -5q-21 0 -21 18q0 -1 12 37q10 32 10 89q30 5 66 5q30 0 79 -9q58 -10 79 -12l14 -11h5zM518 320q0 -63 -28.5 -95.5t-90.5 -49.5q-27 -7 -38 -7q-70 0 -111.5 38.5t-41.5 108.5q0 64 41 131q46 76 106 76q83 0 126 -62q37 -53 37 -140zM495 320
q0 68 -30 118q-36 60 -99 60q-57 0 -97 -62q-36 -56 -36 -116q0 -57 32.5 -93t89.5 -36q56 0 98 36.5t42 92.5z" />
    <glyph glyph-name="oe" unicode="&#x153;" horiz-adv-x="855" 
d="M810 275q0 -8 -3 -22q-3 -17 -3 -22q-37 12 -135 12q-13 0 -88 -2q-54 -1 -89 0q-11 -36 -11 -47q0 -36 51 -69q47 -31 86 -31q20 0 67 26q41 23 62 42l17 -8q-1 -11 -5 -47q-4 -29 -4 -47q0 -23 5 -42q-5 -15 -18 -15q-64 0 -191 3t-191 3q-29 0 -70 10l-70 18
q-68 15 -120 76q-55 63 -55 132q0 44 21.5 75t44.5 62q69 102 203 102q48 0 143 -15t143 -15q71 0 138 -53q72 -56 72 -126zM788 283q0 59 -67 106q-61 42 -123 42q-48 0 -142 16t-142 16q-185 0 -245 -189q-6 -18 -6 -23q0 -28 22 -73.5t44 -68.5q62 -63 256 -78
q59 -5 285 -5q27 0 60 13q2 16 2 30l-1 47q-76 -46 -111 -46q-46 0 -102 37q-61 40 -61 83q0 52 30 80q14 -10 35 -10q41 0 123.5 2t123.5 2q19 0 19 19zM667 316q-14 -16 -68 -16q-63 0 -95 13q58 73 74 73q43 0 50 -10q20 -30 30 -38q2 -8 9 -22zM633 327v5q-36 25 -47 25
q-13 0 -37 -29q30 -1 84 -1zM409 218q0 -36 -34.5 -60.5t-72.5 -24.5q-33 0 -62 25t-29 58q0 36 29 73.5t64 37.5q25 0 65 -42t40 -67zM384 218q0 27 -28.5 55.5t-55.5 28.5q-31 0 -49 -32q-15 -26 -15 -59q0 -17 19.5 -37t35.5 -20q37 0 62 14q31 17 31 50z" />
    <glyph glyph-name="Scaron" unicode="&#x160;" horiz-adv-x="773" 
d="M736 612q0 -6 -43 -68q-26 -38 -52 -75q-16 49 -58 90q-47 46 -94 46q-39 0 -39 -45q0 -46 53 -98q49 -45 98 -89q53 -55 53 -108q0 -83 -110 -165q-103 -78 -189 -78q-75 0 -168 29q-35 11 -92 47q-67 43 -67 67q0 7 32 50q37 50 40 54q11 20 29 70q17 -66 74 -104
q53 -35 123 -35q37 0 64 12q37 16 37 49t-66 81q-9 7 -127 80q-74 45 -86 71q-11 23 -11 60q0 82 83 136q73 47 159 46h48q92 -1 201 -55q33 -11 65 -23q43 -19 43 -45zM708 612q0 19 -50 36q-56 18 -65 35q-111 30 -182 30q-50 0 -94 -8q-52 -9 -102 -52q-55 -47 -55 -95
q0 -40 23 -68q17 -20 91 -68q92 -60 121 -82q60 -48 60 -79q0 -44 -41 -66q-32 -17 -79 -17q-59 0 -115 23q-64 26 -90 70l-74 -103q2 -30 106 -75q98 -43 137 -43h48q83 0 180 67q104 71 104 150q0 44 -53 96q-49 44 -98 89q-53 55 -53 103q0 75 62 75q44 0 91 -33t64 -75
q64 77 64 90zM491 1015q-3 -21 -54 -94q-62 -92 -68 -102l6 1l3 -6q-25 -16 -68 -16q-36 0 -59 5q-11 71 -33 178q-2 4 -9.5 17t-7.5 21q0 9 15 15.5t26 6.5q64 0 78 -23q4 -7 12 -78l4 13q13 14 20 33t14 37q15 0 46 1.5t47 1.5q6 0 28 -11zM469 1007q-56 0 -88 -3
q-11 -33 -49 -103h-10q-2 12 -13 103q-30 19 -63 19q-13 0 -21 -5q4 -13 11 -39q9 -74 26 -157q9 -8 22 -8q54 0 66 9q20 15 69.5 90t49.5 94z" />
    <glyph glyph-name="scaron" unicode="&#x161;" horiz-adv-x="591" 
d="M558 485q-17 -39 -33.5 -79t-16.5 -83l-10 -18q-43 52 -48 56q-29 27 -66 27q-43 0 -43 -50q0 -22 32 -57q45 -52 59 -74q31 -53 31 -117q0 -38 -98 -54q-57 -9 -130 -9q-2 0 -29 7q-52 12 -104 25q-73 23 -73 61q0 18 6.5 53t7.5 53q5 9 12 18t14 10q2 -57 52 -95
q46 -34 106 -34q33 0 56 13q28 16 28 47q0 20 -16.5 27t-33.5 13q-160 88 -160 215q10 16 93 41q78 22 106 22q13 0 38.5 -4.5t38.5 -4.5q19 0 56.5 7t56.5 7q40 0 68 -23zM529 480q-37 9 -72 9q-13 0 -36 -9t-33 -9q-14 0 -42.5 4.5t-43.5 4.5q-29 0 -99 -20
q-79 -23 -79 -43q0 -53 56 -102q52 -37 103 -73q56 -41 56 -77q0 -61 -81 -61q-156 0 -194 63q-12 -35 -12 -45q0 -27 86 -49q70 -18 110 -18q32 0 91 6q68 8 84.5 17.5t16.5 26.5q0 47 -33 96q-5 7 -61 74q-33 39 -33 63q0 29 22.5 52t51.5 23q47 0 94 -45l30 54
q17 33 18 58zM448 771q-3 -21 -54 -94q-62 -92 -68 -102l6 1l3 -6q-25 -16 -68 -16q-36 0 -59 5q-11 71 -33 178q-2 4 -9.5 17t-7.5 21q0 9 15 15.5t26 6.5q64 0 78 -23q4 -7 12 -78l4 13q13 14 20 33t14 37q15 0 46 1.5t47 1.5q6 0 28 -11zM426 763q-56 0 -88 -3
q-11 -33 -49 -103h-10q-2 12 -13 103q-30 19 -63 19q-13 0 -21 -5q4 -13 11 -39q9 -74 26 -157q9 -8 22 -8q54 0 66 9q20 15 69.5 90t49.5 94z" />
    <glyph glyph-name="Ydieresis" unicode="&#x178;" horiz-adv-x="785" 
d="M782 719q-14 -39 -96 -100q-145 -108 -154 -117q-89 -76 -118 -149q-9 -21 -11 -159q-3 -149 -10 -185q-118 8 -155 8q-12 0 -35.5 -4.5t-35.5 -4.5t-18 14v16q0 47 22.5 140.5t22.5 140.5q0 7 -99.5 159.5t-99.5 177.5v42h22q39 -1 99 16q80 23 98 26q26 -47 50 -120
q19 -62 39 -123q100 166 100 196q0 6 -4 27q1 0 137 9q83 6 138 6q13 0 108 -16zM739 702q-7 1 -36 6q-22 3 -36 3l-54 -6q-6 -12 -19 -12q-20 0 -61 5t-62 5q-24 0 -44 -5q-2 -17 -48 -117q-45 -96 -59 -118q-9 -13 -20 -16q-20 36 -48 134q-26 87 -56 130q-40 -12 -79 -23
q-48 -13 -81 -13q-5 0 -22 4l2 -18q12 -5 21 -29q5 -19 11 -37q22 -56 66 -114q30 -38 60 -75q48 -62 48 -71q0 -49 -22.5 -145t-22.5 -145q0 -9 29 -9q16 0 48 1.5t48 1.5q40 0 62 -6q21 27 21 83q0 14 -2 41t-2 38q0 159 14 189q33 70 160 166q151 114 184 152zM544 942
q0 -51 -35.5 -93t-85.5 -42q-64 0 -64 92q0 41 32.5 70.5t74.5 29.5q34 0 75 -32q3 -12 3 -25zM527 929q0 49 -56 49q-37 0 -64 -24.5t-27 -60.5q0 -64 45 -64q26 0 51 16l-3 8q0 2 12 14t14 24q20 10 24 14.5t4 23.5zM278 887q0 -24 -35.5 -45t-61.5 -21q-31 0 -59.5 35
t-28.5 67q0 31 24 52.5t56 21.5q37 0 71 -36t34 -74zM256 897q0 23 -30 51t-53 28q-55 0 -55 -53q0 -29 19.5 -55t47.5 -26q24 0 47.5 16.5t23.5 38.5z" />
    <glyph glyph-name="Zcaron" unicode="&#x17d;" horiz-adv-x="734" 
d="M696 704q0 -24 -5 -60q-9 -53 -10 -60q-6 -53 -9 -134q-41 -46 -135 -110q-99 -69 -137 -108q33 0 97.5 3t95.5 3q23 0 34 -4q0 -36 -4.5 -110t-4.5 -110q-9 -1 -28 -5.5t-29 -4.5q-22 0 -64.5 9t-64.5 9h-228q-11 0 -33.5 4.5t-33.5 4.5t-33 -2t-33 -2q-10 0 -32 11
t-22 19q0 100 25 148q20 39 155 141q143 108 179 159q-149 0 -218 -7q-8 -1 -47 -7q-29 -5 -48 -5l-11 7q12 172 12 179q0 42 -6 70q15 0 52 3q33 3 52 3q68 0 203 -18.5t203 -18.5q10 0 119 14q9 -7 9 -21zM668 686l-2 10q-46 -8 -82 -8q-6 0 -112 10l-240 23q-88 8 -93 8
q-10 0 -27 -4.5t-24 -5.5v-57q1 -26 -4 -75q-6 -52 -6 -76q88 14 188 14q54 0 168 -5q-34 -35 -105 -101q-22 -20 -71 -54t-71 -55q-17 -15 -46 -39q-42 -35 -54.5 -56t-28.5 -76q-7 -25 -7 -23v-60q63 -1 195 -8q129 -7 196 -7q12 0 20 1q0 9 12 9l30 -11t48 -11q22 0 36 7
q2 20 9 77q6 49 6 77q0 18 -3 29q-91 -10 -248 -19v24q2 1 158 122q131 101 134 111q24 78 24 229zM460 1015q-3 -21 -54 -94q-62 -92 -68 -102l6 1l3 -6q-25 -16 -68 -16q-36 0 -59 5q-11 71 -33 178q-2 4 -9.5 17t-7.5 21q0 9 15 15.5t26 6.5q64 0 78 -23q4 -7 12 -78
l4 13q13 14 20 33t14 37q15 0 46 1.5t47 1.5q6 0 28 -11zM438 1007q-56 0 -88 -3q-11 -33 -49 -103h-10q-2 12 -13 103q-30 19 -63 19q-13 0 -21 -5q4 -13 11 -39q9 -74 26 -157q9 -8 22 -8q54 0 66 9q20 15 69.5 90t49.5 94z" />
    <glyph glyph-name="zcaron" unicode="&#x17e;" horiz-adv-x="551" 
d="M514 92q0 -4 -1 -20q-1 -12 0 -20q-12 -29 -33 -30q-13 7 -80 18q-63 10 -86 10q-6 0 -11 -11q-120 -14 -248 -14q-3 9 -3 19q0 29 33 97q7 15 89 91q73 68 103 93q-34 7 -128 4q-81 -2 -126 15q15 77 15 83q0 14 -5 21q34 13 115 13q48 0 166 -8q106 -7 166 -5v-14
q2 -70 -30.5 -134t-90.5 -101q-23 -15 -50 -50q101 11 160 11q26 0 35 -15q1 -8 5.5 -25.5t4.5 -27.5zM492 85q0 38 -19 51q-29 0 -88 -6t-89 -6q-26 0 -35 19q20 24 65 65q49 34 90 89q47 65 46 115l-6 9q-277 16 -316 16q-40 0 -78 -2q-1 -10 -5 -33.5t-4 -36.5l1 -3
l10 -7h136q13 0 40.5 -4.5t40.5 -4.5q25 0 53 11v-27q-153 -84 -224 -197q-2 -3 -19 -22t-17 -20q0 -25 4 -40q37 -4 33 -4q38 0 113 8t113 8q23 0 67 -6t66 -6t22 34zM74 90l5 3l13 1q-10 0 -18 -4zM438 771q-3 -21 -54 -94q-62 -92 -68 -102l6 1l3 -6q-25 -16 -68 -16
q-36 0 -59 5q-11 71 -33 178q-2 4 -9.5 17t-7.5 21q0 9 15 15.5t26 6.5q64 0 78 -23q4 -7 12 -78l4 13q13 14 20 33t14 37q15 0 46 1.5t47 1.5q6 0 28 -11zM416 763q-56 0 -88 -3q-11 -33 -49 -103h-10q-2 12 -13 103q-30 19 -63 19q-13 0 -21 -5q4 -13 11 -39
q9 -74 26 -157q9 -8 22 -8q54 0 66 9q20 15 69.5 90t49.5 94z" />
    <glyph glyph-name="florin" unicode="&#x192;" horiz-adv-x="728" 
d="M634 500q-32 -2 -86 -13q2 4 25 34q17 22 17 37q0 20 -40 20q-42 0 -92.5 -48t-50.5 -89q0 -13 18 -13q10 0 30.5 2t30.5 2q66 0 66 -20q0 -4 -58 -129q-93 -10 -171 -5q-37 -64 -108 -215q-66 -142 -110 -214q-29 -19 -86 -24q-76 -7 -80 -8q36 77 125.5 222.5
t125.5 221.5q-20 -1 -67 -12q-43 -9 -68 -9q-37 0 -64 14q55 60 94 159q7 -2 53 -18q32 -12 55 -12q11 28 36 83q41 87 136 164q104 85 191 85q8 0 67 -19q3 -5 1 -20q32 -5 57 -18q35 -19 35 -44q0 -18 -33 -61q-29 -37 -49 -53zM687 612q0 20 -33 29q-42 11 -49 17
q-9 13 -19 25q-7 8 -36 8h-7q-49 -1 -122 -44q-68 -40 -102 -83q-51 -62 -89 -147q-4 -9 -9 -49l-17 -18q-35 10 -105 32q-21 -42 -70 -109q2 -7 10 -7q38 0 99 10q81 13 99 15q-21 -38 -70 -111q-7 -26 -84 -159q-95 -160 -102 -173l70 4q40 6 56 36l82 150q53 99 72 150
q22 62 48 117q15 1 43.5 -3t42.5 -4q15 0 42 3.5t39 4.5q26 56 48 103q-13 2 -28 2q-26 0 -91 -6q-10 -8 -17 -8q-12 0 -12 16q0 61 61.5 124.5t122.5 63.5q55 0 55 -36q0 -21 -19 -48q30 2 60.5 33.5t30.5 61.5z" />
    <glyph glyph-name="circumflex" unicode="&#x2c6;" horiz-adv-x="328" 
d="M352 813q0 -9 -15.5 -16t-25.5 -7q-65 0 -79 24q-4 6 -12 77l-4 -13q-12 -13 -19.5 -32t-14.5 -37q-15 0 -46 -1.5t-47 -1.5q-6 0 -27 11q3 21 53 94q62 91 68 102l-6 -1l-3 6q25 16 68 16q36 0 59 -5q11 -71 33 -178q2 -4 10 -17t8 -21zM327 814q-4 13 -11 39
q-9 74 -26 157q-8 8 -22 8q-53 0 -66 -9q-19 -15 -68.5 -90t-49.5 -94q55 0 87 3q11 33 50 103h9q3 -12 13 -104q31 -18 64 -18q13 0 20 5z" />
    <glyph glyph-name="caron" unicode="&#x2c7;" horiz-adv-x="340" 
d="M365 1015q-3 -21 -54 -94q-62 -92 -68 -102l6 1l3 -6q-25 -16 -68 -16q-36 0 -59 5q-11 71 -33 178q-2 4 -9.5 17t-7.5 21q0 9 15 15.5t26 6.5q64 0 78 -23q4 -7 12 -78l4 13q13 14 20 33t14 37q15 0 46 1.5t47 1.5q6 0 28 -11zM343 1007q-56 0 -88 -3q-11 -33 -49 -103
h-10q-2 12 -13 103q-30 19 -63 19q-13 0 -21 -5q4 -13 11 -39q9 -74 26 -157q9 -8 22 -8q54 0 66 9q20 15 69.5 90t49.5 94z" />
    <glyph glyph-name="breve" unicode="&#x2d8;" horiz-adv-x="375" 
d="M297 639q6 2 10 2q15 0 15 -20q0 -48 -47 -83q-43 -33 -91 -33q-49 0 -91 32q-46 35 -46 83q0 21 14 21q4 0 10 -2q18 -80 113 -80t113 80z" />
    <glyph glyph-name="dotaccent" unicode="&#x2d9;" horiz-adv-x="260" 
d="M217 653q0 -31 -29 -52.5t-62 -21.5q-59 0 -59 61q0 25 31.5 59t56.5 34t43.5 -27t18.5 -53z" />
    <glyph glyph-name="ring" unicode="&#x2da;" horiz-adv-x="226" 
d="M242 852q0 -35 -38.5 -66.5t-74.5 -31.5q-34 0 -58 26.5t-24 62.5q0 41 40.5 78.5t81.5 37.5q27 0 51 -41q22 -37 22 -66zM220 856q0 26 -18.5 53t-43.5 27t-56.5 -34t-31.5 -59q0 -61 59 -61q33 0 62 21.5t29 52.5z" />
    <glyph glyph-name="ogonek" unicode="&#x2db;" horiz-adv-x="195" 
d="M185 20q-83 -78 -83 -136t41 -58q9 0 28 5.5t28 5.5t9 -4q0 -13 -36.5 -33.5t-50.5 -20.5q-36 0 -59.5 21t-23.5 57q0 76 109 163h38z" />
    <glyph glyph-name="tilde" unicode="&#x2dc;" horiz-adv-x="405" 
d="M433 884l-19 4q-13 -19 -51.5 -42t-58.5 -23q-30 0 -66 37.5t-61 37.5q-28 0 -54 -34q-10 -13 -36 -59l-23 -5q-5 14 -12 44q-1 23 -9 60q-7 13 -7 16q0 17 48 53q45 34 66 40q32 7 56 7q39 0 59 -20q8 -7 25 -38q11 -20 27 -20q13 0 43 19q25 16 38 29h20q3 -36 15 -106
zM412 909q0 10 -10 59l-42 -26q-29 -17 -43 -17q-25 0 -37 21q-23 38 -24 40q-21 21 -65 21q-29 0 -80 -33t-51 -60q0 -56 15 -88q23 28 45 57q28 31 61 31q27 0 64 -37t64 -37q17 0 60 27t43 42z" />
    <glyph glyph-name="hungarumlaut" unicode="&#x2dd;" horiz-adv-x="678" 
d="M652 681l-7 -32q-11 -11 -33 -25q-30 -19 -35 -23q-28 -24 -56 -47q-34 -29 -61 -38q-14 -4 -14 -10v-6q0 -8 -6 -14l-52 16q-31 9 -53 9q-14 0 -25 -5v38q12 14 31 43q34 4 89 60q51 52 102 52q11 0 46 -6t43 -9l5 -8zM615 656q-52 21 -80 21q-13 0 -41 -18l-12 4
q-27 -28 -55.5 -55t-66.5 -39q-18 -16 -18 -20q0 -15 27 -24q20 -8 39 -8q8 0 14 2q6 6 20.5 12t19.5 10q51 39 153 115zM390 693l-7 -32q-11 -11 -33 -25q-30 -19 -35 -23q-28 -24 -56 -47q-34 -29 -61 -38q-14 -4 -14 -10v-6q0 -8 -6 -14l-52 16q-31 9 -53 9q-14 0 -25 -5
v38q12 14 31 43q34 4 89 60q51 52 102 52q11 0 46 -6t43 -9l5 -8zM353 668q-52 21 -80 21q-13 0 -41 -18l-12 4q-27 -28 -55.5 -55t-66.5 -39q-18 -16 -18 -20q0 -15 27 -24q20 -8 39 -8q8 0 14 2q6 6 20.5 12t19.5 10q51 39 153 115z" />
    <glyph glyph-name="endash" unicode="&#x2013;" horiz-adv-x="776" 
d="M718 401q0 -28 -11 -70q-16 -57 -18 -68q-71 0 -215 -5t-216 -5q-147 0 -184 10q-13 7 -40 18q-2 8 -2 18q0 68 31 103q18 0 55.5 -1.5t56.5 -1.5q82 0 247 10.5t247 10.5q9 0 9 4l-1 3q0 7 9 7q8 0 31 -11q1 -11 1 -22zM695 410l-45 -7l-1 2l-359 -32q-34 9 -91 9
q-15 0 -67 -2q-41 -1 -67 0q-9 -74 -9 -79q26 -16 371 -16h118q82 1 118 1q33 69 33 110q0 8 -1 14z" />
    <glyph glyph-name="emdash" unicode="&#x2014;" horiz-adv-x="1116" 
d="M1058 401q0 -28 -11 -70q-16 -57 -18 -68q-108 0 -341 -5q-226 -5 -340 -5q-240 0 -274 10q-13 7 -40 18q-2 8 -2 18q0 68 31 103q18 0 55.5 -1.5t56.5 -1.5q12 0 36.5 2t37.5 2q126 0 380 8.5t380 8.5q9 0 9 4l-1 3q0 7 9 7t31 -11q1 -11 1 -22zM1035 410l-45 -7l-1 2
l-699 -32q-8 -1 -42.5 4t-48.5 5q-15 0 -67 -2q-41 -1 -67 0q-9 -73 -9 -79q29 -16 584 -16h182q132 1 181 1q33 69 33 110q0 8 -1 14z" />
    <glyph glyph-name="quoteleft" unicode="&#x2018;" horiz-adv-x="322" 
d="M283 514q0 -33 -27 -53t-62 -20q-16 0 -26 11t-19 14q-45 14 -74 49.5t-29 81.5q0 47 43.5 96.5t88.5 49.5q12 0 12 -15q0 -9 -7.5 -18t-14.5 -18q-9 -14 -18 -66q15 -15 55 -28t53 -24q25 -20 25 -60zM261 520q0 29 -55 54q-47 21 -80 20q0 3 -2 10t-2 11q0 27 25 91
q-26 -1 -53 -43q-25 -38 -25 -66q0 -37 33 -76t70 -39q11 0 21 4l-7 -17q19 -5 28 -5q15 0 31 20.5t16 35.5z" />
    <glyph glyph-name="quoteright" unicode="&#x2019;" horiz-adv-x="348" 
d="M295 591q0 -46 -43 -96t-89 -50q-12 0 -12 16q0 9 9 19q6 8 13 16q9 14 18 67q-15 15 -53 27q-42 14 -55 24q-25 20 -25 60q0 34 27 53.5t62 19.5q16 0 26.5 -11t19.5 -14q44 -13 73 -49t29 -82zM272 591q0 37 -33 76t-69 39q-11 0 -22 -4l7 18q-19 4 -28 4
q-14 0 -30 -20.5t-16 -35.5q0 -29 54 -53q48 -22 80 -20q0 -4 2 -11t2 -11q0 -27 -24 -91q25 1 52 43q25 39 25 66z" />
    <glyph glyph-name="quotesinglbase" unicode="&#x201a;" horiz-adv-x="375" 
d="M310 54q0 -47 -43.5 -97t-88.5 -50q-12 0 -12 16q0 9 7.5 18t14.5 17q9 15 18 67q-15 15 -55 28t-53 24q-26 20 -26 59q0 34 29 55q26 19 61 19q16 0 26 -11t19 -14q45 -14 74 -49.5t29 -81.5zM287 54q0 37 -33.5 76t-69.5 39q-11 0 -21 -5l7 18q-19 4 -28 4
q-15 0 -31 -20t-16 -36q0 -28 55 -53q47 -21 80 -20q0 -3 2 -10t2 -11q0 -27 -25 -91q26 1 52 41t26 68z" />
    <glyph glyph-name="quotedblleft" unicode="&#x201c;" horiz-adv-x="579" 
d="M541 518q0 -34 -27.5 -53.5t-62.5 -19.5q-16 0 -26 11t-19 14q-44 13 -73 49t-29 82t43 96t89 50q11 0 11 -16q0 -9 -7.5 -18t-13.5 -17q-9 -14 -19 -67q16 -15 55.5 -28t53.5 -23q25 -20 25 -60zM518 524q0 29 -54 53q-48 22 -80 20q-1 4 -2.5 11t-1.5 11q0 27 24 91
q-26 -1 -51.5 -41.5t-25.5 -67.5q0 -37 33 -76t69 -39q11 0 21 4l-7 -18q20 -4 28 -4q15 0 31 20.5t16 35.5zM277 520q0 -33 -27 -53t-62 -20q-16 0 -26 11t-19 14q-45 14 -74 49.5t-29 81.5q0 47 43 96.5t89 49.5q12 0 12 -15q0 -9 -7.5 -18t-14.5 -18q-9 -14 -18 -66
q15 -15 55 -28t53 -24q25 -20 25 -60zM255 526q0 29 -55 54q-47 21 -80 20q0 3 -2 10t-2 11q0 27 25 91q-26 -1 -53 -43q-25 -38 -25 -66q0 -37 33 -76t70 -39q11 0 21 4l-7 -17q19 -5 28 -5q15 0 31 20.5t16 35.5z" />
    <glyph glyph-name="quotedblright" unicode="&#x201d;" horiz-adv-x="611" 
d="M558 589q0 -47 -43 -96.5t-89 -49.5q-11 0 -11 15q0 9 7.5 18t13.5 18q9 14 19 66q-16 15 -54 28q-41 13 -55 24q-25 20 -25 60q0 33 29 54q26 19 61 19q16 0 26 -11t19 -14q44 -14 73 -49.5t29 -81.5zM535 589q0 37 -33 76t-69 39q-11 0 -21 -4l7 17q-20 5 -28 5
q-15 0 -31 -20.5t-16 -35.5q0 -29 54 -54q48 -21 80 -20q1 -3 2.5 -10t1.5 -11q0 -27 -24 -91q26 1 52 43q25 38 25 66zM295 591q0 -46 -43 -96t-89 -50q-12 0 -12 16q0 9 7.5 18t14.5 17q9 14 18 67q-15 15 -55 28t-53 23q-25 20 -25 60q0 34 27 53.5t62 19.5q16 0 26 -11
t20 -14q44 -13 73 -49t29 -82zM272 591q0 37 -33 76t-69 39q-12 0 -22 -4l7 18q-19 4 -28 4q-15 0 -30.5 -20.5t-15.5 -35.5q0 -29 54 -53q47 -22 80 -20q0 -4 2 -11t2 -11q0 -27 -25 -91q26 1 53 43q25 39 25 66z" />
    <glyph glyph-name="quotedblbase" unicode="&#x201e;" horiz-adv-x="655" 
d="M590 54q0 -47 -43.5 -97t-88.5 -50q-12 0 -12 16q0 9 7.5 18t14.5 17q9 15 18 67q-15 15 -55 28t-53 24q-26 20 -26 59q0 34 29 55q26 19 61 19q16 0 26 -11t19 -14q45 -14 74 -49.5t29 -81.5zM567 54q0 37 -33.5 76t-69.5 39q-11 0 -21 -5l7 18q-19 4 -28 4
q-15 0 -31 -20t-16 -36q0 -28 55 -53q47 -21 80 -20q0 -3 2 -10t2 -11q0 -27 -25 -91q26 1 52 41t26 68zM310 54q0 -47 -43.5 -97t-88.5 -50q-12 0 -12 16q0 9 7.5 18t14.5 17q9 15 18 67q-15 15 -55 28t-53 24q-26 20 -26 59q0 34 29 55q26 19 61 19q16 0 26 -11t19 -14
q45 -14 74 -49.5t29 -81.5zM287 54q0 37 -33.5 76t-69.5 39q-11 0 -21 -5l7 18q-19 4 -28 4q-15 0 -31 -20t-16 -36q0 -28 55 -53q47 -21 80 -20q0 -3 2 -10t2 -11q0 -27 -25 -91q26 1 52 41t26 68z" />
    <glyph glyph-name="dagger" unicode="&#x2020;" horiz-adv-x="516" 
d="M471 389q-52 -4 -109 -1q-12 -24 -12 -192q0 -58 2 -143q1 -89 1 -94q-3 -8 -3 -41q0 -18 -44 -18q-19 0 -63 4q-39 3 -62 3l1 418q0 4 -3 28q-1 16 2 27q-50 16 -133 15q-1 32 -2.5 64t-13.5 63q-1 0 77 0q87 0 90 23q-13 11 -13 21q0 13 3 40t3 41q0 20 16 20
q11 0 73 -3q45 -2 73 1v-143l2 -4q40 0 96 11q19 -116 19 -140zM443 413v36q0 10 -4 27t-5 24q-33 -4 -101 -11l-2 2q-1 -1 -1.5 -2.5t-2.5 -1.5l-7 16q9 24 9 82q0 8 -1.5 23.5t-1.5 24.5q-53 6 -83 6q-16 0 -31 -1q8 -51 8 -52q0 -14 -4.5 -43t-4.5 -44q-46 4 -81 4
q-31 0 -59 -3v-77q38 -5 114 -11q13 -7 18 -15q-1 -6 -1 -13q0 -11 2 -32.5t2 -32.5q0 -48 4 -144.5t4 -144.5q0 -50 -3 -93q69 -11 101 -10h13q-3 25 -3 181q0 230 2 260q2 21 21 46q25 -3 58 -3q21 0 40 2z" />
    <glyph glyph-name="daggerdbl" unicode="&#x2021;" horiz-adv-x="531" 
d="M496 33q1 0 -77 0q-88 0 -91 -23q13 -11 13 -20q0 -14 -2.5 -41t-2.5 -41q0 -20 -17 -20q-10 0 -73 3q-44 2 -72 -1v143l-2 4q-40 0 -96 -11q-19 117 -19 140q52 4 109 1l10 44q2 11 2 29q0 14 -2.5 48.5t-2.5 51.5q0 24 4 40q-49 16 -132 15q-1 32 -2.5 64t-13.5 63
q-2 0 76 0q88 0 91 23q-13 11 -13 21q0 13 2.5 40t2.5 41q0 20 17 20q11 0 73 -3q45 -2 72 1v-143l3 -4q39 0 95 11q20 -116 20 -140q-53 -4 -109 -1l-10 -44q-3 -11 -3 -29q0 -14 2.5 -48.5t2.5 -51.5q0 -24 -4 -39q50 -17 132 -16q1 -32 3 -64t14 -63zM457 55q-1 70 0 77
q-38 5 -114 11q-13 7 -19 15q2 7 2 27q0 30 -2.5 90.5t-2.5 90.5q0 21 20 48q25 -3 59 -3q20 0 40 2v36q0 10 -4.5 27t-4.5 24q-34 -4 -102 -11l-2 2q-1 -1 -1.5 -2.5t-2.5 -1.5q-3 0 -4 7q-2 4 -3 9q9 24 9 82q0 8 -1.5 23.5t-1.5 24.5q-52 6 -82 6q-17 0 -32 -1
q8 -50 8 -52q0 -14 -4.5 -43t-3.5 -44q-47 4 -81 4q-31 0 -60 -3q1 -70 1 -77q37 -5 113 -11q14 -7 19 -15q-1 -6 -1 -13q0 -8 2 -23.5t2 -23.5q0 -27 -7 -103q-7 -84 -13 -93q-25 4 -59 4q-20 0 -40 -3v-36q0 -10 4.5 -26.5t4.5 -24.5q34 5 102 12l2 -3q1 1 1.5 2.5
t2.5 1.5q3 0 4.5 -5.5t2.5 -10.5q-9 -24 -9 -82q0 -8 1.5 -23.5t1.5 -24.5q52 -6 82 -6q17 0 32 2q-8 50 -8 52q0 14 4.5 42.5t4.5 43.5q46 -4 80 -4q32 0 60 3z" />
    <glyph glyph-name="bullet" unicode="&#x2022;" horiz-adv-x="620" 
d="M571 332q0 -95 -99 -148q-80 -42 -184 -42q-97 0 -167 43q-83 51 -83 142q0 97 66 178q69 86 164 86q17 0 37 -16q28 -22 33 -25q17 -8 57 -18t59 -22q38 -24 76 -78q41 -59 41 -100zM536 329q0 111 -117 169q-92 45 -215 45q-39 0 -84 -81q-43 -75 -43 -118
q0 -105 59 -142q45 -28 158 -28q242 0 242 155z" />
    <glyph glyph-name="ellipsis" unicode="&#x2026;" horiz-adv-x="926" 
d="M793 27q-50 0 -86 35.5t-36 84.5q0 78 86 116q45 -13 75.5 -55t30.5 -90q0 -35 -17 -61q-19 -30 -53 -30zM841 133q-12 2 -18.5 21.5t-14.5 25.5l1 21q1 14 -16 24t-33 10q-29 0 -48 -30q-17 -26 -17 -57q0 -38 28 -67.5t66 -29.5q27 0 41 25q12 21 11 48v9zM559 130
q0 -35 -26.5 -58.5t-62.5 -23.5q-41 0 -78.5 40t-37.5 82q0 27 41 51q37 22 66 22q35 0 66.5 -38.5t31.5 -74.5zM531 130q0 33 -20 60q-23 30 -54 30q-26 0 -53 -18t-27 -43t34 -56.5t59 -31.5q61 0 61 59zM244 157q0 -46 -36.5 -78.5t-82.5 -32.5q-38 0 -84 35q-3 14 -3 28
q0 57 39.5 103.5t95.5 46.5q71 0 71 -102zM220 163q0 72 -50 72q-29 0 -56 -18l2 -10q0 -1 -13 -14.5t-15 -26.5q-23 -12 -25 -15q-6 -6 -6 -28q0 -25 18 -39.5t44 -14.5q41 0 71 27t30 67z" />
    <glyph glyph-name="perthousand" unicode="&#x2030;" horiz-adv-x="1192" 
d="M1017 48q-79 0 -122.5 50t-43.5 130q0 62 26 101q31 45 89 45q83 0 145 -56q16 -10 45 -32q38 -37 38 -101q0 -65 -57 -103q-51 -34 -120 -34zM1171 178q0 59 -40 99q-22 23 -77.5 49.5t-84.5 26.5q-37 0 -69 -40.5t-32 -78.5q0 -20 10 -62q11 -50 23 -53q2 2 4 2
q6 0 18 -14q17 -17 31 -26q24 -14 57 -14q54 0 103 29q57 33 57 82zM1013 129q-31 0 -57.5 22t-26.5 53q0 30 22.5 51.5t52.5 21.5q33 0 63.5 -23t30.5 -56q0 -29 -27 -49t-58 -20zM1073 199q0 23 -23 38.5t-46 15.5q-21 0 -37.5 -16t-16.5 -37t19 -35.5t41 -14.5t42.5 14
t20.5 35zM817 238q0 -69 -50 -130q-53 -64 -120 -64q-57 0 -102.5 50t-45.5 107q0 51 20 98q13 33 59 66.5t80 33.5q52 0 105.5 -54.5t53.5 -106.5zM790 240q0 39 -41.5 89.5t-78.5 50.5l-4 -7q-80 -13 -113 -64q-27 -43 -27 -129q0 -41 40 -76.5t81 -35.5q60 0 103 57
q40 53 40 115zM709 208q0 -30 -20.5 -49.5t-50.5 -19.5q-26 0 -41.5 19t-15.5 46q0 29 16.5 49.5t44.5 20.5t47.5 -19t19.5 -47zM690 213q0 19 -22 30q-18 10 -39 10q-8 0 -18.5 -21.5t-10.5 -30.5q0 -13 13.5 -25.5t26.5 -12.5q18 0 34 16t16 34zM695 661q0 -30 -76 -167
q-125 -222 -142 -256q-77 -151 -78 -216q-15 2 -31 2q-30 0 -89.5 -15.5t-91.5 -13.5h-24v24q0 34 129 239q132 209 228 412l-34 23q149 -9 203 -9q6 -20 6 -23zM671 657q0 9 -42 9q-45 0 -84 -2q-37 -44 -90 -158q-64 -137 -85 -170q-47 -75 -95 -150q-55 -88 -81 -157
q59 8 177 21v12q-2 45 149 310t151 285zM382 530q0 -52 -64 -94q-57 -38 -112 -38q-9 0 -27 -4.5t-27 -4.5q-49 0 -91.5 37.5t-42.5 85.5q0 70 54 132.5t123 62.5q66 0 126.5 -56t60.5 -121zM354 532q0 40 -29 90q-9 14 -50 40t-57 26l-4 -1q-1 -6 -7.5 -7.5t-17.5 -0.5
l-13 1q-57 0 -98 -60q-37 -55 -37 -115q0 -38 43 -67q39 -25 79 -25q33 0 91 20q62 22 81 44t19 55zM264 523q0 -34 -31 -57q-27 -22 -63 -22q-29 0 -47.5 16t-18.5 45q0 38 25.5 65t63.5 27q32 0 51.5 -20.5t19.5 -53.5zM240 525q0 53 -46 53q-28 0 -47.5 -20.5
t-19.5 -47.5q0 -42 43 -42q25 0 47.5 16.5t22.5 40.5z" />
    <glyph glyph-name="guilsinglleft" unicode="&#x2039;" horiz-adv-x="276" 
d="M227 103q-7 -7 -33.5 -19t-38.5 -13l-111 186l111 183q23 -3 37 -12q8 -6 26 -28l-75 -145zM194 106l-82 149l77 139q-4 7 -9 14.5t-12 8.5l-97 -162l97 -161q17 1 26 12z" />
    <glyph glyph-name="guilsinglright" unicode="&#x203a;" horiz-adv-x="282" 
d="M227 257l-112 -186q-11 1 -38 13t-34 19l84 152l-75 145q18 22 27 28q13 9 36 12zM199 255l-97 162q-7 -1 -11.5 -8.5t-9.5 -14.5l77 -139l-82 -149q9 -11 26 -12z" />
    <glyph glyph-name="fraction" unicode="&#x2044;" horiz-adv-x="554" 
d="M521 718q0 -9 -88 -188q-76 -156 -105 -211q-39 -71 -78 -141q-46 -85 -67 -147q-13 -9 -41 -9q-12 0 -36 2.5t-36 2.5q-3 0 -16.5 -6.5t-17.5 -7.5q0 58 24 105q4 9 17 19t17 22q10 33 33 77q35 67 39 75q9 19 20 59.5t19.5 59.5t30 53.5t30.5 50.5q7 25 25 73
q3 7 31 45q21 28 21 47q0 12 -7 24q111 11 174 11q11 0 11 -16zM485 706q-62 0 -109 -6q-22 -33 -63 -102q-8 -26 -30 -77q-22 -34 -60 -105q-11 -40 -39 -119q-21 -43 -64 -127q-4 -9 -26 -38q-17 -23 -19.5 -38.5t-8.5 -43.5q23 -4 42 -4q16 0 30 6q21 10 27 12
q15 35 40 81q120 219 280 561z" />
    <glyph glyph-name="euro" unicode="&#x20ac;" horiz-adv-x="642" 
d="M622 21q-77 -41 -164 -41q-121 0 -226 84t-136 203h-59l21 58h27q-2 19 -2 39q0 27 4 54h-50l21 58h42q36 112 139 191.5t219 79.5q87 0 164 -41v-107q-71 56 -161 56q-78 0 -153.5 -53t-107.5 -126h238l-21 -58h-236q-5 -27 -5 -55q0 -19 2 -38h203l-22 -58h-166
q29 -79 107 -137t161 -58q90 0 161 56v-107z" />
    <glyph glyph-name="trademark" unicode="&#x2122;" horiz-adv-x="945" 
d="M882 325h-25l1 7q-12 2 -26 2q-9 0 -111 -12q-2 21 -1 132q-43 -39 -63 -70h-17q-36 47 -75 86q-4 -19 -4 -44q0 -18 3 -54.5t3 -52.5q-24 4 -57 3q-70 -2 -58 -2q-11 5 -11 15q0 -1 6 31t6 50v259q0 5 -3 15.5t-2 16.5q-7 -1 -22 -2l22 22q12 2 132 9q19 -29 46 -84
q31 -61 45 -85q39 76 84 145q73 15 91 15q36 0 36 -19v-383zM857 355v346q-51 0 -85 -10q-12 -13 -33 -41q-31 -54 -48 -98q-5 -14 -8 -18q-6 -9 -17 -11l-97 185q-27 2 -43 2q-20 0 -54 -4q4 -34 4 -81q0 -6 1 -91q1 -65 0 -105q-2 -57 -7 -85q3 -2 7 -2q1 0 65 10
q0 12 -1 38v38q0 79 20 79q29 -30 88 -90q78 78 84 78q3 0 11 -4l1 -6v-75q0 -5 -2.5 -16.5t-2.5 -16.5q0 -6 2 -15.5t3 -13.5q28 4 56 7q35 4 56 0zM407 598q-62 22 -130 24q0 3 -9 -113q-1 -63 -7 -187q-17 3 -128 3q-4 0 -14 3v19q0 34 13 104.5t13 104.5v54q-7 0 -18 -1
h-17q-24 0 -73 18v110q16 8 20 8q15 0 44 -3t44 -3q98 0 250 -15q6 -81 12 -126zM378 639q0 58 -7 63q-25 16 -272 16q-26 0 -39 -1v-71q24 -9 98 -9q10 0 15 -10l-28 -278q51 3 96 0v25q-1 15 -1 25q0 34 7.5 101.5t7.5 100.5q0 20 -6 39l10 11q70 -15 119 -16v4z" />
    <glyph glyph-name="fi" unicode="&#xf001;" horiz-adv-x="756" 
d="M726 557q0 -34 -20.5 -55t-54.5 -21q-30 0 -53 19t-23 48q0 24 22 54t44 30q30 0 57.5 -23t27.5 -52zM708 560q0 20 -17 33t-38 13q-55 0 -55 -55q0 -17 17 -32.5t34 -15.5q22 0 40.5 17t18.5 40zM706 416q0 -20 -7 -54q-8 -38 -9 -52.5t-1 -113.5q0 -33 -2.5 -98
t-2.5 -96q-18 0 -53 -4.5t-53 -4.5q-7 0 -18 1q-8 11 -16 34l-6 269q-80 -18 -206 -8q-1 -8 -1 -17q0 -31 10.5 -91.5t10.5 -91.5q0 3 -7 -40q-11 -9 -50.5 -17.5t-59.5 -8.5q-39 0 -43 -1q0 42 6.5 127t6.5 126q-20 0 -61.5 -8.5t-64.5 -8.5q-35 0 -72 16q28 59 20 158
q8 -2 61 -20q37 -12 63 -13q0 12 -2 42q-1 26 -1 41q0 90 62 164q65 79 153 79q64 0 75 -26q36 -6 70 -33q39 -30 39 -64q0 -16 -11.5 -49.5t-21.5 -45.5q-32 -1 -81 -11q0 9 6.5 26.5t6.5 27.5q0 23 -18.5 37t-42.5 14q-38 0 -59 -38q-18 -31 -18 -73q0 -34 32 -53
q26 -16 63 -16q26 0 77 2.5t77 2.5q2 0 2 4q0 1 5 1q3 0 8.5 -2t7.5 -3zM679 396l-21 -1q-16 0 -46.5 6t-44.5 6q-34 0 -217 -12q-4 -1 -10.5 5t-9.5 6q-16 0 -32 37q-14 32 -14 52q0 54 26 90q29 40 82 40q33 0 55.5 -23t22.5 -55q0 -11 -3 -21q52 1 52 69q0 39 -36 55
q-32 14 -64 27q-10 11 -21 21q-4 3 -37 3q-46 0 -99 -39t-69 -83q-20 -57 -20 -147q0 -8 13 -49l-8 -18q-41 12 -122 36q-1 -43 -19 -109q5 -7 13 -7q37 0 95 8q74 10 95 11q-5 -37 -20 -110q6 -24 1 -142q32 1 65 2q42 5 42 35q0 22 -6 55q-9 44 -11 55q-6 53 -6 118
q15 0 45 -4.5t46 -4.5q30 0 83 3q60 3 83 4q1 -64 1 -256q0 -21 6 -38h1q51 1 91 9q4 35 3 87q-2 94 -2 88q0 33 8 96.5t9 94.5z" />
    <glyph glyph-name="fl" unicode="&#xf002;" horiz-adv-x="832" 
d="M809 713q0 -12 -11 -28q-12 -19 -15 -27q-18 -69 -23 -167q-2 -39 -2 -168q0 -34 3.5 -100t3.5 -99q0 -101 -17 -133q-47 7 -84 7q-17 0 -41 -5q-32 -5 -40 -6q-17 46 -17 132q0 13 5 179q-112 -13 -157 -13q-40 0 -85 4q-1 -8 -1 -17q0 -31 10 -91.5t10 -91.5
q0 3 -6 -40q-11 -9 -53 -18q-37 -8 -57 -8q-40 0 -43 -1q0 42 6.5 127t6.5 126q-20 0 -62 -8.5t-65 -8.5q-35 0 -72 16q28 59 21 158q7 -2 61 -20q37 -12 62 -13q0 12 -1 42q-1 26 -1 41q0 90 61 164q66 79 154 79q24 0 50 -10q31 -13 37 -31q42 -8 77 -26q48 -25 48 -57
q0 -17 -11.5 -50t-21.5 -46q-32 -1 -81 -11q0 9 6.5 26.5t6.5 27.5q0 39 -61 39q-38 0 -59 -38q-18 -32 -18 -73q0 -38 31 -38q6 0 20 1.5t21 1.5q16 0 46.5 -7t44.5 -7l87 3q20 118 21 242v14l100 26q58 14 103 14q2 -8 2 -13zM777 702q-32 0 -76 -13q-66 -19 -74 -20
q2 -17 2 -34q0 -42 -8 -114q-10 -85 -12 -114q-168 12 -180 12q-22 0 -77 -4q-6 -7 -14 -7q-29 0 -29 72q0 55 26 90q29 40 82 40q33 0 55.5 -17.5t22.5 -47.5q0 -10 -3 -21q52 2 52 70q0 28 -20 41q-11 8 -43.5 15.5t-44.5 15.5q-17 14 -33 27q-13 8 -46 8q-46 0 -99 -39
t-68 -83q-21 -57 -21 -147q0 -8 14 -49l-9 -18q-41 12 -122 36q-1 -43 -18 -109q5 -7 12 -7q37 0 95 8q74 10 95 11q-4 -37 -20 -110q6 -24 1 -142q33 1 65 2q43 5 43 35q0 22 -7 55q-9 44 -10 55q-7 53 -7 118q15 0 45.5 -4.5t45.5 -4.5q16 0 211 16q-13 -199 -13 -214
q0 -28 9 -94q100 8 129 4q9 48 11 106q1 41 0 106q-2 85 -2 107q0 2 10 126q2 54 11 163q8 24 19 74z" />
    </font>
</defs>
</svg>
