<?xml version="1.0" standalone="no"?>
<!DOCTYPE svg PUBLIC "-//W3C//DTD SVG 1.1//EN" "http://www.w3.org/Graphics/SVG/1.1/DTD/svg11.dtd" >
<svg xmlns="http://www.w3.org/2000/svg" xmlns:xlink="http://www.w3.org/1999/xlink" version="1.1">
<metadata>
Created by FontForge 20201107 at Fri Nov 23 14:05:03 2012
 By 
Typeface (c) Magique Fonts 2012. All Rights Reserved
</metadata>
<defs>
<font id="Cleanwork" horiz-adv-x="1172" >
  <font-face 
    font-family="Cleanwork"
    font-weight="400"
    font-stretch="normal"
    units-per-em="2048"
    panose-1="2 0 5 0 0 0 0 0 0 0"
    ascent="1638"
    descent="-410"
    x-height="1434"
    cap-height="1431"
    bbox="-107 -418 2235 1842"
    underline-thickness="150"
    underline-position="-292"
    unicode-range="U+0020-2265"
  />
<missing-glyph 
d="M-1 0v1434h1072v-1434h-1072zM49 50h972v1334h-972v-1334zM658 342v-214h-262v214h262zM396 490q0 284 215 346q32 8 51 17q60 40 60 120q1 86 -63 110q-31 13 -110 20l-1 194l76 -2q353 -49 353 -322v-15q-2 -253 -191 -318l3 2q-37 -19 -83 -33q-61 -29 -57 -136l1 -82
h-254v99zM510 1103q-89 -24 -122 -51q-39 -30 -55 -126l-110 7l-133 16v12q36 175 114 240q133 98 304 98z" />
    <glyph glyph-name=".notdef" 
d="M-1 0v1434h1072v-1434h-1072zM49 50h972v1334h-972v-1334zM658 342v-214h-262v214h262zM396 490q0 284 215 346q32 8 51 17q60 40 60 120q1 86 -63 110q-31 13 -110 20l-1 194l76 -2q353 -49 353 -322v-15q-2 -253 -191 -318l3 2q-37 -19 -83 -33q-61 -29 -57 -136l1 -82
h-254v99zM510 1103q-89 -24 -122 -51q-39 -30 -55 -126l-110 7l-133 16v12q36 175 114 240q133 98 304 98z" />
    <glyph glyph-name=".null" horiz-adv-x="0" 
 />
    <glyph glyph-name="nonmarkingreturn" horiz-adv-x="508" 
 />
    <glyph glyph-name="space" unicode=" " horiz-adv-x="599" 
 />
    <glyph glyph-name="space" unicode="&#xa0;" horiz-adv-x="599" 
 />
    <glyph glyph-name="exclam" unicode="!" horiz-adv-x="421" 
d="M326 264v-264h-326v264h326zM0 329v1108h326v-1108h-326z" />
    <glyph glyph-name="quotedbl" unicode="&#x22;" horiz-adv-x="794" 
d="M314 1438l1 -622l-316 -2l2 625zM697 1438l-2 -622l-316 -2l-1 625z" />
    <glyph glyph-name="numbersign" unicode="#" horiz-adv-x="1487" 
d="M302 0h-310l541 1437h310zM852 0h-310l541 1437h310zM150 795v264h190l-100 -264h-90zM648 795l96 264h154l-99 -264h-151zM1395 1059v-264h-205l97 264h108zM3 401v264h187l-100 -264h-87zM505 401l96 264h149l-99 -264h-146zM1248 665v-264h-203l97 264h106z" />
    <glyph glyph-name="dollar" unicode="$" horiz-adv-x="1255" 
d="M368 325q92 -53 175 -63l29 -5l-2 -257q-261 -7 -400 107q-155 100 -166 348l301 29q8 -105 63 -155v-4zM476 612q-432 78 -432 401v19q0 337 436 397l90 2l2 -239q-98 -8 -136 -24q-79 -30 -77 -136q0 -99 251 -145q63 -11 103 -21q445 -74 445 -424v-20
q0 -359 -436 -423l-98 -3v253q104 11 142 28q79 32 77 145q0 106 -248 164q-56 17 -123 29zM619 1434q215 0 379 -121q96 -80 140 -296v-14l-164 -20l-136 -9q-19 118 -68 155q-40 34 -150 63zM747 1752v-264h-308v264h308zM753 -49v-264h-308v264h308z" />
    <glyph glyph-name="percent" unicode="%" horiz-adv-x="1481" 
d="M563 0h-310l541 1440h310zM1131 741q135 -5 198 -81l2 2v-2l-2 -3q47 -72 47 -150v-267q0 -90 -76 -168q-44 -62 -169 -71v140q77 27 77 105v269q-16 76 -77 85v141zM1095 601q-61 -10 -77 -85v-270q0 -78 77 -104v-141q-125 10 -176 66q-69 84 -69 174v266q0 79 47 151
l-2 2v3l2 -3q63 77 198 81v-140zM279 1437q135 -5 198 -81l2 2v-2l-2 -3q47 -72 47 -150v-267q0 -90 -76 -168q-44 -62 -169 -71v140q77 27 77 105v269q-16 76 -77 85v141zM243 1297q-61 -10 -77 -85v-270q0 -78 77 -104v-141q-125 10 -176 66q-69 84 -69 174v266
q0 79 47 151l-2 2v3l2 -3q63 77 198 81v-140z" />
    <glyph glyph-name="ampersand" unicode="&#x26;" horiz-adv-x="1301" 
d="M500 1163q-81 -8 -121 -65h-5l-10 -25l-5 -36q0 -103 91 -142q32 0 50 -4v-269q-80 -7 -96 -32q-79 -49 -71 -127v-41q3 -115 132 -157h35v-259q-45 -1 -55 -1h-5l-86 5q-188 42 -260 143q-61 73 -71 127q-17 20 -25 147q0 27 5 46q21 179 173 269q25 12 64 33l-24 8
l-46 26q-74 58 -106 152q-27 37 -26 92v25q0 63 21 112q91 244 437 244h4v-271zM870 75l-1 -1q-68 -41 -172 -64l-86 -5h-5q-10 0 -55 1v259h38q126 42 129 157v41q8 78 -71 127q-16 25 -96 32v269q18 4 50 4q91 39 91 142l-5 36l-10 25q-45 57 -126 65v271h4
q346 0 437 -244q21 -49 21 -112v-25q1 -55 -26 -92q-32 -94 -106 -152l-46 -26l-24 -8q34 -19 58 -30l21 58h310l-140 -383l154 -420h-310l-29 78q-3 -2 -5 -3z" />
    <glyph glyph-name="quotesingle" unicode="'" horiz-adv-x="424" 
d="M323 1432v-617h-326v617h326z" />
    <glyph glyph-name="parenleft" unicode="(" horiz-adv-x="754" 
d="M652 1666v-265l-141 1q-147 -7 -181 -175v-1018q0 -154 153 -204q30 -5 57 -5l112 -1v-270h-88q-307 0 -428 133q-133 162 -133 337v1012q0 152 92 297q131 158 419 158h138z" />
    <glyph glyph-name="parenright" unicode=")" horiz-adv-x="757" 
d="M141 1666q288 0 419 -158q92 -145 92 -297v-1012q0 -175 -133 -337q-121 -133 -428 -133h-88v270l112 1q27 0 57 5q153 50 153 204v1018q-34 168 -181 175l-141 -1v265h138z" />
    <glyph glyph-name="asterisk" unicode="*" horiz-adv-x="717" 
d="M300 1294l-73 281h172l-72 -283l245 158l54 -164l-287 -19l221 -192l-142 -97l-103 275l-101 -271l-142 97l218 188l-288 20l54 164z" />
    <glyph glyph-name="plus" unicode="+" horiz-adv-x="873" 
d="M518 1079v-670h-271v670h271zM209 611h-209v264h209v-264zM562 875h199v-264h-199v264z" />
    <glyph glyph-name="comma" unicode="," horiz-adv-x="421" 
d="M326 284v-617h-326v617h326z" />
    <glyph glyph-name="hyphen" unicode="-" horiz-adv-x="775" 
d="M672 885v-264h-672v264h672z" />
    <glyph glyph-name="hyphen" unicode="&#xad;" horiz-adv-x="775" 
d="M672 885v-264h-672v264h672z" />
    <glyph glyph-name="period" unicode="." horiz-adv-x="427" 
d="M326 264v-264h-326v264h326z" />
    <glyph glyph-name="slash" unicode="/" horiz-adv-x="898" 
d="M302 0h-310l541 1437h310z" />
    <glyph glyph-name="zero" unicode="0" horiz-adv-x="1127" 
d="M474 1165q-118 -18 -148 -165v-523q0 -151 148 -202v-273q-243 18 -342 128q-133 162 -133 337v517q0 152 92 292l-5 5v5l5 -5q122 148 383 157v-273zM546 1435q261 -9 383 -157l5 5v-5l-5 -5q92 -140 92 -292v-517q0 -175 -133 -337q-99 -110 -342 -128v273
q148 51 148 202v523q-30 147 -148 165v273z" />
    <glyph glyph-name="one" unicode="1" horiz-adv-x="687" 
d="M0 1257l199 180v-362l-199 -179v361zM592 0h-326v1437h326v-1437z" />
    <glyph glyph-name="two" unicode="2" horiz-adv-x="1188" 
d="M1115 265v-264h-755v264h755zM-1 275v42q0 350 457 472q40 10 103 21q245 71 239 228q2 106 -77 136q-38 16 -136 24l2 239l90 -2q436 -60 436 -397v-19q0 -323 -420 -484q-63 -9 -119 -26q-269 -78 -260 -212l1 -300h-316v278zM345 1133q-52 -47 -60 -144l-285 27
q10 230 157 323q132 106 379 100l2 -239l-27 -5q-79 -9 -166 -59v-3z" />
    <glyph glyph-name="three" unicode="3" horiz-adv-x="1197" 
d="M764 425v41q8 78 -71 127q-16 25 -106 32l-116 1l-1 269l117 -1q28 4 60 4q91 39 91 142l-5 36l-15 25q-40 57 -121 65v1h-10l-2 270h76v-2q294 -20 377 -242q21 -49 21 -112v-25q1 -55 -26 -92q-32 -94 -106 -152l-46 -26l-24 -8q39 -21 64 -33q152 -90 173 -269
q5 -19 5 -46q-8 -127 -25 -147q-10 -54 -71 -127q-72 -101 -260 -143l-70 -4h-85l2 255q174 22 174 161zM345 1133q-52 -47 -60 -144l-285 27q10 230 157 323q132 106 379 100l2 -267q-127 5 -193 -36v-3zM348 308q87 -49 193 -41l-2 -261q-247 -7 -379 99q-147 93 -157 324
l285 27q8 -98 60 -144v-4z" />
    <glyph glyph-name="four" unicode="4" horiz-adv-x="1090" 
d="M623 368l-624 1v328l624 -1v-328zM989 0h-326v1437h326v-1437zM600 1437h23v-433q-27 -31 -61 -68q-97 -116 -174 -208h-383z" />
    <glyph glyph-name="five" unicode="5" horiz-adv-x="1215" 
d="M0 1171v264h1115v-264h-1115zM318 1127q-22 -216 228 -228q84 1 175 -29q392 -130 392 -453v-19q0 -337 -436 -397l-90 -2l-2 239q98 8 136 24q79 30 77 136q6 157 -215 228q-87 11 -158 21q-438 31 -422 479zM345 300q87 -50 165 -59l28 -5l-2 -239q-247 -6 -379 100
q-147 93 -157 323l285 27q8 -97 60 -144v-3z" />
    <glyph glyph-name="six" unicode="6" horiz-adv-x="1114" 
d="M474 1165q-118 -18 -148 -165v-523q0 -151 148 -202v-273q-243 18 -342 128q-133 162 -133 337v517q0 152 92 292l-5 5v5l5 -5q122 148 383 157v-273zM535 939q261 -9 383 -157l5 5v-5l-5 -5q92 -140 92 -292v-17q0 -175 -133 -337q-99 -110 -342 -128v273
q148 51 148 202v23q-30 147 -148 165l-155 -2v276zM529 1434q200 0 352 -121q89 -80 130 -296v-14l-152 -20l-127 -9q-17 118 -63 155q-37 34 -142 41z" />
    <glyph glyph-name="seven" unicode="7" horiz-adv-x="1108" 
d="M1010 1123l-654 -1123h-359l654 1123h359zM1011 1173h-1009v264h1009v-264z" />
    <glyph glyph-name="eight" unicode="8" horiz-adv-x="1157" 
d="M500 1163q-81 -8 -121 -65h-5l-10 -25l-5 -36q0 -103 91 -142q32 0 50 -4v-269q-80 -7 -96 -32q-79 -49 -71 -127v-41q3 -115 132 -142q30 0 35 -15v-259q-45 -1 -55 -1h-5l-86 5q-188 42 -260 143q-61 73 -71 127q-17 20 -25 147q0 27 5 46q21 179 173 269q25 12 64 33
l-24 8l-46 26q-74 58 -106 152q-27 37 -26 92v25q0 63 21 112q91 244 437 244h4v-271zM551 1436h4q346 0 437 -244q21 -49 21 -112v-25q1 -55 -26 -92q-32 -94 -106 -152l-46 -26l-24 -8q39 -21 64 -33q152 -90 173 -269q5 -19 5 -46q-8 -127 -25 -147q-10 -54 -71 -127
q-72 -101 -260 -143l-86 -5h-5q-10 0 -55 1v259q5 15 35 15q129 27 132 142v41q8 78 -71 127q-16 25 -96 32v269q18 4 50 4q91 39 91 142l-5 36l-10 25h-5q-40 57 -121 65v271z" />
    <glyph glyph-name="nine" unicode="9" horiz-adv-x="1117" 
d="M536 275q118 18 148 165v523q0 151 -148 202v273q243 -18 342 -128q133 -162 133 -337v-517q0 -152 -92 -292l5 -5v-5l-5 5q-122 -148 -383 -157v273zM475 501q-261 9 -383 157l-5 -5v5l5 5q-92 140 -92 292v17q0 175 133 337q99 110 342 128v-273q-148 -51 -148 -202
v-23q30 -147 148 -165l156 2l2 -275h-158zM481 6q-200 0 -352 121q-89 80 -130 296v14l152 20l127 9q17 -118 63 -155q37 -34 142 -41z" />
    <glyph glyph-name="colon" unicode=":" horiz-adv-x="424" 
d="M327 1026v-264h-327v264h327zM326 263v-264h-327v264h327z" />
    <glyph glyph-name="semicolon" unicode=";" horiz-adv-x="427" 
d="M327 1026v-264h-327v264h327zM326 263v-593h-327v593h327z" />
    <glyph glyph-name="semicolon" unicode="&#x37e;" horiz-adv-x="427" 
d="M327 1026v-264h-327v264h327zM326 263v-593h-327v593h327z" />
    <glyph glyph-name="less" unicode="&#x3c;" 
d="M0 732v78l1062 387v-229l-646 -236h-416zM407 687l653 -238v-229l-1061 386v81h408z" />
    <glyph glyph-name="equal" unicode="=" horiz-adv-x="775" 
d="M672 1069v-264h-672v264h672zM672 701v-264h-672v264h672z" />
    <glyph glyph-name="greater" unicode="&#x3e;" horiz-adv-x="1166" 
d="M645 732l-646 236v229l1062 -387v-78h-416zM1062 687v-81l-1061 -386v229l653 238h408z" />
    <glyph glyph-name="question" unicode="?" horiz-adv-x="1194" 
d="M703 263v-264h-324v264h324zM379 445q0 350 265 427q40 10 63 21q74 49 74 148q2 106 -77 136q-38 16 -136 24l-1 239l93 -2q436 -60 436 -397v-19q-3 -311 -236 -392l4 3q-46 -24 -102 -41q-75 -36 -71 -167l2 -101l-314 -1v122zM520 1201q-110 -29 -150 -63
q-49 -37 -68 -155l-136 9l-164 20v14q44 216 140 296q164 121 376 121z" />
    <glyph glyph-name="at" unicode="@" horiz-adv-x="1881" 
d="M1137 31l-69 218h-284l55 190h175v4l-106 378h-4l-221 -790h-208v149l299 878h265l325 -918q110 25 165 131q82 156 82 382q-20 335 -232 540q-197 188 -480 188q-205 0 -392.5 -137.5t-269.5 -355.5q-67 -178 -67 -361q0 -313 129.5 -511.5t305 -290.5t318.5 -92
q274 0 575 208v-75q-263 -184 -571 -184q-240 0 -461 122.5t-343 342t-122 461.5t124 464.5t345.5 342t456.5 119.5q362 0 609 -230t247 -566q0 -270 -176 -439q-113 -112 -206 -142t-264 -26z" />
    <glyph glyph-name="A" unicode="A" horiz-adv-x="1359" 
d="M788 1434l507 -1434h-370l-96 305h-397l77 265h244v5l-148 528h-5l-310 -1103h-290v208l417 1226h371z" />
    <glyph glyph-name="B" unicode="B" horiz-adv-x="1282" 
d="M326 0h-326v1437h326v-1437zM685 1437q346 0 437 -246q21 -49 21 -113v-25q0 -135 -132 -246l-46 -26l-24 -8q39 -21 64 -33q152 -91 173 -271q5 -20 5 -47q-8 -128 -25 -148q-10 -54 -71 -128q-72 -102 -260 -144q-50 -3 -146 -3h-300v260h300q164 42 167 158v42
q8 78 -71 128q-16 25 -96 32h-299v271h299l50 4q91 39 91 143l-5 36l-10 25q-45 58 -126 66h-303v273h307z" />
    <glyph glyph-name="C" unicode="C" horiz-adv-x="1401" 
d="M656 1173q-125 -15 -217 -132q-105 -134 -105 -324q0 -189 105 -323q92 -118 217 -133v-260q-265 10 -455 210q-201 210 -201 508t201 509q190 199 455 209v-264zM946 1041q-99 127 -238 134v263q269 -9 462 -210q98 -103 148 -227l-284 -140q-25 100 -88 180zM1170 211
q-193 -202 -462 -211v259q139 7 238 135q49 63 75 138l276 -143q-48 -96 -127 -178z" />
    <glyph glyph-name="D" unicode="D" horiz-adv-x="1224" 
d="M326 0h-326v1437h326v-1437zM792 1002q-34 168 -184 171l-230 3v265h230q289 0 419 -163q92 -140 92 -292v-530q0 -152 -92 -292q-130 -163 -419 -163h-230v265l230 3q150 3 184 171v562z" />
    <glyph glyph-name="E" unicode="E" horiz-adv-x="1154" 
d="M326 0h-326v1437h326v-1437zM1054 1434v-264h-672v264h672zM1001 891v-264h-617v264h617zM1057 266v-264h-672v264h672z" />
    <glyph glyph-name="F" unicode="F" horiz-adv-x="1151" 
d="M326 0h-326v1437h326v-1437zM1054 1434v-264h-672v264h672zM1001 891v-264h-617v264h617z" />
    <glyph glyph-name="G" unicode="G" horiz-adv-x="1462" 
d="M656 1173q-125 -15 -217 -132q-105 -134 -105 -324q0 -189 105 -323q92 -118 217 -133v-260q-265 10 -455 210q-201 210 -201 508t201 509q190 199 455 209v-264zM946 1041q-99 127 -238 134v263q269 -9 462 -210q98 -103 148 -227l-284 -140q-25 100 -88 180zM1371 702
q-6 -287 -201 -491q-193 -202 -462 -211v259q139 7 238 135q17 21 31 44h-271v264h665z" />
    <glyph glyph-name="H" unicode="H" horiz-adv-x="1392" 
d="M326 0h-326v1437h326v-1437zM1287 0h-326v1437h326v-1437zM901 888v-264h-520v264h520z" />
    <glyph glyph-name="I" unicode="I" horiz-adv-x="427" 
d="M326 0h-326v1437h326v-1437z" />
    <glyph glyph-name="J" unicode="J" horiz-adv-x="583" 
d="M485 1431l1 -988q-49 -371 -303 -434q-68 -21 -184 -18v318q158 21 159 167v955h327z" />
    <glyph glyph-name="K" unicode="K" horiz-adv-x="1380" 
d="M330 1434v-1434h-331v1434h331zM828 1434h417v-5l-651 -646l681 -778v-5h-391l-509 595v356z" />
    <glyph glyph-name="L" unicode="L" horiz-adv-x="1166" 
d="M326 0h-326v1437h326v-1437zM1066 265v-264h-672v264h672z" />
    <glyph glyph-name="M" unicode="M" horiz-adv-x="1774" 
d="M326 0h-326v1348l326 -544v-804zM1334 804l326 544v-1348h-326v804zM874 621l484 813h310l-794 -1334v521zM798 99l-794 1334h310l484 -813v-521z" />
    <glyph glyph-name="N" unicode="N" horiz-adv-x="1273" 
d="M326 0h-326v1348l326 -544v-804zM856 1l-852 1432h310l853 -1433zM843 1434h326v-1348l-326 544v804z" />
    <glyph glyph-name="O" unicode="O" horiz-adv-x="1471" 
d="M656 1173q-125 -15 -217 -132q-105 -134 -105 -324q0 -189 105 -323q92 -118 217 -133v-260q-265 10 -455 210q-201 210 -201 508t201 509q190 199 455 209v-264zM708 259q139 7 238 135q105 134 105 323q0 190 -105 324q-99 127 -238 134v263q269 -9 462 -210
q201 -211 201 -509t-201 -508q-193 -202 -462 -211v259z" />
    <glyph glyph-name="P" unicode="P" horiz-adv-x="1218" 
d="M608 1441q289 0 419 -163q92 -140 92 -292v-20q0 -175 -97 -307q-130 -176 -516 -163h-128v270h261q153 56 153 210v26q-34 168 -184 174h-230v265h230zM326 0h-326v1437h326v-1437z" />
    <glyph glyph-name="Q" unicode="Q" horiz-adv-x="1471" 
d="M656 1173q-125 -15 -217 -132q-105 -134 -105 -324q0 -189 105 -323q92 -118 217 -133v-260q-265 10 -455 210q-201 210 -201 508t201 509q190 199 455 209v-264zM1046 106q-151 -100 -338 -106v259q139 7 238 135q105 134 105 323q0 190 -105 324q-99 127 -238 134v263
q269 -9 462 -210q201 -211 201 -509q0 -244 -135 -429l101 -100l-185 -188z" />
    <glyph glyph-name="R" unicode="R" horiz-adv-x="1294" 
d="M326 0h-326v1437h326v-1437zM981 645q38 -39 73 -113q15 -16 26 -128l10 -51q34 -204 56 -258q14 -41 61 -95h-341q-21 2 -61 124q-9 15 -51 285q-18 64 -82 102q-60 21 -294 21v260h261q153 54 153 202v25q-34 161 -184 167h-230v255h230q289 0 419 -157
q92 -134 92 -281v-19q0 -168 -97 -295q-18 -24 -41 -44z" />
    <glyph glyph-name="S" unicode="S" horiz-adv-x="1261" 
d="M368 325q92 -53 175 -63l29 -5l-2 -257q-261 -7 -400 107q-155 100 -166 348l301 29q8 -105 63 -155v-4zM476 612q-432 78 -432 401v19q0 337 436 397l90 2l2 -239q-98 -8 -136 -24q-79 -30 -77 -136q0 -99 251 -145q63 -11 103 -21q445 -74 445 -424v-20
q0 -359 -436 -423l-98 -3v253q104 11 142 28q79 32 77 145q0 106 -248 164q-56 17 -123 29zM619 1434q215 0 379 -121q96 -80 140 -296v-14l-164 -20l-136 -9q-19 118 -68 155q-40 34 -150 63z" />
    <glyph glyph-name="T" unicode="T" 
d="M702 3h-326v1111h326v-1111zM1065 1431v-264h-1068v264h1068z" />
    <glyph glyph-name="U" unicode="U" 
d="M1065 1437l1 -988q-9 -371 -303 -434q-68 -21 -194 -18v318q168 21 171 167v955h325zM325 1437v-955q3 -146 171 -167v-318q-126 -3 -194 18q-284 63 -303 434l1 988h325z" />
    <glyph glyph-name="V" unicode="V" horiz-adv-x="1389" 
d="M632 0h-105l-523 1434h310l318 -872v-562zM693 550l321 881h310l-522 -1432h-109v551z" />
    <glyph glyph-name="W" unicode="W" horiz-adv-x="2094" 
d="M632 0h-105l-523 1434h310l318 -872v-562zM1384 550l321 881h310l-522 -1432h-109v551zM1165 995l158 -433v-562h-105l-208 570l-208 -571h-109v551l162 445h310z" />
    <glyph glyph-name="X" unicode="X" horiz-adv-x="1291" 
d="M1194 1435l-841 -1438h-359l841 1438h359zM1197 -3h-359l-215 365l177 313zM-3 1435h359l212 -363l-181 -304z" />
    <glyph glyph-name="Y" unicode="Y" horiz-adv-x="1297" 
d="M-3 1435h359l212 -363l-181 -304zM403 696l432 739h359l-464 -794v-638h-326z" />
    <glyph glyph-name="Z" unicode="Z" horiz-adv-x="1114" 
d="M1010 1123l-654 -816h-359l654 816h359zM1011 1173h-1009v264h1009v-264zM1008 1h-1009v264h1009v-264z" />
    <glyph glyph-name="bracketleft" unicode="[" horiz-adv-x="760" 
d="M652 1663v-274l-319 1v-1386l319 -1v-276h-650l2 1937z" />
    <glyph glyph-name="backslash" unicode="\" horiz-adv-x="898" 
d="M-8 1437h310l541 -1437h-310z" />
    <glyph glyph-name="bracketright" unicode="]" horiz-adv-x="751" 
d="M650 1664l-1 -1937h-647v276l319 1v1386l-319 -1v274z" />
    <glyph glyph-name="asciicircum" unicode="^" horiz-adv-x="482" 
d="M183 1274l-91 -249h-88l149 409h30v-160zM200 1434h31l149 -408h-88l-92 251v157z" />
    <glyph glyph-name="underscore" unicode="_" horiz-adv-x="1068" 
d="M1069 0v-264h-1069v264h1069z" />
    <glyph glyph-name="grave" unicode="`" horiz-adv-x="372" 
d="M10 1699h221l87 -264h-102z" />
    <glyph glyph-name="a" unicode="a" horiz-adv-x="1365" 
d="M788 1434l507 -1434h-370l-96 305h-397l77 265h244v5l-148 528h-5l-310 -1103h-290v208l417 1226h371z" />
    <glyph glyph-name="b" unicode="b" horiz-adv-x="874" 
d="M305 1437q346 0 437 -246q21 -49 21 -113v-25q0 -135 -132 -246l-46 -26l-24 -8q39 -21 64 -33q152 -91 173 -271q5 -20 5 -47q-8 -128 -25 -148q-10 -54 -71 -128q-72 -102 -260 -144q-50 -3 -146 -3h-300v260h300q164 42 167 158v42q8 78 -71 128q-16 25 -96 32h-299
v271h299l50 4q91 39 91 143l-5 36l-10 25q-45 58 -126 66h-303v273h307z" />
    <glyph glyph-name="c" unicode="c" horiz-adv-x="1407" 
d="M656 1173q-125 -15 -217 -132q-105 -134 -105 -324q0 -189 105 -323q92 -118 217 -133v-260q-265 10 -455 210q-201 210 -201 508t201 509q190 199 455 209v-264zM946 1041q-99 127 -238 134v263q269 -9 462 -210q98 -103 148 -227l-284 -140q-25 100 -88 180zM1170 211
q-193 -202 -462 -211v259q139 7 238 135q49 63 75 138l276 -143q-48 -96 -127 -178z" />
    <glyph glyph-name="d" unicode="d" horiz-adv-x="1224" 
d="M326 0h-326v1437h326v-1437zM792 1002q-34 168 -184 171l-230 3v265h230q289 0 419 -163q92 -140 92 -292v-530q0 -152 -92 -292q-130 -163 -419 -163h-230v265l230 3q150 3 184 171v562z" />
    <glyph glyph-name="e" unicode="e" horiz-adv-x="1157" 
d="M326 0h-326v1437h326v-1437zM1054 1434v-264h-672v264h672zM1001 891v-264h-617v264h617zM1057 266v-264h-672v264h672z" />
    <glyph glyph-name="f" unicode="f" horiz-adv-x="1151" 
d="M326 0h-326v1437h326v-1437zM1054 1434v-264h-672v264h672zM1001 891v-264h-617v264h617z" />
    <glyph glyph-name="g" unicode="g" horiz-adv-x="1471" 
d="M656 1173q-125 -15 -217 -132q-105 -134 -105 -324q0 -189 105 -323q92 -118 217 -133v-260q-265 10 -455 210q-201 210 -201 508t201 509q190 199 455 209v-264zM946 1041q-99 127 -238 134v263q269 -9 462 -210q98 -103 148 -227l-284 -140q-25 100 -88 180zM1371 702
q-6 -287 -201 -491q-193 -202 -462 -211v259q139 7 238 135q17 21 31 44h-271v264h665z" />
    <glyph glyph-name="h" unicode="h" horiz-adv-x="1392" 
d="M326 0h-326v1437h326v-1437zM1287 0h-326v1437h326v-1437zM901 888v-264h-520v264h520z" />
    <glyph glyph-name="i" unicode="i" horiz-adv-x="424" 
d="M326 0h-326v1437h326v-1437z" />
    <glyph glyph-name="j" unicode="j" horiz-adv-x="586" 
d="M485 1431l1 -988q-49 -371 -303 -434q-68 -21 -184 -18v318q158 21 161 167l1 955h324z" />
    <glyph glyph-name="k" unicode="k" horiz-adv-x="1386" 
d="M330 1434l-3 -1434h-328v1434h331zM828 1434h417v-5l-651 -646l681 -778v-5h-391l-509 595v356z" />
    <glyph glyph-name="l" unicode="l" horiz-adv-x="1175" 
d="M326 0h-326v1437h326v-1437zM1066 265v-264h-672v264h672z" />
    <glyph glyph-name="m" unicode="m" horiz-adv-x="1771" 
d="M326 0h-326v1348l326 -544v-804zM1334 804l326 544v-1348h-326v804zM874 621l484 813h310l-794 -1334v521zM798 99l-794 1334h310l484 -813v-521z" />
    <glyph glyph-name="n" unicode="n" horiz-adv-x="1276" 
d="M326 0h-326v1348l326 -544v-804zM856 1l-852 1432h310l853 -1433zM843 1434h326v-1348l-326 544v804z" />
    <glyph glyph-name="o" unicode="o" horiz-adv-x="1468" 
d="M656 1173q-125 -15 -217 -132q-105 -134 -105 -324q0 -189 105 -323q92 -118 217 -133v-260q-265 10 -455 210q-201 210 -201 508t201 509q190 199 455 209v-264zM708 259q139 7 238 135q105 134 105 323q0 190 -105 324q-99 127 -238 134v263q269 -9 462 -210
q201 -211 201 -509t-201 -508q-193 -202 -462 -211v259z" />
    <glyph glyph-name="p" unicode="p" horiz-adv-x="1224" 
d="M608 1441q289 0 419 -163q92 -140 92 -292v-20q0 -175 -97 -307q-130 -176 -516 -163h-128v270h261q153 56 153 210v26q-34 168 -184 174h-230v265h230zM326 0h-326v1437h326v-1437z" />
    <glyph glyph-name="q" unicode="q" horiz-adv-x="1468" 
d="M656 1173q-125 -15 -217 -132q-105 -134 -105 -324q0 -189 105 -323q92 -118 217 -133v-260q-265 10 -455 210q-201 210 -201 508t201 509q190 199 455 209v-264zM1046 106q-151 -100 -338 -106v259q139 7 238 135q105 134 105 323q0 190 -105 324q-99 127 -238 134v263
q269 -9 462 -210q201 -211 201 -509q0 -244 -135 -429l101 -100l-185 -188z" />
    <glyph glyph-name="r" unicode="r" horiz-adv-x="1291" 
d="M326 0h-326v1437h326v-1437zM981 645q38 -39 73 -113q15 -16 26 -128l10 -51l30 -158q10 -25 26 -96q17 -26 61 -95l-341 -2q-17 0 -61 122q-9 15 -51 285q-18 64 -82 102q-60 21 -294 21v260h261q153 54 153 202v25q-34 161 -184 167h-230v255h230q289 0 419 -157
q92 -134 92 -281v-19q0 -168 -97 -295q-18 -24 -41 -44z" />
    <glyph glyph-name="s" unicode="s" horiz-adv-x="1258" 
d="M368 325q92 -53 175 -63l29 -5l-2 -257q-261 -7 -400 107q-155 100 -166 348l301 29q8 -105 63 -155v-4zM476 612q-432 78 -432 401v19q0 337 436 397l90 2l2 -239q-98 -8 -136 -24q-79 -30 -77 -136q0 -99 251 -145q63 -11 103 -21q445 -74 445 -424v-20
q0 -359 -436 -423l-98 -3v253q104 11 142 28q79 32 77 145q0 106 -248 164q-56 17 -123 29zM619 1434q215 0 379 -121q96 -80 140 -296v-14l-164 -20l-136 -9q-19 118 -68 155q-40 34 -150 63z" />
    <glyph glyph-name="t" unicode="t" horiz-adv-x="1175" 
d="M702 3h-326v1111h326v-1111zM1065 1431v-264h-1068v264h1068z" />
    <glyph glyph-name="u" unicode="u" horiz-adv-x="1169" 
d="M1065 1437l1 -988q-9 -371 -303 -434q-68 -21 -194 -18v318q168 21 171 167l-2 955h327zM324 1437l1 -955q3 -146 171 -167v-318q-126 -3 -194 18q-294 63 -303 434l1 988h324z" />
    <glyph glyph-name="v" unicode="v" horiz-adv-x="1389" 
d="M632 0h-105l-523 1434h310l318 -872v-562zM693 550l321 881h310l-522 -1432h-109v551z" />
    <glyph glyph-name="w" unicode="w" horiz-adv-x="2082" 
d="M632 0h-105l-523 1434h310l318 -872v-562zM1384 550l321 881h310l-522 -1432h-109v551zM1165 995l158 -433v-562h-105l-208 570l-208 -571h-109v551l162 445h310z" />
    <glyph glyph-name="x" unicode="x" horiz-adv-x="1304" 
d="M1194 1435l-841 -1438h-359l841 1438h359zM1197 -3h-359l-215 365l177 313zM-3 1435h359l212 -363l-181 -304z" />
    <glyph glyph-name="y" unicode="y" horiz-adv-x="1294" 
d="M-3 1435h359l212 -363l-181 -304zM403 696l432 739h359l-464 -794v-638h-326z" />
    <glyph glyph-name="z" unicode="z" horiz-adv-x="1108" 
d="M1010 1123l-654 -816h-359l654 816h359zM1011 1173h-1009v264h1009v-264zM1008 1h-1009v264h1009v-264z" />
    <glyph glyph-name="braceleft" unicode="{" horiz-adv-x="1053" 
d="M248 586h-248v264h248v-264zM952 1666v-265l-141 1q-147 -7 -181 -175v-1018q0 -154 153 -204q30 -5 57 -5l112 -1v-270h-88q-307 0 -428 133q-133 162 -133 337v1012q0 152 92 297q131 158 419 158h138z" />
    <glyph glyph-name="bar" unicode="|" horiz-adv-x="399" 
d="M326 1502v-1603h-326v1603h326z" />
    <glyph glyph-name="braceright" unicode="}" horiz-adv-x="1050" 
d="M700 850h248v-264h-248v264zM141 1666q288 0 419 -158q92 -145 92 -297v-1012q0 -175 -133 -337q-121 -133 -428 -133h-88v270l112 1q27 0 57 5q153 50 153 204v1018q-34 168 -181 175l-141 -1v265h138z" />
    <glyph glyph-name="asciitilde" unicode="~" horiz-adv-x="785" 
d="M342 666q-4 6 -10 12l-3 3l-16 13q-37 27 -84 27q-60 0 -102 -43q-22 -23 -32 -50v-13h-92l3 31q16 53 59 96q37 37 82 55q58 21 138 8q61 -14 110 -63q6 -5 10 -10q36 -28 86 -28q60 0 103 41q25 27 35 60h92q-6 -33 -20 -61l-6 -10q-15 -27 -38 -52q-36 -34 -78 -51
l-15 -6q-35 -10 -73 -10q-50 0 -92 19l-11 4q-23 11 -46 28z" />
    <glyph glyph-name="exclamdown" unicode="&#xa1;" horiz-adv-x="399" 
d="M0 1173v264h326v-264h-326zM326 1108v-1108h-326v1108h326z" />
    <glyph glyph-name="cent" unicode="&#xa2;" horiz-adv-x="1404" 
d="M656 1173q-125 -15 -217 -132q-105 -134 -105 -324q0 -189 105 -323q92 -118 217 -133v-260q-265 10 -455 210q-201 210 -201 508t201 509q190 199 455 209v-264zM946 1041q-99 127 -238 134v263q269 -9 462 -210q98 -103 148 -227l-284 -140q-25 100 -88 180zM1170 211
q-193 -202 -462 -211v259q139 7 238 135q49 63 75 138l276 -143q-48 -96 -127 -178zM827 1752v-264h-308v264h308zM833 -49v-264h-308v264h308z" />
    <glyph glyph-name="sterling" unicode="&#xa3;" horiz-adv-x="1169" 
d="M1069 268v-264h-1069v264h1069zM922 789v-264h-327v264h327zM773 1112v318q126 3 194 -18q60 -15 109 -47l-198 -288q-40 27 -105 35zM203 978q49 371 303 434q68 21 194 18v-318q-168 -21 -171 -167l-1 -638l-327 1z" />
    <glyph glyph-name="brokenbar" unicode="&#xa6;" horiz-adv-x="427" 
d="M0 752v750h326v-750h-326zM326 651v-752h-326v752h326z" />
    <glyph glyph-name="section" unicode="&#xa7;" horiz-adv-x="1261" 
d="M614 1602q215 0 379 -121q96 -80 140 -296v-14l-164 -20l-136 -9q-19 118 -68 155q-40 34 -150 63zM795 466q45 39 43 124q0 106 -248 164q-56 17 -123 29l4 -3q-19 3 -38 7q-1 0 -3 -1q-79 -30 -77 -136q0 -99 251 -145q63 -11 103 -21q46 -8 88 -18zM148 918
q-109 101 -109 263v19q0 337 436 397l90 2l2 -239q-98 -8 -136 -24q-79 -30 -77 -136q0 -99 251 -145q63 -11 103 -21q445 -74 445 -424v-20q0 -166 -93 -269q92 -102 92 -261v-20q0 -359 -436 -423l-98 -3v253q104 11 142 28q79 32 77 145q0 76 -126 127l-92 30
q-15 3 -30 7q-56 17 -123 29l4 -3q-432 78 -432 401v19q0 169 110 268zM362 -57q92 -53 175 -63l29 -5l-2 -257q-261 -7 -400 107q-155 100 -166 348l301 29q8 -105 63 -155v-4z" />
    <glyph glyph-name="dieresis" unicode="&#xa8;" horiz-adv-x="577" 
d="M0 1436v188h215v-188h-215zM280 1436v188h215v-188h-215z" />
    <glyph glyph-name="copyright" unicode="&#xa9;" horiz-adv-x="1581" 
d="M739 1456q145 0 280 -56.5t239 -160.5q102 -101 158.5 -238t56.5 -283q0 -147 -56.5 -282t-162.5 -240q-105 -105 -239 -159.5t-283 -54.5q-146 0 -278 55.5t-238 160.5q-106 104 -161.5 237.5t-55.5 282.5q0 148 55.5 283t159.5 238q102 104 238.5 160.5t286.5 56.5z
M256 1197q-95 -96 -146 -219.5t-51 -259.5q0 -137 51 -259t148 -219q98 -96 219 -147t256 -51q137 0 259.5 50.5t219.5 145.5q97 98 149 221.5t52 258.5q0 134 -52 259.5t-145 219.5q-96 96 -220 147.5t-258 51.5q-137 0 -262 -51.5t-220 -147.5zM719 1051q-93 -11 -162 -99
q-78 -100 -78 -242q0 -141 78 -241q69 -89 162 -100v-194q-198 7 -340 157q-150 157 -150 380q0 222 150 380q142 149 340 156v-197zM936 952q-74 95 -178 100v197q201 -7 346 -157q73 -77 110 -170l-212 -104q-19 74 -66 134zM1104 332q-145 -151 -346 -158v194
q104 5 178 101q37 47 56 103l207 -107q-36 -72 -95 -133z" />
    <glyph glyph-name="registered" unicode="&#xae;" horiz-adv-x="1581" 
d="M739 1456q145 0 280 -56.5t239 -160.5q102 -101 158.5 -238t56.5 -283q0 -147 -56.5 -282t-162.5 -240q-105 -105 -239 -159.5t-283 -54.5q-146 0 -278 55.5t-238 160.5q-106 104 -161.5 237.5t-55.5 282.5q0 148 55.5 283t159.5 238q102 104 238.5 160.5t286.5 56.5z
M256 1197q-95 -96 -146 -219.5t-51 -259.5q0 -137 51 -259t148 -219q98 -96 219 -147t256 -51q137 0 259.5 50.5t219.5 145.5q97 98 149 221.5t52 258.5q0 134 -52 259.5t-145 219.5q-96 96 -220 147.5t-258 51.5q-137 0 -262 -51.5t-220 -147.5zM591 299h-213v938h213v-938
zM1019 720q24 -25 47 -74q10 -10 17 -83l7 -33l19 -104q7 -16 17 -62q11 -17 40 -65l-222 1q-12 0 -40 80q-6 10 -34 186q-11 42 -53 67q-39 13 -192 13v170h170q100 35 100 132v16q-22 106 -120 109h-150v167h150q189 0 274 -103q60 -87 60 -183v-12q0 -110 -64 -193
q-11 -16 -26 -29z" />
    <glyph glyph-name="plusminus" unicode="&#xb1;" horiz-adv-x="867" 
d="M521 1290v-670h-271v670h271zM212 822h-209v264h209v-264zM565 1086h199v-264h-199v264zM763 534v-264h-763v264h763z" />
    <glyph glyph-name="acute" unicode="&#xb4;" horiz-adv-x="372" 
d="M112 1435h-102l87 264h221z" />
    <glyph glyph-name="paragraph" unicode="&#xb6;" horiz-adv-x="1618" 
d="M742 1438v-945h-128q-374 -7 -516 163q-97 132 -97 307v20q0 152 92 297q130 158 419 158h230zM1120 1171v-1174h-326v1437h723v-1437h-326v1174h-71z" />
    <glyph glyph-name="periodcentered" unicode="&#xb7;" horiz-adv-x="399" 
d="M326 798v-264h-326v264h326z" />
    <glyph glyph-name="periodcentered" unicode="&#x2219;" horiz-adv-x="399" 
d="M326 798v-264h-326v264h326z" />
    <glyph glyph-name="cedilla" unicode="&#xb8;" horiz-adv-x="376" 
d="M164 0q40 0 73 -16l7 -4q19 -11 36 -27q24 -25 36 -54l4 -11q7 -24 7 -51q0 -35 -13 -64q-13 -28 -30 -46l-6 -7q-28 -27 -62 -38l-30 -7q-11 -1 -22 -1t-22 1l-26 6q-37 11 -67 41q-26 26 -38 58l-7 40v17h60q0 -42 30 -71q16 -16 35 -23l18 -5q8 -1 17 -1q42 0 71.5 29
t29.5 71t-29.5 71.5t-71.5 29.5v62z" />
    <glyph glyph-name="questiondown" unicode="&#xbf;" horiz-adv-x="1194" 
d="M395 1171v264h324v-264h-324zM719 989q0 -350 -265 -427q-40 -10 -63 -21q-74 -49 -74 -148q-2 -106 77 -136q38 -16 136 -24l1 -239l-93 2q-436 60 -436 397v19q3 311 236 392l-4 -3q46 24 102 41q75 36 71 167l-2 101l314 1v-122zM578 233q110 29 150 63q49 37 68 155
l136 -9l164 -20v-14q-44 -216 -140 -296q-164 -121 -376 -121z" />
    <glyph glyph-name="Agrave" unicode="&#xc0;" horiz-adv-x="1359" 
d="M788 1434l507 -1434h-370l-96 305h-397l77 265h244v5l-148 528h-5l-310 -1103h-290v208l417 1226h371zM342 1841h221l87 -264h-102z" />
    <glyph glyph-name="Aacute" unicode="&#xc1;" horiz-adv-x="1359" 
d="M788 1434l507 -1434h-370l-96 305h-397l77 265h244v5l-148 528h-5l-310 -1103h-290v208l417 1226h371zM647 1577h-102l87 264h221z" />
    <glyph glyph-name="Acircumflex" unicode="&#xc2;" horiz-adv-x="1359" 
d="M788 1434l507 -1434h-370l-96 305h-397l77 265h244v5l-148 528h-5l-310 -1103h-290v208l417 1226h371zM598 1764l-148 -188h-122l209 264h122l209 -264h-122z" />
    <glyph glyph-name="Atilde" unicode="&#xc3;" horiz-adv-x="1359" 
d="M788 1434l507 -1434h-370l-96 305h-397l77 265h244v5l-148 528h-5l-310 -1103h-290v208l417 1226h371zM584 1626q-3 4 -7 8l-2 2l-11 9q-26 19 -59 19q-42 0 -71 -30q-16 -16 -23 -35v-9h-64l2 22q11 37 41 67q26 26 58 38l40 7h36l20 -1q43 -10 77 -44l7 -7
q25 -20 60 -20q42 0 72 29q18 19 25 42h64q-4 -23 -14 -43l-4 -7q-11 -19 -27 -36q-25 -24 -54 -36l-11 -4q-24 -7 -51 -7q-45 0 -72 16q-16 8 -32 20z" />
    <glyph glyph-name="Adieresis" unicode="&#xc4;" horiz-adv-x="1359" 
d="M788 1434l507 -1434h-370l-96 305h-397l77 265h244v5l-148 528h-5l-310 -1103h-290v208l417 1226h371zM350 1588v188h215v-188h-215zM630 1588v188h215v-188h-215z" />
    <glyph glyph-name="Aring" unicode="&#xc5;" horiz-adv-x="1359" 
d="M788 1434l507 -1434h-370l-96 305h-397l77 265h244v5l-148 528h-5l-310 -1103h-290v208l417 1226h371zM570 1587v-65l-22 3q-37 11 -67 41q-26 26 -38 58l-7 40v36l1 20q10 43 44 77q24 23 52 35h5l3 3q14 5 29 7v-63q-25 -7 -44 -26l-11 -13q-19 -26 -19 -59
q0 -42 30 -71q16 -16 35 -23h9zM626 1778v64q23 -4 43 -14l7 -4q19 -11 36 -27q24 -25 36 -54l4 -11q7 -24 7 -51q0 -35 -13 -64l-3 -8q-10 -20 -27 -38l-6 -7q-28 -27 -62 -38l-22 -4v63q23 7 42 25q29 29 29 71t-29 72q-19 18 -42 25z" />
    <glyph glyph-name="AE" unicode="&#xc6;" horiz-adv-x="1768" 
d="M605 306h-171l77 265h94v533h-3l-310 -1103h-290v208l417 1226h512v-1437h-326v308zM1662 264v-264h-672v264h672zM1606 889v-264h-617v264h617zM1659 1432v-264h-672v264h672z" />
    <glyph glyph-name="Ccedilla" unicode="&#xc7;" horiz-adv-x="1401" 
d="M656 1173q-125 -15 -217 -132q-105 -134 -105 -324q0 -189 105 -323q92 -118 217 -133v-260q-265 10 -455 210q-201 210 -201 508t201 509q190 199 455 209v-264zM946 1041q-99 127 -238 134v263q269 -9 462 -210q98 -103 148 -227l-284 -140q-25 100 -88 180zM1170 211
q-193 -202 -462 -211v259q139 7 238 135q49 63 75 138l276 -143q-48 -96 -127 -178zM708 0q40 0 73 -16l7 -4q19 -11 36 -27q24 -25 36 -54l4 -11q7 -24 7 -51q0 -35 -13 -64q-13 -28 -30 -46l-6 -7q-28 -27 -62 -38l-30 -7q-11 -1 -22 -1t-22 1l-26 6q-37 11 -67 41
q-26 26 -38 58l-7 40v17h60q0 -42 30 -71q16 -16 35 -23l18 -5q8 -1 17 -1q42 0 71.5 29t29.5 71t-29.5 71.5t-71.5 29.5v62z" />
    <glyph glyph-name="Egrave" unicode="&#xc8;" horiz-adv-x="1154" 
d="M326 0h-326v1437h326v-1437zM1054 1434v-264h-672v264h672zM1001 891v-264h-617v264h617zM1057 266v-264h-672v264h672zM283 1841h221l87 -264h-102z" />
    <glyph glyph-name="Eacute" unicode="&#xc9;" horiz-adv-x="1154" 
d="M326 0h-326v1437h326v-1437zM1054 1434v-264h-672v264h672zM1001 891v-264h-617v264h617zM1057 266v-264h-672v264h672zM568 1577h-102l87 264h221z" />
    <glyph glyph-name="Ecircumflex" unicode="&#xca;" horiz-adv-x="1154" 
d="M326 0h-326v1437h326v-1437zM1054 1434v-264h-672v264h672zM1001 891v-264h-617v264h617zM1057 266v-264h-672v264h672zM529 1764l-148 -188h-122l209 264h122l209 -264h-122z" />
    <glyph glyph-name="Edieresis" unicode="&#xcb;" horiz-adv-x="1154" 
d="M326 0h-326v1437h326v-1437zM1054 1434v-264h-672v264h672zM1001 891v-264h-617v264h617zM1057 266v-264h-672v264h672zM281 1588v188h215v-188h-215zM561 1588v188h215v-188h-215z" />
    <glyph glyph-name="Igrave" unicode="&#xcc;" horiz-adv-x="427" 
d="M326 0h-326v1437h326v-1437zM-92 1841h221l87 -264h-102z" />
    <glyph glyph-name="Iacute" unicode="&#xcd;" horiz-adv-x="427" 
d="M326 0h-326v1437h326v-1437zM202 1577h-102l87 264h221z" />
    <glyph glyph-name="Icircumflex" unicode="&#xce;" horiz-adv-x="427" 
d="M326 0h-326v1437h326v-1437zM163 1764l-148 -188h-122l209 264h122l209 -264h-122z" />
    <glyph glyph-name="Idieresis" unicode="&#xcf;" horiz-adv-x="427" 
d="M327 0h-326v1437h326v-1437zM-84 1578v188h215v-188h-215zM196 1578v188h215v-188h-215z" />
    <glyph glyph-name="Eth" unicode="&#xd0;" horiz-adv-x="1408" 
d="M992 1002q-34 168 -184 171l-230 3v265h230q289 0 419 -163q92 -140 92 -292v-530q0 -152 -92 -292q-130 -163 -419 -163h-230v265l230 3q150 3 184 171v562zM526 589v-589h-326v589h-200v264h200v584h326v-584h186v-264h-186z" />
    <glyph glyph-name="Ntilde" unicode="&#xd1;" horiz-adv-x="1273" 
d="M326 0h-326v1348l326 -544v-804zM856 1l-852 1432h310l853 -1433zM843 1434h326v-1348l-326 544v804zM571 1616q-3 4 -7 8l-2 2l-11 9q-26 19 -59 19q-42 0 -71 -30q-16 -16 -23 -35v-9h-64l2 22q11 37 41 67q26 26 58 38l40 7h36l20 -1q43 -10 77 -44l7 -7
q25 -20 60 -20q42 0 72 29q18 19 25 42h64q-4 -23 -14 -43l-4 -7q-11 -19 -27 -36q-25 -24 -54 -36l-11 -4q-24 -7 -51 -7q-45 0 -72 16q-16 8 -32 20z" />
    <glyph glyph-name="Ograve" unicode="&#xd2;" horiz-adv-x="1471" 
d="M656 1173q-125 -15 -217 -132q-105 -134 -105 -324q0 -189 105 -323q92 -118 217 -133v-260q-265 10 -455 210q-201 210 -201 508t201 509q190 199 455 209v-264zM708 259q139 7 238 135q105 134 105 323q0 190 -105 324q-99 127 -238 134v263q269 -9 462 -210
q201 -211 201 -509t-201 -508q-193 -202 -462 -211v259zM430 1841h221l87 -264h-102z" />
    <glyph glyph-name="Oacute" unicode="&#xd3;" horiz-adv-x="1471" 
d="M656 1173q-125 -15 -217 -132q-105 -134 -105 -324q0 -189 105 -323q92 -118 217 -133v-260q-265 10 -455 210q-201 210 -201 508t201 509q190 199 455 209v-264zM708 259q139 7 238 135q105 134 105 323q0 190 -105 324q-99 127 -238 134v263q269 -9 462 -210
q201 -211 201 -509t-201 -508q-193 -202 -462 -211v259zM735 1577h-102l87 264h221z" />
    <glyph glyph-name="Ocircumflex" unicode="&#xd4;" horiz-adv-x="1471" 
d="M656 1173q-125 -15 -217 -132q-105 -134 -105 -324q0 -189 105 -323q92 -118 217 -133v-260q-265 10 -455 210q-201 210 -201 508t201 509q190 199 455 209v-264zM708 259q139 7 238 135q105 134 105 323q0 190 -105 324q-99 127 -238 134v263q269 -9 462 -210
q201 -211 201 -509t-201 -508q-193 -202 -462 -211v259zM686 1764l-148 -188h-122l209 264h122l209 -264h-122z" />
    <glyph glyph-name="Otilde" unicode="&#xd5;" horiz-adv-x="1471" 
d="M656 1173q-125 -15 -217 -132q-105 -134 -105 -324q0 -189 105 -323q92 -118 217 -133v-260q-265 10 -455 210q-201 210 -201 508t201 509q190 199 455 209v-264zM708 259q139 7 238 135q105 134 105 323q0 190 -105 324q-99 127 -238 134v263q269 -9 462 -210
q201 -211 201 -509t-201 -508q-193 -202 -462 -211v259zM672 1626q-3 4 -7 8l-2 2l-11 9q-26 19 -59 19q-42 0 -71 -30q-16 -16 -23 -35v-9h-64l2 22q11 37 41 67q26 26 58 38l40 7h36l20 -1q43 -10 77 -44l7 -7q25 -20 60 -20q42 0 72 29q18 19 25 42h64q-4 -23 -14 -43
l-4 -7q-11 -19 -27 -36q-25 -24 -54 -36l-11 -4q-24 -7 -51 -7q-45 0 -72 16q-16 8 -32 20z" />
    <glyph glyph-name="Odieresis" unicode="&#xd6;" horiz-adv-x="1471" 
d="M656 1173q-125 -15 -217 -132q-105 -134 -105 -324q0 -189 105 -323q92 -118 217 -133v-260q-265 10 -455 210q-201 210 -201 508t201 509q190 199 455 209v-264zM708 259q139 7 238 135q105 134 105 323q0 190 -105 324q-99 127 -238 134v263q269 -9 462 -210
q201 -211 201 -509t-201 -508q-193 -202 -462 -211v259zM438 1578v188h215v-188h-215zM718 1578v188h215v-188h-215z" />
    <glyph glyph-name="multiply" unicode="&#xd7;" horiz-adv-x="919" 
d="M301 319h-300l524 767h300zM234 744l-234 342h300l86 -126zM591 660l233 -341h-300l-84 122z" />
    <glyph glyph-name="Oslash" unicode="&#xd8;" horiz-adv-x="1475" 
d="M549 296q50 -28 107 -35v-260q-265 10 -455 210q-201 210 -201 508t201 509q190 199 455 209v-264q-125 -15 -217 -132q-105 -134 -105 -324q0 -114 39 -209l439 643q-49 21 -104 24v263q269 -9 462 -210q201 -211 201 -509t-201 -508q-193 -202 -462 -211v259
q139 7 238 135q105 134 105 323q0 133 -51 238z" />
    <glyph glyph-name="Ugrave" unicode="&#xd9;" 
d="M1065 1437l1 -988q-9 -371 -303 -434q-68 -21 -194 -18v318q168 21 171 167v955h325zM325 1437v-955q3 -146 171 -167v-318q-126 -3 -194 18q-284 63 -303 434l1 988h325zM277 1841h221l87 -264h-102z" />
    <glyph glyph-name="Uacute" unicode="&#xda;" 
d="M1065 1437l1 -988q-9 -371 -303 -434q-68 -21 -194 -18v318q168 21 171 167v955h325zM325 1437v-955q3 -146 171 -167v-318q-126 -3 -194 18q-284 63 -303 434l1 988h325zM582 1577h-102l87 264h221z" />
    <glyph glyph-name="Ucircumflex" unicode="&#xdb;" 
d="M1065 1437l1 -988q-9 -371 -303 -434q-68 -21 -194 -18v318q168 21 171 167v955h325zM325 1437v-955q3 -146 171 -167v-318q-126 -3 -194 18q-284 63 -303 434l1 988h325zM533 1764l-148 -188h-122l209 264h122l209 -264h-122z" />
    <glyph glyph-name="Udieresis" unicode="&#xdc;" 
d="M1065 1437l1 -988q-9 -371 -303 -434q-68 -21 -194 -18v318q168 21 171 167v955h325zM325 1437v-955q3 -146 171 -167v-318q-126 -3 -194 18q-284 63 -303 434l1 988h325zM285 1578v188h215v-188h-215zM565 1578v188h215v-188h-215z" />
    <glyph glyph-name="Yacute" unicode="&#xdd;" horiz-adv-x="1297" 
d="M-3 1435h359l212 -363l-181 -304zM403 696l432 739h359l-464 -794v-638h-326zM645 1577h-102l87 264h221z" />
    <glyph glyph-name="Thorn" unicode="&#xde;" horiz-adv-x="1167" 
d="M0 1441h327v-1441h-327v1441zM378 1181h230q289 0 419 -163q92 -140 92 -292v-20q0 -175 -97 -307l-51 -51q-106 -112 -465 -112h-128v271h205q26 0 56 5q153 50 153 204v26q-34 168 -214 173h-200v266z" />
    <glyph glyph-name="germandbls" unicode="&#xdf;" horiz-adv-x="1093" 
d="M-1 0v986q9 423 434 455h25q15 -1 28 -3v-278q-158 -6 -161 -167v-993h-326zM540 261h1q164 42 167 158v42q8 78 -71 128q-16 25 -96 32h-1v271h1l50 4q91 39 91 143l-5 36l-10 25q-45 58 -126 66h-1v273h5q346 0 437 -246q21 -49 21 -113v-25q0 -135 -132 -246l-46 -26
l-24 -8q39 -21 64 -33q152 -91 173 -271q5 -20 5 -47q-8 -128 -25 -148q-10 -54 -71 -128q-72 -102 -260 -144q-50 -3 -146 -3h-1v260z" />
    <glyph glyph-name="agrave" unicode="&#xe0;" horiz-adv-x="1359" 
d="M788 1434l507 -1434h-370l-96 305h-397l77 265h244v5l-148 528h-5l-310 -1103h-290v208l417 1226h371zM342 1841h221l87 -264h-102z" />
    <glyph glyph-name="aacute" unicode="&#xe1;" horiz-adv-x="1359" 
d="M788 1434l507 -1434h-370l-96 305h-397l77 265h244v5l-148 528h-5l-310 -1103h-290v208l417 1226h371zM647 1577h-102l87 264h221z" />
    <glyph glyph-name="acircumflex" unicode="&#xe2;" horiz-adv-x="1359" 
d="M788 1434l507 -1434h-370l-96 305h-397l77 265h244v5l-148 528h-5l-310 -1103h-290v208l417 1226h371zM598 1764l-148 -188h-122l209 264h122l209 -264h-122z" />
    <glyph glyph-name="atilde" unicode="&#xe3;" horiz-adv-x="1359" 
d="M788 1434l507 -1434h-370l-96 305h-397l77 265h244v5l-148 528h-5l-310 -1103h-290v208l417 1226h371zM584 1626q-3 4 -7 8l-2 2l-11 9q-26 19 -59 19q-42 0 -71 -30q-16 -16 -23 -35v-9h-64l2 22q11 37 41 67q26 26 58 38l40 7h36l20 -1q43 -10 77 -44l7 -7
q25 -20 60 -20q42 0 72 29q18 19 25 42h64q-4 -23 -14 -43l-4 -7q-11 -19 -27 -36q-25 -24 -54 -36l-11 -4q-24 -7 -51 -7q-45 0 -72 16q-16 8 -32 20z" />
    <glyph glyph-name="adieresis" unicode="&#xe4;" horiz-adv-x="1359" 
d="M788 1434l507 -1434h-370l-96 305h-397l77 265h244v5l-148 528h-5l-310 -1103h-290v208l417 1226h371zM350 1588v188h215v-188h-215zM630 1588v188h215v-188h-215z" />
    <glyph glyph-name="aring" unicode="&#xe5;" horiz-adv-x="1359" 
d="M788 1434l507 -1434h-370l-96 305h-397l77 265h244v5l-148 528h-5l-310 -1103h-290v208l417 1226h371zM570 1587v-65l-22 3q-37 11 -67 41q-26 26 -38 58l-7 40v36l1 20q10 43 44 77q24 23 52 35h5l3 3q14 5 29 7v-63q-25 -7 -44 -26l-11 -13q-19 -26 -19 -59
q0 -42 30 -71q16 -16 35 -23h9zM626 1778v64q23 -4 43 -14l7 -4q19 -11 36 -27q24 -25 36 -54l4 -11q7 -24 7 -51q0 -35 -13 -64l-3 -8q-10 -20 -27 -38l-6 -7q-28 -27 -62 -38l-22 -4v63q23 7 42 25q29 29 29 71t-29 72q-19 18 -42 25z" />
    <glyph glyph-name="ae" unicode="&#xe6;" horiz-adv-x="1768" 
d="M605 306h-171l77 265h94v533h-3l-310 -1103h-290v208l417 1226h512v-1437h-326v308zM1662 264v-264h-672v264h672zM1606 889v-264h-617v264h617zM1659 1432v-264h-672v264h672z" />
    <glyph glyph-name="ccedilla" unicode="&#xe7;" horiz-adv-x="1401" 
d="M656 1173q-125 -15 -217 -132q-105 -134 -105 -324q0 -189 105 -323q92 -118 217 -133v-260q-265 10 -455 210q-201 210 -201 508t201 509q190 199 455 209v-264zM946 1041q-99 127 -238 134v263q269 -9 462 -210q98 -103 148 -227l-284 -140q-25 100 -88 180zM1170 211
q-193 -202 -462 -211v259q139 7 238 135q49 63 75 138l276 -143q-48 -96 -127 -178zM708 0q40 0 73 -16l7 -4q19 -11 36 -27q24 -25 36 -54l4 -11q7 -24 7 -51q0 -35 -13 -64q-13 -28 -30 -46l-6 -7q-28 -27 -62 -38l-30 -7q-11 -1 -22 -1t-22 1l-26 6q-37 11 -67 41
q-26 26 -38 58l-7 40v17h60q0 -42 30 -71q16 -16 35 -23l18 -5q8 -1 17 -1q42 0 71.5 29t29.5 71t-29.5 71.5t-71.5 29.5v62z" />
    <glyph glyph-name="egrave" unicode="&#xe8;" horiz-adv-x="1154" 
d="M326 0h-326v1437h326v-1437zM1054 1434v-264h-672v264h672zM1001 891v-264h-617v264h617zM1057 266v-264h-672v264h672zM283 1841h221l87 -264h-102z" />
    <glyph glyph-name="eacute" unicode="&#xe9;" horiz-adv-x="1154" 
d="M326 0h-326v1437h326v-1437zM1054 1434v-264h-672v264h672zM1001 891v-264h-617v264h617zM1057 266v-264h-672v264h672zM568 1577h-102l87 264h221z" />
    <glyph glyph-name="ecircumflex" unicode="&#xea;" horiz-adv-x="1154" 
d="M326 0h-326v1437h326v-1437zM1054 1434v-264h-672v264h672zM1001 891v-264h-617v264h617zM1057 266v-264h-672v264h672zM529 1764l-148 -188h-122l209 264h122l209 -264h-122z" />
    <glyph glyph-name="edieresis" unicode="&#xeb;" horiz-adv-x="1154" 
d="M326 0h-326v1437h326v-1437zM1054 1434v-264h-672v264h672zM1001 891v-264h-617v264h617zM1057 266v-264h-672v264h672zM281 1588v188h215v-188h-215zM561 1588v188h215v-188h-215z" />
    <glyph glyph-name="igrave" unicode="&#xec;" horiz-adv-x="427" 
d="M326 0h-326v1437h326v-1437zM-92 1841h221l87 -264h-102z" />
    <glyph glyph-name="iacute" unicode="&#xed;" horiz-adv-x="427" 
d="M326 0h-326v1437h326v-1437zM202 1577h-102l87 264h221z" />
    <glyph glyph-name="icircumflex" unicode="&#xee;" horiz-adv-x="427" 
d="M326 0h-326v1437h326v-1437zM163 1764l-148 -188h-122l209 264h122l209 -264h-122z" />
    <glyph glyph-name="idieresis" unicode="&#xef;" horiz-adv-x="427" 
d="M327 0h-326v1437h326v-1437zM-84 1578v188h215v-188h-215zM196 1578v188h215v-188h-215z" />
    <glyph glyph-name="eth" unicode="&#xf0;" horiz-adv-x="1408" 
d="M992 1002q-34 168 -184 171l-230 3v265h230q289 0 419 -163q92 -140 92 -292v-530q0 -152 -92 -292q-130 -163 -419 -163h-230v265l230 3q150 3 184 171v562zM526 589v-589h-326v589h-200v264h200v584h326v-584h186v-264h-186z" />
    <glyph glyph-name="ntilde" unicode="&#xf1;" horiz-adv-x="1273" 
d="M326 0h-326v1348l326 -544v-804zM856 1l-852 1432h310l853 -1433zM843 1434h326v-1348l-326 544v804zM571 1616q-3 4 -7 8l-2 2l-11 9q-26 19 -59 19q-42 0 -71 -30q-16 -16 -23 -35v-9h-64l2 22q11 37 41 67q26 26 58 38l40 7h36l20 -1q43 -10 77 -44l7 -7
q25 -20 60 -20q42 0 72 29q18 19 25 42h64q-4 -23 -14 -43l-4 -7q-11 -19 -27 -36q-25 -24 -54 -36l-11 -4q-24 -7 -51 -7q-45 0 -72 16q-16 8 -32 20z" />
    <glyph glyph-name="ograve" unicode="&#xf2;" horiz-adv-x="1471" 
d="M656 1173q-125 -15 -217 -132q-105 -134 -105 -324q0 -189 105 -323q92 -118 217 -133v-260q-265 10 -455 210q-201 210 -201 508t201 509q190 199 455 209v-264zM708 259q139 7 238 135q105 134 105 323q0 190 -105 324q-99 127 -238 134v263q269 -9 462 -210
q201 -211 201 -509t-201 -508q-193 -202 -462 -211v259zM430 1841h221l87 -264h-102z" />
    <glyph glyph-name="oacute" unicode="&#xf3;" horiz-adv-x="1471" 
d="M656 1173q-125 -15 -217 -132q-105 -134 -105 -324q0 -189 105 -323q92 -118 217 -133v-260q-265 10 -455 210q-201 210 -201 508t201 509q190 199 455 209v-264zM708 259q139 7 238 135q105 134 105 323q0 190 -105 324q-99 127 -238 134v263q269 -9 462 -210
q201 -211 201 -509t-201 -508q-193 -202 -462 -211v259zM735 1577h-102l87 264h221z" />
    <glyph glyph-name="ocircumflex" unicode="&#xf4;" horiz-adv-x="1471" 
d="M656 1173q-125 -15 -217 -132q-105 -134 -105 -324q0 -189 105 -323q92 -118 217 -133v-260q-265 10 -455 210q-201 210 -201 508t201 509q190 199 455 209v-264zM708 259q139 7 238 135q105 134 105 323q0 190 -105 324q-99 127 -238 134v263q269 -9 462 -210
q201 -211 201 -509t-201 -508q-193 -202 -462 -211v259zM686 1764l-148 -188h-122l209 264h122l209 -264h-122z" />
    <glyph glyph-name="otilde" unicode="&#xf5;" horiz-adv-x="1471" 
d="M656 1173q-125 -15 -217 -132q-105 -134 -105 -324q0 -189 105 -323q92 -118 217 -133v-260q-265 10 -455 210q-201 210 -201 508t201 509q190 199 455 209v-264zM708 259q139 7 238 135q105 134 105 323q0 190 -105 324q-99 127 -238 134v263q269 -9 462 -210
q201 -211 201 -509t-201 -508q-193 -202 -462 -211v259zM672 1626q-3 4 -7 8l-2 2l-11 9q-26 19 -59 19q-42 0 -71 -30q-16 -16 -23 -35v-9h-64l2 22q11 37 41 67q26 26 58 38l40 7h36l20 -1q43 -10 77 -44l7 -7q25 -20 60 -20q42 0 72 29q18 19 25 42h64q-4 -23 -14 -43
l-4 -7q-11 -19 -27 -36q-25 -24 -54 -36l-11 -4q-24 -7 -51 -7q-45 0 -72 16q-16 8 -32 20z" />
    <glyph glyph-name="odieresis" unicode="&#xf6;" horiz-adv-x="1471" 
d="M656 1173q-125 -15 -217 -132q-105 -134 -105 -324q0 -189 105 -323q92 -118 217 -133v-260q-265 10 -455 210q-201 210 -201 508t201 509q190 199 455 209v-264zM708 259q139 7 238 135q105 134 105 323q0 190 -105 324q-99 127 -238 134v263q269 -9 462 -210
q201 -211 201 -509t-201 -508q-193 -202 -462 -211v259zM438 1578v188h215v-188h-215zM718 1578v188h215v-188h-215z" />
    <glyph glyph-name="divide" unicode="&#xf7;" horiz-adv-x="775" 
d="M672 885v-264h-672v264h672zM469 500v-199h-264v199h264zM205 1001v199h264v-199h-264z" />
    <glyph glyph-name="oslash" unicode="&#xf8;" horiz-adv-x="1475" 
d="M549 296q50 -28 107 -35v-260q-265 10 -455 210q-201 210 -201 508t201 509q190 199 455 209v-264q-125 -15 -217 -132q-105 -134 -105 -324q0 -114 39 -209l439 643q-49 21 -104 24v263q269 -9 462 -210q201 -211 201 -509t-201 -508q-193 -202 -462 -211v259
q139 7 238 135q105 134 105 323q0 133 -51 238z" />
    <glyph glyph-name="ugrave" unicode="&#xf9;" 
d="M1065 1437l1 -988q-9 -371 -303 -434q-68 -21 -194 -18v318q168 21 171 167v955h325zM325 1437v-955q3 -146 171 -167v-318q-126 -3 -194 18q-284 63 -303 434l1 988h325zM277 1841h221l87 -264h-102z" />
    <glyph glyph-name="uacute" unicode="&#xfa;" 
d="M1065 1437l1 -988q-9 -371 -303 -434q-68 -21 -194 -18v318q168 21 171 167v955h325zM325 1437v-955q3 -146 171 -167v-318q-126 -3 -194 18q-284 63 -303 434l1 988h325zM582 1577h-102l87 264h221z" />
    <glyph glyph-name="ucircumflex" unicode="&#xfb;" 
d="M1065 1437l1 -988q-9 -371 -303 -434q-68 -21 -194 -18v318q168 21 171 167v955h325zM325 1437v-955q3 -146 171 -167v-318q-126 -3 -194 18q-284 63 -303 434l1 988h325zM533 1764l-148 -188h-122l209 264h122l209 -264h-122z" />
    <glyph glyph-name="udieresis" unicode="&#xfc;" 
d="M1065 1437l1 -988q-9 -371 -303 -434q-68 -21 -194 -18v318q168 21 171 167v955h325zM325 1437v-955q3 -146 171 -167v-318q-126 -3 -194 18q-284 63 -303 434l1 988h325zM285 1578v188h215v-188h-215zM565 1578v188h215v-188h-215z" />
    <glyph glyph-name="yacute" unicode="&#xfd;" horiz-adv-x="1297" 
d="M-3 1435h359l212 -363l-181 -304zM403 696l432 739h359l-464 -794v-638h-326zM645 1577h-102l87 264h221z" />
    <glyph glyph-name="thorn" unicode="&#xfe;" horiz-adv-x="1167" 
d="M0 1441h327v-1441h-327v1441zM378 1181h230q289 0 419 -163q92 -140 92 -292v-20q0 -175 -97 -307l-51 -51q-106 -112 -465 -112h-128v271h205q26 0 56 5q153 50 153 204v26q-34 168 -214 173h-200v266z" />
    <glyph glyph-name="ydieresis" unicode="&#xff;" horiz-adv-x="1297" 
d="M-3 1435h359l212 -363l-181 -304zM403 696l432 739h359l-464 -794v-638h-326zM348 1578v188h215v-188h-215zM628 1578v188h215v-188h-215z" />
    <glyph glyph-name="Abreve" unicode="&#x102;" horiz-adv-x="1359" 
d="M788 1434l507 -1434h-370l-96 305h-397l77 265h244v5l-148 528h-5l-310 -1103h-290v208l417 1226h371zM501 1741q0 -42 30 -71q16 -16 35 -23l18 -5q8 -1 17 -1q42 0 71.5 29t29.5 71h62q0 -35 -13 -64l-3 -8q-10 -20 -27 -38l-6 -7q-28 -27 -62 -38l-30 -7
q-11 -1 -22 -1t-22 1l-26 6q-37 11 -67 41q-26 26 -38 58l-7 40v17h60z" />
    <glyph glyph-name="abreve" unicode="&#x103;" horiz-adv-x="1359" 
d="M788 1434l507 -1434h-370l-96 305h-397l77 265h244v5l-148 528h-5l-310 -1103h-290v208l417 1226h371zM501 1741q0 -42 30 -71q16 -16 35 -23l18 -5q8 -1 17 -1q42 0 71.5 29t29.5 71h62q0 -35 -13 -64l-3 -8q-10 -20 -27 -38l-6 -7q-28 -27 -62 -38l-30 -7
q-11 -1 -22 -1t-22 1l-26 6q-37 11 -67 41q-26 26 -38 58l-7 40v17h60z" />
    <glyph glyph-name="Aogonek" unicode="&#x104;" horiz-adv-x="1359" 
d="M788 1434l507 -1434h-370l-96 305h-397l77 265h244v5l-148 528h-5l-310 -1103h-290v208l417 1226h371zM928 2q-24 -7 -43 -26q-1 -1 -11 -13q-19 -26 -19 -59q0 -42 30 -71q16 -16 35 -23l18 -5q8 -1 57 -1v-63q-51 0 -62 1l-26 6q-37 11 -67 41q-26 26 -38 58l-7 40v36
l1 20q10 43 44 77q24 23 52 35l8 3q14 5 28 7v-63z" />
    <glyph glyph-name="aogonek" unicode="&#x105;" horiz-adv-x="1359" 
d="M788 1434l507 -1434h-370l-96 305h-397l77 265h244v5l-148 528h-5l-310 -1103h-290v208l417 1226h371zM928 2q-24 -7 -43 -26q-1 -1 -11 -13q-19 -26 -19 -59q0 -42 30 -71q16 -16 35 -23l18 -5q8 -1 57 -1v-63q-51 0 -62 1l-26 6q-37 11 -67 41q-26 26 -38 58l-7 40v36
l1 20q10 43 44 77q24 23 52 35l8 3q14 5 28 7v-63z" />
    <glyph glyph-name="Cacute" unicode="&#x106;" horiz-adv-x="1401" 
d="M656 1173q-125 -15 -217 -132q-105 -134 -105 -324q0 -189 105 -323q92 -118 217 -133v-260q-265 10 -455 210q-201 210 -201 508t201 509q190 199 455 209v-264zM946 1041q-99 127 -238 134v263q269 -9 462 -210q98 -103 148 -227l-284 -140q-25 100 -88 180zM1170 211
q-193 -202 -462 -211v259q139 7 238 135q49 63 75 138l276 -143q-48 -96 -127 -178zM728 1577h-102l87 264h221z" />
    <glyph glyph-name="cacute" unicode="&#x107;" horiz-adv-x="1401" 
d="M656 1173q-125 -15 -217 -132q-105 -134 -105 -324q0 -189 105 -323q92 -118 217 -133v-260q-265 10 -455 210q-201 210 -201 508t201 509q190 199 455 209v-264zM946 1041q-99 127 -238 134v263q269 -9 462 -210q98 -103 148 -227l-284 -140q-25 100 -88 180zM1170 211
q-193 -202 -462 -211v259q139 7 238 135q49 63 75 138l276 -143q-48 -96 -127 -178zM728 1577h-102l87 264h221z" />
    <glyph glyph-name="Ccircumflex" unicode="&#x108;" horiz-adv-x="1401" 
d="M656 1173q-125 -15 -217 -132q-105 -134 -105 -324q0 -189 105 -323q92 -118 217 -133v-260q-265 10 -455 210q-201 210 -201 508t201 509q190 199 455 209v-264zM946 1041q-99 127 -238 134v263q269 -9 462 -210q98 -103 148 -227l-284 -140q-25 100 -88 180zM1170 211
q-193 -202 -462 -211v259q139 7 238 135q49 63 75 138l276 -143q-48 -96 -127 -178zM679 1764l-148 -188h-122l209 264h122l209 -264h-122z" />
    <glyph glyph-name="ccircumflex" unicode="&#x109;" horiz-adv-x="1401" 
d="M656 1173q-125 -15 -217 -132q-105 -134 -105 -324q0 -189 105 -323q92 -118 217 -133v-260q-265 10 -455 210q-201 210 -201 508t201 509q190 199 455 209v-264zM946 1041q-99 127 -238 134v263q269 -9 462 -210q98 -103 148 -227l-284 -140q-25 100 -88 180zM1170 211
q-193 -202 -462 -211v259q139 7 238 135q49 63 75 138l276 -143q-48 -96 -127 -178zM679 1764l-148 -188h-122l209 264h122l209 -264h-122z" />
    <glyph glyph-name="Cdotaccent" unicode="&#x10a;" horiz-adv-x="1401" 
d="M656 1173q-125 -15 -217 -132q-105 -134 -105 -324q0 -189 105 -323q92 -118 217 -133v-260q-265 10 -455 210q-201 210 -201 508t201 509q190 199 455 209v-264zM946 1041q-99 127 -238 134v263q269 -9 462 -210q98 -103 148 -227l-284 -140q-25 100 -88 180zM1170 211
q-193 -202 -462 -211v259q139 7 238 135q49 63 75 138l276 -143q-48 -96 -127 -178zM572 1578v188h215v-188h-215z" />
    <glyph glyph-name="cdotaccent" unicode="&#x10b;" horiz-adv-x="1401" 
d="M656 1173q-125 -15 -217 -132q-105 -134 -105 -324q0 -189 105 -323q92 -118 217 -133v-260q-265 10 -455 210q-201 210 -201 508t201 509q190 199 455 209v-264zM946 1041q-99 127 -238 134v263q269 -9 462 -210q98 -103 148 -227l-284 -140q-25 100 -88 180zM1170 211
q-193 -202 -462 -211v259q139 7 238 135q49 63 75 138l276 -143q-48 -96 -127 -178zM572 1578v188h215v-188h-215z" />
    <glyph glyph-name="Ccaron" unicode="&#x10c;" horiz-adv-x="1401" 
d="M656 1173q-125 -15 -217 -132q-105 -134 -105 -324q0 -189 105 -323q92 -118 217 -133v-260q-265 10 -455 210q-201 210 -201 508t201 509q190 199 455 209v-264zM946 1041q-99 127 -238 134v263q269 -9 462 -210q98 -103 148 -227l-284 -140q-25 100 -88 180zM1170 211
q-193 -202 -462 -211v259q139 7 238 135q49 63 75 138l276 -143q-48 -96 -127 -178zM827 1840h122l-209 -264h-122l-209 264h122l148 -188z" />
    <glyph glyph-name="ccaron" unicode="&#x10d;" horiz-adv-x="1401" 
d="M656 1173q-125 -15 -217 -132q-105 -134 -105 -324q0 -189 105 -323q92 -118 217 -133v-260q-265 10 -455 210q-201 210 -201 508t201 509q190 199 455 209v-264zM946 1041q-99 127 -238 134v263q269 -9 462 -210q98 -103 148 -227l-284 -140q-25 100 -88 180zM1170 211
q-193 -202 -462 -211v259q139 7 238 135q49 63 75 138l276 -143q-48 -96 -127 -178zM827 1840h122l-209 -264h-122l-209 264h122l148 -188z" />
    <glyph glyph-name="Dcaron" unicode="&#x10e;" horiz-adv-x="1224" 
d="M326 0h-326v1437h326v-1437zM792 1002q-34 168 -184 171l-230 3v265h230q289 0 419 -163q92 -140 92 -292v-530q0 -152 -92 -292q-130 -163 -419 -163h-230v265l230 3q150 3 184 171v562zM708 1840h122l-209 -264h-122l-209 264h122l148 -188z" />
    <glyph glyph-name="dcaron" unicode="&#x10f;" horiz-adv-x="1224" 
d="M326 0h-326v1437h326v-1437zM792 1002q-34 168 -184 171l-230 3v265h230q289 0 419 -163q92 -140 92 -292v-530q0 -152 -92 -292q-130 -163 -419 -163h-230v265l230 3q150 3 184 171v562zM708 1840h122l-209 -264h-122l-209 264h122l148 -188z" />
    <glyph glyph-name="Dcroat" unicode="&#x110;" horiz-adv-x="1408" 
d="M992 1002q-34 168 -184 171l-230 3v265h230q289 0 419 -163q92 -140 92 -292v-530q0 -152 -92 -292q-130 -163 -419 -163h-230v265l230 3q150 3 184 171v562zM526 589v-589h-326v589h-200v264h200v584h326v-584h186v-264h-186z" />
    <glyph glyph-name="dcroat" unicode="&#x111;" horiz-adv-x="1408" 
d="M992 1002q-34 168 -184 171l-230 3v265h230q289 0 419 -163q92 -140 92 -292v-530q0 -152 -92 -292q-130 -163 -419 -163h-230v265l230 3q150 3 184 171v562zM526 589v-589h-326v589h-200v264h200v584h326v-584h186v-264h-186z" />
    <glyph glyph-name="Ebreve" unicode="&#x114;" horiz-adv-x="1154" 
d="M326 0h-326v1437h326v-1437zM1054 1434v-264h-672v264h672zM1001 891v-264h-617v264h617zM1057 266v-264h-672v264h672zM427 1741q0 -42 30 -71q16 -16 35 -23l18 -5q8 -1 17 -1q42 0 71.5 29t29.5 71h62q0 -35 -13 -64l-3 -8q-10 -20 -27 -38l-6 -7q-28 -27 -62 -38
l-30 -7q-11 -1 -22 -1t-22 1l-26 6q-37 11 -67 41q-26 26 -38 58l-7 40v17h60z" />
    <glyph glyph-name="ebreve" unicode="&#x115;" horiz-adv-x="1154" 
d="M326 0h-326v1437h326v-1437zM1054 1434v-264h-672v264h672zM1001 891v-264h-617v264h617zM1057 266v-264h-672v264h672zM427 1741q0 -42 30 -71q16 -16 35 -23l18 -5q8 -1 17 -1q42 0 71.5 29t29.5 71h62q0 -35 -13 -64l-3 -8q-10 -20 -27 -38l-6 -7q-28 -27 -62 -38
l-30 -7q-11 -1 -22 -1t-22 1l-26 6q-37 11 -67 41q-26 26 -38 58l-7 40v17h60z" />
    <glyph glyph-name="Edotaccent" unicode="&#x116;" horiz-adv-x="1154" 
d="M326 0h-326v1437h326v-1437zM1054 1434v-264h-672v264h672zM1001 891v-264h-617v264h617zM1057 266v-264h-672v264h672zM421 1578v188h215v-188h-215z" />
    <glyph glyph-name="edotaccent" unicode="&#x117;" horiz-adv-x="1154" 
d="M326 0h-326v1437h326v-1437zM1054 1434v-264h-672v264h672zM1001 891v-264h-617v264h617zM1057 266v-264h-672v264h672zM421 1578v188h215v-188h-215z" />
    <glyph glyph-name="Eogonek" unicode="&#x118;" horiz-adv-x="1154" 
d="M326 0h-326v1437h326v-1437zM1054 1434v-264h-672v264h672zM1001 891v-264h-617v264h617zM1057 266v-264h-672v264h672zM992 2q-24 -7 -43 -26q-1 -1 -11 -13q-19 -26 -19 -59q0 -42 30 -71q16 -16 35 -23l18 -5q8 -1 57 -1v-63q-51 0 -62 1l-26 6q-37 11 -67 41
q-26 26 -38 58l-7 40v36l1 20q10 43 44 77q24 23 52 35l8 3q14 5 28 7v-63z" />
    <glyph glyph-name="eogonek" unicode="&#x119;" horiz-adv-x="1154" 
d="M326 0h-326v1437h326v-1437zM1054 1434v-264h-672v264h672zM1001 891v-264h-617v264h617zM1057 266v-264h-672v264h672zM992 2q-24 -7 -43 -26q-1 -1 -11 -13q-19 -26 -19 -59q0 -42 30 -71q16 -16 35 -23l18 -5q8 -1 57 -1v-63q-51 0 -62 1l-26 6q-37 11 -67 41
q-26 26 -38 58l-7 40v36l1 20q10 43 44 77q24 23 52 35l8 3q14 5 28 7v-63z" />
    <glyph glyph-name="Ecaron" unicode="&#x11a;" horiz-adv-x="1154" 
d="M326 0h-326v1437h326v-1437zM1054 1434v-264h-672v264h672zM1001 891v-264h-617v264h617zM1057 266v-264h-672v264h672zM677 1840h122l-209 -264h-122l-209 264h122l148 -188z" />
    <glyph glyph-name="ecaron" unicode="&#x11b;" horiz-adv-x="1154" 
d="M326 0h-326v1437h326v-1437zM1054 1434v-264h-672v264h672zM1001 891v-264h-617v264h617zM1057 266v-264h-672v264h672zM677 1840h122l-209 -264h-122l-209 264h122l148 -188z" />
    <glyph glyph-name="Gcircumflex" unicode="&#x11c;" horiz-adv-x="1462" 
d="M656 1173q-125 -15 -217 -132q-105 -134 -105 -324q0 -189 105 -323q92 -118 217 -133v-260q-265 10 -455 210q-201 210 -201 508t201 509q190 199 455 209v-264zM946 1041q-99 127 -238 134v263q269 -9 462 -210q98 -103 148 -227l-284 -140q-25 100 -88 180zM1371 702
q-6 -287 -201 -491q-193 -202 -462 -211v259q139 7 238 135q17 21 31 44h-271v264h665zM686 1764l-148 -188h-122l209 264h122l209 -264h-122z" />
    <glyph glyph-name="gcircumflex" unicode="&#x11d;" horiz-adv-x="1462" 
d="M656 1173q-125 -15 -217 -132q-105 -134 -105 -324q0 -189 105 -323q92 -118 217 -133v-260q-265 10 -455 210q-201 210 -201 508t201 509q190 199 455 209v-264zM946 1041q-99 127 -238 134v263q269 -9 462 -210q98 -103 148 -227l-284 -140q-25 100 -88 180zM1371 702
q-6 -287 -201 -491q-193 -202 -462 -211v259q139 7 238 135q17 21 31 44h-271v264h665zM686 1764l-148 -188h-122l209 264h122l209 -264h-122z" />
    <glyph glyph-name="Gbreve" unicode="&#x11e;" horiz-adv-x="1462" 
d="M656 1173q-125 -15 -217 -132q-105 -134 -105 -324q0 -189 105 -323q92 -118 217 -133v-260q-265 10 -455 210q-201 210 -201 508t201 509q190 199 455 209v-264zM946 1041q-99 127 -238 134v263q269 -9 462 -210q98 -103 148 -227l-284 -140q-25 100 -88 180zM1371 702
q-6 -287 -201 -491q-193 -202 -462 -211v259q139 7 238 135q17 21 31 44h-271v264h665zM584 1741q0 -42 30 -71q16 -16 35 -23l18 -5q8 -1 17 -1q42 0 71.5 29t29.5 71h62q0 -35 -13 -64l-3 -8q-10 -20 -27 -38l-6 -7q-28 -27 -62 -38l-30 -7q-11 -1 -22 -1t-22 1l-26 6
q-37 11 -67 41q-26 26 -38 58l-7 40v17h60z" />
    <glyph glyph-name="gbreve" unicode="&#x11f;" horiz-adv-x="1462" 
d="M656 1173q-125 -15 -217 -132q-105 -134 -105 -324q0 -189 105 -323q92 -118 217 -133v-260q-265 10 -455 210q-201 210 -201 508t201 509q190 199 455 209v-264zM946 1041q-99 127 -238 134v263q269 -9 462 -210q98 -103 148 -227l-284 -140q-25 100 -88 180zM1371 702
q-6 -287 -201 -491q-193 -202 -462 -211v259q139 7 238 135q17 21 31 44h-271v264h665zM584 1741q0 -42 30 -71q16 -16 35 -23l18 -5q8 -1 17 -1q42 0 71.5 29t29.5 71h62q0 -35 -13 -64l-3 -8q-10 -20 -27 -38l-6 -7q-28 -27 -62 -38l-30 -7q-11 -1 -22 -1t-22 1l-26 6
q-37 11 -67 41q-26 26 -38 58l-7 40v17h60z" />
    <glyph glyph-name="Gdotaccent" unicode="&#x120;" horiz-adv-x="1462" 
d="M656 1173q-125 -15 -217 -132q-105 -134 -105 -324q0 -189 105 -323q92 -118 217 -133v-260q-265 10 -455 210q-201 210 -201 508t201 509q190 199 455 209v-264zM946 1041q-99 127 -238 134v263q269 -9 462 -210q98 -103 148 -227l-284 -140q-25 100 -88 180zM1371 702
q-6 -287 -201 -491q-193 -202 -462 -211v259q139 7 238 135q17 21 31 44h-271v264h665zM578 1578v188h215v-188h-215z" />
    <glyph glyph-name="gdotaccent" unicode="&#x121;" horiz-adv-x="1462" 
d="M656 1173q-125 -15 -217 -132q-105 -134 -105 -324q0 -189 105 -323q92 -118 217 -133v-260q-265 10 -455 210q-201 210 -201 508t201 509q190 199 455 209v-264zM946 1041q-99 127 -238 134v263q269 -9 462 -210q98 -103 148 -227l-284 -140q-25 100 -88 180zM1371 702
q-6 -287 -201 -491q-193 -202 -462 -211v259q139 7 238 135q17 21 31 44h-271v264h665zM578 1578v188h215v-188h-215z" />
    <glyph glyph-name="Hcircumflex" unicode="&#x124;" horiz-adv-x="1392" 
d="M326 0h-326v1437h326v-1437zM1287 0h-326v1437h326v-1437zM901 888v-264h-520v264h520zM644 1764l-148 -188h-122l209 264h122l209 -264h-122z" />
    <glyph glyph-name="hcircumflex" unicode="&#x125;" horiz-adv-x="1392" 
d="M326 0h-326v1437h326v-1437zM1287 0h-326v1437h326v-1437zM901 888v-264h-520v264h520zM644 1764l-148 -188h-122l209 264h122l209 -264h-122z" />
    <glyph glyph-name="Itilde" unicode="&#x128;" horiz-adv-x="427" 
d="M326 0h-326v1437h326v-1437zM149 1616q-3 4 -7 8l-2 2l-11 9q-26 19 -59 19q-42 0 -71 -30q-16 -16 -23 -35v-9h-64l2 22q11 37 41 67q26 26 58 38l40 7h36l20 -1q43 -10 77 -44l7 -7q25 -20 60 -20q42 0 72 29q18 19 25 42h64q-4 -23 -14 -43l-4 -7q-11 -19 -27 -36
q-25 -24 -54 -36l-11 -4q-24 -7 -51 -7q-45 0 -72 16q-16 8 -32 20z" />
    <glyph glyph-name="itilde" unicode="&#x129;" horiz-adv-x="427" 
d="M326 0h-326v1437h326v-1437zM149 1616q-3 4 -7 8l-2 2l-11 9q-26 19 -59 19q-42 0 -71 -30q-16 -16 -23 -35v-9h-64l2 22q11 37 41 67q26 26 58 38l40 7h36l20 -1q43 -10 77 -44l7 -7q25 -20 60 -20q42 0 72 29q18 19 25 42h64q-4 -23 -14 -43l-4 -7q-11 -19 -27 -36
q-25 -24 -54 -36l-11 -4q-24 -7 -51 -7q-45 0 -72 16q-16 8 -32 20z" />
    <glyph glyph-name="Ibreve" unicode="&#x12c;" horiz-adv-x="427" 
d="M326 0h-326v1437h326v-1437zM62 1741q0 -42 30 -71q16 -16 35 -23l18 -5q8 -1 17 -1q42 0 71.5 29t29.5 71h62q0 -35 -13 -64l-3 -8q-10 -20 -27 -38l-6 -7q-28 -27 -62 -38l-30 -7q-11 -1 -22 -1t-22 1l-26 6q-37 11 -67 41q-26 26 -38 58l-7 40v17h60z" />
    <glyph glyph-name="ibreve" unicode="&#x12d;" horiz-adv-x="427" 
d="M326 0h-326v1437h326v-1437zM62 1741q0 -42 30 -71q16 -16 35 -23l18 -5q8 -1 17 -1q42 0 71.5 29t29.5 71h62q0 -35 -13 -64l-3 -8q-10 -20 -27 -38l-6 -7q-28 -27 -62 -38l-30 -7q-11 -1 -22 -1t-22 1l-26 6q-37 11 -67 41q-26 26 -38 58l-7 40v17h60z" />
    <glyph glyph-name="Iogonek" unicode="&#x12e;" horiz-adv-x="427" 
d="M326 0h-326v1437h326v-1437zM259 2q-24 -7 -43 -26q-1 -1 -11 -13q-19 -26 -19 -59q0 -42 30 -71q16 -16 35 -23l18 -5q8 -1 57 -1v-63q-51 0 -62 1l-26 6q-37 11 -67 41q-26 26 -38 58l-7 40v36l1 20q10 43 44 77q24 23 52 35l8 3q14 5 28 7v-63z" />
    <glyph glyph-name="iogonek" unicode="&#x12f;" horiz-adv-x="427" 
d="M326 0h-326v1437h326v-1437zM259 2q-24 -7 -43 -26q-1 -1 -11 -13q-19 -26 -19 -59q0 -42 30 -71q16 -16 35 -23l18 -5q8 -1 57 -1v-63q-51 0 -62 1l-26 6q-37 11 -67 41q-26 26 -38 58l-7 40v36l1 20q10 43 44 77q24 23 52 35l8 3q14 5 28 7v-63z" />
    <glyph glyph-name="Idotaccent" unicode="&#x130;" horiz-adv-x="427" 
d="M326 0h-326v1437h326v-1437zM56 1578v188h215v-188h-215z" />
    <glyph glyph-name="dotlessi" unicode="&#x131;" horiz-adv-x="424" 
d="M326 0h-326v1437h326v-1437z" />
    <glyph glyph-name="Jcircumflex" unicode="&#x134;" horiz-adv-x="583" 
d="M485 1431l1 -988q-49 -371 -303 -434q-68 -21 -184 -18v318q158 21 159 167v955h327zM313 1764l-148 -188h-122l209 264h122l209 -264h-122z" />
    <glyph glyph-name="jcircumflex" unicode="&#x135;" horiz-adv-x="583" 
d="M485 1431l1 -988q-49 -371 -303 -434q-68 -21 -184 -18v318q158 21 159 167v955h327zM313 1764l-148 -188h-122l209 264h122l209 -264h-122z" />
    <glyph glyph-name="Lacute" unicode="&#x139;" horiz-adv-x="1166" 
d="M326 0h-326v1437h326v-1437zM1066 265v-264h-672v264h672zM532 1577h-102l87 264h221z" />
    <glyph glyph-name="lacute" unicode="&#x13a;" horiz-adv-x="1166" 
d="M326 0h-326v1437h326v-1437zM1066 265v-264h-672v264h672zM532 1577h-102l87 264h221z" />
    <glyph glyph-name="Lcaron" unicode="&#x13d;" horiz-adv-x="1149" 
d="M326 0h-326v1437h326v-1437zM1066 265v-264h-672v264h672zM733 1432v-617h-326v617h326z" />
    <glyph glyph-name="lcaron" unicode="&#x13e;" horiz-adv-x="1149" 
d="M326 0h-326v1437h326v-1437zM1066 265v-264h-672v264h672zM733 1432v-617h-326v617h326z" />
    <glyph glyph-name="Ldot" unicode="&#x13f;" horiz-adv-x="1166" 
d="M326 0h-326v1437h326v-1437zM1066 265v-264h-672v264h672zM868 851v-264h-326v264h326z" />
    <glyph glyph-name="ldot" unicode="&#x140;" horiz-adv-x="1166" 
d="M326 0h-326v1437h326v-1437zM1066 265v-264h-672v264h672zM868 851v-264h-326v264h326z" />
    <glyph glyph-name="Lslash" unicode="&#x141;" horiz-adv-x="1322" 
d="M496 0h-326v1437h326v-1437zM1236 265v-264h-672v264h672zM672 885v-264h-672v264h672z" />
    <glyph glyph-name="lslash" unicode="&#x142;" horiz-adv-x="1322" 
d="M496 0h-326v1437h326v-1437zM1236 265v-264h-672v264h672zM672 885v-264h-672v264h672z" />
    <glyph glyph-name="Nacute" unicode="&#x143;" horiz-adv-x="1273" 
d="M326 0h-326v1348l326 -544v-804zM856 1l-852 1432h310l853 -1433zM843 1434h326v-1348l-326 544v804zM584 1577h-102l87 264h221z" />
    <glyph glyph-name="nacute" unicode="&#x144;" horiz-adv-x="1273" 
d="M326 0h-326v1348l326 -544v-804zM856 1l-852 1432h310l853 -1433zM843 1434h326v-1348l-326 544v804zM584 1577h-102l87 264h221z" />
    <glyph glyph-name="Ncaron" unicode="&#x147;" horiz-adv-x="1273" 
d="M326 0h-326v1348l326 -544v-804zM856 1l-852 1432h310l853 -1433zM843 1434h326v-1348l-326 544v804zM733 1840h122l-209 -264h-122l-209 264h122l148 -188z" />
    <glyph glyph-name="ncaron" unicode="&#x148;" horiz-adv-x="1273" 
d="M326 0h-326v1348l326 -544v-804zM856 1l-852 1432h310l853 -1433zM843 1434h326v-1348l-326 544v804zM733 1840h122l-209 -264h-122l-209 264h122l148 -188z" />
    <glyph glyph-name="Obreve" unicode="&#x14e;" horiz-adv-x="1471" 
d="M656 1173q-125 -15 -217 -132q-105 -134 -105 -324q0 -189 105 -323q92 -118 217 -133v-260q-265 10 -455 210q-201 210 -201 508t201 509q190 199 455 209v-264zM708 259q139 7 238 135q105 134 105 323q0 190 -105 324q-99 127 -238 134v263q269 -9 462 -210
q201 -211 201 -509t-201 -508q-193 -202 -462 -211v259zM584 1741q0 -42 30 -71q16 -16 35 -23l18 -5q8 -1 17 -1q42 0 71.5 29t29.5 71h62q0 -35 -13 -64l-3 -8q-10 -20 -27 -38l-6 -7q-28 -27 -62 -38l-30 -7q-11 -1 -22 -1t-22 1l-26 6q-37 11 -67 41q-26 26 -38 58
l-7 40v17h60z" />
    <glyph glyph-name="obreve" unicode="&#x14f;" horiz-adv-x="1471" 
d="M656 1173q-125 -15 -217 -132q-105 -134 -105 -324q0 -189 105 -323q92 -118 217 -133v-260q-265 10 -455 210q-201 210 -201 508t201 509q190 199 455 209v-264zM708 259q139 7 238 135q105 134 105 323q0 190 -105 324q-99 127 -238 134v263q269 -9 462 -210
q201 -211 201 -509t-201 -508q-193 -202 -462 -211v259zM584 1741q0 -42 30 -71q16 -16 35 -23l18 -5q8 -1 17 -1q42 0 71.5 29t29.5 71h62q0 -35 -13 -64l-3 -8q-10 -20 -27 -38l-6 -7q-28 -27 -62 -38l-30 -7q-11 -1 -22 -1t-22 1l-26 6q-37 11 -67 41q-26 26 -38 58
l-7 40v17h60z" />
    <glyph glyph-name="Ohungarumlaut" unicode="&#x150;" horiz-adv-x="1471" 
d="M656 1173q-125 -15 -217 -132q-105 -134 -105 -324q0 -189 105 -323q92 -118 217 -133v-260q-265 10 -455 210q-201 210 -201 508t201 509q190 199 455 209v-264zM708 259q139 7 238 135q105 134 105 323q0 190 -105 324q-99 127 -238 134v263q269 -9 462 -210
q201 -211 201 -509t-201 -508q-193 -202 -462 -211v259zM584 1577h-102l87 264h221zM864 1577h-102l87 264h221z" />
    <glyph glyph-name="ohungarumlaut" unicode="&#x151;" horiz-adv-x="1471" 
d="M656 1173q-125 -15 -217 -132q-105 -134 -105 -324q0 -189 105 -323q92 -118 217 -133v-260q-265 10 -455 210q-201 210 -201 508t201 509q190 199 455 209v-264zM708 259q139 7 238 135q105 134 105 323q0 190 -105 324q-99 127 -238 134v263q269 -9 462 -210
q201 -211 201 -509t-201 -508q-193 -202 -462 -211v259zM584 1577h-102l87 264h221zM864 1577h-102l87 264h221z" />
    <glyph glyph-name="OE" unicode="&#x152;" horiz-adv-x="1841" 
d="M1036 0h-326v1437h326v-1437zM1764 1434v-264h-672v264h672zM1711 891v-264h-617v264h617zM1767 266v-264h-672v264h672zM656 1173q-125 -15 -217 -132q-105 -134 -105 -324q0 -189 105 -323q92 -118 217 -133v-260q-265 10 -455 210q-201 210 -201 508t201 509
q190 199 455 209v-264z" />
    <glyph glyph-name="oe" unicode="&#x153;" horiz-adv-x="1841" 
d="M1036 0h-326v1437h326v-1437zM1764 1434v-264h-672v264h672zM1711 891v-264h-617v264h617zM1767 266v-264h-672v264h672zM656 1173q-125 -15 -217 -132q-105 -134 -105 -324q0 -189 105 -323q92 -118 217 -133v-260q-265 10 -455 210q-201 210 -201 508t201 509
q190 199 455 209v-264z" />
    <glyph glyph-name="Racute" unicode="&#x154;" horiz-adv-x="1294" 
d="M326 0h-326v1437h326v-1437zM981 645q38 -39 73 -113q15 -16 26 -128l10 -51q34 -204 56 -258q14 -41 61 -95h-341q-21 2 -61 124q-9 15 -51 285q-18 64 -82 102q-60 21 -294 21v260h261q153 54 153 202v25q-34 161 -184 167h-230v255h230q289 0 419 -157
q92 -134 92 -281v-19q0 -168 -97 -295q-18 -24 -41 -44zM653 1577h-102l87 264h221z" />
    <glyph glyph-name="racute" unicode="&#x155;" horiz-adv-x="1294" 
d="M326 0h-326v1437h326v-1437zM981 645q38 -39 73 -113q15 -16 26 -128l10 -51q34 -204 56 -258q14 -41 61 -95h-341q-21 2 -61 124q-9 15 -51 285q-18 64 -82 102q-60 21 -294 21v260h261q153 54 153 202v25q-34 161 -184 167h-230v255h230q289 0 419 -157
q92 -134 92 -281v-19q0 -168 -97 -295q-18 -24 -41 -44zM653 1577h-102l87 264h221z" />
    <glyph glyph-name="Rcaron" unicode="&#x158;" horiz-adv-x="1294" 
d="M326 0h-326v1437h326v-1437zM981 645q38 -39 73 -113q15 -16 26 -128l10 -51q34 -204 56 -258q14 -41 61 -95h-341q-21 2 -61 124q-9 15 -51 285q-18 64 -82 102q-60 21 -294 21v260h261q153 54 153 202v25q-34 161 -184 167h-230v255h230q289 0 419 -157
q92 -134 92 -281v-19q0 -168 -97 -295q-18 -24 -41 -44zM752 1840h122l-209 -264h-122l-209 264h122l148 -188z" />
    <glyph glyph-name="rcaron" unicode="&#x159;" horiz-adv-x="1294" 
d="M326 0h-326v1437h326v-1437zM981 645q38 -39 73 -113q15 -16 26 -128l10 -51q34 -204 56 -258q14 -41 61 -95h-341q-21 2 -61 124q-9 15 -51 285q-18 64 -82 102q-60 21 -294 21v260h261q153 54 153 202v25q-34 161 -184 167h-230v255h230q289 0 419 -157
q92 -134 92 -281v-19q0 -168 -97 -295q-18 -24 -41 -44zM752 1840h122l-209 -264h-122l-209 264h122l148 -188z" />
    <glyph glyph-name="Sacute" unicode="&#x15a;" horiz-adv-x="1261" 
d="M368 325q92 -53 175 -63l29 -5l-2 -257q-261 -7 -400 107q-155 100 -166 348l301 29q8 -105 63 -155v-4zM476 612q-432 78 -432 401v19q0 337 436 397l90 2l2 -239q-98 -8 -136 -24q-79 -30 -77 -136q0 -99 251 -145q63 -11 103 -21q445 -74 445 -424v-20
q0 -359 -436 -423l-98 -3v253q104 11 142 28q79 32 77 145q0 106 -248 164q-56 17 -123 29zM619 1434q215 0 379 -121q96 -80 140 -296v-14l-164 -20l-136 -9q-19 118 -68 155q-40 34 -150 63zM640 1577h-102l87 264h221z" />
    <glyph glyph-name="sacute" unicode="&#x15b;" horiz-adv-x="1261" 
d="M368 325q92 -53 175 -63l29 -5l-2 -257q-261 -7 -400 107q-155 100 -166 348l301 29q8 -105 63 -155v-4zM476 612q-432 78 -432 401v19q0 337 436 397l90 2l2 -239q-98 -8 -136 -24q-79 -30 -77 -136q0 -99 251 -145q63 -11 103 -21q445 -74 445 -424v-20
q0 -359 -436 -423l-98 -3v253q104 11 142 28q79 32 77 145q0 106 -248 164q-56 17 -123 29zM619 1434q215 0 379 -121q96 -80 140 -296v-14l-164 -20l-136 -9q-19 118 -68 155q-40 34 -150 63zM640 1577h-102l87 264h221z" />
    <glyph glyph-name="Scircumflex" unicode="&#x15c;" horiz-adv-x="1261" 
d="M368 325q92 -53 175 -63l29 -5l-2 -257q-261 -7 -400 107q-155 100 -166 348l301 29q8 -105 63 -155v-4zM476 612q-432 78 -432 401v19q0 337 436 397l90 2l2 -239q-98 -8 -136 -24q-79 -30 -77 -136q0 -99 251 -145q63 -11 103 -21q445 -74 445 -424v-20
q0 -359 -436 -423l-98 -3v253q104 11 142 28q79 32 77 145q0 106 -248 164q-56 17 -123 29zM619 1434q215 0 379 -121q96 -80 140 -296v-14l-164 -20l-136 -9q-19 118 -68 155q-40 34 -150 63zM591 1764l-148 -188h-122l209 264h122l209 -264h-122z" />
    <glyph glyph-name="scircumflex" unicode="&#x15d;" horiz-adv-x="1261" 
d="M368 325q92 -53 175 -63l29 -5l-2 -257q-261 -7 -400 107q-155 100 -166 348l301 29q8 -105 63 -155v-4zM476 612q-432 78 -432 401v19q0 337 436 397l90 2l2 -239q-98 -8 -136 -24q-79 -30 -77 -136q0 -99 251 -145q63 -11 103 -21q445 -74 445 -424v-20
q0 -359 -436 -423l-98 -3v253q104 11 142 28q79 32 77 145q0 106 -248 164q-56 17 -123 29zM619 1434q215 0 379 -121q96 -80 140 -296v-14l-164 -20l-136 -9q-19 118 -68 155q-40 34 -150 63zM591 1764l-148 -188h-122l209 264h122l209 -264h-122z" />
    <glyph glyph-name="Scaron" unicode="&#x160;" horiz-adv-x="1261" 
d="M368 325q92 -53 175 -63l29 -5l-2 -257q-261 -7 -400 107q-155 100 -166 348l301 29q8 -105 63 -155v-4zM476 612q-432 78 -432 401v19q0 337 436 397l90 2l2 -239q-98 -8 -136 -24q-79 -30 -77 -136q0 -99 251 -145q63 -11 103 -21q445 -74 445 -424v-20
q0 -359 -436 -423l-98 -3v253q104 11 142 28q79 32 77 145q0 106 -248 164q-56 17 -123 29zM619 1434q215 0 379 -121q96 -80 140 -296v-14l-164 -20l-136 -9q-19 118 -68 155q-40 34 -150 63zM739 1840h122l-209 -264h-122l-209 264h122l148 -188z" />
    <glyph glyph-name="scaron" unicode="&#x161;" horiz-adv-x="1261" 
d="M368 325q92 -53 175 -63l29 -5l-2 -257q-261 -7 -400 107q-155 100 -166 348l301 29q8 -105 63 -155v-4zM476 612q-432 78 -432 401v19q0 337 436 397l90 2l2 -239q-98 -8 -136 -24q-79 -30 -77 -136q0 -99 251 -145q63 -11 103 -21q445 -74 445 -424v-20
q0 -359 -436 -423l-98 -3v253q104 11 142 28q79 32 77 145q0 106 -248 164q-56 17 -123 29zM619 1434q215 0 379 -121q96 -80 140 -296v-14l-164 -20l-136 -9q-19 118 -68 155q-40 34 -150 63zM739 1840h122l-209 -264h-122l-209 264h122l148 -188z" />
    <glyph glyph-name="Tcaron" unicode="&#x164;" 
d="M702 3h-326v1111h326v-1111zM1065 1431v-264h-1068v264h1068zM679 1840h122l-209 -264h-122l-209 264h122l148 -188z" />
    <glyph glyph-name="tcaron" unicode="&#x165;" 
d="M702 3h-326v1111h326v-1111zM1065 1431v-264h-1068v264h1068zM679 1840h122l-209 -264h-122l-209 264h122l148 -188z" />
    <glyph glyph-name="Tbar" unicode="&#x166;" horiz-adv-x="1145" 
d="M867 885v-264h-672v264h672zM702 3h-326v1111h326v-1111zM1065 1431v-264h-1068v264h1068z" />
    <glyph glyph-name="tbar" unicode="&#x167;" horiz-adv-x="1145" 
d="M867 885v-264h-672v264h672zM702 3h-326v1111h326v-1111zM1065 1431v-264h-1068v264h1068z" />
    <glyph glyph-name="Utilde" unicode="&#x168;" 
d="M1065 1437l1 -988q-9 -371 -303 -434q-68 -21 -194 -18v318q168 21 171 167v955h325zM325 1437v-955q3 -146 171 -167v-318q-126 -3 -194 18q-284 63 -303 434l1 988h325zM519 1616q-3 4 -7 8l-2 2l-11 9q-26 19 -59 19q-42 0 -71 -30q-16 -16 -23 -35v-9h-64l2 22
q11 37 41 67q26 26 58 38l40 7h36l20 -1q43 -10 77 -44l7 -7q25 -20 60 -20q42 0 72 29q18 19 25 42h64q-4 -23 -14 -43l-4 -7q-11 -19 -27 -36q-25 -24 -54 -36l-11 -4q-24 -7 -51 -7q-45 0 -72 16q-16 8 -32 20z" />
    <glyph glyph-name="utilde" unicode="&#x169;" 
d="M1065 1437l1 -988q-9 -371 -303 -434q-68 -21 -194 -18v318q168 21 171 167v955h325zM325 1437v-955q3 -146 171 -167v-318q-126 -3 -194 18q-284 63 -303 434l1 988h325zM519 1616q-3 4 -7 8l-2 2l-11 9q-26 19 -59 19q-42 0 -71 -30q-16 -16 -23 -35v-9h-64l2 22
q11 37 41 67q26 26 58 38l40 7h36l20 -1q43 -10 77 -44l7 -7q25 -20 60 -20q42 0 72 29q18 19 25 42h64q-4 -23 -14 -43l-4 -7q-11 -19 -27 -36q-25 -24 -54 -36l-11 -4q-24 -7 -51 -7q-45 0 -72 16q-16 8 -32 20z" />
    <glyph glyph-name="Ubreve" unicode="&#x16c;" 
d="M1065 1437l1 -988q-9 -371 -303 -434q-68 -21 -194 -18v318q168 21 171 167v955h325zM325 1437v-955q3 -146 171 -167v-318q-126 -3 -194 18q-284 63 -303 434l1 988h325zM431 1741q0 -42 30 -71q16 -16 35 -23l18 -5q8 -1 17 -1q42 0 71.5 29t29.5 71h62q0 -35 -13 -64
l-3 -8q-10 -20 -27 -38l-6 -7q-28 -27 -62 -38l-30 -7q-11 -1 -22 -1t-22 1l-26 6q-37 11 -67 41q-26 26 -38 58l-7 40v17h60z" />
    <glyph glyph-name="ubreve" unicode="&#x16d;" 
d="M1065 1437l1 -988q-9 -371 -303 -434q-68 -21 -194 -18v318q168 21 171 167v955h325zM325 1437v-955q3 -146 171 -167v-318q-126 -3 -194 18q-284 63 -303 434l1 988h325zM431 1741q0 -42 30 -71q16 -16 35 -23l18 -5q8 -1 17 -1q42 0 71.5 29t29.5 71h62q0 -35 -13 -64
l-3 -8q-10 -20 -27 -38l-6 -7q-28 -27 -62 -38l-30 -7q-11 -1 -22 -1t-22 1l-26 6q-37 11 -67 41q-26 26 -38 58l-7 40v17h60z" />
    <glyph glyph-name="Uring" unicode="&#x16e;" 
d="M1065 1437l1 -988q-9 -371 -303 -434q-68 -21 -194 -18v318q168 21 171 167v955h325zM325 1437v-955q3 -146 171 -167v-318q-126 -3 -194 18q-284 63 -303 434l1 988h325zM505 1587v-65l-22 3q-37 11 -67 41q-26 26 -38 58l-7 40v36l1 20q10 43 44 77q24 23 52 35h5l3 3
q14 5 29 7v-63q-25 -7 -44 -26l-11 -13q-19 -26 -19 -59q0 -42 30 -71q16 -16 35 -23h9zM561 1778v64q23 -4 43 -14l7 -4q19 -11 36 -27q24 -25 36 -54l4 -11q7 -24 7 -51q0 -35 -13 -64l-3 -8q-10 -20 -27 -38l-6 -7q-28 -27 -62 -38l-22 -4v63q23 7 42 25q29 29 29 71
t-29 72q-19 18 -42 25z" />
    <glyph glyph-name="uring" unicode="&#x16f;" 
d="M1065 1437l1 -988q-9 -371 -303 -434q-68 -21 -194 -18v318q168 21 171 167v955h325zM325 1437v-955q3 -146 171 -167v-318q-126 -3 -194 18q-284 63 -303 434l1 988h325zM505 1587v-65l-22 3q-37 11 -67 41q-26 26 -38 58l-7 40v36l1 20q10 43 44 77q24 23 52 35h5l3 3
q14 5 29 7v-63q-25 -7 -44 -26l-11 -13q-19 -26 -19 -59q0 -42 30 -71q16 -16 35 -23h9zM561 1778v64q23 -4 43 -14l7 -4q19 -11 36 -27q24 -25 36 -54l4 -11q7 -24 7 -51q0 -35 -13 -64l-3 -8q-10 -20 -27 -38l-6 -7q-28 -27 -62 -38l-22 -4v63q23 7 42 25q29 29 29 71
t-29 72q-19 18 -42 25z" />
    <glyph glyph-name="Uhungarumlaut" unicode="&#x170;" 
d="M1065 1437l1 -988q-9 -371 -303 -434q-68 -21 -194 -18v318q168 21 171 167v955h325zM325 1437v-955q3 -146 171 -167v-318q-126 -3 -194 18q-284 63 -303 434l1 988h325zM441 1577h-102l87 264h221zM721 1577h-102l87 264h221z" />
    <glyph glyph-name="uhungarumlaut" unicode="&#x171;" 
d="M1065 1437l1 -988q-9 -371 -303 -434q-68 -21 -194 -18v318q168 21 171 167v955h325zM325 1437v-955q3 -146 171 -167v-318q-126 -3 -194 18q-284 63 -303 434l1 988h325zM441 1577h-102l87 264h221zM721 1577h-102l87 264h221z" />
    <glyph glyph-name="Uogonek" unicode="&#x172;" 
d="M1065 1437l1 -988q-9 -371 -303 -434q-68 -21 -194 -18v318q168 21 171 167v955h325zM325 1437v-955q3 -146 171 -167v-318q-126 -3 -194 18q-284 63 -303 434l1 988h325zM699 3q-24 -7 -43 -26q-1 -1 -11 -13q-19 -26 -19 -59q0 -42 30 -71q16 -16 35 -23l18 -5
q8 -1 57 -1v-63q-51 0 -62 1l-26 6q-37 11 -67 41q-26 26 -38 58l-7 40v36l1 20q10 43 44 77q24 23 52 35l8 3q14 5 28 7v-63z" />
    <glyph glyph-name="uogonek" unicode="&#x173;" 
d="M1065 1437l1 -988q-9 -371 -303 -434q-68 -21 -194 -18v318q168 21 171 167v955h325zM325 1437v-955q3 -146 171 -167v-318q-126 -3 -194 18q-284 63 -303 434l1 988h325zM699 3q-24 -7 -43 -26q-1 -1 -11 -13q-19 -26 -19 -59q0 -42 30 -71q16 -16 35 -23l18 -5
q8 -1 57 -1v-63q-51 0 -62 1l-26 6q-37 11 -67 41q-26 26 -38 58l-7 40v36l1 20q10 43 44 77q24 23 52 35l8 3q14 5 28 7v-63z" />
    <glyph glyph-name="Wcircumflex" unicode="&#x174;" horiz-adv-x="2094" 
d="M632 0h-105l-523 1434h310l318 -872v-562zM1384 550l321 881h310l-522 -1432h-109v551zM1165 995l158 -433v-562h-105l-208 570l-208 -571h-109v551l162 445h310zM1010 1764l-148 -188h-122l209 264h122l209 -264h-122z" />
    <glyph glyph-name="wcircumflex" unicode="&#x175;" horiz-adv-x="2094" 
d="M632 0h-105l-523 1434h310l318 -872v-562zM1384 550l321 881h310l-522 -1432h-109v551zM1165 995l158 -433v-562h-105l-208 570l-208 -571h-109v551l162 445h310zM1010 1764l-148 -188h-122l209 264h122l209 -264h-122z" />
    <glyph glyph-name="Ycircumflex" unicode="&#x176;" horiz-adv-x="1297" 
d="M-3 1435h359l212 -363l-181 -304zM403 696l432 739h359l-464 -794v-638h-326zM596 1764l-148 -188h-122l209 264h122l209 -264h-122z" />
    <glyph glyph-name="ycircumflex" unicode="&#x177;" horiz-adv-x="1297" 
d="M-3 1435h359l212 -363l-181 -304zM403 696l432 739h359l-464 -794v-638h-326zM596 1764l-148 -188h-122l209 264h122l209 -264h-122z" />
    <glyph glyph-name="Ydieresis" unicode="&#x178;" horiz-adv-x="1297" 
d="M-3 1435h359l212 -363l-181 -304zM403 696l432 739h359l-464 -794v-638h-326zM348 1578v188h215v-188h-215zM628 1578v188h215v-188h-215z" />
    <glyph glyph-name="Zacute" unicode="&#x179;" horiz-adv-x="1114" 
d="M1010 1123l-654 -816h-359l654 816h359zM1011 1173h-1009v264h1009v-264zM1008 1h-1009v264h1009v-264zM553 1577h-102l87 264h221z" />
    <glyph glyph-name="zacute" unicode="&#x17a;" horiz-adv-x="1114" 
d="M1010 1123l-654 -816h-359l654 816h359zM1011 1173h-1009v264h1009v-264zM1008 1h-1009v264h1009v-264zM553 1577h-102l87 264h221z" />
    <glyph glyph-name="Zdotaccent" unicode="&#x17b;" horiz-adv-x="1114" 
d="M1010 1123l-654 -816h-359l654 816h359zM1011 1173h-1009v264h1009v-264zM1008 1h-1009v264h1009v-264zM397 1578v188h215v-188h-215z" />
    <glyph glyph-name="zdotaccent" unicode="&#x17c;" horiz-adv-x="1114" 
d="M1010 1123l-654 -816h-359l654 816h359zM1011 1173h-1009v264h1009v-264zM1008 1h-1009v264h1009v-264zM397 1578v188h215v-188h-215z" />
    <glyph glyph-name="Zcaron" unicode="&#x17d;" horiz-adv-x="1114" 
d="M1010 1123l-654 -816h-359l654 816h359zM1011 1173h-1009v264h1009v-264zM1008 1h-1009v264h1009v-264zM652 1840h122l-209 -264h-122l-209 264h122l148 -188z" />
    <glyph glyph-name="zcaron" unicode="&#x17e;" horiz-adv-x="1114" 
d="M1010 1123l-654 -816h-359l654 816h359zM1011 1173h-1009v264h1009v-264zM1008 1h-1009v264h1009v-264zM652 1840h122l-209 -264h-122l-209 264h122l148 -188z" />
    <glyph glyph-name="uni01CD" unicode="&#x1cd;" horiz-adv-x="1359" 
d="M788 1434l507 -1434h-370l-96 305h-397l77 265h244v5l-148 528h-5l-310 -1103h-290v208l417 1226h371zM749 1840h122l-209 -264h-122l-209 264h122l148 -188z" />
    <glyph glyph-name="uni01CE" unicode="&#x1ce;" horiz-adv-x="1359" 
d="M788 1434l507 -1434h-370l-96 305h-397l77 265h244v5l-148 528h-5l-310 -1103h-290v208l417 1226h371zM749 1840h122l-209 -264h-122l-209 264h122l148 -188z" />
    <glyph glyph-name="uni01CF" unicode="&#x1cf;" horiz-adv-x="427" 
d="M326 0h-326v1437h326v-1437zM311 1840h122l-209 -264h-122l-209 264h122l148 -188z" />
    <glyph glyph-name="uni01D0" unicode="&#x1d0;" horiz-adv-x="427" 
d="M326 0h-326v1437h326v-1437zM311 1840h122l-209 -264h-122l-209 264h122l148 -188z" />
    <glyph glyph-name="uni01D1" unicode="&#x1d1;" horiz-adv-x="1471" 
d="M656 1173q-125 -15 -217 -132q-105 -134 -105 -324q0 -189 105 -323q92 -118 217 -133v-260q-265 10 -455 210q-201 210 -201 508t201 509q190 199 455 209v-264zM708 259q139 7 238 135q105 134 105 323q0 190 -105 324q-99 127 -238 134v263q269 -9 462 -210
q201 -211 201 -509t-201 -508q-193 -202 -462 -211v259zM834 1840h122l-209 -264h-122l-209 264h122l148 -188z" />
    <glyph glyph-name="uni01D2" unicode="&#x1d2;" horiz-adv-x="1471" 
d="M656 1173q-125 -15 -217 -132q-105 -134 -105 -324q0 -189 105 -323q92 -118 217 -133v-260q-265 10 -455 210q-201 210 -201 508t201 509q190 199 455 209v-264zM708 259q139 7 238 135q105 134 105 323q0 190 -105 324q-99 127 -238 134v263q269 -9 462 -210
q201 -211 201 -509t-201 -508q-193 -202 -462 -211v259zM834 1840h122l-209 -264h-122l-209 264h122l148 -188z" />
    <glyph glyph-name="uni01D3" unicode="&#x1d3;" 
d="M1065 1437l1 -988q-9 -371 -303 -434q-68 -21 -194 -18v318q168 21 171 167v955h325zM325 1437v-955q3 -146 171 -167v-318q-126 -3 -194 18q-284 63 -303 434l1 988h325zM681 1840h122l-209 -264h-122l-209 264h122l148 -188z" />
    <glyph glyph-name="uni01D4" unicode="&#x1d4;" 
d="M1065 1437l1 -988q-9 -371 -303 -434q-68 -21 -194 -18v318q168 21 171 167v955h325zM325 1437v-955q3 -146 171 -167v-318q-126 -3 -194 18q-284 63 -303 434l1 988h325zM681 1840h122l-209 -264h-122l-209 264h122l148 -188z" />
    <glyph glyph-name="Gcaron" unicode="&#x1e6;" horiz-adv-x="1462" 
d="M656 1173q-125 -15 -217 -132q-105 -134 -105 -324q0 -189 105 -323q92 -118 217 -133v-260q-265 10 -455 210q-201 210 -201 508t201 509q190 199 455 209v-264zM946 1041q-99 127 -238 134v263q269 -9 462 -210q98 -103 148 -227l-284 -140q-25 100 -88 180zM1371 702
q-6 -287 -201 -491q-193 -202 -462 -211v259q139 7 238 135q17 21 31 44h-271v264h665zM834 1840h122l-209 -264h-122l-209 264h122l148 -188z" />
    <glyph glyph-name="gcaron" unicode="&#x1e7;" horiz-adv-x="1462" 
d="M656 1173q-125 -15 -217 -132q-105 -134 -105 -324q0 -189 105 -323q92 -118 217 -133v-260q-265 10 -455 210q-201 210 -201 508t201 509q190 199 455 209v-264zM946 1041q-99 127 -238 134v263q269 -9 462 -210q98 -103 148 -227l-284 -140q-25 100 -88 180zM1371 702
q-6 -287 -201 -491q-193 -202 -462 -211v259q139 7 238 135q17 21 31 44h-271v264h665zM834 1840h122l-209 -264h-122l-209 264h122l148 -188z" />
    <glyph glyph-name="uni01E8" unicode="&#x1e8;" horiz-adv-x="1380" 
d="M330 1434v-1434h-331v1434h331zM828 1434h417v-5l-651 -646l681 -778v-5h-391l-509 595v356zM785 1840h122l-209 -264h-122l-209 264h122l148 -188z" />
    <glyph glyph-name="uni01E9" unicode="&#x1e9;" horiz-adv-x="1380" 
d="M330 1434v-1434h-331v1434h331zM828 1434h417v-5l-651 -646l681 -778v-5h-391l-509 595v356zM785 1840h122l-209 -264h-122l-209 264h122l148 -188z" />
    <glyph glyph-name="uni01EA" unicode="&#x1ea;" horiz-adv-x="1471" 
d="M656 1173q-125 -15 -217 -132q-105 -134 -105 -324q0 -189 105 -323q92 -118 217 -133v-260q-265 10 -455 210q-201 210 -201 508t201 509q190 199 455 209v-264zM708 259q139 7 238 135q105 134 105 323q0 190 -105 324q-99 127 -238 134v263q269 -9 462 -210
q201 -211 201 -509t-201 -508q-193 -202 -462 -211v259zM844 7q-24 -7 -43 -26q-1 -1 -11 -13q-19 -26 -19 -59q0 -42 30 -71q16 -16 35 -23l18 -5q8 -1 57 -1v-63q-51 0 -62 1l-26 6q-37 11 -67 41q-26 26 -38 58l-7 40v36l1 20q10 43 44 77q24 23 52 35l8 3q14 5 28 7v-63
z" />
    <glyph glyph-name="uni01EB" unicode="&#x1eb;" horiz-adv-x="1471" 
d="M656 1173q-125 -15 -217 -132q-105 -134 -105 -324q0 -189 105 -323q92 -118 217 -133v-260q-265 10 -455 210q-201 210 -201 508t201 509q190 199 455 209v-264zM708 259q139 7 238 135q105 134 105 323q0 190 -105 324q-99 127 -238 134v263q269 -9 462 -210
q201 -211 201 -509t-201 -508q-193 -202 -462 -211v259zM844 7q-24 -7 -43 -26q-1 -1 -11 -13q-19 -26 -19 -59q0 -42 30 -71q16 -16 35 -23l18 -5q8 -1 57 -1v-63q-51 0 -62 1l-26 6q-37 11 -67 41q-26 26 -38 58l-7 40v36l1 20q10 43 44 77q24 23 52 35l8 3q14 5 28 7v-63
z" />
    <glyph glyph-name="uni01F4" unicode="&#x1f4;" horiz-adv-x="1462" 
d="M656 1173q-125 -15 -217 -132q-105 -134 -105 -324q0 -189 105 -323q92 -118 217 -133v-260q-265 10 -455 210q-201 210 -201 508t201 509q190 199 455 209v-264zM946 1041q-99 127 -238 134v263q269 -9 462 -210q98 -103 148 -227l-284 -140q-25 100 -88 180zM1371 702
q-6 -287 -201 -491q-193 -202 -462 -211v259q139 7 238 135q17 21 31 44h-271v264h665zM735 1577h-102l87 264h221z" />
    <glyph glyph-name="uni01F5" unicode="&#x1f5;" horiz-adv-x="1462" 
d="M656 1173q-125 -15 -217 -132q-105 -134 -105 -324q0 -189 105 -323q92 -118 217 -133v-260q-265 10 -455 210q-201 210 -201 508t201 509q190 199 455 209v-264zM946 1041q-99 127 -238 134v263q269 -9 462 -210q98 -103 148 -227l-284 -140q-25 100 -88 180zM1371 702
q-6 -287 -201 -491q-193 -202 -462 -211v259q139 7 238 135q17 21 31 44h-271v264h665zM735 1577h-102l87 264h221z" />
    <glyph glyph-name="uni01F8" unicode="&#x1f8;" horiz-adv-x="1273" 
d="M326 0h-326v1348l326 -544v-804zM856 1l-852 1432h310l853 -1433zM843 1434h326v-1348l-326 544v804zM329 1831h221l87 -264h-102z" />
    <glyph glyph-name="uni01F9" unicode="&#x1f9;" horiz-adv-x="1273" 
d="M326 0h-326v1348l326 -544v-804zM856 1l-852 1432h310l853 -1433zM843 1434h326v-1348l-326 544v804zM329 1831h221l87 -264h-102z" />
    <glyph glyph-name="uni0226" unicode="&#x226;" horiz-adv-x="1359" 
d="M788 1434l507 -1434h-370l-96 305h-397l77 265h244v5l-148 528h-5l-310 -1103h-290v208l417 1226h371zM500 1578v188h215v-188h-215z" />
    <glyph glyph-name="uni0227" unicode="&#x227;" horiz-adv-x="1359" 
d="M788 1434l507 -1434h-370l-96 305h-397l77 265h244v5l-148 528h-5l-310 -1103h-290v208l417 1226h371zM500 1578v188h215v-188h-215z" />
    <glyph glyph-name="uni022E" unicode="&#x22e;" horiz-adv-x="1471" 
d="M656 1173q-125 -15 -217 -132q-105 -134 -105 -324q0 -189 105 -323q92 -118 217 -133v-260q-265 10 -455 210q-201 210 -201 508t201 509q190 199 455 209v-264zM708 259q139 7 238 135q105 134 105 323q0 190 -105 324q-99 127 -238 134v263q269 -9 462 -210
q201 -211 201 -509t-201 -508q-193 -202 -462 -211v259zM578 1578v188h215v-188h-215z" />
    <glyph glyph-name="uni022F" unicode="&#x22f;" horiz-adv-x="1471" 
d="M656 1173q-125 -15 -217 -132q-105 -134 -105 -324q0 -189 105 -323q92 -118 217 -133v-260q-265 10 -455 210q-201 210 -201 508t201 509q190 199 455 209v-264zM708 259q139 7 238 135q105 134 105 323q0 190 -105 324q-99 127 -238 134v263q269 -9 462 -210
q201 -211 201 -509t-201 -508q-193 -202 -462 -211v259zM578 1578v188h215v-188h-215z" />
    <glyph glyph-name="circumflex" unicode="&#x2c6;" horiz-adv-x="575" 
d="M269 1622l-148 -188h-122l209 264h122l209 -264h-122z" />
    <glyph glyph-name="caron" unicode="&#x2c7;" horiz-adv-x="575" 
d="M417 1698h122l-209 -264h-122l-209 264h122l148 -188z" />
    <glyph glyph-name="breve" unicode="&#x2d8;" horiz-adv-x="375" 
d="M60 1599q0 -42 30 -71q16 -16 35 -23l18 -5q8 -1 17 -1q42 0 71.5 29t29.5 71h62q0 -35 -13 -64l-3 -8q-10 -20 -27 -38l-6 -7q-28 -27 -62 -38l-30 -7q-11 -1 -22 -1t-22 1l-26 6q-37 11 -67 41q-26 26 -38 58l-7 40v17h60z" />
    <glyph glyph-name="dotaccent" unicode="&#x2d9;" horiz-adv-x="282" 
d="M0 1436v188h215v-188h-215z" />
    <glyph glyph-name="ring" unicode="&#x2da;" horiz-adv-x="370" 
d="M134 1505v-65l-22 3q-37 11 -67 41q-26 26 -38 58l-7 40v36l1 20q10 43 44 77q24 23 52 35h5l3 3q14 5 29 7v-63q-25 -7 -44 -26l-11 -13q-19 -26 -19 -59q0 -42 30 -71q16 -16 35 -23h9zM190 1696v64q23 -4 43 -14l7 -4q19 -11 36 -27q24 -25 36 -54l4 -11q7 -24 7 -51
q0 -35 -13 -64l-3 -8q-10 -20 -27 -38l-6 -7q-28 -27 -62 -38l-22 -4v63q23 7 42 25q29 29 29 71t-29 72q-19 18 -42 25z" />
    <glyph glyph-name="ogonek" unicode="&#x2db;" horiz-adv-x="261" 
d="M137 2q-24 -7 -43 -26q-1 -1 -11 -13q-19 -26 -19 -59q0 -42 30 -71q16 -16 35 -23l18 -5q8 -1 57 -1v-63q-51 0 -62 1l-26 6q-37 11 -67 41q-26 26 -38 58l-7 40v36l1 20q10 43 44 77q24 23 52 35l8 3q14 5 28 7v-63z" />
    <glyph glyph-name="tilde" unicode="&#x2dc;" horiz-adv-x="555" 
d="M235 1474q-3 4 -7 8l-2 2l-11 9q-26 19 -59 19q-42 0 -71 -30q-16 -16 -23 -35v-9h-64l2 22q11 37 41 67q26 26 58 38l40 7h36l20 -1q43 -10 77 -44l7 -7q25 -20 60 -20q42 0 72 29q18 19 25 42h64q-4 -23 -14 -43l-4 -7q-11 -19 -27 -36q-25 -24 -54 -36l-11 -4
q-24 -7 -51 -7q-45 0 -72 16q-16 8 -32 20z" />
    <glyph glyph-name="hungarumlaut" unicode="&#x2dd;" horiz-adv-x="649" 
d="M112 1435h-102l87 264h221zM392 1435h-102l87 264h221z" />
    <glyph glyph-name="tonos" unicode="&#x384;" horiz-adv-x="372" 
d="M112 1435h-102l87 264h221z" />
    <glyph glyph-name="Alphatonos" unicode="&#x386;" horiz-adv-x="1359" 
d="M112 1435h-102l87 264h221zM788 1434l507 -1434h-370l-96 305h-397l77 265h244v5l-148 528h-5l-310 -1103h-290v208l417 1226h371z" />
    <glyph glyph-name="Epsilontonos" unicode="&#x388;" horiz-adv-x="1401" 
d="M112 1435h-102l87 264h221zM619 0h-326v1437h326v-1437zM1347 1434v-264h-672v264h672zM1294 891v-264h-617v264h617zM1350 266v-264h-672v264h672z" />
    <glyph glyph-name="Etatonos" unicode="&#x389;" horiz-adv-x="1653" 
d="M112 1435h-102l87 264h221zM619 0h-326v1437h326v-1437zM1580 0h-326v1437h326v-1437zM1194 888v-264h-520v264h520z" />
    <glyph glyph-name="Iotatonos" unicode="&#x38a;" horiz-adv-x="692" 
d="M112 1435h-102l87 264h221zM619 0h-326v1437h326v-1437z" />
    <glyph glyph-name="Omicrontonos" unicode="&#x38c;" horiz-adv-x="1418" 
d="M111 1435h-102l87 264h221zM660 1173q-125 -15 -217 -132q-105 -134 -105 -324q0 -189 105 -323q92 -118 217 -133v-260q-265 10 -455 210q-201 210 -201 508t201 509q190 199 455 209v-264zM712 259q139 7 238 135q105 134 105 323q0 190 -105 324q-99 127 -238 134v263
q269 -9 462 -210q201 -211 201 -509t-201 -508q-193 -202 -462 -211v259z" />
    <glyph glyph-name="Upsilontonos" unicode="&#x38e;" horiz-adv-x="1535" 
d="M112 1435h-102l87 264h221zM272 1435h359l212 -363l-181 -304zM678 696l432 739h359l-464 -794v-638h-326z" />
    <glyph glyph-name="Omegatonos" unicode="&#x38f;" horiz-adv-x="1704" 
d="M114 1435h-102l87 264h221zM-3 259h621v-259h-621v259zM1027 259h621v-259h-621v259zM234 331q-107 171 -107 388q0 298 201 509q190 199 455 209v-264q-125 -15 -217 -132q-105 -134 -105 -324q0 -189 105 -323q29 -37 60 -63h-392zM1013 330q32 27 60 64
q105 134 105 323q0 190 -105 324q-99 127 -238 134v263q269 -9 462 -210q201 -211 201 -509q0 -218 -108 -389h-377z" />
    <glyph glyph-name="Alpha" unicode="&#x391;" horiz-adv-x="1359" 
d="M788 1434l507 -1434h-370l-96 305h-397l77 265h244v5l-148 528h-5l-310 -1103h-290v208l417 1226h371z" />
    <glyph glyph-name="Beta" unicode="&#x392;" horiz-adv-x="1282" 
d="M326 0h-326v1437h326v-1437zM685 1437q346 0 437 -246q21 -49 21 -113v-25q0 -135 -132 -246l-46 -26l-24 -8q39 -21 64 -33q152 -91 173 -271q5 -20 5 -47q-8 -128 -25 -148q-10 -54 -71 -128q-72 -102 -260 -144q-50 -3 -146 -3h-300v260h300q164 42 167 158v42
q8 78 -71 128q-16 25 -96 32h-299v271h299l50 4q91 39 91 143l-5 36l-10 25q-45 58 -126 66h-303v273h307z" />
    <glyph glyph-name="Gamma" unicode="&#x393;" 
d="M326 3h-326v1111h326v-1111zM1068 1431v-264h-1068v264h1068z" />
    <glyph glyph-name="uni0394" unicode="&#x394;" horiz-adv-x="1223" 
d="M18 312l409 1121h105v-562l-204 -559h-310zM801 312l-208 571v551h109l409 -1122h-310zM1128 264v-264h-1128v264h1128z" />
    <glyph glyph-name="Epsilon" unicode="&#x395;" horiz-adv-x="1154" 
d="M326 0h-326v1437h326v-1437zM1054 1434v-264h-672v264h672zM1001 891v-264h-617v264h617zM1057 266v-264h-672v264h672z" />
    <glyph glyph-name="Zeta" unicode="&#x396;" horiz-adv-x="1108" 
d="M1010 1123l-654 -816h-359l654 816h359zM1011 1173h-1009v264h1009v-264zM1008 1h-1009v264h1009v-264z" />
    <glyph glyph-name="Eta" unicode="&#x397;" horiz-adv-x="1392" 
d="M326 0h-326v1437h326v-1437zM1287 0h-326v1437h326v-1437zM901 888v-264h-520v264h520z" />
    <glyph glyph-name="Theta" unicode="&#x398;" horiz-adv-x="1437" 
d="M348 587q24 -108 91 -193q92 -118 217 -133v-260q-265 10 -455 210q-201 210 -201 508t201 509q190 199 455 209v-264q-125 -15 -217 -132q-66 -84 -90 -190h687q-24 106 -90 190q-99 127 -238 134v263q269 -9 462 -210q201 -211 201 -509t-201 -508q-193 -202 -462 -211
v259q139 7 238 135q67 85 91 193h-689z" />
    <glyph glyph-name="Iota" unicode="&#x399;" horiz-adv-x="427" 
d="M326 0h-326v1437h326v-1437z" />
    <glyph glyph-name="Kappa" unicode="&#x39a;" horiz-adv-x="1299" 
d="M330 1434l-3 -1434h-328v1434h331zM828 1434h417v-5l-651 -646l681 -778v-5h-391l-509 595v356z" />
    <glyph glyph-name="Lambda" unicode="&#x39b;" horiz-adv-x="1389" 
d="M632 871l-318 -872h-310l523 1434h105v-562zM693 1434h109l522 -1432h-310l-321 881v551z" />
    <glyph glyph-name="Mu" unicode="&#x39c;" horiz-adv-x="1774" 
d="M326 0h-326v1348l326 -544v-804zM1334 804l326 544v-1348h-326v804zM874 621l484 813h310l-794 -1334v521zM798 99l-794 1334h310l484 -813v-521z" />
    <glyph glyph-name="Nu" unicode="&#x39d;" horiz-adv-x="1273" 
d="M326 0h-326v1348l326 -544v-804zM856 1l-852 1432h310l853 -1433zM843 1434h326v-1348l-326 544v804z" />
    <glyph glyph-name="Xi" unicode="&#x39e;" horiz-adv-x="888" 
d="M2 263h799v-264h-799v264zM94 853h616v-265h-616v265zM2 1437h799v-264h-799v264z" />
    <glyph glyph-name="Omicron" unicode="&#x39f;" horiz-adv-x="1471" 
d="M656 1173q-125 -15 -217 -132q-105 -134 -105 -324q0 -189 105 -323q92 -118 217 -133v-260q-265 10 -455 210q-201 210 -201 508t201 509q190 199 455 209v-264zM708 259q139 7 238 135q105 134 105 323q0 190 -105 324q-99 127 -238 134v263q269 -9 462 -210
q201 -211 201 -509t-201 -508q-193 -202 -462 -211v259z" />
    <glyph glyph-name="Pi" unicode="&#x3a0;" 
d="M326 3h-326v1111h326v-1111zM1068 1431v-264h-1068v264h1068zM1068 3h-326v1111h326v-1111z" />
    <glyph glyph-name="Rho" unicode="&#x3a1;" horiz-adv-x="1218" 
d="M608 1441q289 0 419 -163q92 -140 92 -292v-20q0 -175 -97 -307q-130 -176 -516 -163h-128v270h261q153 56 153 210v26q-34 168 -184 174h-230v265h230zM326 0h-326v1437h326v-1437z" />
    <glyph glyph-name="Sigma" unicode="&#x3a3;" horiz-adv-x="896" 
d="M2 263h799v-264h-799v264zM801 1173h-799v264h799v-264zM802 569l-800 -291v310l267 97h533v-116zM801 746h-520l-279 102v310l799 -292v-120z" />
    <glyph glyph-name="Tau" unicode="&#x3a4;" 
d="M702 3h-326v1111h326v-1111zM1065 1431v-264h-1068v264h1068z" />
    <glyph glyph-name="Upsilon" unicode="&#x3a5;" horiz-adv-x="1294" 
d="M-3 1435h359l212 -363l-181 -304zM403 696l432 739h359l-464 -794v-638h-326z" />
    <glyph glyph-name="Phi" unicode="&#x3a6;" horiz-adv-x="1819" 
d="M1031 1654v-1900h-326v1900h326zM656 1173q-125 -15 -217 -132q-105 -134 -105 -324q0 -189 105 -323q92 -118 217 -133v-260q-265 10 -455 210q-201 210 -201 508t201 509q190 199 455 209v-264zM1078 259q139 7 238 135q105 134 105 323q0 190 -105 324
q-99 127 -238 134v263q269 -9 462 -210q201 -211 201 -509t-201 -508q-193 -202 -462 -211v259z" />
    <glyph glyph-name="Chi" unicode="&#x3a7;" horiz-adv-x="1304" 
d="M1194 1435l-841 -1438h-359l841 1438h359zM1197 -3h-359l-215 365l177 313zM-3 1435h359l212 -363l-181 -304z" />
    <glyph glyph-name="Psi" unicode="&#x3a8;" horiz-adv-x="1565" 
d="M327 1258q3 -101 88 -147q25 -15 92 -20v-318q-135 0 -203 18q-294 91 -303 434v211h326v-178zM906 0h-326v1437h326v-1437zM1151 1436h326v-211q-9 -343 -303 -434q-68 -18 -203 -18v318q67 5 92 20q85 46 88 147v178z" />
    <glyph glyph-name="uni03A9" unicode="&#x3a9;" horiz-adv-x="1749" 
d="M0 259h621v-259h-621v259zM1030 259h621v-259h-621v259zM237 331q-107 171 -107 388q0 298 201 509q190 199 455 209v-264q-125 -15 -217 -132q-105 -134 -105 -324q0 -189 105 -323q29 -37 60 -63h-392zM1016 330q32 27 60 64q105 134 105 323q0 190 -105 324
q-99 127 -238 134v263q269 -9 462 -210q201 -211 201 -509q0 -218 -108 -389h-377z" />
    <glyph glyph-name="Iotadieresis" unicode="&#x3aa;" horiz-adv-x="427" 
d="M327 0h-326v1437h326v-1437zM-84 1578v188h215v-188h-215zM196 1578v188h215v-188h-215z" />
    <glyph glyph-name="Upsilondieresis" unicode="&#x3ab;" horiz-adv-x="1294" 
d="M-3 1435h359l212 -363l-181 -304zM403 696l432 739h359l-464 -794v-638h-326zM348 1588v188h215v-188h-215zM628 1588v188h215v-188h-215z" />
    <glyph glyph-name="alphatonos" unicode="&#x3ac;" horiz-adv-x="1359" 
d="M112 1435h-102l87 264h221zM788 1434l507 -1434h-370l-96 305h-397l77 265h244v5l-148 528h-5l-310 -1103h-290v208l417 1226h371z" />
    <glyph glyph-name="epsilontonos" unicode="&#x3ad;" horiz-adv-x="1401" 
d="M112 1435h-102l87 264h221zM619 0h-326v1437h326v-1437zM1347 1434v-264h-672v264h672zM1294 891v-264h-617v264h617zM1350 266v-264h-672v264h672z" />
    <glyph glyph-name="etatonos" unicode="&#x3ae;" horiz-adv-x="1653" 
d="M112 1435h-102l87 264h221zM619 0h-326v1437h326v-1437zM1580 0h-326v1437h326v-1437zM1194 888v-264h-520v264h520z" />
    <glyph glyph-name="iotatonos" unicode="&#x3af;" horiz-adv-x="692" 
d="M112 1435h-102l87 264h221zM619 0h-326v1437h326v-1437z" />
    <glyph glyph-name="alpha" unicode="&#x3b1;" horiz-adv-x="1359" 
d="M788 1434l507 -1434h-370l-96 305h-397l77 265h244v5l-148 528h-5l-310 -1103h-290v208l417 1226h371z" />
    <glyph glyph-name="beta" unicode="&#x3b2;" horiz-adv-x="1282" 
d="M326 0h-326v1437h326v-1437zM685 1437q346 0 437 -246q21 -49 21 -113v-25q0 -135 -132 -246l-46 -26l-24 -8q39 -21 64 -33q152 -91 173 -271q5 -20 5 -47q-8 -128 -25 -148q-10 -54 -71 -128q-72 -102 -260 -144q-50 -3 -146 -3h-300v260h300q164 42 167 158v42
q8 78 -71 128q-16 25 -96 32h-299v271h299l50 4q91 39 91 143l-5 36l-10 25q-45 58 -126 66h-303v273h307z" />
    <glyph glyph-name="gamma" unicode="&#x3b3;" 
d="M326 3h-326v1111h326v-1111zM1068 1431v-264h-1068v264h1068z" />
    <glyph glyph-name="delta" unicode="&#x3b4;" horiz-adv-x="1223" 
d="M18 312l409 1121h105v-562l-204 -559h-310zM801 312l-208 571v551h109l409 -1122h-310zM1128 264v-264h-1128v264h1128z" />
    <glyph glyph-name="epsilon" unicode="&#x3b5;" horiz-adv-x="1154" 
d="M326 0h-326v1437h326v-1437zM1054 1434v-264h-672v264h672zM1001 891v-264h-617v264h617zM1057 266v-264h-672v264h672z" />
    <glyph glyph-name="zeta" unicode="&#x3b6;" horiz-adv-x="1108" 
d="M1010 1123l-654 -816h-359l654 816h359zM1011 1173h-1009v264h1009v-264zM1008 1h-1009v264h1009v-264z" />
    <glyph glyph-name="eta" unicode="&#x3b7;" horiz-adv-x="1392" 
d="M326 0h-326v1437h326v-1437zM1287 0h-326v1437h326v-1437zM901 888v-264h-520v264h520z" />
    <glyph glyph-name="theta" unicode="&#x3b8;" horiz-adv-x="1437" 
d="M348 587q24 -108 91 -193q92 -118 217 -133v-260q-265 10 -455 210q-201 210 -201 508t201 509q190 199 455 209v-264q-125 -15 -217 -132q-66 -84 -90 -190h687q-24 106 -90 190q-99 127 -238 134v263q269 -9 462 -210q201 -211 201 -509t-201 -508q-193 -202 -462 -211
v259q139 7 238 135q67 85 91 193h-689z" />
    <glyph glyph-name="iota" unicode="&#x3b9;" horiz-adv-x="427" 
d="M326 0h-326v1437h326v-1437z" />
    <glyph glyph-name="kappa" unicode="&#x3ba;" horiz-adv-x="1299" 
d="M330 1434l-3 -1434h-328v1434h331zM828 1434h417v-5l-651 -646l681 -778v-5h-391l-509 595v356z" />
    <glyph glyph-name="lambda" unicode="&#x3bb;" horiz-adv-x="1389" 
d="M632 871l-318 -872h-310l523 1434h105v-562zM693 1434h109l522 -1432h-310l-321 881v551z" />
    <glyph glyph-name="uni03BC" unicode="&#x3bc;" horiz-adv-x="1774" 
d="M326 0h-326v1348l326 -544v-804zM1334 804l326 544v-1348h-326v804zM874 621l484 813h310l-794 -1334v521zM798 99l-794 1334h310l484 -813v-521z" />
    <glyph glyph-name="nu" unicode="&#x3bd;" horiz-adv-x="1273" 
d="M326 0h-326v1348l326 -544v-804zM856 1l-852 1432h310l853 -1433zM843 1434h326v-1348l-326 544v804z" />
    <glyph glyph-name="xi" unicode="&#x3be;" horiz-adv-x="888" 
d="M2 263h799v-264h-799v264zM94 853h616v-265h-616v265zM2 1437h799v-264h-799v264z" />
    <glyph glyph-name="omicron" unicode="&#x3bf;" horiz-adv-x="1471" 
d="M656 1173q-125 -15 -217 -132q-105 -134 -105 -324q0 -189 105 -323q92 -118 217 -133v-260q-265 10 -455 210q-201 210 -201 508t201 509q190 199 455 209v-264zM708 259q139 7 238 135q105 134 105 323q0 190 -105 324q-99 127 -238 134v263q269 -9 462 -210
q201 -211 201 -509t-201 -508q-193 -202 -462 -211v259z" />
    <glyph glyph-name="pi" unicode="&#x3c0;" 
d="M326 3h-326v1111h326v-1111zM1068 1431v-264h-1068v264h1068zM1068 3h-326v1111h326v-1111z" />
    <glyph glyph-name="rho" unicode="&#x3c1;" horiz-adv-x="1218" 
d="M608 1441q289 0 419 -163q92 -140 92 -292v-20q0 -175 -97 -307q-130 -176 -516 -163h-128v270h261q153 56 153 210v26q-34 168 -184 174h-230v265h230zM326 0h-326v1437h326v-1437z" />
    <glyph glyph-name="sigma" unicode="&#x3c3;" horiz-adv-x="896" 
d="M2 263h799v-264h-799v264zM801 1173h-799v264h799v-264zM802 569l-800 -291v310l267 97h533v-116zM801 746h-520l-279 102v310l799 -292v-120z" />
    <glyph glyph-name="tau" unicode="&#x3c4;" 
d="M702 3h-326v1111h326v-1111zM1065 1431v-264h-1068v264h1068z" />
    <glyph glyph-name="upsilon" unicode="&#x3c5;" horiz-adv-x="1294" 
d="M-3 1435h359l212 -363l-181 -304zM403 696l432 739h359l-464 -794v-638h-326z" />
    <glyph glyph-name="phi" unicode="&#x3c6;" horiz-adv-x="1819" 
d="M1031 1654v-1900h-326v1900h326zM656 1173q-125 -15 -217 -132q-105 -134 -105 -324q0 -189 105 -323q92 -118 217 -133v-260q-265 10 -455 210q-201 210 -201 508t201 509q190 199 455 209v-264zM1078 259q139 7 238 135q105 134 105 323q0 190 -105 324
q-99 127 -238 134v263q269 -9 462 -210q201 -211 201 -509t-201 -508q-193 -202 -462 -211v259z" />
    <glyph glyph-name="chi" unicode="&#x3c7;" horiz-adv-x="1304" 
d="M1194 1435l-841 -1438h-359l841 1438h359zM1197 -3h-359l-215 365l177 313zM-3 1435h359l212 -363l-181 -304z" />
    <glyph glyph-name="psi" unicode="&#x3c8;" horiz-adv-x="1565" 
d="M327 1258q3 -101 88 -147q25 -15 92 -20v-318q-135 0 -203 18q-294 91 -303 434v211h326v-178zM906 0h-326v1437h326v-1437zM1151 1436h326v-211q-9 -343 -303 -434q-68 -18 -203 -18v318q67 5 92 20q85 46 88 147v178z" />
    <glyph glyph-name="omega" unicode="&#x3c9;" horiz-adv-x="1749" 
d="M0 259h621v-259h-621v259zM1030 259h621v-259h-621v259zM237 331q-107 171 -107 388q0 298 201 509q190 199 455 209v-264q-125 -15 -217 -132q-105 -134 -105 -324q0 -189 105 -323q29 -37 60 -63h-392zM1016 330q32 27 60 64q105 134 105 323q0 190 -105 324
q-99 127 -238 134v263q269 -9 462 -210q201 -211 201 -509q0 -218 -108 -389h-377z" />
    <glyph glyph-name="iotadieresis" unicode="&#x3ca;" horiz-adv-x="427" 
d="M327 0h-326v1437h326v-1437zM-84 1578v188h215v-188h-215zM196 1578v188h215v-188h-215z" />
    <glyph glyph-name="upsilondieresis" unicode="&#x3cb;" horiz-adv-x="1294" 
d="M-3 1435h359l212 -363l-181 -304zM403 696l432 739h359l-464 -794v-638h-326zM348 1588v188h215v-188h-215zM628 1588v188h215v-188h-215z" />
    <glyph glyph-name="omicrontonos" unicode="&#x3cc;" horiz-adv-x="1418" 
d="M111 1435h-102l87 264h221zM660 1173q-125 -15 -217 -132q-105 -134 -105 -324q0 -189 105 -323q92 -118 217 -133v-260q-265 10 -455 210q-201 210 -201 508t201 509q190 199 455 209v-264zM712 259q139 7 238 135q105 134 105 323q0 190 -105 324q-99 127 -238 134v263
q269 -9 462 -210q201 -211 201 -509t-201 -508q-193 -202 -462 -211v259z" />
    <glyph glyph-name="upsilontonos" unicode="&#x3cd;" horiz-adv-x="1354" 
d="M112 1435h-102l87 264h221zM290 1435h359l212 -363l-181 -304zM696 696l432 739h359l-464 -794v-638h-326z" />
    <glyph glyph-name="omegatonos" unicode="&#x3ce;" horiz-adv-x="1704" 
d="M114 1435h-102l87 264h221zM-3 259h621v-259h-621v259zM1027 259h621v-259h-621v259zM234 331q-107 171 -107 388q0 298 201 509q190 199 455 209v-264q-125 -15 -217 -132q-105 -134 -105 -324q0 -189 105 -323q29 -37 60 -63h-392zM1013 330q32 27 60 64
q105 134 105 323q0 190 -105 324q-99 127 -238 134v263q269 -9 462 -210q201 -211 201 -509q0 -218 -108 -389h-377z" />
    <glyph glyph-name="afii10023" unicode="&#x401;" horiz-adv-x="1154" 
d="M326 0h-326v1437h326v-1437zM1054 1434v-264h-672v264h672zM1001 891v-264h-617v264h617zM1057 266v-264h-672v264h672zM281 1578v188h215v-188h-215zM561 1578v188h215v-188h-215z" />
    <glyph glyph-name="afii10051" unicode="&#x402;" horiz-adv-x="1649" 
d="M702 3h-326v1111h326v-1111zM1065 1431v-264h-1068v264h1068zM1399 780q127 -124 148 -304q5 -20 5 -47q-8 -128 -25 -148q-10 -54 -71 -128q-72 -102 -260 -144l-86 -5h-5q-10 0 -54 1l-1 261q164 42 167 158v42q8 78 -71 128q-16 25 -96 32l-299 -1l1 272h298
q202 -3 349 -117z" />
    <glyph glyph-name="afii10052" unicode="&#x403;" horiz-adv-x="1178" 
d="M326 0h-326v1111h326v-1111zM1069 1431v-264h-1068v264h1068zM584 1577h-102l87 264h221z" />
    <glyph glyph-name="afii10053" unicode="&#x404;" horiz-adv-x="1203" 
d="M649 1437v-265h-135q-153 -6 -187 -174v-517q0 -154 156 -217h168l-2 -263h-88q-307 0 -464 163q-97 132 -97 307v511q0 152 92 292q131 163 419 163h138zM1099 1173h-388v264h388v-264zM1099 0h-388v264h388v-264zM1004 626h-610v264h610v-264z" />
    <glyph glyph-name="afii10054" unicode="&#x405;" horiz-adv-x="1258" 
d="M368 325q92 -53 175 -63l29 -5l-2 -257q-261 -7 -400 107q-155 100 -166 348l301 29q8 -105 63 -155v-4zM476 612q-432 78 -432 401v19q0 337 436 397l90 2l2 -239q-98 -8 -136 -24q-79 -30 -77 -136q0 -99 251 -145q63 -11 103 -21q445 -74 445 -424v-20
q0 -359 -436 -423l-98 -3v253q104 11 142 28q79 32 77 145q0 106 -248 164q-56 17 -123 29zM619 1434q215 0 379 -121q96 -80 140 -296v-14l-164 -20l-136 -9q-19 118 -68 155q-40 34 -150 63z" />
    <glyph glyph-name="afii10055" unicode="&#x406;" horiz-adv-x="424" 
d="M326 0h-326v1437h326v-1437z" />
    <glyph glyph-name="afii10056" unicode="&#x407;" horiz-adv-x="427" 
d="M327 0h-326v1437h326v-1437zM-84 1578v188h215v-188h-215zM196 1578v188h215v-188h-215z" />
    <glyph glyph-name="afii10057" unicode="&#x408;" horiz-adv-x="589" 
d="M485 1431l1 -988q-49 -371 -303 -434q-68 -21 -184 -18v318q158 21 161 167l-2 955h327z" />
    <glyph glyph-name="afii10058" unicode="&#x409;" horiz-adv-x="2192" 
d="M485 1101l1 -658q-49 -371 -303 -434q-68 -21 -184 -18v318q158 21 161 167l-2 625h327zM1221 0h-326v1120h326v-1120zM1224 1437v-264h-1068v264h1068zM1934 774q127 -124 148 -304q5 -20 5 -47q-8 -128 -25 -148q-10 -54 -71 -128q-72 -102 -260 -144l-145 -4l-297 1
l-2 259l298 1q164 42 167 158v42q8 78 -71 128q-16 25 -96 32l-296 -1l-2 272h298q202 -3 349 -117z" />
    <glyph glyph-name="afii10059" unicode="&#x40a;" horiz-adv-x="2192" 
d="M326 0h-326v1437h326v-1437zM1218 0h-326v1437h326v-1437zM827 888v-264h-446v264h446zM1934 780q127 -124 148 -304q5 -20 5 -47q-8 -128 -25 -148q-10 -54 -71 -128q-72 -102 -260 -144l-86 -5h-5q-10 0 -54 1l-297 1l-2 259l298 1q164 42 167 158v42q8 78 -71 128
q-16 25 -96 32l-296 -1l-2 272h298q202 -3 349 -117z" />
    <glyph glyph-name="afii10060" unicode="&#x40b;" horiz-adv-x="1340" 
d="M702 0h-326v1111h326v-1111zM1065 1431v-264h-1068v264h1068zM904 0l1 353q-3 146 -161 167v318q116 3 184 -18q254 -63 303 -434v-386h-327z" />
    <glyph glyph-name="afii10061" unicode="&#x40c;" horiz-adv-x="1365" 
d="M330 1434v-1434h-331v1434h331zM594 783l681 -778v-5h-391l-509 595v356q126 98 175 238q19 42 46 83l-5 5v5l5 -5q130 158 419 158h230v-265h-230q-138 -6 -175 -144q-89 -158 -246 -243zM686 1577h-102l87 264h221z" />
    <glyph glyph-name="afii10062" unicode="&#x40e;" horiz-adv-x="1291" 
d="M-3 1435h359l212 -363l-181 -304zM403 696l432 739h359l-464 -794v-638h-326zM494 1741q0 -42 30 -71q16 -16 35 -23l18 -5q8 -1 17 -1q42 0 71.5 29t29.5 71h62q0 -35 -13 -64l-3 -8q-10 -20 -27 -38l-6 -7q-28 -27 -62 -38l-30 -7q-11 -1 -22 -1t-22 1l-26 6
q-37 11 -67 41q-26 26 -38 58l-7 40v17h60z" />
    <glyph glyph-name="afii10145" unicode="&#x40f;" horiz-adv-x="1471" 
d="M333 269h319v-269h-650v1436h331v-1167zM1033 1436h331v-1436h-650v269h319v1167zM852 -49v-264h-327v264h327z" />
    <glyph glyph-name="afii10017" unicode="&#x410;" horiz-adv-x="1392" 
d="M788 1434l507 -1434h-370l-96 305h-397l77 265h244v5l-148 528h-5l-310 -1103h-290v208l417 1226h371z" />
    <glyph glyph-name="afii10018" unicode="&#x411;" horiz-adv-x="1285" 
d="M326 0h-326v1111h326v-1111zM1069 1431v-264h-1068v264h1068zM1031 774q127 -124 148 -304q5 -20 5 -47q-8 -128 -25 -148q-10 -54 -71 -128q-72 -102 -260 -144l-145 -4l-297 1l-2 259l298 1q164 42 167 158v42q8 78 -65 131q-22 22 -102 29l-296 -1l-2 272h298
q202 -3 349 -117z" />
    <glyph glyph-name="afii10019" unicode="&#x412;" horiz-adv-x="1282" 
d="M326 0h-326v1437h326v-1437zM681 1437h4q346 0 437 -246q21 -49 21 -113v-25q1 -55 -26 -93q-32 -94 -106 -153l-46 -26l-24 -8q39 -21 64 -33q152 -91 173 -271q5 -20 5 -47q-8 -128 -25 -148q-10 -54 -71 -128q-72 -102 -260 -144l-86 -5h-5q-10 0 -55 1h-300v261h300
q164 42 167 158v42q8 78 -71 128q-16 25 -96 32l-299 1l1 270h298q18 4 50 4q91 39 91 143l-5 36l-10 25h-5q-40 58 -121 66l-302 -1l-1 275z" />
    <glyph glyph-name="afii10020" unicode="&#x413;" horiz-adv-x="1178" 
d="M326 0h-326v1111h326v-1111zM1069 1431v-264h-1068v264h1068z" />
    <glyph glyph-name="afii10021" unicode="&#x414;" horiz-adv-x="1407" 
d="M1029 -316l-1 315h-749l-1 -319h-277l-2 650h1303l-1 -647zM1141 385h-326v722h326v-722zM493 1101v-273q-49 -371 -303 -434q-68 -21 -184 -18v318q158 21 163 167v240h324zM1136 1434v-264h-974v264h974z" />
    <glyph glyph-name="afii10022" unicode="&#x415;" horiz-adv-x="1163" 
d="M326 0h-326v1437h326v-1437zM1054 1434v-264h-672v264h672zM1001 891v-264h-617v264h617zM1057 266v-264h-672v264h672z" />
    <glyph glyph-name="afii10024" unicode="&#x416;" horiz-adv-x="2305" 
d="M1289 1434l-2 -1434h-329v1434h331zM1553 783l681 -778v-5h-391l-509 595v356q126 98 175 238q19 42 46 83l-5 5v5l5 -5q130 158 419 158h230v-265h-230q-138 -6 -175 -144q-89 -158 -246 -243zM435 1026q-37 138 -175 144h-230v265h230q289 0 419 -158l5 5v-5l-5 -5
q27 -41 46 -83q49 -140 175 -238v-356l-509 -595h-391v5l681 778q-157 85 -246 243z" />
    <glyph glyph-name="afii10025" unicode="&#x417;" horiz-adv-x="1203" 
d="M764 425v41q8 78 -71 127q-16 25 -106 32l-116 1l-1 269l117 -1q28 4 60 4q91 39 91 142l-5 36l-15 25q-40 57 -121 65v1h-10l1 270h73v-2q294 -20 377 -242q21 -49 21 -112v-25q1 -55 -26 -92q-32 -94 -106 -152l-46 -26l-24 -8q39 -21 64 -33q152 -90 173 -269
q5 -19 5 -46q-8 -127 -25 -147q-10 -54 -71 -127q-72 -101 -260 -143l-70 -4h-85l2 255q174 22 174 161zM4 1172l-1 265l533 2l2 -267h-534zM348 308q87 -49 190 -41l1 -261q-247 -7 -379 99q-147 93 -157 324l285 27q8 -98 60 -144v-4z" />
    <glyph glyph-name="afii10026" unicode="&#x418;" horiz-adv-x="1279" 
d="M843 804l326 544v-1348h-326v804zM2 0l853 1433h310l-852 -1432zM326 630l-326 -544v1348h326v-804z" />
    <glyph glyph-name="afii10027" unicode="&#x419;" horiz-adv-x="1279" 
d="M843 804l326 544v-1348h-326v804zM2 0l853 1433h310l-852 -1432zM326 630l-326 -544v1348h326v-804zM483 1741q0 -42 30 -71q16 -16 35 -23l18 -5q8 -1 17 -1q42 0 71.5 29t29.5 71h62q0 -35 -13 -64l-3 -8q-10 -20 -27 -38l-6 -7q-28 -27 -62 -38l-30 -7q-11 -1 -22 -1
t-22 1l-26 6q-37 11 -67 41q-26 26 -38 58l-7 40v17h60z" />
    <glyph glyph-name="afii10028" unicode="&#x41a;" horiz-adv-x="1365" 
d="M330 1434v-1434h-331v1434h331zM594 783l681 -778v-5h-391l-509 595v356q126 98 175 238q19 42 46 83l-5 5v5l5 -5q130 158 419 158h230v-265h-230q-138 -6 -175 -144q-89 -158 -246 -243z" />
    <glyph glyph-name="afii10029" unicode="&#x41b;" horiz-adv-x="1331" 
d="M485 1101l1 -658q-49 -371 -303 -434q-68 -21 -184 -18v318q158 21 161 167l-2 625h327zM1221 0h-326v1120h326v-1120zM1224 1437v-264h-1068v264h1068z" />
    <glyph glyph-name="afii10030" unicode="&#x41c;" horiz-adv-x="1768" 
d="M326 0h-326v1348l326 -544v-804zM1334 804l326 544v-1348h-326v804zM874 621l484 813h310l-794 -1334v521zM798 99l-794 1334h310l484 -813v-521z" />
    <glyph glyph-name="afii10031" unicode="&#x41d;" horiz-adv-x="1392" 
d="M326 0h-326v1437h326v-1437zM1287 0h-326v1437h326v-1437zM901 888v-264h-520v264h520z" />
    <glyph glyph-name="afii10032" unicode="&#x41e;" horiz-adv-x="1468" 
d="M656 1173q-125 -15 -217 -132q-105 -134 -105 -324q0 -189 105 -323q92 -118 217 -133v-260q-265 10 -455 210q-201 210 -201 508t201 509q190 199 455 209v-264zM708 259q139 7 238 135q105 134 105 323q0 190 -105 324q-99 127 -238 134v263q269 -9 462 -210
q201 -211 201 -509t-201 -508q-193 -202 -462 -211v259z" />
    <glyph glyph-name="afii10033" unicode="&#x41f;" 
d="M1068 0h-326v1111h326v-1111zM1065 1431v-264h-1068v264h1068zM326 0h-326v1111h326v-1111z" />
    <glyph glyph-name="afii10034" unicode="&#x420;" horiz-adv-x="1212" 
d="M608 1441q289 0 419 -163q92 -140 92 -292v-20q0 -175 -97 -307q-130 -176 -516 -163h-128v270h261q153 56 153 210v26q-34 168 -184 174h-230v265h230zM326 0h-326v1437h326v-1437z" />
    <glyph glyph-name="afii10035" unicode="&#x421;" horiz-adv-x="1398" 
d="M656 1173q-125 -15 -217 -132q-105 -134 -105 -324q0 -189 105 -323q92 -118 217 -133v-260q-265 10 -455 210q-201 210 -201 508t201 509q190 199 455 209v-264zM946 1041q-99 127 -238 134v263q269 -9 462 -210q98 -103 148 -227l-284 -140q-25 100 -88 180zM1170 211
q-193 -202 -462 -211v259q139 7 238 135q49 63 75 138l276 -143q-48 -96 -127 -178z" />
    <glyph glyph-name="afii10036" unicode="&#x422;" horiz-adv-x="1166" 
d="M702 3h-326v1111h326v-1111zM1065 1431v-264h-1068v264h1068z" />
    <glyph glyph-name="afii10037" unicode="&#x423;" horiz-adv-x="1291" 
d="M-3 1435h359l212 -363l-181 -304zM403 696l432 739h359l-464 -794v-638h-326z" />
    <glyph glyph-name="afii10038" unicode="&#x424;" horiz-adv-x="1862" 
d="M1037 1656v-1897h-326v1897h326zM656 1173q-125 -15 -217 -132q-105 -134 -105 -324q0 -189 105 -323q92 -118 217 -133v-260q-265 10 -455 210q-201 210 -201 508t201 509q190 199 455 209v-264zM1096 262q139 7 238 135q105 134 105 323q0 190 -105 324
q-99 127 -238 134v263q269 -9 462 -210q201 -211 201 -509t-201 -508q-193 -202 -462 -211v259z" />
    <glyph glyph-name="afii10039" unicode="&#x425;" horiz-adv-x="1301" 
d="M1194 1435l-841 -1438h-359l841 1438h359zM1197 -3h-359l-215 365l177 313zM-3 1435h359l212 -363l-181 -304z" />
    <glyph glyph-name="afii10040" unicode="&#x426;" horiz-adv-x="1465" 
d="M333 270l319 -1v-270l-650 1l2 1436l329 -1v-1165zM1033 1435l332 1l-1 -1436l-650 -1v270l319 1v1165zM1362 -46v-264h-327v264h327z" />
    <glyph glyph-name="afii10041" unicode="&#x427;" horiz-adv-x="983" 
d="M877 0h-326v1437h326v-1437zM324 1433l-1 -353q3 -146 161 -167v-318q-116 -3 -184 18q-254 63 -303 434v386h327z" />
    <glyph glyph-name="afii10042" unicode="&#x428;" horiz-adv-x="1865" 
d="M333 270l319 -1v-270l-650 1l2 1436l329 -1v-1165zM1433 1435l332 1l-1 -1436l-650 -1v270l319 1v1165zM1051 0h-326v1437h326v-1437z" />
    <glyph glyph-name="afii10043" unicode="&#x429;" horiz-adv-x="1862" 
d="M333 270l319 -1v-270l-650 1l2 1436l329 -1v-1165zM1433 1435l332 1l-1 -1436l-650 -1v270l319 1v1165zM1051 0h-326v1437h326v-1437zM1762 -53v-264h-327v264h327z" />
    <glyph glyph-name="afii10044" unicode="&#x42a;" horiz-adv-x="2024" 
d="M1061 0h-326v1120h326v-1120zM1064 1437v-264h-1068v264h1068zM1774 774q127 -124 148 -304q5 -20 5 -47q-8 -128 -25 -148q-10 -54 -71 -128q-72 -102 -260 -144l-145 -4l-297 1l-2 259l298 1q164 42 167 158v42q8 78 -71 128q-16 25 -96 32l-296 -1l-2 272h298
q202 -3 349 -117z" />
    <glyph glyph-name="afii10045" unicode="&#x42b;" horiz-adv-x="1697" 
d="M1597 -6h-326v1437h326v-1437zM327 -3h-326v1437h326v-1437zM1043 774q127 -124 148 -304q5 -20 5 -47q-8 -128 -25 -148q-10 -54 -71 -128q-72 -102 -260 -144l-145 -4l-297 1l-2 259l298 1q164 42 167 158v42q8 78 -71 128q-16 25 -96 32l-296 -1l-2 272h298
q202 -3 349 -117z" />
    <glyph glyph-name="afii10046" unicode="&#x42c;" horiz-adv-x="1297" 
d="M326 0h-326v1437h326v-1437zM1042 774q127 -124 148 -304q5 -20 5 -47q-8 -128 -25 -148q-10 -54 -71 -128q-72 -102 -260 -144l-145 -4l-300 1l1 259l298 1q164 42 167 158v42q8 78 -71 128q-16 25 -96 32l-296 -1l1 272h295q202 -3 349 -117z" />
    <glyph glyph-name="afii10047" unicode="&#x42d;" horiz-adv-x="1203" 
d="M588 1437q288 0 419 -163q92 -140 92 -292v-511q0 -175 -97 -307q-157 -163 -464 -163h-88l-2 263h168q156 63 156 217v517q-34 168 -187 174h-135v265h138zM0 1437h388v-264h-388v264zM0 264h388v-264h-388v264zM95 890h610v-264h-610v264z" />
    <glyph glyph-name="afii10048" unicode="&#x42e;" horiz-adv-x="2235" 
d="M1425 1173q-125 -15 -217 -132q-105 -134 -105 -324q0 -189 105 -323q92 -118 217 -133v-260q-265 10 -455 210q-201 210 -201 508t201 509q190 199 455 209v-264zM1477 259q139 7 238 135q105 134 105 323q0 190 -105 324q-99 127 -238 134v263q269 -9 462 -210
q201 -211 201 -509t-201 -508q-193 -202 -462 -211v259zM326 0h-326v1437h326v-1437zM705 820v-264h-327v264h327z" />
    <glyph glyph-name="afii10049" unicode="&#x42f;" horiz-adv-x="1307" 
d="M881 1437h326v-1437h-326v1437zM185 689q-97 127 -97 295v19q0 147 92 281q130 157 419 157h230v-255h-230q-150 -6 -184 -167v-25q0 -148 153 -202h261v-260q-234 0 -294 -21q-64 -38 -82 -102q-42 -270 -51 -285q-44 -122 -61 -122l-341 2q44 69 61 95q16 71 26 96
l30 158l10 51q11 112 26 128q35 74 73 113q-23 20 -41 44z" />
    <glyph glyph-name="afii10065" unicode="&#x430;" horiz-adv-x="1386" 
d="M788 1434l507 -1434h-370l-96 305h-397l77 265h244v5l-148 528h-5l-310 -1103h-290v208l417 1226h371z" />
    <glyph glyph-name="afii10066" unicode="&#x431;" horiz-adv-x="1291" 
d="M326 -3h-326v1120h326v-1120zM1068 1437v-264h-1068v264h1068zM1039 771q127 -124 148 -304q5 -20 5 -47q-8 -128 -25 -148q-10 -54 -71 -128q-72 -102 -260 -144l-145 -4l-300 1l1 259l298 1q164 42 167 158v42q8 78 -71 128q-16 25 -96 32l-299 -1l1 272h298
q202 -3 349 -117z" />
    <glyph glyph-name="afii10067" unicode="&#x432;" horiz-adv-x="1282" 
d="M326 0h-326v1437h326v-1437zM681 1437h4q346 0 437 -246q21 -49 21 -113v-25q1 -55 -26 -93q-32 -94 -106 -153l-46 -26l-24 -8q39 -21 64 -33q152 -91 173 -271q5 -20 5 -47q-8 -128 -25 -148q-10 -54 -71 -128q-72 -102 -260 -144l-86 -5h-5q-10 0 -55 1h-300v261h300
q164 42 167 158v42q8 78 -71 128q-16 25 -96 32l-299 1l1 270h298q18 4 50 4q91 39 91 143l-5 36l-10 25h-5q-40 58 -121 66l-302 -1l-1 275z" />
    <glyph glyph-name="afii10068" unicode="&#x433;" horiz-adv-x="1169" 
d="M326 0h-326v1111h326v-1111zM1069 1431v-264h-1068v264h1068z" />
    <glyph glyph-name="afii10069" unicode="&#x434;" horiz-adv-x="1401" 
d="M1029 -316l-1 315h-749l-1 -319h-277l-2 650l1303 1l-1 -648zM1141 385h-326v722h326v-722zM493 1101v-273q-49 -371 -303 -434q-68 -21 -184 -18v318q158 21 161 167l2 240h324zM1136 1434v-264h-974v264h974z" />
    <glyph glyph-name="afii10070" unicode="&#x435;" horiz-adv-x="1157" 
d="M326 0h-326v1437h326v-1437zM1054 1434v-264h-672v264h672zM1001 891v-264h-617v264h617zM1057 266v-264h-672v264h672z" />
    <glyph glyph-name="afii10072" unicode="&#x436;" horiz-adv-x="2314" 
d="M1289 1434l-2 -1434h-329v1434h331zM1553 783l681 -778v-5h-391l-509 595v356q126 98 175 238q19 42 46 83l-5 5v5l5 -5q130 158 419 158h230v-265h-230q-138 -6 -175 -144q-89 -158 -246 -243zM435 1026q-37 138 -175 144h-230v265h230q289 0 419 -158l5 5v-5l-5 -5
q27 -41 46 -83q49 -140 175 -238v-356l-509 -595h-391v5l681 778q-157 85 -246 243z" />
    <glyph glyph-name="afii10073" unicode="&#x437;" horiz-adv-x="1203" 
d="M764 425v41q8 78 -71 127q-16 25 -106 32l-116 1l-1 269l117 -1q28 4 60 4q91 39 91 142l-5 36l-15 25q-40 57 -121 65v1h-10l1 270h73v-2q294 -20 377 -242q21 -49 21 -112v-25q1 -55 -26 -92q-32 -94 -106 -152l-46 -26l-24 -8q39 -21 64 -33q152 -90 173 -269
q5 -19 5 -46q-8 -127 -25 -147q-10 -54 -71 -127q-72 -101 -260 -143l-70 -4h-85l2 255q174 22 174 161zM4 1172l-1 265l533 2l2 -267h-534zM348 308q87 -49 190 -41l1 -261q-247 -7 -379 99q-147 93 -157 324l285 27q8 -98 60 -144v-4z" />
    <glyph glyph-name="afii10074" unicode="&#x438;" horiz-adv-x="1282" 
d="M843 804l326 544v-1348h-326v804zM2 0l853 1433h310l-852 -1432zM326 630l-326 -544v1348h326v-804z" />
    <glyph glyph-name="afii10075" unicode="&#x439;" horiz-adv-x="1282" 
d="M843 804l326 544v-1348h-326v804zM2 0l853 1433h310l-852 -1432zM326 630l-326 -544v1348h326v-804zM483 1739q0 -42 30 -71q16 -16 35 -23l18 -5q8 -1 17 -1q42 0 71.5 29t29.5 71h62q0 -35 -13 -64l-3 -8q-10 -20 -27 -38l-6 -7q-28 -27 -62 -38l-30 -7q-11 -1 -22 -1
t-22 1l-26 6q-37 11 -67 41q-26 26 -38 58l-7 40v17h60z" />
    <glyph glyph-name="afii10076" unicode="&#x43a;" horiz-adv-x="1365" 
d="M330 1434v-1434h-331v1434h331zM594 783l681 -778v-5h-391l-509 595v356q126 98 175 238q19 42 46 83l-5 5v5l5 -5q130 158 419 158h230v-265h-230q-138 -6 -175 -144q-89 -158 -246 -243z" />
    <glyph glyph-name="afii10077" unicode="&#x43b;" horiz-adv-x="1331" 
d="M485 1101l1 -658q-49 -371 -303 -434q-68 -21 -184 -18v318q158 21 161 167l-2 625h327zM1221 0h-326v1120h326v-1120zM1224 1437v-264h-1068v264h1068z" />
    <glyph glyph-name="afii10078" unicode="&#x43c;" horiz-adv-x="1768" 
d="M326 0h-326v1348l326 -544v-804zM1334 804l326 544v-1348h-326v804zM874 621l484 813h310l-794 -1334v521zM798 99l-794 1334h310l484 -813v-521z" />
    <glyph glyph-name="afii10079" unicode="&#x43d;" horiz-adv-x="1392" 
d="M326 0h-326v1437h326v-1437zM1287 0h-326v1437h326v-1437zM901 888v-264h-520v264h520z" />
    <glyph glyph-name="afii10080" unicode="&#x43e;" horiz-adv-x="1468" 
d="M656 1173q-125 -15 -217 -132q-105 -134 -105 -324q0 -189 105 -323q92 -118 217 -133v-260q-265 10 -455 210q-201 210 -201 508t201 509q190 199 455 209v-264zM708 259q139 7 238 135q105 134 105 323q0 190 -105 324q-99 127 -238 134v263q269 -9 462 -210
q201 -211 201 -509t-201 -508q-193 -202 -462 -211v259z" />
    <glyph glyph-name="afii10081" unicode="&#x43f;" 
d="M1068 0h-326v1111h326v-1111zM1065 1431v-264h-1068v264h1068zM326 0h-326v1111h326v-1111z" />
    <glyph glyph-name="afii10082" unicode="&#x440;" horiz-adv-x="1215" 
d="M608 1441q289 0 419 -163q92 -140 92 -292v-20q0 -175 -97 -307q-130 -176 -516 -163h-128v270h261q153 56 153 210v26q-34 168 -184 174h-230v265h230zM326 0h-326v1437h326v-1437z" />
    <glyph glyph-name="afii10083" unicode="&#x441;" horiz-adv-x="1404" 
d="M656 1173q-125 -15 -217 -132q-105 -134 -105 -324q0 -189 105 -323q92 -118 217 -133v-260q-265 10 -455 210q-201 210 -201 508t201 509q190 199 455 209v-264zM946 1041q-99 127 -238 134v263q269 -9 462 -210q98 -103 148 -227l-284 -140q-25 100 -88 180zM1170 211
q-193 -202 -462 -211v259q139 7 238 135q49 63 75 138l276 -143q-48 -96 -127 -178z" />
    <glyph glyph-name="afii10084" unicode="&#x442;" horiz-adv-x="1169" 
d="M702 3h-326v1111h326v-1111zM1065 1431v-264h-1068v264h1068z" />
    <glyph glyph-name="afii10085" unicode="&#x443;" horiz-adv-x="1288" 
d="M-3 1435h359l212 -363l-181 -304zM403 696l432 739h359l-464 -794v-638h-326z" />
    <glyph glyph-name="afii10086" unicode="&#x444;" horiz-adv-x="1859" 
d="M1037 1656v-1897h-326v1897h326zM656 1173q-125 -15 -217 -132q-105 -134 -105 -324q0 -189 105 -323q92 -118 217 -133v-260q-265 10 -455 210q-201 210 -201 508t201 509q190 199 455 209v-264zM1096 262q139 7 238 135q105 134 105 323q0 190 -105 324
q-99 127 -238 134v263q269 -9 462 -210q201 -211 201 -509t-201 -508q-193 -202 -462 -211v259z" />
    <glyph glyph-name="afii10087" unicode="&#x445;" horiz-adv-x="1301" 
d="M1194 1435l-841 -1438h-359l841 1438h359zM1197 -3h-359l-215 365l177 313zM-3 1435h359l212 -363l-181 -304z" />
    <glyph glyph-name="afii10088" unicode="&#x446;" horiz-adv-x="1465" 
d="M333 270l319 -1v-270l-650 1l2 1436l329 -1v-1165zM1033 1435l332 1l-1 -1436l-650 -1v270l319 1v1165zM1362 -46v-264h-327v264h327z" />
    <glyph glyph-name="afii10089" unicode="&#x447;" horiz-adv-x="977" 
d="M877 0h-326v1437h326v-1437zM324 1433l-1 -353q3 -146 161 -167v-318q-116 -3 -184 18q-254 63 -303 434v386h327z" />
    <glyph glyph-name="afii10090" unicode="&#x448;" horiz-adv-x="1868" 
d="M333 270l319 -1v-270l-650 1l2 1436l329 -1v-1165zM1433 1435l332 1l-1 -1436l-650 -1v270l319 1v1165zM1051 0h-326v1437h326v-1437z" />
    <glyph glyph-name="afii10091" unicode="&#x449;" horiz-adv-x="1862" 
d="M333 270l319 -1v-270l-650 1l2 1436l329 -1v-1165zM1433 1435l332 1l-1 -1436l-650 -1v270l319 1v1165zM1051 0h-326v1437h326v-1437zM1762 -53v-264h-327v264h327z" />
    <glyph glyph-name="afii10092" unicode="&#x44a;" horiz-adv-x="2015" 
d="M1061 0h-326v1120h326v-1120zM1064 1437v-264h-1068v264h1068zM1774 774q127 -124 148 -304q5 -20 5 -47q-8 -128 -25 -148q-10 -54 -71 -128q-72 -102 -260 -144l-145 -4l-297 1l-2 259l298 1q164 42 167 158v42q8 78 -71 128q-16 25 -96 32l-296 -1l-2 272h298
q202 -3 349 -117z" />
    <glyph glyph-name="afii10093" unicode="&#x44b;" horiz-adv-x="1691" 
d="M1597 -6h-326v1437h326v-1437zM327 -3h-326v1437h326v-1437zM1043 774q127 -124 148 -304q5 -20 5 -47q-8 -128 -25 -148q-10 -54 -71 -128q-72 -102 -260 -144l-145 -4l-297 1l-2 259l298 1q164 42 167 158v42q8 78 -71 128q-16 25 -96 32l-296 -1l-2 272h298
q202 -3 349 -117z" />
    <glyph glyph-name="afii10094" unicode="&#x44c;" horiz-adv-x="1291" 
d="M326 0h-326v1437h326v-1437zM1042 774q127 -124 148 -304q5 -20 5 -47q-8 -128 -25 -148q-10 -54 -71 -128q-72 -102 -260 -144l-145 -4l-300 1l1 259l298 1q164 42 167 158v42q8 78 -71 128q-16 25 -96 32l-296 -1l1 272h295q202 -3 349 -117z" />
    <glyph glyph-name="afii10095" unicode="&#x44d;" horiz-adv-x="1200" 
d="M588 1437q288 0 419 -163q92 -140 92 -292v-511q0 -175 -97 -307q-157 -163 -464 -163h-88l-2 263h168q156 63 156 217v517q-34 168 -187 174h-135v265h138zM0 1437h388v-264h-388v264zM0 264h388v-264h-388v264zM95 890h610v-264h-610v264z" />
    <glyph glyph-name="afii10096" unicode="&#x44e;" horiz-adv-x="2226" 
d="M1425 1173q-125 -15 -217 -132q-105 -134 -105 -324q0 -189 105 -323q92 -118 217 -133v-260q-265 10 -455 210q-201 210 -201 508t201 509q190 199 455 209v-264zM1477 259q139 7 238 135q105 134 105 323q0 190 -105 324q-99 127 -238 134v263q269 -9 462 -210
q201 -211 201 -509t-201 -508q-193 -202 -462 -211v259zM326 0h-326v1437h326v-1437zM705 820v-264h-327v264h327z" />
    <glyph glyph-name="afii10097" unicode="&#x44f;" horiz-adv-x="1307" 
d="M881 1437h326v-1437h-326v1437zM185 689q-97 127 -97 295v19q0 147 92 281q130 157 419 157h230v-255h-230q-150 -6 -184 -167v-25q0 -148 153 -202h261v-260q-234 0 -294 -21q-64 -38 -82 -102q-42 -270 -51 -285q-44 -122 -61 -122l-341 2q44 69 61 95q16 71 26 96
l30 158l10 51q11 112 26 128q35 74 73 113q-23 20 -41 44z" />
    <glyph glyph-name="afii10071" unicode="&#x451;" horiz-adv-x="1157" 
d="M326 0h-326v1437h326v-1437zM1054 1434v-264h-672v264h672zM1001 891v-264h-617v264h617zM1057 266v-264h-672v264h672zM281 1576v188h215v-188h-215zM561 1576v188h215v-188h-215z" />
    <glyph glyph-name="afii10099" unicode="&#x452;" horiz-adv-x="1655" 
d="M702 3h-326v1111h326v-1111zM1065 1431v-264h-1068v264h1068zM1399 780q127 -124 148 -304q5 -20 5 -47q-8 -128 -25 -148q-10 -54 -71 -128q-72 -102 -260 -144l-86 -5h-5q-10 0 -54 1l-1 261q164 42 167 158v42q8 78 -71 128q-16 25 -96 32l-299 -1l1 272h298
q202 -3 349 -117z" />
    <glyph glyph-name="afii10100" unicode="&#x453;" horiz-adv-x="1169" 
d="M326 0h-326v1111h326v-1111zM1069 1431v-264h-1068v264h1068zM584 1575h-102l87 264h221z" />
    <glyph glyph-name="afii10101" unicode="&#x454;" horiz-adv-x="1200" 
d="M649 1437v-265h-135q-153 -6 -187 -174v-517q0 -154 156 -217h168l-2 -263h-88q-307 0 -464 163q-97 132 -97 307v511q0 152 92 292q131 163 419 163h138zM1099 1173h-388v264h388v-264zM1099 0h-388v264h388v-264zM1004 626h-610v264h610v-264z" />
    <glyph glyph-name="afii10102" unicode="&#x455;" horiz-adv-x="1258" 
d="M368 325q92 -53 175 -63l29 -5l-2 -257q-261 -7 -400 107q-155 100 -166 348l301 29q8 -105 63 -155v-4zM476 612q-432 78 -432 401v19q0 337 436 397l90 2l2 -239q-98 -8 -136 -24q-79 -30 -77 -136q0 -99 251 -145q63 -11 103 -21q445 -74 445 -424v-20
q0 -359 -436 -423l-98 -3v253q104 11 142 28q79 32 77 145q0 106 -248 164q-56 17 -123 29zM619 1434q215 0 379 -121q96 -80 140 -296v-14l-164 -20l-136 -9q-19 118 -68 155q-40 34 -150 63z" />
    <glyph glyph-name="afii10103" unicode="&#x456;" horiz-adv-x="430" 
d="M326 0h-326v1437h326v-1437z" />
    <glyph glyph-name="afii10104" unicode="&#x457;" horiz-adv-x="427" 
d="M327 0h-326v1437h326v-1437zM-84 1578v188h215v-188h-215zM196 1578v188h215v-188h-215z" />
    <glyph glyph-name="afii10105" unicode="&#x458;" horiz-adv-x="589" 
d="M485 1431l1 -988q-49 -371 -303 -434q-68 -21 -184 -18v318q158 21 161 167l-2 955h327z" />
    <glyph glyph-name="afii10106" unicode="&#x459;" horiz-adv-x="2192" 
d="M485 1101l1 -658q-49 -371 -303 -434q-68 -21 -184 -18v318q158 21 161 167l-2 625h327zM1221 0h-326v1120h326v-1120zM1224 1437v-264h-1068v264h1068zM1934 774q127 -124 148 -304q5 -20 5 -47q-8 -128 -25 -148q-10 -54 -71 -128q-72 -102 -260 -144l-145 -4l-297 1
l-2 259l298 1q164 42 167 158v42q8 78 -71 128q-16 25 -96 32l-296 -1l-2 272h298q202 -3 349 -117z" />
    <glyph glyph-name="afii10107" unicode="&#x45a;" horiz-adv-x="2192" 
d="M326 0h-326v1437h326v-1437zM1218 0h-326v1437h326v-1437zM827 888v-264h-446v264h446zM1934 780q127 -124 148 -304q5 -20 5 -47q-8 -128 -25 -148q-10 -54 -71 -128q-72 -102 -260 -144l-86 -5h-5q-10 0 -54 1l-297 1l-2 259l298 1q164 42 167 158v42q8 78 -71 128
q-16 25 -96 32l-296 -1l-2 272h298q202 -3 349 -117z" />
    <glyph glyph-name="afii10108" unicode="&#x45b;" horiz-adv-x="1337" 
d="M702 0h-326v1111h326v-1111zM1065 1431v-264h-1068v264h1068zM904 0l1 353q-3 146 -161 167v318q116 3 184 -18q254 -63 303 -434v-386h-327z" />
    <glyph glyph-name="afii10109" unicode="&#x45c;" horiz-adv-x="1365" 
d="M330 1434v-1434h-331v1434h331zM594 783l681 -778v-5h-391l-509 595v356q126 98 175 238q19 42 46 83l-5 5v5l5 -5q130 158 419 158h230v-265h-230q-138 -6 -175 -144q-89 -158 -246 -243zM686 1575h-102l87 264h221z" />
    <glyph glyph-name="afii10110" unicode="&#x45e;" horiz-adv-x="1294" 
d="M-3 1435h359l212 -363l-181 -304zM403 696l432 739h359l-464 -794v-638h-326zM494 1739q0 -42 30 -71q16 -16 35 -23l18 -5q8 -1 17 -1q42 0 71.5 29t29.5 71h62q0 -35 -13 -64l-3 -8q-10 -20 -27 -38l-6 -7q-28 -27 -62 -38l-30 -7q-11 -1 -22 -1t-22 1l-26 6
q-37 11 -67 41q-26 26 -38 58l-7 40v17h60z" />
    <glyph glyph-name="afii10193" unicode="&#x45f;" horiz-adv-x="1471" 
d="M333 269h319v-269h-650v1436h331v-1167zM1033 1436h331v-1436h-650v269h319v1167zM852 -49v-264h-327v264h327z" />
    <glyph glyph-name="afii10050" unicode="&#x490;" 
d="M326 0h-326v1111h326v-1111zM1069 1431v-264h-1068v264h1068zM1069 1748v-264h-327v264h327z" />
    <glyph glyph-name="afii10098" unicode="&#x491;" 
d="M326 0h-326v1111h326v-1111zM1069 1431v-264h-1068v264h1068zM1069 1748v-264h-327v264h327z" />
    <glyph glyph-name="uni0492" unicode="&#x492;" horiz-adv-x="1529" 
d="M714 0h-326v1437h326v-1437zM1442 1434v-264h-672v264h672zM1389 891v-264h-617v264h617zM327 885v-264h-327v264h327z" />
    <glyph glyph-name="uni0493" unicode="&#x493;" horiz-adv-x="1529" 
d="M714 0h-326v1437h326v-1437zM1442 1434v-264h-672v264h672zM1389 891v-264h-617v264h617zM327 885v-264h-327v264h327z" />
    <glyph glyph-name="uni0496" unicode="&#x496;" horiz-adv-x="2326" 
d="M1992 1424v-6l-36 26h26zM251 1444h26l-36 -26v6zM1289 1434l-2 -1434h-329v1434h331zM1553 783l681 -778v-5h-391l-509 595v356q126 98 175 238q19 42 46 83l-5 5v5l5 -5q130 158 419 158h230v-265h-230q-138 -6 -175 -144q-89 -158 -246 -243zM435 1026
q-37 138 -175 144h-230v265h230q289 0 419 -158l5 5v-5l-5 -5q27 -41 46 -83q49 -140 175 -238v-356l-509 -595h-391v5l681 778q-157 85 -246 243zM2235 -35v-264h-327v264h327z" />
    <glyph glyph-name="uni0497" unicode="&#x497;" horiz-adv-x="2326" 
d="M1992 1424v-6l-36 26h26zM251 1444h26l-36 -26v6zM1289 1434l-2 -1434h-329v1434h331zM1553 783l681 -778v-5h-391l-509 595v356q126 98 175 238q19 42 46 83l-5 5v5l5 -5q130 158 419 158h230v-265h-230q-138 -6 -175 -144q-89 -158 -246 -243zM435 1026
q-37 138 -175 144h-230v265h230q289 0 419 -158l5 5v-5l-5 -5q27 -41 46 -83q49 -140 175 -238v-356l-509 -595h-391v5l681 778q-157 85 -246 243zM2235 -35v-264h-327v264h327z" />
    <glyph glyph-name="uni049A" unicode="&#x49a;" horiz-adv-x="1362" 
d="M330 1434l1 -1434h-332v1434h331zM594 783l681 -778v-5h-391l-509 595v356q126 98 175 238q19 42 46 83l-5 5v5l5 -5q130 158 419 158h230v-265h-230q-138 -6 -175 -144q-89 -158 -246 -243zM1276 -41v-264h-327v264h327z" />
    <glyph glyph-name="uni049B" unicode="&#x49b;" horiz-adv-x="1362" 
d="M330 1434l1 -1434h-332v1434h331zM594 783l681 -778v-5h-391l-509 595v356q126 98 175 238q19 42 46 83l-5 5v5l5 -5q130 158 419 158h230v-265h-230q-138 -6 -175 -144q-89 -158 -246 -243zM1276 -41v-264h-327v264h327z" />
    <glyph glyph-name="uni049C" unicode="&#x49c;" horiz-adv-x="1691" 
d="M330 1434l1 -1434h-332v1434h331zM648 382h-264v756h264v-756zM330 1434l1 -1434h-332v1434h331zM930 783l681 -778v-5h-391l-509 595v356q126 98 175 238q19 42 46 83l-5 5v5l5 -5q130 158 419 158h230v-265h-230q-138 -6 -175 -144q-89 -158 -246 -243z" />
    <glyph glyph-name="uni049D" unicode="&#x49d;" horiz-adv-x="1691" 
d="M330 1434l1 -1434h-332v1434h331zM648 382h-264v756h264v-756zM330 1434l1 -1434h-332v1434h331zM930 783l681 -778v-5h-391l-509 595v356q126 98 175 238q19 42 46 83l-5 5v5l5 -5q130 158 419 158h230v-265h-230q-138 -6 -175 -144q-89 -158 -246 -243z" />
    <glyph glyph-name="uni04A2" unicode="&#x4a2;" horiz-adv-x="1389" 
d="M326 0h-326v1437h326v-1437zM1287 0h-326v1437h326v-1437zM901 888v-264h-520v264h520zM1288 -38v-264h-327v264h327z" />
    <glyph glyph-name="uni04A3" unicode="&#x4a3;" horiz-adv-x="1389" 
d="M326 0h-326v1437h326v-1437zM1287 0h-326v1437h326v-1437zM901 888v-264h-520v264h520zM1288 -38v-264h-327v264h327z" />
    <glyph glyph-name="uni04AE" unicode="&#x4ae;" horiz-adv-x="1282" 
d="M-3 1435h359l212 -363l-181 -304zM403 696l432 739h359l-464 -794v-638h-326z" />
    <glyph glyph-name="uni04AF" unicode="&#x4af;" horiz-adv-x="1282" 
d="M-3 1435h359l212 -363l-181 -304zM403 696l432 739h359l-464 -794v-638h-326z" />
    <glyph glyph-name="uni04B0" unicode="&#x4b0;" horiz-adv-x="1279" 
d="M895 647v-264h-672v264h672zM-3 1435h359l212 -363l-181 -304zM403 696l432 739h359l-432 -739h-359zM730 336v-333h-326v333h326z" />
    <glyph glyph-name="uni04B1" unicode="&#x4b1;" horiz-adv-x="1279" 
d="M895 647v-264h-672v264h672zM-3 1435h359l212 -363l-181 -304zM403 696l432 739h359l-432 -739h-359zM730 336v-333h-326v333h326z" />
    <glyph glyph-name="uni04B2" unicode="&#x4b2;" horiz-adv-x="1307" 
d="M1194 1435l-841 -1438h-359l841 1438h359zM1197 -3h-359l-215 365l177 313zM-3 1435h359l212 -363l-181 -304zM1193 -48v-264h-327v264h327z" />
    <glyph glyph-name="uni04B3" unicode="&#x4b3;" horiz-adv-x="1307" 
d="M1194 1435l-841 -1438h-359l841 1438h359zM1197 -3h-359l-215 365l177 313zM-3 1435h359l212 -363l-181 -304zM1193 -48v-264h-327v264h327z" />
    <glyph glyph-name="uni04B8" unicode="&#x4b8;" horiz-adv-x="1325" 
d="M1222 0h-326v1437h326v-1437zM324 1433l-1 -353q3 -146 161 -167v-318q-116 -3 -184 18q-254 63 -303 434v386h327zM831 424h-264v669h264v-669z" />
    <glyph glyph-name="uni04B9" unicode="&#x4b9;" horiz-adv-x="1325" 
d="M1222 0h-326v1437h326v-1437zM324 1433l-1 -353q3 -146 161 -167v-318q-116 -3 -184 18q-254 63 -303 434v386h327zM831 424h-264v669h264v-669z" />
    <glyph glyph-name="uni04BA" unicode="&#x4ba;" horiz-adv-x="977" 
d="M-3 1437h326v-1437h-326v1437zM550 4l1 353q-3 146 -161 167v318q116 3 184 -18q254 -63 303 -434v-386h-327z" />
    <glyph glyph-name="uni04BB" unicode="&#x4bb;" horiz-adv-x="977" 
d="M-3 1437h326v-1437h-326v1437zM550 4l1 353q-3 146 -161 167v318q116 3 184 -18q254 -63 303 -434v-386h-327z" />
    <glyph glyph-name="uni04D8" unicode="&#x4d8;" horiz-adv-x="1426" 
d="M670 1436q265 -10 455 -209q201 -211 201 -509t-201 -508q-190 -200 -455 -210v260q125 15 217 133q105 134 105 323q0 190 -105 324q-92 117 -217 132v264zM307 890l-284 140q35 94 133 197q193 201 462 210v-263q-139 -7 -238 -134q-48 -50 -73 -150zM-5 509h310
q13 -63 66 -122q108 -122 247 -129v-259q-269 9 -471 205q-113 100 -152 305zM928 815v-264h-928v264h928z" />
    <glyph glyph-name="afii10846" unicode="&#x4d9;" horiz-adv-x="1426" 
d="M670 1436q265 -10 455 -209q201 -211 201 -509t-201 -508q-190 -200 -455 -210v260q125 15 217 133q105 134 105 323q0 190 -105 324q-92 117 -217 132v264zM307 890l-284 140q35 94 133 197q193 201 462 210v-263q-139 -7 -238 -134q-48 -50 -73 -150zM-5 509h310
q13 -63 66 -122q108 -122 247 -129v-259q-269 9 -471 205q-113 100 -152 305zM928 815v-264h-928v264h928z" />
    <glyph glyph-name="uni04E8" unicode="&#x4e8;" horiz-adv-x="1468" 
d="M348 585q25 -106 91 -191q92 -118 217 -133v-260q-265 10 -455 210q-201 210 -201 508t201 509q190 199 455 209v-264q-125 -15 -217 -132q-66 -85 -91 -192h689q-25 107 -91 192q-99 127 -238 134v263q269 -9 462 -210q201 -211 201 -509t-201 -508q-193 -202 -462 -211
v259q139 7 238 135q66 85 91 191h-689z" />
    <glyph glyph-name="uni04E9" unicode="&#x4e9;" horiz-adv-x="1468" 
d="M348 585q25 -106 91 -191q92 -118 217 -133v-260q-265 10 -455 210q-201 210 -201 508t201 509q190 199 455 209v-264q-125 -15 -217 -132q-66 -85 -91 -192h689q-25 107 -91 192q-99 127 -238 134v263q269 -9 462 -210q201 -211 201 -509t-201 -508q-193 -202 -462 -211
v259q139 7 238 135q66 85 91 191h-689z" />
    <glyph glyph-name="quoteleft" unicode="&#x2018;" horiz-adv-x="424" 
d="M326 1438v-617h-326v617h326z" />
    <glyph glyph-name="quoteright" unicode="&#x2019;" horiz-adv-x="424" 
d="M326 1438v-617h-326v617h326z" />
    <glyph glyph-name="quotesinglbase" unicode="&#x201a;" horiz-adv-x="424" 
d="M326 284v-617h-326v617h326z" />
    <glyph glyph-name="quotedblleft" unicode="&#x201c;" horiz-adv-x="809" 
d="M326 1438v-617h-326v617h326zM707 1438v-617h-326v617h326z" />
    <glyph glyph-name="quotedblright" unicode="&#x201d;" horiz-adv-x="809" 
d="M326 1438v-617h-326v617h326zM707 1438v-617h-326v617h326z" />
    <glyph glyph-name="quotedblbase" unicode="&#x201e;" horiz-adv-x="812" 
d="M326 281v-617h-326v617h326zM707 281v-617h-326v617h326z" />
    <glyph glyph-name="ellipsis" unicode="&#x2026;" horiz-adv-x="1212" 
d="M326 264v-264h-326v264h326zM716 264v-264h-326v264h326zM1106 264v-264h-326v264h326z" />
    <glyph glyph-name="perthousand" unicode="&#x2030;" horiz-adv-x="2079" 
d="M563 -44h-310l541 1484h310zM1131 741q135 -5 198 -81l2 2v-2l-2 -3q47 -72 47 -150v-267q0 -90 -76 -168q-44 -62 -169 -71v140q77 27 77 105v269q-16 76 -77 85v141zM1095 601q-61 -10 -77 -85v-270q0 -78 77 -104v-141q-125 10 -176 66q-69 84 -69 174v266
q0 79 47 151l-2 2v3l2 -3q63 77 198 81v-140zM279 1437q135 -5 198 -81l2 2v-2l-2 -3q47 -72 47 -150v-267q0 -90 -76 -168q-44 -62 -169 -71v140q77 27 77 105v269q-16 76 -77 85v141zM243 1297q-61 -10 -77 -85v-270q0 -78 77 -104v-141q-125 10 -176 66q-69 84 -69 174
v266q0 79 47 151l-2 2v3l2 -3q63 77 198 81v-140zM1723 741q135 -5 198 -81l2 2v-2l-2 -3q47 -72 47 -150v-267q0 -90 -76 -168q-44 -62 -169 -71v140q77 27 77 105v269q-16 76 -77 85v141zM1687 601q-61 -10 -77 -85v-270q0 -78 77 -104v-141q-125 10 -176 66
q-69 84 -69 174v266q0 79 47 151l-2 2v3l2 -3q63 77 198 81v-140z" />
    <glyph glyph-name="guilsinglleft" unicode="&#x2039;" horiz-adv-x="1099" 
d="M0 732v78l1062 387v-229l-646 -236h-416zM407 687l653 -238v-229l-1061 386v81h408z" />
    <glyph glyph-name="guilsinglright" unicode="&#x203a;" horiz-adv-x="1166" 
d="M645 732l-646 236v229l1062 -387v-78h-416zM1062 687v-81l-1061 -386v229l653 238h408z" />
    <glyph glyph-name="fraction" unicode="&#x2044;" horiz-adv-x="898" 
d="M302 0h-310l541 1437h310z" />
    <glyph glyph-name="fraction" unicode="&#x2215;" horiz-adv-x="898" 
d="M302 0h-310l541 1437h310z" />
    <glyph glyph-name="Euro" unicode="&#x20ac;" horiz-adv-x="1203" 
d="M649 1437v-265h-135q-153 -6 -187 -174v-517q0 -154 156 -217h168l-2 -263h-88q-307 0 -464 163q-97 132 -97 307v511q0 152 92 292q131 163 419 163h138zM1099 1173h-388v264h388v-264zM1099 0h-388v264h388v-264zM1004 626h-610v264h610v-264z" />
    <glyph glyph-name="trademark" unicode="&#x2122;" horiz-adv-x="1334" 
d="M313.908 866.2h-146.703v444.427h146.703v-444.427zM477.263 1437.43v-105.606h-480.612v105.606h480.612zM654.704 863h-146.704v539.232l146.704 -217.613v-321.619zM1108.32 1184.62l146.704 217.613v-539.232h-146.704v321.619zM901.311 1111.42l217.806 325.22
h139.504l-357.31 -533.633v208.413zM867.109 902.603l-357.31 533.633h139.504l217.806 -325.22v-208.413z" />
    <glyph glyph-name="minus" unicode="&#x2212;" horiz-adv-x="778" 
d="M672 885v-264h-672v264h672z" />
    <glyph glyph-name="lessequal" unicode="&#x2264;" horiz-adv-x="1169" 
d="M0 802v78l1062 387v-229l-646 -236h-416zM407 757l653 -238v-229l-1061 386v81h408zM1069 261v-264h-1069v264h1069z" />
    <glyph glyph-name="greaterequal" unicode="&#x2265;" horiz-adv-x="1163" 
d="M643 802l-646 236v229l1062 -387v-78h-416zM1060 757v-81l-1061 -386v229l653 238h408zM1068 261v-264h-1069v264h1069z" />
  </font>
</defs>
</svg>
