<?xml version="1.0" standalone="no"?>
<!DOCTYPE svg PUBLIC "-//W3C//DTD SVG 1.1//EN" "http://www.w3.org/Graphics/SVG/1.1/DTD/svg11.dtd" >
<svg xmlns="http://www.w3.org/2000/svg" xmlns:xlink="http://www.w3.org/1999/xlink" version="1.1">
<metadata>
Created by FontForge 20201107 at Thu Feb 22 20:29:02 2018
 By 
Copyright (c) 2018 by Vladimir Nikolic. All rights reserved.
</metadata>
<defs>
<font id="Failed3dFilled-Italic" horiz-adv-x="537" >
  <font-face 
    font-family="Failed 3d Filled"
    font-weight="400"
    font-style="italic"
    font-stretch="normal"
    units-per-em="1000"
    panose-1="0 0 0 0 0 0 0 0 0 0"
    ascent="750"
    descent="-250"
    x-height="581"
    cap-height="724"
    bbox="-106 -230 972 727"
    underline-thickness="50"
    underline-position="-100"
    unicode-range="U+000D-007A"
  />
<missing-glyph horiz-adv-x="357" 
 />
    <glyph glyph-name=".notdef" horiz-adv-x="357" 
 />
    <glyph glyph-name=".null" horiz-adv-x="0" 
 />
    <glyph glyph-name="nonmarkingreturn" unicode="&#xd;" horiz-adv-x="357" 
 />
    <glyph glyph-name="NULL" horiz-adv-x="0" 
 />
    <glyph glyph-name="NULL" horiz-adv-x="0" 
 />
    <glyph glyph-name="space" unicode=" " horiz-adv-x="357" 
 />
    <glyph glyph-name="exclam" unicode="!" horiz-adv-x="228" 
d="M322 606l14 -17l-111 -631h-205l-14 17h-6l105 595l219 43zM293 582l-167 -33l-72 -409h161zM211 118h-161l-20 -118h161l20 118v0zM170 25h-111l12 68h111zM195 165h-111l64 364l115 23z" />
    <glyph glyph-name="comma" unicode="," horiz-adv-x="222" 
d="M244 172l-1 -6l14 -17l-31 -176l-79 -76h-86l-14 17h-6l8 45h-31l-14 17h-5l34 196h211zM53 147l-25 -146h54l-11 -62h54l64 62l25 146h-161zM185 122l-20 -113l-48 -45h-17l11 62h-54l17 96h111z" />
    <glyph glyph-name="hyphen" unicode="-" horiz-adv-x="311" 
d="M359 331l-1 -6l14 -17l-31 -172h-286l-14 17h-6l32 178h292zM87 306l-22 -128h242l22 128h-242zM87 306l-22 -128h242l22 128h-242z" />
    <glyph glyph-name="period" unicode="." horiz-adv-x="228" 
d="M245 168l-1 -6l14 -17l-33 -187h-205l-14 17h-6l34 193h211zM55 143l-25 -143h161l25 143h-161zM55 143l-25 -143h161l25 143h-161z" />
    <glyph glyph-name="zero" unicode="0" 
d="M386 354q-24 -5 -46.5 -9.5t-49.5 -9.5l-30 -170h93zM56 -2q-22 16 -32 41t-5 55l56 317q8 42 42 74t81 42l278 54q47 8 83.5 -9.5t50.5 -51.5q27 -32 20 -75l-65 -371q-5 -24 -19 -45t-34 -37t-45 -25t-52 -9h-268q-57 0 -89 38zM373 140h-160l41 234l166 32zM591 465
q4 22 -3.5 41t-23.5 32t-38.5 18t-48.5 0l-278 -54q-38 -8 -65.5 -33t-33.5 -58l-56 -317q-3 -20 2.5 -37t17.5 -29.5t30.5 -20t40.5 -7.5h268q22 0 43 7.5t37.5 20t28 29.5t14.5 37zM501 94q-5 -29 -32.5 -49t-61.5 -20h-268q-34 0 -54.5 20t-15.5 49l56 317
q5 24 25.5 42.5t49.5 24.5v-1l277 54q20 3 37.5 -0.5t30 -13t18.5 -23t3 -29.5zM451 437l-218 -42l-49 -280h210z" />
    <glyph glyph-name="one" unicode="1" horiz-adv-x="271" 
d="M71 365l-6 -1l34 197l107 20q45 6 82.5 -12t51.5 -51h1q12 -15 17.5 -33.5t1.5 -39.5l-86 -487h-205l-14 17h-6l67 379l-31 -6zM321 465q4 22 -3.5 41t-23.5 32t-38.5 18t-48.5 0l-86 -17l-26 -144l55 11l-71 -406h161zM219 25h-111l72 411l-54 -10l16 91l65 14
q20 4 37.5 0t30 -13t18.5 -23t3 -30z" />
    <glyph glyph-name="two" unicode="2" horiz-adv-x="549" 
d="M568 159l14 -17l-33 -184h-526l-14 17h-6l44 249q8 40 38 70h-3l-14 17q-2 -1 -6 -1l35 196l384 75q47 8 83.5 -9.5t50.5 -51.5q27 -32 20 -75l-25 -139q-7 -41 -41 -72.5t-79 -40.5l-146 -28h225zM539 140h-322l8 47l248 48q38 8 65.5 33t33.5 58l24 139q4 22 -3.5 41
t-23.5 32t-38.5 18t-48.5 0l-364 -71l-13 -74l-12 -70l332 65l-7 -43l-247 -48q-38 -8 -65.5 -33t-33.5 -58l-39 -224h482zM494 25h-432l35 199q5 24 25.5 42.5t49.5 24.5v-1l267 52l17 95l-333 -65l16 91q89 17 172 34t171 34q20 3 37.5 -0.5t30 -13t18.5 -23t3 -29.5
l-24 -139q-5 -24 -25.5 -42.5t-49.5 -24.5v1l-268 -52l-16 -93h322z" />
    <glyph glyph-name="three" unicode="3" horiz-adv-x="538" 
d="M62 311q-2 -1 -6 -1l35 196l384 75q47 8 83.5 -9.5t50.5 -51.5q27 -32 20 -75l-16 -93q-5 -24 -22.5 -48t-39.5 -41q2 -4 4 -7t4 -7q14 -16 20 -37t1 -45l-16 -93q-5 -24 -19 -45t-34 -37t-45 -25t-52 -9h-397l-14 17h-5l33 190h160l26 149l167 35l1 5l-309 -60zM541 187
l1 3q6 33 -13 58.5t-54 32.5q19 4 35.5 12.5t30 20.5t22 27t11.5 31l16 93q4 22 -3.5 41t-23.5 32t-38.5 18t-48.5 0l-364 -71l-25 -144l332 65l-14 -79v-1l-167 -33l-19 -110l166 32l-13 -75h-321l-24 -140h375q22 0 43 7.5t37.5 20t28 29.5t14.5 37zM500 94
q-5 -29 -32.5 -49t-61.5 -20h-350l16 90h321l23 131q-35 -6 -80.5 -15t-86.5 -17l11 59l166 33l24 131l-333 -65l16 91q89 17 172 34t171 34q20 3 37.5 -0.5t30 -13t18.5 -23t3 -29.5l-16 -93q-4 -23 -27.5 -42.5t-56.5 -26.5l-8 -45q31 -6 48 -25t12 -43z" />
    <glyph glyph-name="four" unicode="4" horiz-adv-x="542" 
d="M642 606l14 -17l-111 -631h-205l-14 17h-6l30 170h-169q-29 0 -51.5 10t-37.5 28l-2 2q-22 16 -32 41t-5 55l40 225l217 43l-1 -7l14 -17l-30 -173h94l38 220l219 41zM613 582l-167 -32l-39 -223h-161l34 191l-166 -33l-36 -204q-3 -20 2 -37t17.5 -29.5t30.5 -20
t40 -7.5h214l-32 -187h161zM490 25h-111l33 187h-239q-34 0 -54.5 20t-15.5 49l32 184l115 23l-33 -186h211l40 226l115 23z" />
    <glyph glyph-name="five" unicode="5" horiz-adv-x="552" 
d="M383 352h89q38 0 65.5 -17.5t38.5 -45.5q27 -32 20 -75l-24 -140q-5 -24 -19 -45t-34 -37t-45 -25t-52 -9h-397l-14 17h-6l94 531l551 107l-2 -7l14 -17l-33 -189zM558 234q3 19 -2.5 36t-17.5 29.5t-30.5 20t-40.5 7.5h-215l8 47l334 64l25 144l-499 -97l-53 -298h321
l-8 -47h-321l-24 -140h375q22 0 43 7.5t37.5 20t28 29.5t14.5 37zM508 94q-5 -29 -32.5 -49t-61.5 -20h-350l16 90h321l17 97h-321l44 252l448 87l-17 -92l-333 -64l-16 -93h240q34 0 54.5 -20t15.5 -48z" />
    <glyph glyph-name="six" unicode="6" horiz-adv-x="544" 
d="M380 352h88q37 0 64.5 -16.5t39.5 -44.5h1q27 -33 19 -78l-25 -140q-4 -24 -18 -44.5t-34 -36.5t-45 -25t-52 -9h-268q-28 0 -50 10t-37 27q-24 16 -35 41.5t-6 56.5l56 318q4 21 15 40t27.5 34.5t37 26t43.5 15.5l445 86l-2 -7l14 -17l-33 -189zM377 140h-161l8 47h161z
M554 233q3 19 -2.5 36.5t-17.5 30t-30.5 20t-40.5 7.5h-214l8 47l333 64l25 144l-413 -80q-38 -8 -65.5 -33.5t-33.5 -57.5l-56 -318q-3 -19 2.5 -36t17.5 -29.5t30.5 -20t40.5 -7.5h268q22 0 43 7.5t37.5 20t28 29.5t14.5 36zM504 93q-5 -28 -32.5 -48t-61.5 -20h-268
q-34 0 -54.5 20t-15.5 48l56 318q4 23 25 42t50 25v-1q97 18 191 37t191 37l-17 -92l-332 -64l-16 -93h239q34 0 54.5 -20t15.5 -49zM415 212h-211l-17 -97h211z" />
    <glyph glyph-name="seven" unicode="7" horiz-adv-x="538" 
d="M65 311l-6 -1l35 196l384 75q45 8 80.5 -9t51.5 -50l1 -1q14 -16 19.5 -36.5t0.5 -43.5l-238 -483h-212l-14 17h-7l180 369l-261 -50zM593 465q4 22 -3.5 41t-23.5 32t-38.5 18t-48.5 0l-364 -71l-25 -144l305 60l-196 -401h166zM350 25h-112l200 408l-318 -62l16 92
q89 17 172 34t171 34q19 3 36.5 0t30 -11.5t19 -21.5t4.5 -28z" />
    <glyph glyph-name="eight" unicode="8" horiz-adv-x="539" 
d="M353 180l-73 -15h71zM285 328l98 19l1 7q-24 -5 -47 -9.5t-50 -9.5zM54 -2q-22 16 -32 41t-5 55l8 46q5 29 24 53t45 41q-21 16 -31 40t-5 53l15 84q8 42 42 74t81 42l278 54q47 8 83.5 -9.5t50.5 -51.5q27 -32 20 -75l-16 -92q-5 -25 -22.5 -49.5t-39.5 -40.5
q2 -4 4 -7.5t4 -7.5q14 -16 20 -36t2 -41l-17 -97q-5 -24 -19 -45t-34 -37t-45 -25t-52 -9h-268q-57 0 -89 38zM404 326l-167 -33l14 81l167 32l-14 -79v-1zM371 140h-161l11 60l166 32zM540 187l1 4q6 32 -13 57.5t-54 33.5q38 7 66 32.5t33 58.5l16 92q4 22 -3.5 41
t-23.5 32t-38.5 18t-48.5 0l-278 -54q-38 -8 -65.5 -33t-33.5 -58l-15 -84q-3 -19 2.5 -36t17.5 -29.5t30.5 -20t40.5 -7.5q-22 0 -43 -7.5t-38 -20t-28.5 -30t-14.5 -36.5l-8 -46q-3 -20 2.5 -37t17.5 -29.5t30.5 -20t40.5 -7.5h268q22 0 43 7.5t37.5 20t28 29.5t14.5 37z
M499 94q-5 -29 -32.5 -49t-61.5 -20h-268q-34 0 -54.5 20t-15.5 49l8 46q5 29 32.5 49t61.5 20l9 50q-34 0 -54.5 20t-15.5 48l15 84q5 24 25.5 42.5t49.5 24.5v-1l277 54q20 3 37.5 -0.5t30 -13t18.5 -23t3 -29.5l-16 -92q-4 -24 -27.5 -43t-56.5 -25l-8 -45
q31 -7 48 -26.5t12 -42.5zM418 263l-219 -42l-18 -106h211zM429 327l20 110l-219 -42l-23 -132l198 39z" />
    <glyph glyph-name="nine" unicode="9" horiz-adv-x="545" 
d="M390 354q-24 -5 -46.5 -9.5t-49.5 -9.5l-4 -20l96 19zM8 -25h-6l34 190h61l-5 6q-23 17 -34.5 41.5t-4.5 53.5l26 145q7 40 41.5 73t81.5 43l278 54q47 8 83.5 -9.5t50.5 -51.5q27 -32 20 -75l-65 -371q-5 -24 -19 -45t-34 -37t-45 -25t-52 -9h-397zM408 313l-166 -33
l16 94l166 32zM595 465q4 22 -3.5 41t-23.5 32t-38.5 18t-48.5 0l-278 -54q-38 -8 -65.5 -33.5t-33.5 -57.5l-26 -145q-5 -20 2.5 -38.5t22 -31.5t35 -19t43.5 -2l210 41l-14 -76h-321l-24 -140h375q22 0 43 7.5t37.5 20t28 29.5t14.5 37zM505 94q-5 -29 -32.5 -49
t-61.5 -20h-350l16 90h321l23 132q-25 -5 -56 -11t-63 -12.5t-63.5 -12.5t-57.5 -11q-17 -3 -32.5 1.5t-27 13.5t-16.5 22t-2 28l26 146q4 23 25 42t50 25v-1l277 54q20 3 37.5 -0.5t30 -13t18.5 -23t3 -29.5zM455 437l-218 -42l-25 -145l217 43z" />
    <glyph glyph-name="colon" unicode=":" horiz-adv-x="220" 
d="M99 402h155l26 146h-155zM28 0h155l25 146h-155zM33 171h205l-1 -6l14 -17l-34 -190h-199l-14 17h-5zM105 573h205l-2 -6l14 -17l-33 -190h-199l-14 17h-6zM74 121h105l-17 -96h-105zM146 523h105l-17 -96h-105z" />
    <glyph glyph-name="semicolon" unicode=";" horiz-adv-x="223" 
d="M244 172l-1 -6l14 -17l-31 -176l-79 -76h-86l-14 17h-6l8 45h-31l-14 17h-5l34 196h211zM53 147l-25 -146h54l-11 -62h54l64 62l25 146h-161zM185 122l-20 -113l-48 -45h-17l11 62h-54l17 96h111zM101 411h155l26 146h-155zM106 582h205l-1 -6l14 -17l-33 -190h-199
l-14 17h-6zM147 532h105l-17 -96h-105z" />
    <glyph glyph-name="question" unicode="?" horiz-adv-x="545" 
d="M65 311l-6 -1l35 196l384 74q13 3 30 3q37 0 64.5 -17t39.5 -45q27 -32 20 -77l-33 -185q-7 -40 -41 -71.5t-80 -41.5l-89 -17l-30 -171h-205l-14 17h-6l38 216q4 23 16 44.5t30 39t41 30t49 17.5l78 16l3 15l-310 -59zM345 118h-161l-20 -118h161zM593 464q4 22 -3.5 41
t-23.5 32t-39 18t-49 0l-363 -70l-25 -144l333 64l-16 -89l-97 -19q-45 -9 -75.5 -39t-37.5 -67l-9 -51h161l5 27l108 21q38 7 65.5 32.5t33.5 58.5zM536 279q-5 -24 -25.5 -43t-49.5 -24l-129 -25l-3 -22h-111l4 26q5 29 29.5 51.5t59.5 30.5l-1 -1l119 23l24 141
q-38 -7 -79.5 -15.5t-85 -17t-86.5 -17t-82 -15.5l16 92l343 67q20 4 37.5 0.5t30 -13t18.5 -23.5t3 -30zM304 25h-111l12 68h111z" />
    <glyph glyph-name="A" unicode="A" 
d="M380 336l3 18l-94 -18h91zM59 311l-6 -1l35 196l386 75q46 8 81.5 -9t50.5 -49l1 -1q27 -31 19 -78l-86 -486h-397q-28 0 -50 10t-37 27q-24 16 -35 41.5t-6 56.5l22 125q8 45 47 78l-11 -2zM370 140h-161l8 47h161zM587 464q4 22 -3 41t-23 32t-38 18t-48 1q-1 -1 -3 -1
l-363 -70l-25 -144l333 65l-17 -95h-215q-22 0 -43 -7.5t-37.5 -20t-28 -29.5t-14.5 -36l-22 -125q-3 -19 2.5 -36t17.5 -29.5t30.5 -20t40.5 -7.5h375zM485 25h-350q-34 0 -54.5 20t-15.5 48l22 125q5 28 32.5 48t61.5 20h240l27 151l-334 -65l16 91q89 17 172 33.5
t171 33.5q20 3 37.5 -0.5t30 -13t18.5 -23t3 -29.5zM408 212h-211l-17 -97h211z" />
    <glyph glyph-name="B" unicode="B" horiz-adv-x="532" 
d="M386 353q-24 -5 -47.5 -9.5t-50.5 -9.5l-29 -169h94zM327 551q1 0 2 0.5t3 0.5q35 7 72 14.5t72 13.5q44 6 82 -12.5t52 -51.5q27 -32 20 -72l-66 -371q-4 -24 -18 -45t-34 -36.5t-45 -24.5t-52 -9h-397l-14 17h-5l131 750h210l-1 -6l14 -17zM373 140h-161l41 233l167 32
zM591 464q4 22 -3.5 41t-23.5 32t-39 18t-49 0l-197 -38l32 183h-160l-123 -700h375q22 0 43 7t37.5 20t28 29.5t14.5 36.5zM501 93q-5 -29 -32.5 -48.5t-61.5 -19.5h-350l115 650h110l-34 -189l229 44q20 4 37.5 0.5t30 -13t18.5 -23.5t3 -30zM450 436l-218 -42l-49 -279
h211z" />
    <glyph glyph-name="C" unicode="C" 
d="M256 164h94l9 46h211l-2 -6l14 -17l-20 -115q-4 -24 -18 -44.5t-34 -36.5t-45.5 -25t-52.5 -9h-267q-29 0 -52.5 10.5t-38.5 28.5q-23 16 -33 41t-5 55l56 318q7 41 41.5 74t82.5 42l277 53q45 6 82.5 -12.5t52.5 -51.5q12 -14 18 -32.5t2 -39.5l-25 -139h-205l-14 17h-6
l6 32l-98 -19zM532 139l8 46h-161l-8 -46h-107h-54l25 140l16 93l167 33l-10 -59h161l20 117q4 22 -3.5 41t-23.5 32t-39 18t-50 0l-276 -53q-38 -8 -66.5 -33.5t-33.5 -57.5l-23 -131l-25 -140l-8 -47q-3 -19 2 -36t17.5 -29.5t30.5 -20t41 -7.5h267q22 0 43.5 7.5t38.5 20
t28.5 29.5t14.5 36zM499 92q-5 -28 -32.5 -48t-62.5 -20h-267q-35 0 -55.5 20t-15.5 48l56 318q4 23 25.5 42t50.5 25l-1 -1l277 53q21 4 38.5 0.5t30 -13t18.5 -23.5t3 -30l-16 -92h-111l11 64l-218 -43l-49 -278h211l8 46h111z" />
    <glyph glyph-name="D" unicode="D" horiz-adv-x="538" 
d="M384 353q-24 -5 -47.5 -9.5t-50.5 -9.5l-29 -169h94zM658 719l14 -17l-131 -744h-397q-28 0 -50 10t-37 27q-24 16 -35.5 41t-5.5 57l56 317q8 43 42.5 75t80.5 41l227 44l27 155h210zM371 140h-161l41 233l167 32zM630 700h-160l-27 -151l-247 -48q-38 -8 -65.5 -33
t-33.5 -58l-56 -317q-3 -20 2.5 -36.5t17.5 -29.5t30.5 -20t40.5 -7h375zM486 25h-350q-34 0 -54.5 19.5t-15.5 48.5l56 317q4 24 25 42.5t50 24.5l-1 -1l269 52l26 147h110zM448 436l-218 -42l-49 -279h211z" />
    <glyph glyph-name="E" unicode="E" horiz-adv-x="543" 
d="M408 334h-161l7 40l167 32zM592 465q4 22 -3.5 41t-23.5 32t-38.5 18t-48.5 0l-278 -54q-38 -8 -65.5 -33.5t-33.5 -57.5l-56 -317q-3 -20 2.5 -37t17.5 -29.5t30.5 -20t40.5 -7.5h268q22 0 43 7.5t37.5 20t28 29.5t14.5 37l15 84h-161l-7 -38h-161l15 85h322zM57 -2
q-22 16 -32 41t-5 55l56 317q7 40 41.5 73t81.5 43l278 54q47 8 83.5 -9.5t50.5 -51.5q27 -32 20 -75l-46 -262h-3l2 -3l-18 -106q-5 -24 -19 -45t-34 -37t-45 -25t-52 -9h-268q-57 0 -89 38zM260 165h94l3 18h-94zM208 250l-24 -135h211l6 38h111l-10 -59q-5 -29 -32.5 -49
t-61.5 -20h-268q-34 0 -54.5 20t-15.5 49l56 317q4 23 25 42t50 25v-1l277 54q20 3 37.5 -0.5t30 -13t18.5 -23t3 -29.5l-37 -215h-322zM233 395l-15 -86h211l23 128z" />
    <glyph glyph-name="F" unicode="F" horiz-adv-x="429" 
d="M517 498l14 -17l-33 -189l-166 -32l-53 -302h-205l-14 17h-6l42 240l-39 -8l-15 17l-5 -1l34 194l63 14l32 176q4 24 18 45.5t34.5 37.5t46.5 25.5t53 9.5h239l-1 -6l14 -17l-32 -184h-160l-8 -42l149 29zM488 474l-166 -32l21 118h160l25 140h-214q-22 0 -43 -7.5
t-37.5 -20t-28 -29.5t-14.5 -36l-9 -47l-26 -150l-64 -14l-25 -142l64 14l-47 -268h161l52 299l166 32zM442 352l-166 -32l-52 -295h-111l48 274q-9 -2 -27.5 -6t-35.5 -8l16 90l63 15l39 217q5 28 32.5 48t61.5 20h189l-16 -90h-160l-31 -174q34 6 80 15t86 17z" />
    <glyph glyph-name="G" unicode="G" horiz-adv-x="539" 
d="M389 354q-24 -5 -47 -9.5t-50 -9.5l-30 -169h94zM77 -20q-10 7 -17 16q-23 16 -33.5 41t-5.5 57l56 317q8 43 42.5 75t80.5 41l278 54q47 8 83.5 -9.5t50.5 -51.5q27 -32 20 -75l-98 -558q-5 -24 -19 -44.5t-34 -36.5t-45 -25t-52 -9h-396l-14 17h-6l33 190zM376 141
h-161l41 233l167 32zM593 465q4 22 -3.5 41t-23.5 32t-38.5 18t-48.5 0l-278 -54q-38 -8 -65.5 -33t-33.5 -58l-56 -317q-3 -20 2.5 -37t17.5 -29.5t30.5 -20t40.5 -7.5h215l-9 -46h-322l-23 -140h374q22 0 43 7.5t37.5 20t28 29.5t14.5 36zM470 -93q-5 -28 -32.5 -48
t-61.5 -20h-350l16 90h322l17 96h-240q-34 0 -54.5 20t-15.5 49l56 317q5 24 25.5 42.5t49.5 24.5v-1l277 54q20 3 37.5 -0.5t30 -13t18.5 -23t3 -29.5zM454 437l-219 -42l-49 -279h211z" />
    <glyph glyph-name="H" unicode="H" horiz-adv-x="545" 
d="M334 552l20 4q32 7 64.5 13t63.5 12q45 6 82.5 -12t51.5 -51h1q12 -15 17.5 -33.5t1.5 -39.5l-86 -487h-205l-14 17h-6l67 379q-24 -5 -46.5 -9.5t-49.5 -9.5l-67 -377h-205l-14 17h-6l133 751h211l-2 -6l14 -17zM597 465q4 22 -3.5 41t-23.5 32t-38.5 18t-48.5 0
l-197 -38l32 183h-161l-107 -607l-16 -94h107h54l65 374l166 32l-71 -406h54h107zM495 25h-111l73 412l-218 -42l-65 -370h-111l115 651h111l-34 -189l228 44q20 4 37.5 0t30 -13t18.5 -23t3 -30z" />
    <glyph glyph-name="I" unicode="I" horiz-adv-x="224" 
d="M337 718l14 -17l-130 -744h-206l-14 17h-5l131 750h211zM309 699h-161l-19 -109h161l19 109v0zM284 559h-161l-99 -560h165zM169 24h-115l90 510h111zM269 615h-111l10 59h111z" />
    <glyph glyph-name="J" unicode="J" horiz-adv-x="222" 
d="M338 718l14 -17l-144 -815q-4 -24 -18 -45t-34 -37t-45.5 -25t-52.5 -9h-144l-14 17h-6l33 190h70l131 747h211zM310 699h-161l-19 -109h161zM285 559h-161l-99 -560l-8 -47h-69l-25 -140h122q22 0 43.5 7.5t38.5 20t28.5 29.5t14.5 37zM145 -94q-5 -29 -32.5 -49
t-62.5 -20h-97l16 90h69l107 607h111zM270 615h-111l10 59h111z" />
    <glyph glyph-name="K" unicode="K" horiz-adv-x="540" 
d="M651 580l15 -18l-281 -314l176 -290h-251l-14 17h-4l-57 92l-19 -109h-204l-13 17h-6l131 750h210l-1 -6l14 -17l-39 -224l96 107h252zM602 560h-190l-164 -183l57 323h-160l-123 -700h160l28 162l99 -162h195l-163 268l261 292v0zM310 267l146 -242h-131l-127 210
l-37 -210h-110l115 650h110l-67 -375l212 235h128z" />
    <glyph glyph-name="L" unicode="L" horiz-adv-x="228" 
d="M341 715l14 -17l-131 -741h-205l-16 17h-5l130 747h214zM312 696h-161l-123 -697h165zM173 24h-115l114 647h111z" />
    <glyph glyph-name="M" unicode="M" horiz-adv-x="764" 
d="M321 528l375 56q45 4 78.5 -12.5t47.5 -48.5q13 -16 18.5 -37t0.5 -47l-85 -481h-205l-14 17h-6l68 387l-41 -6l-70 -398h-205l-14 17h-6l61 347l-41 -6l-63 -358h-205l-14 17h-5l107 610h211l-1 -6l14 -17zM802 459q4 24 -2 44t-21 33t-36.5 19.5t-47.5 3.5l-422 -62
l11 63h-161l-98 -560h161l62 355l110 16l-65 -371h161l69 395l110 16l-72 -411h161zM701 25h-111l73 415l-161 -23l-69 -392h-111l66 375l-161 -23l-62 -352h-111l90 510h111l-12 -67q53 7 110.5 15.5t115.5 17.5t115.5 17t110.5 16h-1q41 4 65.5 -17t17.5 -58z" />
    <glyph glyph-name="N" unicode="N" horiz-adv-x="542" 
d="M330 552q1 0 2 0.5t3 0.5l72.5 14.5t71.5 13.5q45 6 82.5 -12t51.5 -51h1q12 -15 17.5 -33.5t1.5 -39.5l-86 -487h-205l-14 17h-6l67 379q-24 -5 -47 -9.5t-50 -9.5l-67 -377h-204l-14 17h-6l108 611h210l-1 -6l14 -17zM594 465q4 22 -3.5 41t-23.5 32t-38.5 18t-48.5 0
l-198 -38l7 43h-160l-98 -561h107h53l65 374l167 32l-71 -406h161zM492 25h-111l73 412l-219 -42l-65 -370h-110l90 511h110l-9 -49l229 44q20 4 37.5 0t30 -13t18.5 -23t3 -30z" />
    <glyph glyph-name="O" unicode="O" 
d="M378 354q-24 -5 -46.5 -9.5t-49.5 -9.5l-30 -170h93zM48 -2q-22 16 -32 41t-5 55l56 317q8 42 42 74t81 42l278 54q47 8 83.5 -9.5t50.5 -51.5q27 -32 20 -75l-65 -371q-5 -24 -19 -45t-34 -37t-45 -25t-52 -9h-268q-57 0 -89 38zM365 140h-160l41 234l166 32zM583 465
q4 22 -3.5 41t-23.5 32t-38.5 18t-48.5 0l-278 -54q-38 -8 -65.5 -33t-33.5 -58l-56 -317q-3 -20 2.5 -37t17.5 -29.5t30.5 -20t40.5 -7.5h268q22 0 43 7.5t37.5 20t28 29.5t14.5 37zM493 94q-5 -29 -32.5 -49t-61.5 -20h-268q-34 0 -54.5 20t-15.5 49l56 317
q5 24 25.5 42.5t49.5 24.5v-1l277 54q20 3 37.5 -0.5t30 -13t18.5 -23t3 -29.5zM443 437l-218 -42l-49 -280h210z" />
    <glyph glyph-name="P" unicode="P" horiz-adv-x="548" 
d="M390 354q-24 -5 -46.5 -9.5t-49.5 -9.5l-30 -170h93zM332 552l148 29q47 8 83.5 -9.5t50.5 -51.5q27 -32 20 -75l-65 -371q-5 -24 -19 -45t-34 -37t-45 -25t-52 -9h-192l-33 -187h-204l-14 17h-6l140 797h211l-1 -6l14 -17zM377 140h-160l41 234l166 32zM595 465
q4 22 -3.5 41t-23.5 32t-38.5 18t-48.5 0l-197 -39l7 43h-161l-130 -747h160l33 187h214q22 0 43 7.5t37.5 20t28 29.5t14.5 37zM505 94q-5 -29 -32.5 -49t-61.5 -20h-239l-33 -187h-111l123 697h111l-9 -48l228 45v-1q20 4 37.5 0t30 -13t18.5 -23t3 -30zM455 437l-218 -42
l-49 -280h210z" />
    <glyph glyph-name="Q" unicode="Q" horiz-adv-x="550" 
d="M389 354l-97 -19l-30 -170h94zM150 -42q-28 0 -50 10t-37 27q-24 16 -35 41.5t-6 56.5l56 317q7 42 42 74t81 42l278 54q44 6 82 -12.5t52 -51.5q27 -32 20 -72l-119 -673h-205l-14 17h-6l30 170h-169zM376 140h-161l41 233l167 33zM594 464q4 22 -3.5 41t-23.5 32
t-39 18t-49 0l-277 -54q-38 -7 -65.5 -32.5t-33.5 -58.5l-56 -317q-3 -19 2.5 -36t17.5 -29.5t30.5 -20t40.5 -7.5h214l-33 -187h161zM459 -162h-111l33 187h-239q-34 0 -54.5 20t-15.5 48l56 317q4 23 24.5 42t49.5 24l278 54q20 4 37.5 0.5t30 -13t18.5 -23.5t3 -30z
M453 436l-218 -43l-49 -278h211z" />
    <glyph glyph-name="R" unicode="R" horiz-adv-x="544" 
d="M332 551l19 4q32 7 64.5 13t64.5 12q45 6 82 -12t52 -51h1q12 -15 17.5 -33.5t1.5 -39.5l-27 -151l-212 -44l-14 17l-6 -1l15 88q-24 -5 -47 -9.5t-50 -9.5l-66 -376h-205l-14 17h-6l108 610h211l-1 -6l14 -17zM595 464q4 22 -3.5 41t-23.5 32t-39 18t-49 0l-196 -38
l7 43h-161l-98 -560h107h54l65 373l166 32l-18 -109l166 35zM550 351q-31 -6 -59.5 -12.5t-54.5 -12.5l18 110l-217 -42l-65 -369h-111l90 510h111l-9 -49l228 44q20 4 37.5 0t30 -13t18.5 -23t3 -30z" />
    <glyph glyph-name="S" unicode="S" horiz-adv-x="549" 
d="M385 340l3 14l-72 -14h69zM546 310q15 -12 23 -32h1q12 -15 17.5 -34.5t1.5 -41.5l-23 -129q-4 -24 -18 -44.5t-34 -36.5t-45 -25t-52 -9h-397l-14 17h-6l34 190l78 1q-6 3 -9.5 7t-7.5 9q-24 16 -35 41.5t-6 56.5l23 131q7 41 41 74t82 42l278 53q44 6 82 -12.5
t52 -51.5q27 -32 20 -72l-24 -134h-62zM551 222q3 19 -2.5 36t-17.5 29.5t-30.5 20t-40.5 7.5h-215l10 59l167 32l-9 -54h161l19 112q4 22 -3.5 41t-23.5 32t-39 18t-49 0l-277 -53q-38 -8 -65.5 -33.5t-33.5 -57.5l-23 -131q-3 -19 2 -36t17.5 -29.5t30.5 -20t40 -7.5h214
l-8 -47h-321l-8 -47l-16 -93h107h268q22 0 43 7.5t37.5 20t28 29.5t14.5 36zM503 93q-5 -28 -32.5 -48t-61.5 -20h-350l16 90h321l17 97h-239q-34 0 -54.5 20t-15.5 48l23 131q4 23 25 42t50 25v-1l277 53q20 4 37.5 0.5t30 -13t18.5 -23.5t3 -30l-15 -87h-111l11 60
l-219 -42l-18 -105h240q34 0 54.5 -20t15.5 -48z" />
    <glyph glyph-name="T" unicode="T" horiz-adv-x="367" 
d="M459 497l14 -17l-33 -187l-106 -25l-55 -310h-205l-14 17h-6l43 246l-39 -8l-15 17l-5 -1l34 194l64 14l51 290h211l-1 -6l14 -17l-39 -221l88 21zM430 473l-107 -25l45 254h-161l-50 -286l-64 -14l-25 -142l64 14l-48 -274h161l53 305l107 25zM383 350l-106 -25
l-53 -300h-111l49 280q-9 -2 -27.5 -6t-35.5 -8l16 90l63 15l50 281h111l-46 -260l106 25z" />
    <glyph glyph-name="U" unicode="U" 
d="M634 584l14 -17l-107 -609h-397q-57 0 -89 38l-2 2q-22 16 -32 41t-5 55l73 413l216 32l-2 -6l14 -17l-61 -351h94l69 393l217 32zM605 561l-165 -25l-70 -396h-161l65 370l-164 -25l-13 -74l-56 -317q-3 -20 2.5 -37t17.5 -29.5t30.5 -20t40.5 -7.5h375zM486 25h-350
q-34 0 -54.5 20t-15.5 49l65 369q32 5 58 9t55 9l-64 -366h211l70 399q32 5 58.5 9t55.5 9z" />
    <glyph glyph-name="V" unicode="V" horiz-adv-x="535" 
d="M635 583l14 -17l-44 -252q-7 -39 -23 -73.5t-42 -68.5l-169 -214h-184l-14 17h-4l-90 169q-40 76 -25 162l36 201l217 32l-2 -6l14 -17l-33 -190q-12 -64 11 -118l35 44q23 29 36 57t19 60l33 188l216 32zM606 560l-165 -25l-29 -166q-7 -36 -21 -67.5t-40 -63.5l-61 -79
l-20 40q-37 67 -22 147l28 164l-165 -25l-32 -179q-7 -42 -1.5 -77t24.5 -70l85 -159h160l159 203q25 32 39.5 63.5t20.5 67.5zM541 334q-5 -32 -19 -61t-34 -57l-150 -191h-134q-21 40 -40 74t-40 74q-17 32 -21.5 63.5t1.5 69.5l28 157q32 5 58.5 9t55.5 9l-23 -135
q-8 -46 -2 -85t26 -77l-1 1l36 -72q8 9 19.5 24t24 31t24.5 31.5t20 25.5q27 34 43 69.5t24 74.5l25 144q32 5 58.5 9t55.5 9z" />
    <glyph glyph-name="W" unicode="W" horiz-adv-x="863" 
d="M287 326q-5 -27 -2.5 -54t16.5 -62q25 33 40.5 56.5t25.5 41.5t14.5 32.5t7.5 28.5l29 169l215 19l-1 -6l14 -17l-37 -208q-12 -62 12 -118l34 43q23 29 36.5 57.5t19.5 60.5l35 199l213 19l-1 -6l14 -17l-44 -250q-7 -39 -22.5 -73.5t-42.5 -69.5h-1l-167 -213h-184
l-14 17h-4l-43 80l-77 -97h-185l-14 17h-4l-89 169q-40 77 -25 162l36 202l213 19l-1 -6l14 -17zM571 346l32 184l-164 -15l-25 -146q-3 -18 -9.5 -36t-19.5 -41.5t-35.5 -55t-57.5 -76.5q-17 32 -27.5 57.5t-15 47t-4.5 41t4 40.5l27 154l-163 -15l-32 -179
q-7 -41 -1.5 -76.5t24.5 -70.5l84 -159h161l95 122l66 -122h161l158 203q26 32 40 64t20 67l40 226l-162 -15l-31 -176q-7 -36 -21.5 -67.5t-40.5 -63.5l-60 -78l-21 39q-19 35 -24.5 70t2.5 77zM546 346q-8 -45 -2.5 -83.5t26.5 -77.5h-1l38 -72l87 113l-1 -1q28 35 44 70
t24 74l27 154l111 9l-35 -198q-10 -64 -53 -118q-38 -48 -74.5 -95.5t-74.5 -95.5h-136l-76 142l-111 -142h-134l-79 148q-17 32 -21.5 64t1.5 69l28 157l112 9l-22 -126q-4 -23 -4 -45.5t7 -49t21 -60t38 -76.5q45 57 73 96.5t44.5 68t24 49t11.5 40.5l21 124q33 3 58.5 5
t54.5 4z" />
    <glyph glyph-name="X" unicode="X" horiz-adv-x="554" 
d="M294 328h94l41 229l216 32l-1 -6l14 -17l-46 -260q-5 -29 -18.5 -52.5t-35.5 -39.5l2 -5l4 -3q13 -16 17 -38t-1 -48l-29 -162h-205l-14 17h-6l26 146h-94l-29 -163h-204l-14 17h-6l29 165q5 28 18 52t35 41q-17 16 -21 40t1 53l32 180l216 33l-2 -6l14 -17zM541 140
q7 38 -8.5 65.5t-60.5 27.5q45 0 70 27.5t32 65.5l41 234l-165 -25l-41 -232h-161l36 207l-164 -26l-28 -158q-7 -38 8.5 -65.5t59.5 -27.5q-45 0 -69.5 -27.5t-31.5 -65.5l-24 -140h160l28 163h161l-28 -163h161zM496 25h-111l29 163h-211l-29 -163h-110l20 115
q5 28 22.5 48t48.5 20l9 50q-31 0 -41.5 20t-5.5 48l24 136q33 5 58.5 9.5t54.5 9.5l-35 -203h211l41 235q32 5 58.5 9t55.5 9l-36 -205q-5 -28 -23 -48t-50 -20l-9 -50q32 0 43 -20t6 -48z" />
    <glyph glyph-name="Y" unicode="Y" horiz-adv-x="556" 
d="M450 549l-70 -408h-2h-158l67 377l-171 -57l-65 -367q-3 -20 2.5 -37t17.5 -29.5t30.5 -20t40.5 -7.5h214l-9 -46h-321l-24 -140h375q22 0 43 7.5t37.5 20t28 29.5t14.5 36l120 686zM651 625l-2 -7l14 -17l-124 -714q-5 -24 -19 -44.5t-34 -36.5t-45 -25t-52 -9h-396
l-14 17h-6l33 190l76 1q-10 7 -17 16q-23 16 -33.5 41t-5.5 57l68 385l224 74l-1 -7l14 -17l-64 -363h93q8 48 17 98.5t17 101.5q9 51 17.5 102.5t17.5 99.5zM589 561l-114 -654q-5 -28 -32.5 -48t-61.5 -20h-350l16 90h321l17 96h-239q-34 0 -54.5 20t-15.5 49l62 349
l117 39l-64 -366h208l73 414z" />
    <glyph glyph-name="Z" unicode="Z" horiz-adv-x="518" 
d="M570 416l28 148l-486 -81l-26 -146l234 39l-268 -241v-1l-25 -134h2h473l23 134l-277 -1zM62 307l-7 -1l35 198l538 90l-1 -7l14 -17l-34 -183l-262 -229q21 0 42.5 0.5t44.5 0.5h123l-2 -6l14 -17l-31 -178h-519l-14 17h-5l31 170l187 169l-140 -24zM186 108h70.5
t81 0.5t82.5 0.5h76l-15 -84h-423l17 99l320 290l-279 -47l17 95l435 72q-3 -18 -6 -30.5t-5 -24t-4.5 -24t-5.5 -29.5z" />
    <glyph glyph-name="a" unicode="a" 
d="M380 336l3 18l-94 -18h91zM59 311l-6 -1l35 196l386 75q46 8 81.5 -9t50.5 -49l1 -1q27 -31 19 -78l-86 -486h-397q-28 0 -50 10t-37 27q-24 16 -35 41.5t-6 56.5l22 125q8 45 47 78l-11 -2zM370 140h-161l8 47h161zM587 464q4 22 -3 41t-23 32t-38 18t-48 1q-1 -1 -3 -1
l-363 -70l-25 -144l333 65l-17 -95h-215q-22 0 -43 -7.5t-37.5 -20t-28 -29.5t-14.5 -36l-22 -125q-3 -19 2.5 -36t17.5 -29.5t30.5 -20t40.5 -7.5h375zM485 25h-350q-34 0 -54.5 20t-15.5 48l22 125q5 28 32.5 48t61.5 20h240l27 151l-334 -65l16 91q89 17 172 33.5
t171 33.5q20 3 37.5 -0.5t30 -13t18.5 -23t3 -29.5zM408 212h-211l-17 -97h211z" />
    <glyph glyph-name="b" unicode="b" horiz-adv-x="532" 
d="M386 353q-24 -5 -47.5 -9.5t-50.5 -9.5l-29 -169h94zM327 551q1 0 2 0.5t3 0.5q35 7 72 14.5t72 13.5q44 6 82 -12.5t52 -51.5q27 -32 20 -72l-66 -371q-4 -24 -18 -45t-34 -36.5t-45 -24.5t-52 -9h-397l-14 17h-5l131 750h210l-1 -6l14 -17zM373 140h-161l41 233l167 32
zM591 464q4 22 -3.5 41t-23.5 32t-39 18t-49 0l-197 -38l32 183h-160l-123 -700h375q22 0 43 7t37.5 20t28 29.5t14.5 36.5zM501 93q-5 -29 -32.5 -48.5t-61.5 -19.5h-350l115 650h110l-34 -189l229 44q20 4 37.5 0.5t30 -13t18.5 -23.5t3 -30zM450 436l-218 -42l-49 -279
h211z" />
    <glyph glyph-name="c" unicode="c" 
d="M256 164h94l9 46h211l-2 -6l14 -17l-20 -115q-4 -24 -18 -44.5t-34 -36.5t-45.5 -25t-52.5 -9h-267q-29 0 -52.5 10.5t-38.5 28.5q-23 16 -33 41t-5 55l56 318q7 41 41.5 74t82.5 42l277 53q45 6 82.5 -12.5t52.5 -51.5q12 -14 18 -32.5t2 -39.5l-25 -139h-205l-14 17h-6
l6 32l-98 -19zM532 139l8 46h-161l-8 -46h-107h-54l25 140l16 93l167 33l-10 -59h161l20 117q4 22 -3.5 41t-23.5 32t-39 18t-50 0l-276 -53q-38 -8 -66.5 -33.5t-33.5 -57.5l-23 -131l-25 -140l-8 -47q-3 -19 2 -36t17.5 -29.5t30.5 -20t41 -7.5h267q22 0 43.5 7.5t38.5 20
t28.5 29.5t14.5 36zM499 92q-5 -28 -32.5 -48t-62.5 -20h-267q-35 0 -55.5 20t-15.5 48l56 318q4 23 25.5 42t50.5 25l-1 -1l277 53q21 4 38.5 0.5t30 -13t18.5 -23.5t3 -30l-16 -92h-111l11 64l-218 -43l-49 -278h211l8 46h111z" />
    <glyph glyph-name="d" unicode="d" horiz-adv-x="538" 
d="M384 353q-24 -5 -47.5 -9.5t-50.5 -9.5l-29 -169h94zM658 719l14 -17l-131 -744h-397q-28 0 -50 10t-37 27q-24 16 -35.5 41t-5.5 57l56 317q8 43 42.5 75t80.5 41l227 44l27 155h210zM371 140h-161l41 233l167 32zM630 700h-160l-27 -151l-247 -48q-38 -8 -65.5 -33
t-33.5 -58l-56 -317q-3 -20 2.5 -36.5t17.5 -29.5t30.5 -20t40.5 -7h375zM486 25h-350q-34 0 -54.5 19.5t-15.5 48.5l56 317q4 24 25 42.5t50 24.5l-1 -1l269 52l26 147h110zM448 436l-218 -42l-49 -279h211z" />
    <glyph glyph-name="e" unicode="e" horiz-adv-x="543" 
d="M408 334h-161l7 40l167 32zM592 465q4 22 -3.5 41t-23.5 32t-38.5 18t-48.5 0l-278 -54q-38 -8 -65.5 -33.5t-33.5 -57.5l-56 -317q-3 -20 2.5 -37t17.5 -29.5t30.5 -20t40.5 -7.5h268q22 0 43 7.5t37.5 20t28 29.5t14.5 37l15 84h-161l-7 -38h-161l15 85h322zM57 -2
q-22 16 -32 41t-5 55l56 317q7 40 41.5 73t81.5 43l278 54q47 8 83.5 -9.5t50.5 -51.5q27 -32 20 -75l-46 -262h-3l2 -3l-18 -106q-5 -24 -19 -45t-34 -37t-45 -25t-52 -9h-268q-57 0 -89 38zM260 165h94l3 18h-94zM208 250l-24 -135h211l6 38h111l-10 -59q-5 -29 -32.5 -49
t-61.5 -20h-268q-34 0 -54.5 20t-15.5 49l56 317q4 23 25 42t50 25v-1l277 54q20 3 37.5 -0.5t30 -13t18.5 -23t3 -29.5l-37 -215h-322zM233 395l-15 -86h211l23 128z" />
    <glyph glyph-name="f" unicode="f" horiz-adv-x="429" 
d="M517 498l14 -17l-33 -189l-166 -32l-53 -302h-205l-14 17h-6l42 240l-39 -8l-15 17l-5 -1l34 194l63 14l32 176q4 24 18 45.5t34.5 37.5t46.5 25.5t53 9.5h239l-1 -6l14 -17l-32 -184h-160l-8 -42l149 29zM488 474l-166 -32l21 118h160l25 140h-214q-22 0 -43 -7.5
t-37.5 -20t-28 -29.5t-14.5 -36l-9 -47l-26 -150l-64 -14l-25 -142l64 14l-47 -268h161l52 299l166 32zM442 352l-166 -32l-52 -295h-111l48 274q-9 -2 -27.5 -6t-35.5 -8l16 90l63 15l39 217q5 28 32.5 48t61.5 20h189l-16 -90h-160l-31 -174q34 6 80 15t86 17z" />
    <glyph glyph-name="g" unicode="g" horiz-adv-x="539" 
d="M389 354q-24 -5 -47 -9.5t-50 -9.5l-30 -169h94zM77 -20q-10 7 -17 16q-23 16 -33.5 41t-5.5 57l56 317q8 43 42.5 75t80.5 41l278 54q47 8 83.5 -9.5t50.5 -51.5q27 -32 20 -75l-98 -558q-5 -24 -19 -44.5t-34 -36.5t-45 -25t-52 -9h-396l-14 17h-6l33 190zM376 141
h-161l41 233l167 32zM593 465q4 22 -3.5 41t-23.5 32t-38.5 18t-48.5 0l-278 -54q-38 -8 -65.5 -33t-33.5 -58l-56 -317q-3 -20 2.5 -37t17.5 -29.5t30.5 -20t40.5 -7.5h215l-9 -46h-322l-23 -140h374q22 0 43 7.5t37.5 20t28 29.5t14.5 36zM470 -93q-5 -28 -32.5 -48
t-61.5 -20h-350l16 90h322l17 96h-240q-34 0 -54.5 20t-15.5 49l56 317q5 24 25.5 42.5t49.5 24.5v-1l277 54q20 3 37.5 -0.5t30 -13t18.5 -23t3 -29.5zM454 437l-219 -42l-49 -279h211z" />
    <glyph glyph-name="h" unicode="h" horiz-adv-x="545" 
d="M334 552l20 4q32 7 64.5 13t63.5 12q45 6 82.5 -12t51.5 -51h1q12 -15 17.5 -33.5t1.5 -39.5l-86 -487h-205l-14 17h-6l67 379q-24 -5 -46.5 -9.5t-49.5 -9.5l-67 -377h-205l-14 17h-6l133 751h211l-2 -6l14 -17zM597 465q4 22 -3.5 41t-23.5 32t-38.5 18t-48.5 0
l-197 -38l32 183h-161l-107 -607l-16 -94h107h54l65 374l166 32l-71 -406h54h107zM495 25h-111l73 412l-218 -42l-65 -370h-111l115 651h111l-34 -189l228 44q20 4 37.5 0t30 -13t18.5 -23t3 -30z" />
    <glyph glyph-name="i" unicode="i" horiz-adv-x="224" 
d="M337 718l14 -17l-130 -744h-206l-14 17h-5l131 750h211zM309 699h-161l-19 -109h161l19 109v0zM284 559h-161l-99 -560h165zM169 24h-115l90 510h111zM269 615h-111l10 59h111z" />
    <glyph glyph-name="j" unicode="j" horiz-adv-x="222" 
d="M338 718l14 -17l-144 -815q-4 -24 -18 -45t-34 -37t-45.5 -25t-52.5 -9h-144l-14 17h-6l33 190h70l131 747h211zM310 699h-161l-19 -109h161zM285 559h-161l-99 -560l-8 -47h-69l-25 -140h122q22 0 43.5 7.5t38.5 20t28.5 29.5t14.5 37zM145 -94q-5 -29 -32.5 -49
t-62.5 -20h-97l16 90h69l107 607h111zM270 615h-111l10 59h111z" />
    <glyph glyph-name="k" unicode="k" horiz-adv-x="540" 
d="M651 580l15 -18l-281 -314l176 -290h-251l-14 17h-4l-57 92l-19 -109h-204l-13 17h-6l131 750h210l-1 -6l14 -17l-39 -224l96 107h252zM602 560h-190l-164 -183l57 323h-160l-123 -700h160l28 162l99 -162h195l-163 268l261 292v0zM310 267l146 -242h-131l-127 210
l-37 -210h-110l115 650h110l-67 -375l212 235h128z" />
    <glyph glyph-name="l" unicode="l" horiz-adv-x="228" 
d="M341 715l14 -17l-131 -741h-205l-16 17h-5l130 747h214zM312 696h-161l-123 -697h165zM173 24h-115l114 647h111z" />
    <glyph glyph-name="m" unicode="m" horiz-adv-x="764" 
d="M321 528l375 56q45 4 78.5 -12.5t47.5 -48.5q13 -16 18.5 -37t0.5 -47l-85 -481h-205l-14 17h-6l68 387l-41 -6l-70 -398h-205l-14 17h-6l61 347l-41 -6l-63 -358h-205l-14 17h-5l107 610h211l-1 -6l14 -17zM802 459q4 24 -2 44t-21 33t-36.5 19.5t-47.5 3.5l-422 -62
l11 63h-161l-98 -560h161l62 355l110 16l-65 -371h161l69 395l110 16l-72 -411h161zM701 25h-111l73 415l-161 -23l-69 -392h-111l66 375l-161 -23l-62 -352h-111l90 510h111l-12 -67q53 7 110.5 15.5t115.5 17.5t115.5 17t110.5 16h-1q41 4 65.5 -17t17.5 -58z" />
    <glyph glyph-name="n" unicode="n" horiz-adv-x="542" 
d="M330 552q1 0 2 0.5t3 0.5l72.5 14.5t71.5 13.5q45 6 82.5 -12t51.5 -51h1q12 -15 17.5 -33.5t1.5 -39.5l-86 -487h-205l-14 17h-6l67 379q-24 -5 -47 -9.5t-50 -9.5l-67 -377h-204l-14 17h-6l108 611h210l-1 -6l14 -17zM594 465q4 22 -3.5 41t-23.5 32t-38.5 18t-48.5 0
l-198 -38l7 43h-160l-98 -561h107h53l65 374l167 32l-71 -406h161zM492 25h-111l73 412l-219 -42l-65 -370h-110l90 511h110l-9 -49l229 44q20 4 37.5 0t30 -13t18.5 -23t3 -30z" />
    <glyph glyph-name="o" unicode="o" 
d="M378 354q-24 -5 -46.5 -9.5t-49.5 -9.5l-30 -170h93zM48 -2q-22 16 -32 41t-5 55l56 317q8 42 42 74t81 42l278 54q47 8 83.5 -9.5t50.5 -51.5q27 -32 20 -75l-65 -371q-5 -24 -19 -45t-34 -37t-45 -25t-52 -9h-268q-57 0 -89 38zM365 140h-160l41 234l166 32zM583 465
q4 22 -3.5 41t-23.5 32t-38.5 18t-48.5 0l-278 -54q-38 -8 -65.5 -33t-33.5 -58l-56 -317q-3 -20 2.5 -37t17.5 -29.5t30.5 -20t40.5 -7.5h268q22 0 43 7.5t37.5 20t28 29.5t14.5 37zM493 94q-5 -29 -32.5 -49t-61.5 -20h-268q-34 0 -54.5 20t-15.5 49l56 317
q5 24 25.5 42.5t49.5 24.5v-1l277 54q20 3 37.5 -0.5t30 -13t18.5 -23t3 -29.5zM443 437l-218 -42l-49 -280h210z" />
    <glyph glyph-name="p" unicode="p" horiz-adv-x="548" 
d="M390 354q-24 -5 -46.5 -9.5t-49.5 -9.5l-30 -170h93zM332 552l148 29q47 8 83.5 -9.5t50.5 -51.5q27 -32 20 -75l-65 -371q-5 -24 -19 -45t-34 -37t-45 -25t-52 -9h-192l-33 -187h-204l-14 17h-6l140 797h211l-1 -6l14 -17zM377 140h-160l41 234l166 32zM595 465
q4 22 -3.5 41t-23.5 32t-38.5 18t-48.5 0l-197 -39l7 43h-161l-130 -747h160l33 187h214q22 0 43 7.5t37.5 20t28 29.5t14.5 37zM505 94q-5 -29 -32.5 -49t-61.5 -20h-239l-33 -187h-111l123 697h111l-9 -48l228 45v-1q20 4 37.5 0t30 -13t18.5 -23t3 -30zM455 437l-218 -42
l-49 -280h210z" />
    <glyph glyph-name="q" unicode="q" horiz-adv-x="550" 
d="M389 354l-97 -19l-30 -170h94zM150 -42q-28 0 -50 10t-37 27q-24 16 -35 41.5t-6 56.5l56 317q7 42 42 74t81 42l278 54q44 6 82 -12.5t52 -51.5q27 -32 20 -72l-119 -673h-205l-14 17h-6l30 170h-169zM376 140h-161l41 233l167 33zM594 464q4 22 -3.5 41t-23.5 32
t-39 18t-49 0l-277 -54q-38 -7 -65.5 -32.5t-33.5 -58.5l-56 -317q-3 -19 2.5 -36t17.5 -29.5t30.5 -20t40.5 -7.5h214l-33 -187h161zM459 -162h-111l33 187h-239q-34 0 -54.5 20t-15.5 48l56 317q4 23 24.5 42t49.5 24l278 54q20 4 37.5 0.5t30 -13t18.5 -23.5t3 -30z
M453 436l-218 -43l-49 -278h211z" />
    <glyph glyph-name="r" unicode="r" horiz-adv-x="544" 
d="M332 551l19 4q32 7 64.5 13t64.5 12q45 6 82 -12t52 -51h1q12 -15 17.5 -33.5t1.5 -39.5l-27 -151l-212 -44l-14 17l-6 -1l15 88q-24 -5 -47 -9.5t-50 -9.5l-66 -376h-205l-14 17h-6l108 610h211l-1 -6l14 -17zM595 464q4 22 -3.5 41t-23.5 32t-39 18t-49 0l-196 -38
l7 43h-161l-98 -560h107h54l65 373l166 32l-18 -109l166 35zM550 351q-31 -6 -59.5 -12.5t-54.5 -12.5l18 110l-217 -42l-65 -369h-111l90 510h111l-9 -49l228 44q20 4 37.5 0t30 -13t18.5 -23t3 -30z" />
    <glyph glyph-name="s" unicode="s" horiz-adv-x="549" 
d="M385 340l3 14l-72 -14h69zM546 310q15 -12 23 -32h1q12 -15 17.5 -34.5t1.5 -41.5l-23 -129q-4 -24 -18 -44.5t-34 -36.5t-45 -25t-52 -9h-397l-14 17h-6l34 190l78 1q-6 3 -9.5 7t-7.5 9q-24 16 -35 41.5t-6 56.5l23 131q7 41 41 74t82 42l278 53q44 6 82 -12.5
t52 -51.5q27 -32 20 -72l-24 -134h-62zM551 222q3 19 -2.5 36t-17.5 29.5t-30.5 20t-40.5 7.5h-215l10 59l167 32l-9 -54h161l19 112q4 22 -3.5 41t-23.5 32t-39 18t-49 0l-277 -53q-38 -8 -65.5 -33.5t-33.5 -57.5l-23 -131q-3 -19 2 -36t17.5 -29.5t30.5 -20t40 -7.5h214
l-8 -47h-321l-8 -47l-16 -93h107h268q22 0 43 7.5t37.5 20t28 29.5t14.5 36zM503 93q-5 -28 -32.5 -48t-61.5 -20h-350l16 90h321l17 97h-239q-34 0 -54.5 20t-15.5 48l23 131q4 23 25 42t50 25v-1l277 53q20 4 37.5 0.5t30 -13t18.5 -23.5t3 -30l-15 -87h-111l11 60
l-219 -42l-18 -105h240q34 0 54.5 -20t15.5 -48z" />
    <glyph glyph-name="t" unicode="t" horiz-adv-x="367" 
d="M459 497l14 -17l-33 -187l-106 -25l-55 -310h-205l-14 17h-6l43 246l-39 -8l-15 17l-5 -1l34 194l64 14l51 290h211l-1 -6l14 -17l-39 -221l88 21zM430 473l-107 -25l45 254h-161l-50 -286l-64 -14l-25 -142l64 14l-48 -274h161l53 305l107 25zM383 350l-106 -25
l-53 -300h-111l49 280q-9 -2 -27.5 -6t-35.5 -8l16 90l63 15l50 281h111l-46 -260l106 25z" />
    <glyph glyph-name="u" unicode="u" 
d="M634 584l14 -17l-107 -609h-397q-57 0 -89 38l-2 2q-22 16 -32 41t-5 55l73 413l216 32l-2 -6l14 -17l-61 -351h94l69 393l217 32zM605 561l-165 -25l-70 -396h-161l65 370l-164 -25l-13 -74l-56 -317q-3 -20 2.5 -37t17.5 -29.5t30.5 -20t40.5 -7.5h375zM486 25h-350
q-34 0 -54.5 20t-15.5 49l65 369q32 5 58 9t55 9l-64 -366h211l70 399q32 5 58.5 9t55.5 9z" />
    <glyph glyph-name="v" unicode="v" horiz-adv-x="535" 
d="M635 583l14 -17l-44 -252q-7 -39 -23 -73.5t-42 -68.5l-169 -214h-184l-14 17h-4l-90 169q-40 76 -25 162l36 201l217 32l-2 -6l14 -17l-33 -190q-12 -64 11 -118l35 44q23 29 36 57t19 60l33 188l216 32zM606 560l-165 -25l-29 -166q-7 -36 -21 -67.5t-40 -63.5l-61 -79
l-20 40q-37 67 -22 147l28 164l-165 -25l-32 -179q-7 -42 -1.5 -77t24.5 -70l85 -159h160l159 203q25 32 39.5 63.5t20.5 67.5zM541 334q-5 -32 -19 -61t-34 -57l-150 -191h-134q-21 40 -40 74t-40 74q-17 32 -21.5 63.5t1.5 69.5l28 157q32 5 58.5 9t55.5 9l-23 -135
q-8 -46 -2 -85t26 -77l-1 1l36 -72q8 9 19.5 24t24 31t24.5 31.5t20 25.5q27 34 43 69.5t24 74.5l25 144q32 5 58.5 9t55.5 9z" />
    <glyph glyph-name="w" unicode="w" horiz-adv-x="863" 
d="M287 326q-5 -27 -2.5 -54t16.5 -62q25 33 40.5 56.5t25.5 41.5t14.5 32.5t7.5 28.5l29 169l215 19l-1 -6l14 -17l-37 -208q-12 -62 12 -118l34 43q23 29 36.5 57.5t19.5 60.5l35 199l213 19l-1 -6l14 -17l-44 -250q-7 -39 -22.5 -73.5t-42.5 -69.5h-1l-167 -213h-184
l-14 17h-4l-43 80l-77 -97h-185l-14 17h-4l-89 169q-40 77 -25 162l36 202l213 19l-1 -6l14 -17zM571 346l32 184l-164 -15l-25 -146q-3 -18 -9.5 -36t-19.5 -41.5t-35.5 -55t-57.5 -76.5q-17 32 -27.5 57.5t-15 47t-4.5 41t4 40.5l27 154l-163 -15l-32 -179
q-7 -41 -1.5 -76.5t24.5 -70.5l84 -159h161l95 122l66 -122h161l158 203q26 32 40 64t20 67l40 226l-162 -15l-31 -176q-7 -36 -21.5 -67.5t-40.5 -63.5l-60 -78l-21 39q-19 35 -24.5 70t2.5 77zM546 346q-8 -45 -2.5 -83.5t26.5 -77.5h-1l38 -72l87 113l-1 -1q28 35 44 70
t24 74l27 154l111 9l-35 -198q-10 -64 -53 -118q-38 -48 -74.5 -95.5t-74.5 -95.5h-136l-76 142l-111 -142h-134l-79 148q-17 32 -21.5 64t1.5 69l28 157l112 9l-22 -126q-4 -23 -4 -45.5t7 -49t21 -60t38 -76.5q45 57 73 96.5t44.5 68t24 49t11.5 40.5l21 124q33 3 58.5 5
t54.5 4z" />
    <glyph glyph-name="x" unicode="x" horiz-adv-x="554" 
d="M294 328h94l41 229l216 32l-1 -6l14 -17l-46 -260q-5 -29 -18.5 -52.5t-35.5 -39.5l2 -5l4 -3q13 -16 17 -38t-1 -48l-29 -162h-205l-14 17h-6l26 146h-94l-29 -163h-204l-14 17h-6l29 165q5 28 18 52t35 41q-17 16 -21 40t1 53l32 180l216 33l-2 -6l14 -17zM541 140
q7 38 -8.5 65.5t-60.5 27.5q45 0 70 27.5t32 65.5l41 234l-165 -25l-41 -232h-161l36 207l-164 -26l-28 -158q-7 -38 8.5 -65.5t59.5 -27.5q-45 0 -69.5 -27.5t-31.5 -65.5l-24 -140h160l28 163h161l-28 -163h161zM496 25h-111l29 163h-211l-29 -163h-110l20 115
q5 28 22.5 48t48.5 20l9 50q-31 0 -41.5 20t-5.5 48l24 136q33 5 58.5 9.5t54.5 9.5l-35 -203h211l41 235q32 5 58.5 9t55.5 9l-36 -205q-5 -28 -23 -48t-50 -20l-9 -50q32 0 43 -20t6 -48z" />
    <glyph glyph-name="y" unicode="y" horiz-adv-x="556" 
d="M450 549l-70 -408h-2h-158l67 377l-171 -57l-65 -367q-3 -20 2.5 -37t17.5 -29.5t30.5 -20t40.5 -7.5h214l-9 -46h-321l-24 -140h375q22 0 43 7.5t37.5 20t28 29.5t14.5 36l120 686zM651 625l-2 -7l14 -17l-124 -714q-5 -24 -19 -44.5t-34 -36.5t-45 -25t-52 -9h-396
l-14 17h-6l33 190l76 1q-10 7 -17 16q-23 16 -33.5 41t-5.5 57l68 385l224 74l-1 -7l14 -17l-64 -363h93q8 48 17 98.5t17 101.5q9 51 17.5 102.5t17.5 99.5zM589 561l-114 -654q-5 -28 -32.5 -48t-61.5 -20h-350l16 90h321l17 96h-239q-34 0 -54.5 20t-15.5 49l62 349
l117 39l-64 -366h208l73 414z" />
    <glyph glyph-name="z" unicode="z" horiz-adv-x="518" 
d="M570 416l28 148l-486 -81l-26 -146l234 39l-268 -241v-1l-25 -134h2h473l23 134l-277 -1zM62 307l-7 -1l35 198l538 90l-1 -7l14 -17l-34 -183l-262 -229q21 0 42.5 0.5t44.5 0.5h123l-2 -6l14 -17l-31 -178h-519l-14 17h-5l31 170l187 169l-140 -24zM186 108h70.5
t81 0.5t82.5 0.5h76l-15 -84h-423l17 99l320 290l-279 -47l17 95l435 72q-3 -18 -6 -30.5t-5 -24t-4.5 -24t-5.5 -29.5z" />
  </font>
</defs>
</svg>
