<?xml version="1.0" standalone="no"?>
<!DOCTYPE svg PUBLIC "-//W3C//DTD SVG 1.1//EN" "http://www.w3.org/Graphics/SVG/1.1/DTD/svg11.dtd" >
<svg xmlns="http://www.w3.org/2000/svg" xmlns:xlink="http://www.w3.org/1999/xlink" version="1.1">
<metadata>
Created by FontForge 20201107 at Thu Feb 22 20:25:48 2018
 By 
Copyright (c) 2018 by Vladimir Nikolic. All rights reserved.
</metadata>
<defs>
<font id="Failed3dFilled-Regular" horiz-adv-x="537" >
  <font-face 
    font-family="Failed 3d Filled"
    font-weight="400"
    font-stretch="normal"
    units-per-em="1000"
    panose-1="0 0 0 0 0 0 0 0 0 0"
    ascent="750"
    descent="-250"
    x-height="581"
    cap-height="724"
    bbox="-69 -230 873 727"
    underline-thickness="50"
    underline-position="-100"
    unicode-range="U+000D-007A"
  />
<missing-glyph horiz-adv-x="357" 
 />
    <glyph glyph-name=".notdef" horiz-adv-x="357" 
 />
    <glyph glyph-name=".null" horiz-adv-x="0" 
 />
    <glyph glyph-name="nonmarkingreturn" unicode="&#xd;" horiz-adv-x="357" 
 />
    <glyph glyph-name="NULL" horiz-adv-x="0" 
 />
    <glyph glyph-name="NULL" horiz-adv-x="0" 
 />
    <glyph glyph-name="space" unicode=" " horiz-adv-x="357" 
 />
    <glyph glyph-name="exclam" unicode="!" horiz-adv-x="228" 
d="M216 606l17 -17v-631h-205l-17 17h-6v595l211 43v-7zM191 582l-161 -33v-409h161v442zM191 118h-161v-118h161v118v0zM166 25h-111v68h111v-68zM166 165h-111v364l111 23v-387z" />
    <glyph glyph-name="comma" unicode="," horiz-adv-x="222" 
d="M214 172v-6l17 -17v-176l-65 -76h-86l-17 17h-6v45h-31l-17 17h-6v196h211zM28 147v-146h54v-62h54l53 62v146h-161zM164 122v-113l-40 -45h-17v62h-54v96h111z" />
    <glyph glyph-name="hyphen" unicode="-" horiz-adv-x="311" 
d="M301 331v-6l17 -17v-172h-286l-17 17h-6v178h292zM34 306v-128h242v128h-242zM34 306v-128h242v128h-242z" />
    <glyph glyph-name="period" unicode="." horiz-adv-x="228" 
d="M216 168v-6l17 -17v-187h-205l-17 17h-6v193h211zM30 143v-143h161v143h-161zM30 143v-143h161v143h-161z" />
    <glyph glyph-name="zero" unicode="0" 
d="M324 354q-23 -5 -45 -9.5t-48 -9.5v-170h93v189zM57 -2q-25 16 -39.5 41t-14.5 55v317q0 42 29 74t74 42l268 54q45 8 85 -9.5t60 -51.5q15 -15 24 -34t9 -41v-371q0 -24 -10 -45t-27.5 -37t-41 -25t-50.5 -9h-268q-58 0 -96 38zM349 140h-160v234l160 32v-266zM510 465
q0 22 -11 41t-29.5 32t-42 18t-48.5 0l-268 -54q-37 -8 -60 -33t-23 -58v-317q0 -20 8.5 -37t23 -29.5t34 -20t41.5 -7.5h268q22 0 41.5 7.5t34 20t23 29.5t8.5 37v371zM485 94q0 -29 -24 -49t-58 -20h-268q-34 0 -58 20t-24 49v317q0 24 17.5 42.5t45.5 24.5v-1l268 54
q19 3 37 -0.5t32.5 -13t23 -23t8.5 -29.5v-371zM374 437l-210 -42v-280h210v322z" />
    <glyph glyph-name="one" unicode="1" horiz-adv-x="271" 
d="M7 365l-6 -1v197l103 20q44 6 84.5 -12t60.5 -51h1q15 -15 23.5 -33.5t8.5 -39.5v-487h-205l-17 17h-6v379l-30 -6zM240 465q0 22 -11 41t-29.5 32t-42 18t-48.5 0l-83 -17v-144l53 11v-406h161v465zM215 25h-111v411l-53 -10v91l63 14q19 4 37.5 0t32.5 -13t22.5 -23
t8.5 -30v-440z" />
    <glyph glyph-name="two" unicode="2" horiz-adv-x="549" 
d="M540 159l17 -17v-184h-526l-17 17h-6v249q0 39 26 70h-3l-17 17q-2 -1 -6 -1v196l371 75q45 8 85 -9.5t60 -51.5q15 -15 24 -34t9 -41v-139q0 -42 -28.5 -73t-72.5 -40l-141 -28h225v-6zM515 140h-322v47l239 48q36 8 59.5 33t23.5 58v139q0 22 -11 41t-29.5 32t-42 18
t-48.5 0l-351 -71v-74v-70l321 65v-43l-238 -48q-37 -8 -60 -33t-23 -58v-224h482v140zM490 25h-432v199q0 24 17.5 42.5t45.5 24.5v-1l258 52v95l-321 -65v91q86 17 166 34t165 34q19 3 37 -0.5t32.5 -13t23 -23t8.5 -29.5v-139q0 -24 -18 -42.5t-45 -24.5v1l-259 -52v-93
h322v-90z" />
    <glyph glyph-name="three" unicode="3" horiz-adv-x="538" 
d="M8 311q-2 -1 -6 -1v196l371 75q45 8 85 -9.5t60 -51.5q15 -15 24 -34t9 -41v-93q0 -24 -13.5 -48t-32.5 -41q3 -4 6 -7t5 -7q16 -16 25.5 -37t9.5 -45v-93q0 -24 -10 -45t-27.5 -37t-41 -25t-50.5 -9h-397l-17 17h-6v190h160v149l161 35v5l-298 -60zM509 187v3
q0 33 -23.5 58.5t-59.5 32.5q36 8 59.5 33.5t23.5 57.5v93q0 22 -11 41t-29.5 32t-42 18t-48.5 0l-351 -71v-144l321 65v-79v-1l-161 -33v-110l161 32v-75h-321v-140h375q22 0 41.5 7.5t34 20t23 29.5t8.5 37v93zM484 94q0 -29 -24 -49t-58 -20h-350v90h321v131
q-33 -6 -77.5 -15t-83.5 -17v59l161 33v131l-321 -65v91q86 17 166 34t165 34q19 3 37 -0.5t32.5 -13t23 -23t8.5 -29.5v-93q0 -23 -20 -42.5t-52 -26.5v-45q32 -6 52 -25t20 -43v-96z" />
    <glyph glyph-name="four" unicode="4" horiz-adv-x="542" 
d="M536 606l17 -17v-631h-205l-17 17h-6v170h-169q-29 0 -53.5 10t-42.5 28l-2 2q-25 16 -39.5 41t-14.5 55v225l210 43v-7l17 -17v-173h94v220l211 41v-7zM511 582l-161 -32v-223h-161v191l-160 -33v-204q0 -20 8.5 -37t23 -29.5t34 -20t41.5 -7.5h214v-187h161v582z
M486 25h-111v187h-239q-34 0 -58 20t-24 49v184l110 23v-186h211v226l111 23v-526z" />
    <glyph glyph-name="five" unicode="5" horiz-adv-x="552" 
d="M321 352h89q38 0 68.5 -17.5t47.5 -45.5q15 -15 24 -34t9 -41v-140q0 -24 -10 -45t-27.5 -37t-41 -25t-50.5 -9h-397l-17 17h-6v531l532 107v-7l17 -17v-189zM517 234q0 19 -8.5 36t-23 29.5t-34 20t-41.5 7.5h-215v47l322 64v144l-482 -97v-298h321v-47h-321v-140h375
q22 0 41.5 7.5t34 20t23 29.5t8.5 37v140zM492 94q0 -29 -24 -49t-58 -20h-350v90h321v97h-321v252l432 87v-92l-322 -64v-93h240q34 0 58 -20t24 -48v-140z" />
    <glyph glyph-name="six" unicode="6" horiz-adv-x="544" 
d="M318 352h88q37 0 67.5 -16.5t47.5 -44.5h1q33 -33 33 -78v-140q0 -24 -10 -44.5t-27.5 -36.5t-41 -25t-50.5 -9h-268q-28 0 -52 10t-42 27q-26 16 -42 41.5t-16 56.5v318q0 42 29 74.5t74 41.5l429 86v-7l17 -17v-189zM353 140h-161v47h161v-47zM513 233q0 19 -8.5 36.5
t-23 30t-34 20t-41.5 7.5h-214v47l321 64v144l-399 -80q-36 -8 -59.5 -33.5t-23.5 -57.5v-318q0 -19 8.5 -36t23 -29.5t34 -20t41.5 -7.5h268q22 0 41.5 7.5t34 20t23 29.5t8.5 36v140zM488 93q0 -28 -24 -48t-58 -20h-268q-34 0 -58 20t-24 48v318q0 23 18 42t45 25v-1
q94 18 184.5 37t184.5 37v-92l-321 -64v-93h239q34 0 58 -20t24 -49v-140zM378 212h-211v-97h211v97z" />
    <glyph glyph-name="seven" unicode="7" horiz-adv-x="538" 
d="M11 311l-6 -1v196l371 75q44 8 82.5 -9t59.5 -50l2 -1q16 -16 25 -36.5t9 -43.5l-153 -483h-212l-17 17h-7l115 369l-252 -50zM512 465q0 22 -11 41t-29.5 32t-42 18t-48.5 0l-351 -71v-144l295 60l-126 -401h166zM346 25h-112l128 408l-307 -62v92q86 17 166 34t165 34
q19 3 36.5 0t32 -11.5t23 -21.5t9.5 -28z" />
    <glyph glyph-name="eight" unicode="8" horiz-adv-x="539" 
d="M322 180l-71 -15h71v15zM228 328l94 19v7q-23 -5 -45.5 -9.5t-48.5 -9.5v-7zM55 -2q-25 16 -39.5 41t-14.5 55v46q0 29 14.5 53t37.5 41q-23 16 -37.5 40t-14.5 53v84q0 42 29 74t74 42l268 54q45 8 85 -9.5t60 -51.5q15 -15 24 -34t9 -41v-92q0 -25 -13.5 -49.5
t-32.5 -40.5q3 -4 6 -7.5t5 -7.5q16 -16 25.5 -36t9.5 -41v-97q0 -24 -10 -45t-27.5 -37t-41 -25t-50.5 -9h-268q-58 0 -96 38zM347 326l-161 -33v81l161 32v-79v-1zM347 140h-161v60l161 32v-92zM508 187v4q0 32 -23.5 57.5t-59.5 33.5q36 7 59.5 32.5t23.5 58.5v92
q0 22 -11 41t-29.5 32t-42 18t-48.5 0l-268 -54q-37 -8 -60 -33t-23 -58v-84q0 -19 8.5 -36t23 -29.5t34 -20t41.5 -7.5q-22 0 -41.5 -7.5t-34 -20t-23 -30t-8.5 -36.5v-46q0 -20 8.5 -37t23 -29.5t34 -20t41.5 -7.5h268q22 0 41.5 7.5t34 20t23 29.5t8.5 37v93zM483 94
q0 -29 -24 -49t-58 -20h-268q-34 0 -58 20t-24 49v46q0 29 24 49t58 20v50q-34 0 -58 20t-24 48v84q0 24 17.5 42.5t45.5 24.5v-1l268 54q19 3 37 -0.5t32.5 -13t23 -23t8.5 -29.5v-92q0 -24 -20 -43t-52 -25v-45q32 -7 52 -26.5t20 -42.5v-97zM372 263l-211 -42v-106h211
v148zM372 327v110l-211 -42v-132l191 39z" />
    <glyph glyph-name="nine" unicode="9" horiz-adv-x="545" 
d="M328 354q-23 -5 -45 -9.5t-48 -9.5v-20l93 19v20zM13 -25h-6v190h61l-6 6q-26 17 -41.5 41.5t-13.5 53.5v145q0 40 29 73t74 43l268 54q45 8 85 -9.5t60 -51.5q15 -15 24 -34t9 -41v-371q0 -24 -10 -45t-27.5 -37t-41 -25t-50.5 -9h-397zM353 313l-160 -33v94l160 32v-93
zM514 465q0 22 -11 41t-29.5 32t-42 18t-48.5 0l-268 -54q-37 -8 -60 -33.5t-23 -57.5v-145q-1 -20 9 -38.5t27.5 -31.5t39 -19t43.5 -2l202 41v-76h-321v-140h375q22 0 41.5 7.5t34 20t23 29.5t8.5 37v371zM489 94q0 -29 -24 -49t-58 -20h-350v90h321v132q-24 -5 -54 -11
t-61 -12.5t-61.5 -12.5t-55.5 -11q-17 -3 -33 1.5t-29 13.5t-20.5 22t-6.5 28v146q0 23 17.5 42t45.5 25v-1l268 54q19 3 37 -0.5t32.5 -13t23 -23t8.5 -29.5v-371zM378 437l-210 -42v-145l210 43v144z" />
    <glyph glyph-name="colon" unicode=":" horiz-adv-x="220" 
d="M29 402h155v146h-155v-146zM28 0h155v146h-155v-146zM3 171h205v-6l17 -17v-190h-199l-17 17h-6v196zM4 573h205v-6l17 -17v-190h-199l-17 17h-6v196zM53 121h105v-96h-105v96zM54 523h105v-96h-105v96z" />
    <glyph glyph-name="semicolon" unicode=";" horiz-adv-x="223" 
d="M214 172v-6l17 -17v-176l-65 -76h-86l-17 17h-6v45h-31l-17 17h-6v196h211zM28 147v-146h54v-62h54l53 62v146h-161zM164 122v-113l-40 -45h-17v62h-54v96h111zM29 411h155v146h-155v-146zM4 582h205v-6l17 -17v-190h-199l-17 17h-6v196zM54 532h105v-96h-105v96z" />
    <glyph glyph-name="question" unicode="?" horiz-adv-x="545" 
d="M11 311l-6 -1v196l371 74q13 3 30 3q37 0 67.5 -17t47.5 -45q15 -15 24 -34.5t9 -42.5v-185q0 -40 -28.5 -71.5t-72.5 -41.5l-86 -17v-171h-205l-17 17h-6v216q0 46 31 83t82 48l75 16v15l-299 -59zM325 118h-161v-118h161v118zM512 464q0 22 -11 41t-29.5 32t-42 18
t-48.5 0l-351 -70v-144l322 64v-89l-94 -19q-43 -9 -68.5 -39t-25.5 -67v-51h161v27l104 21q37 7 60 32.5t23 58.5v185zM487 279q0 -24 -17.5 -43t-45.5 -24l-124 -25v-22h-111v26q0 29 20 51.5t54 30.5v-1l114 23v141q-36 -7 -76.5 -15.5t-82.5 -17t-83.5 -17t-79.5 -15.5
v92l331 67q19 4 37.5 0.5t32.5 -13t22.5 -23.5t8.5 -30v-185zM300 25h-111v68h111v-68z" />
    <glyph glyph-name="A" unicode="A" 
d="M321 336v18l-91 -18h91zM5 311l-6 -1v196l373 75q45 8 83.5 -9t58.5 -49l1 -1q33 -31 33 -78v-486h-397q-28 0 -52 10t-42 27q-26 16 -42 41.5t-16 56.5v125q0 45 33 78l-10 -2zM346 140h-161v47h161v-47zM506 464q0 22 -10.5 41t-28.5 32t-41.5 18t-48.5 1q0 -1 -2 -1
l-351 -70v-144l322 65v-95h-215q-22 0 -41.5 -7.5t-34 -20t-23 -29.5t-8.5 -36v-125q0 -19 8.5 -36t23 -29.5t34 -20t41.5 -7.5h375v464zM481 25h-350q-34 0 -58 20t-24 48v125q0 28 24 48t58 20h240v151l-322 -65v91q86 17 166 33.5t165 33.5q19 3 37.5 -0.5t32.5 -13
t22.5 -23t8.5 -29.5v-439zM371 212h-211v-97h211v97z" />
    <glyph glyph-name="B" unicode="B" horiz-adv-x="532" 
d="M324 353q-23 -5 -45.5 -9.5t-48.5 -9.5v-169h94v188zM230 551q1 0 2 0.5t3 0.5q34 7 70 14.5t69 13.5q22 3 43.5 -0.5t41 -12t35.5 -22t26 -29.5q32 -32 32 -72v-371q0 -24 -10 -45t-27.5 -36.5t-41 -24.5t-50.5 -9h-397l-17 17h-6v750h210v-6l17 -17v-151zM349 140h-161
v233l161 32v-265zM510 464q0 22 -11 41t-29.5 32t-42 18t-48.5 0l-191 -38v183h-160v-700h375q22 0 41.5 7t34 20t23 29.5t8.5 36.5v371zM485 93q0 -29 -24 -48.5t-58 -19.5h-350v650h110v-189l221 44q19 4 37.5 0.5t32.5 -13t22.5 -23.5t8.5 -30v-371zM374 436l-211 -42
v-279h211v321z" />
    <glyph glyph-name="C" unicode="C" 
d="M228 164h94v46h211v-6l17 -17v-115q0 -24 -10 -44.5t-28 -36.5t-41.5 -25t-50.5 -9h-267q-29 0 -54.5 10.5t-43.5 28.5q-26 16 -40.5 41t-14.5 55v318q0 41 29 74t75 42l267 53q45 6 85.5 -12.5t61.5 -51.5q14 -14 23 -32.5t9 -39.5v-139h-205l-17 17h-6v32l-94 -19v-170
zM508 139v46h-161v-46h-107h-54v140v93l161 33v-59h161v117q0 22 -11 41t-29.5 32t-42.5 18t-49 0l-267 -53q-37 -8 -60.5 -33.5t-23.5 -57.5v-131v-140v-47q0 -19 8.5 -36t23 -29.5t34 -20t42.5 -7.5h267q22 0 42 7.5t34.5 20t23 29.5t8.5 36v47zM483 92q0 -28 -24 -48
t-59 -20h-267q-35 0 -59 20t-24 48v318q0 23 18 42t46 25v-1l267 53q20 4 38.5 0.5t32.5 -13t22.5 -23.5t8.5 -30v-92h-111v64l-211 -43v-278h211v46h111v-68z" />
    <glyph glyph-name="D" unicode="D" horiz-adv-x="538" 
d="M322 353q-23 -5 -45.5 -9.5t-48.5 -9.5v-169h94v188zM532 719l17 -17v-744h-397q-28 0 -52 10t-42 27q-26 16 -42 41t-16 57v317q0 43 29 75t74 41l219 44v155h210v-6zM347 140h-161v233l161 32v-265zM507 700h-160v-151l-239 -48q-36 -8 -59.5 -33t-23.5 -58v-317
q0 -20 8.5 -36.5t23 -29.5t34 -20t41.5 -7h375v700zM482 25h-350q-34 0 -58 19.5t-24 48.5v317q0 24 18 42.5t45 24.5v-1l259 52v147h110v-650zM372 436l-211 -42v-279h211v321z" />
    <glyph glyph-name="E" unicode="E" horiz-adv-x="543" 
d="M350 334h-161v40l161 32v-72zM511 465q0 22 -11 41t-29.5 32t-42 18t-48.5 0l-268 -54q-37 -8 -60 -33.5t-23 -57.5v-317q0 -20 8.5 -37t23 -29.5t34 -20t41.5 -7.5h268q22 0 41.5 7.5t34 20t23 29.5t8.5 37v84h-161v-38h-161v85h322v240zM58 -2q-25 16 -39.5 41
t-14.5 55v317q0 40 29 73t74 43l268 54q45 8 85 -9.5t60 -51.5q15 -15 24 -34t9 -41v-262h-3l3 -3v-106q0 -24 -10 -45t-27.5 -37t-41 -25t-50.5 -9h-268q-58 0 -96 38zM231 165h94v18h-94v-18zM164 250v-135h211v38h111v-59q0 -29 -24 -49t-58 -20h-268q-34 0 -58 20
t-24 49v317q0 23 17.5 42t45.5 25v-1l268 54q19 3 37 -0.5t32.5 -13t23 -23t8.5 -29.5v-215h-322zM164 395v-86h211v128z" />
    <glyph glyph-name="F" unicode="F" horiz-adv-x="429" 
d="M430 498l17 -17v-189l-160 -32v-302h-205l-17 17h-6v240l-38 -8l-18 17l-5 -1v194l61 14v176q0 24 10.5 45.5t28.5 37.5t42 25.5t51 9.5h239v-6l17 -17v-184h-160v-42l143 29v-7zM405 474l-160 -32v118h160v140h-214q-22 0 -41.5 -7.5t-34 -20t-23 -29.5t-8.5 -36v-47
v-150l-61 -14v-142l61 14v-268h161v299l160 32v143zM380 352l-160 -32v-295h-111v274l-27 -6t-34 -8v90l61 15v217q0 28 24 48t58 20h189v-90h-160v-174q33 6 77.5 15t82.5 17v-91z" />
    <glyph glyph-name="G" unicode="G" horiz-adv-x="539" 
d="M327 354q-23 -5 -45.5 -9.5t-48.5 -9.5v-169h94v188zM81 -20q-11 7 -20 16q-26 16 -41 41t-15 57v317q0 43 29 75t74 41l268 54q45 8 85 -9.5t60 -51.5q15 -15 24 -34t9 -41v-558q0 -24 -10 -44.5t-27.5 -36.5t-41 -25t-50.5 -9h-397l-17 17h-6v190zM352 141h-161v233
l161 32v-265zM512 465q0 22 -11 41t-29.5 32t-42 18t-48.5 0l-268 -54q-36 -8 -59.5 -33t-23.5 -58v-317q0 -20 8.5 -37t23 -29.5t34 -20t41.5 -7.5h215v-46h-322v-140h375q22 0 41.5 7.5t34 20t23 29.5t8.5 36v558zM487 -93q0 -28 -24 -48t-58 -20h-350v90h322v96h-240
q-34 0 -58 20t-24 49v317q0 24 18 42.5t45 24.5v-1l268 54q19 3 37 -0.5t32.5 -13t23 -23t8.5 -29.5v-558zM377 437l-211 -42v-279h211v321z" />
    <glyph glyph-name="H" unicode="H" horiz-adv-x="545" 
d="M237 552l19 4q31 7 62.5 13t61.5 12q44 6 84.5 -12t60.5 -51h1q32 -32 32 -73v-487h-205l-17 17h-6v379q-23 -5 -45 -9.5t-48 -9.5v-377h-205l-17 17h-6v751h211v-6l17 -17v-151zM516 465q0 22 -11 41t-29.5 32t-42 18t-48.5 0l-190 -38v183h-161v-607v-94h107h54v374
l160 32v-406h54h107v465zM491 25h-111v412l-210 -42v-370h-111v651h111v-189l220 44q19 4 37.5 0t32.5 -13t22.5 -23t8.5 -30v-440z" />
    <glyph glyph-name="I" unicode="I" horiz-adv-x="224" 
d="M211 718l17 -17l1 -744h-206l-17 17h-6v750h211v-6zM186 699h-161v-109h161v109v0zM186 559h-161v-560h165zM165 24h-115v510h111zM161 615h-111v59h111v-59z" />
    <glyph glyph-name="J" unicode="J" horiz-adv-x="222" 
d="M212 718l17 -17v-815q0 -24 -10 -45t-28 -37t-41.5 -25t-50.5 -9h-145l-17 17h-6v190h70v747h211v-6zM187 699h-161v-109h161v109zM187 559h-161v-560v-47h-70v-140h123q22 0 42 7.5t34.5 20t23 29.5t8.5 37v653zM162 -94q0 -29 -24 -49t-59 -20h-98v90h70v607h111v-628z
M162 615h-111v59h111v-59z" />
    <glyph glyph-name="K" unicode="K" horiz-adv-x="540" 
d="M549 580l18 -18l-225 -314l227 -290h-251l-17 17h-4l-73 92v-109h-204l-17 17h-6v750h210v-6l17 -17v-224l77 107h252zM504 560h-190l-132 -183v323h-160v-700h160v162l127 -162h195l-210 268l210 292v0zM263 267l189 -242h-131l-164 210v-210h-110v650h110v-375l170 235
h128z" />
    <glyph glyph-name="L" unicode="L" horiz-adv-x="228" 
d="M215 715l17 -17v-741h-205l-19 17h-6l-1 747h214v-6zM190 696h-161v-697h165zM169 24h-115v647h111z" />
    <glyph glyph-name="M" unicode="M" horiz-adv-x="764" 
d="M228 528l366 56q45 4 80.5 -12.5t55.5 -48.5q16 -16 25 -37t9 -47v-481h-205l-17 17h-6v387l-40 -6v-398h-205l-17 17h-6v347l-40 -6v-358h-205l-17 17h-6v610h211v-6l17 -17v-34zM722 459q0 24 -10 44t-27 33t-40 19.5t-48 3.5l-411 -62v63h-161v-560h161v355l107 16
v-371h161v395l107 16v-411h161v459zM697 25h-111v415l-157 -23v-392h-111v375l-157 -23v-352h-111v510h111v-67q51 7 107 15.5t113 17.5t113 17t107 16h-1q40 4 68.5 -17t28.5 -58v-434z" />
    <glyph glyph-name="N" unicode="N" horiz-adv-x="542" 
d="M233 552q1 0 2 0.5t3 0.5q34 7 70 14.5t69 13.5q44 6 84.5 -12t60.5 -51h1q32 -32 32 -73v-487h-205l-17 17h-6v379q-23 -5 -45.5 -9.5t-48.5 -9.5v-377h-204l-17 17h-6v611h210v-6l17 -17v-11zM513 465q0 22 -11 41t-29.5 32t-42 18t-48.5 0l-191 -38v43h-160v-561h107
h53v374l161 32v-406h161v465zM488 25h-111v412l-211 -42v-370h-110v511h110v-49l221 44q19 4 37.5 0t32.5 -13t22.5 -23t8.5 -30v-440z" />
    <glyph glyph-name="O" unicode="O" 
d="M316 354q-23 -5 -45 -9.5t-48 -9.5v-170h93v189zM49 -2q-25 16 -39.5 41t-14.5 55v317q0 42 29 74t74 42l268 54q45 8 85 -9.5t60 -51.5q15 -15 24 -34t9 -41v-371q0 -24 -10 -45t-27.5 -37t-41 -25t-50.5 -9h-268q-58 0 -96 38zM341 140h-160v234l160 32v-266zM502 465
q0 22 -11 41t-29.5 32t-42 18t-48.5 0l-268 -54q-37 -8 -60 -33t-23 -58v-317q0 -20 8.5 -37t23 -29.5t34 -20t41.5 -7.5h268q22 0 41.5 7.5t34 20t23 29.5t8.5 37v371zM477 94q0 -29 -24 -49t-58 -20h-268q-34 0 -58 20t-24 49v317q0 24 17.5 42.5t45.5 24.5v-1l268 54
q19 3 37 -0.5t32.5 -13t23 -23t8.5 -29.5v-371zM366 437l-210 -42v-280h210v322z" />
    <glyph glyph-name="P" unicode="P" horiz-adv-x="548" 
d="M328 354q-23 -5 -45 -9.5t-48 -9.5v-170h93v189zM235 552l143 29q45 8 85 -9.5t60 -51.5q15 -15 24 -34t9 -41v-371q0 -24 -10 -45t-27.5 -37t-41 -25t-50.5 -9h-192v-187h-205l-17 17h-6v797h211v-6l17 -17v-10zM353 140h-160v234l160 32v-266zM514 465q0 22 -11 41
t-29.5 32t-42 18t-48.5 0l-190 -39v43h-161v-747h161v187h214q22 0 41.5 7.5t34 20t23 29.5t8.5 37v371zM489 94q0 -29 -24 -49t-58 -20h-239v-187h-111v697h111v-48l220 45v-1q19 4 37.5 0t32.5 -13t22.5 -23t8.5 -30v-371zM378 437l-210 -42v-280h210v322z" />
    <glyph glyph-name="Q" unicode="Q" horiz-adv-x="550" 
d="M327 354l-94 -19v-170h94v189zM158 -42q-28 0 -52 10t-42 27q-26 16 -42 41.5t-16 56.5v317q0 42 29 74t74 42l268 54q22 3 43.5 -0.5t41 -12t35.5 -22t26 -29.5q32 -32 32 -72v-673h-205l-17 17h-6v170h-169zM352 140h-161v233l161 33v-266zM513 464q0 22 -11 41
t-29.5 32t-42 18t-48.5 0l-268 -54q-37 -7 -60 -32.5t-23 -58.5v-317q0 -19 8.5 -36t23 -29.5t34 -20t41.5 -7.5h214v-187h161v651zM488 -162h-111v187h-239q-34 0 -58 20t-24 48v317q0 23 17.5 42t45.5 24l268 54q19 4 37.5 0.5t32.5 -13t22.5 -23.5t8.5 -30v-626zM377 436
l-211 -43v-278h211v321z" />
    <glyph glyph-name="R" unicode="R" horiz-adv-x="544" 
d="M235 551l19 4q31 7 62.5 13t61.5 12q44 6 84.5 -12t60.5 -51h1q32 -32 32 -73v-151l-204 -44l-17 17l-6 -1l-1 88q-23 -5 -45 -9.5t-48 -9.5v-376h-205l-17 17h-6v610h211v-6l17 -17v-11zM514 464q0 22 -11 41t-29.5 32t-42 18t-48.5 0l-190 -38v43h-161v-560h107h54v373
l160 32l1 -109l160 35v133zM489 351q-30 -6 -57 -12.5t-53 -12.5l-1 110l-210 -42v-369h-111v510h111v-49l220 44q19 4 37.5 0t32.5 -13t22.5 -23t8.5 -30v-113z" />
    <glyph glyph-name="S" unicode="S" horiz-adv-x="549" 
d="M326 340v14l-69 -14h69zM492 310q17 -12 28 -32h1q15 -15 24 -34.5t9 -41.5v-129q0 -24 -10 -44.5t-27.5 -36.5t-41 -25t-50.5 -9h-397l-17 17h-6v190l78 1q-6 3 -10.5 7t-9.5 9q-26 16 -42 41.5t-16 56.5v131q0 41 28.5 74t74.5 42l268 53q22 3 43.5 -0.5t41 -12
t35.5 -22t26 -29.5q32 -32 32 -72v-134h-62zM512 222q0 19 -8.5 36t-23 29.5t-34 20t-41.5 7.5h-215v59l161 32v-54h161v112q0 22 -11 41t-29.5 32t-42 18t-48.5 0l-268 -53q-37 -8 -60 -33.5t-23 -57.5v-131q0 -19 8.5 -36t23 -29.5t34 -20t41.5 -7.5h214v-47h-321v-47v-93
h107h268q22 0 41.5 7.5t34 20t23 29.5t8.5 36v129zM487 93q0 -28 -24 -48t-58 -20h-350v90h321v97h-239q-34 0 -58 20t-24 48v131q0 23 17.5 42t45.5 25v-1l268 53q19 4 37.5 0.5t32.5 -13t22.5 -23.5t8.5 -30v-87h-111v60l-211 -42v-105h240q34 0 58 -20t24 -48v-129z" />
    <glyph glyph-name="T" unicode="T" horiz-adv-x="367" 
d="M372 497l17 -17v-187l-102 -25v-310h-205l-17 17h-6v246l-38 -8l-18 17l-5 -1v194l61 14v290h211v-6l17 -17v-221l85 21v-7zM347 473l-102 -25v254h-161v-286l-61 -14v-142l61 14v-274h161v305l102 25v143zM322 350l-102 -25v-300h-111v280l-27 -6t-34 -8v90l61 15v281
h111v-260l102 25v-92z" />
    <glyph glyph-name="U" unicode="U" 
d="M532 584l17 -17v-609h-397q-58 0 -96 38l-2 2q-25 16 -39.5 41t-14.5 55v413l210 32v-6l17 -17v-351h94v393l211 32v-6zM507 561l-161 -25v-396h-161v370l-160 -25v-74v-317q0 -20 8.5 -37t23 -29.5t34 -20t41.5 -7.5h375v561zM482 25h-350q-34 0 -58 20t-24 49v369
q32 5 57 9t53 9v-366h211v399q32 5 57.5 9t53.5 9v-507z" />
    <glyph glyph-name="V" unicode="V" horiz-adv-x="535" 
d="M533 583l17 -17v-252q0 -39 -10 -73.5t-30 -68.5l-131 -214h-184l-17 17h-4l-120 169q-53 76 -53 162v201l211 32v-6l17 -17v-190q0 -66 32 -118l27 44q18 29 26 57t8 60v188l211 32v-6zM508 560l-161 -25v-166q0 -36 -8.5 -67.5t-28.5 -63.5l-48 -79l-27 40
q-48 67 -48 147v164l-161 -25v-179q0 -42 11.5 -77t36.5 -70l113 -159h160l124 203q19 32 28 63.5t9 67.5v226zM483 334q0 -32 -8.5 -61t-24.5 -57l-116 -191h-134q-28 40 -53 74t-53 74q-23 32 -33 63.5t-10 69.5v157q32 5 57.5 9t53.5 9v-135q0 -46 13 -85t40 -77l-1 1
l49 -72q6 9 15 24t18.5 31t19 31.5t15.5 25.5q41 66 41 144v144q32 5 57.5 9t53.5 9v-197z" />
    <glyph glyph-name="W" unicode="W" horiz-adv-x="863" 
d="M230 326q0 -27 7 -54t27 -62q19 33 31 56.5t18.5 41.5t8.5 32.5t2 28.5v169l211 19v-6l17 -17v-208q0 -63 33 -118l26 43q35 57 35 118v199l210 19v-6l17 -17v-250q0 -39 -9.5 -73.5t-30.5 -69.5h-1l-129 -213h-184l-17 17h-4l-57 80l-60 -97h-185l-17 17h-4l-119 169
q-53 76 -53 162v202l210 19v-6l17 -17v-178zM510 346v184l-161 -15v-146q0 -18 -3 -36t-12 -41.5t-26 -55t-44 -76.5q-23 32 -37.5 57.5t-23 47t-12 41t-3.5 40.5v154l-160 -15v-179q0 -41 11.5 -76.5t36.5 -70.5l112 -159h161l74 122l87 -122h161l123 203q20 32 28.5 64
t8.5 67v226l-160 -15v-176q0 -70 -38 -131l-47 -78l-28 39q-25 35 -36.5 70t-11.5 77zM485 346q0 -45 12.5 -83.5t40.5 -77.5h-1l51 -72l67 113l-1 -1q22 35 32 70t10 74v154l110 9v-198q0 -32 -8 -61t-25 -57q-29 -48 -57.5 -95.5t-57.5 -95.5h-136l-101 142l-86 -142h-134
l-105 148q-23 32 -33 64t-10 69v157l110 9v-126q0 -23 4.5 -45.5t16 -49t31.5 -60t51 -76.5q35 57 56 96.5t32.5 68t15.5 49t4 40.5v124q32 3 57 5t54 4v-156z" />
    <glyph glyph-name="X" unicode="X" horiz-adv-x="554" 
d="M237 328h94v229l211 32v-6l17 -17v-260q0 -29 -9.5 -52.5t-28.5 -39.5l3 -5l4 -3q16 -16 23.5 -38t7.5 -48v-162h-205l-17 17h-6v146h-94v-163h-204l-17 17h-6v165q0 28 8.5 52t27.5 41q-19 16 -27.5 40t-8.5 53v180l210 33v-6l17 -17v-188zM517 140q0 38 -20.5 65.5
t-65.5 27.5q45 0 65.5 27.5t20.5 65.5v234l-161 -25v-232h-161v207l-160 -26v-158q0 -38 19.5 -65.5t64.5 -27.5q-45 0 -64.5 -27.5t-19.5 -65.5v-140h160v163h161v-163h161v140zM492 25h-111v163h-211v-163h-110v115q0 28 14 48t45 20v50q-31 0 -45 20t-14 48v136
q32 5 56.5 9.5t53.5 9.5v-203h211v235q32 5 57.5 9t53.5 9v-205q0 -28 -14.5 -48t-46.5 -20v-50q32 0 46.5 -20t14.5 -48v-115z" />
    <glyph glyph-name="Y" unicode="Y" horiz-adv-x="556" 
d="M354 549l2 -408h-2h-158v377l-161 -57v-367q0 -20 8.5 -37t23 -29.5t34 -20t41.5 -7.5h214v-46h-321v-140h375q22 0 41.5 7.5t34 20t23 29.5t8.5 36l-1 686zM541 625v-7l17 -17l1 -714q0 -24 -10 -44.5t-27.5 -36.5t-41 -25t-50.5 -9h-397l-17 17h-6v190l76 1
q-11 7 -20 16q-26 16 -41 41t-15 57v385l211 74v-7l17 -17v-363h93v98.5t-1 101.5q0 51 -0.5 102.5t-0.5 99.5zM491 561l1 -654q0 -28 -24 -48t-58 -20h-350v90h321v96h-239q-34 0 -58 20t-24 49v349l111 39v-366h208v414z" />
    <glyph glyph-name="Z" unicode="Z" horiz-adv-x="518" 
d="M497 416l2 148l-472 -81v-146l227 39l-225 -241v-1l-2 -134h2h473v134l-277 -1zM8 307l-6 -1v198l522 90v-7l17 -17l-2 -183l-221 -229q21 0 42 0.5t44 0.5h123v-6l17 -17v-178h-519l-17 17h-6l2 170l157 169l-136 -24zM167 108h70.5t81 0.5t82.5 0.5h76v-84h-423v99
l269 290l-271 -47v95l422 72q0 -18 -0.5 -30.5t-0.5 -24t-0.5 -24t-0.5 -29.5z" />
    <glyph glyph-name="a" unicode="a" 
d="M321 336v18l-91 -18h91zM5 311l-6 -1v196l373 75q45 8 83.5 -9t58.5 -49l1 -1q33 -31 33 -78v-486h-397q-28 0 -52 10t-42 27q-26 16 -42 41.5t-16 56.5v125q0 45 33 78l-10 -2zM346 140h-161v47h161v-47zM506 464q0 22 -10.5 41t-28.5 32t-41.5 18t-48.5 1q0 -1 -2 -1
l-351 -70v-144l322 65v-95h-215q-22 0 -41.5 -7.5t-34 -20t-23 -29.5t-8.5 -36v-125q0 -19 8.5 -36t23 -29.5t34 -20t41.5 -7.5h375v464zM481 25h-350q-34 0 -58 20t-24 48v125q0 28 24 48t58 20h240v151l-322 -65v91q86 17 166 33.5t165 33.5q19 3 37.5 -0.5t32.5 -13
t22.5 -23t8.5 -29.5v-439zM371 212h-211v-97h211v97z" />
    <glyph glyph-name="b" unicode="b" horiz-adv-x="532" 
d="M324 353q-23 -5 -45.5 -9.5t-48.5 -9.5v-169h94v188zM230 551q1 0 2 0.5t3 0.5q34 7 70 14.5t69 13.5q22 3 43.5 -0.5t41 -12t35.5 -22t26 -29.5q32 -32 32 -72v-371q0 -24 -10 -45t-27.5 -36.5t-41 -24.5t-50.5 -9h-397l-17 17h-6v750h210v-6l17 -17v-151zM349 140h-161
v233l161 32v-265zM510 464q0 22 -11 41t-29.5 32t-42 18t-48.5 0l-191 -38v183h-160v-700h375q22 0 41.5 7t34 20t23 29.5t8.5 36.5v371zM485 93q0 -29 -24 -48.5t-58 -19.5h-350v650h110v-189l221 44q19 4 37.5 0.5t32.5 -13t22.5 -23.5t8.5 -30v-371zM374 436l-211 -42
v-279h211v321z" />
    <glyph glyph-name="c" unicode="c" 
d="M228 164h94v46h211v-6l17 -17v-115q0 -24 -10 -44.5t-28 -36.5t-41.5 -25t-50.5 -9h-267q-29 0 -54.5 10.5t-43.5 28.5q-26 16 -40.5 41t-14.5 55v318q0 41 29 74t75 42l267 53q45 6 85.5 -12.5t61.5 -51.5q14 -14 23 -32.5t9 -39.5v-139h-205l-17 17h-6v32l-94 -19v-170
zM508 139v46h-161v-46h-107h-54v140v93l161 33v-59h161v117q0 22 -11 41t-29.5 32t-42.5 18t-49 0l-267 -53q-37 -8 -60.5 -33.5t-23.5 -57.5v-131v-140v-47q0 -19 8.5 -36t23 -29.5t34 -20t42.5 -7.5h267q22 0 42 7.5t34.5 20t23 29.5t8.5 36v47zM483 92q0 -28 -24 -48
t-59 -20h-267q-35 0 -59 20t-24 48v318q0 23 18 42t46 25v-1l267 53q20 4 38.5 0.5t32.5 -13t22.5 -23.5t8.5 -30v-92h-111v64l-211 -43v-278h211v46h111v-68z" />
    <glyph glyph-name="d" unicode="d" horiz-adv-x="538" 
d="M322 353q-23 -5 -45.5 -9.5t-48.5 -9.5v-169h94v188zM532 719l17 -17v-744h-397q-28 0 -52 10t-42 27q-26 16 -42 41t-16 57v317q0 43 29 75t74 41l219 44v155h210v-6zM347 140h-161v233l161 32v-265zM507 700h-160v-151l-239 -48q-36 -8 -59.5 -33t-23.5 -58v-317
q0 -20 8.5 -36.5t23 -29.5t34 -20t41.5 -7h375v700zM482 25h-350q-34 0 -58 19.5t-24 48.5v317q0 24 18 42.5t45 24.5v-1l259 52v147h110v-650zM372 436l-211 -42v-279h211v321z" />
    <glyph glyph-name="e" unicode="e" horiz-adv-x="543" 
d="M350 334h-161v40l161 32v-72zM511 465q0 22 -11 41t-29.5 32t-42 18t-48.5 0l-268 -54q-37 -8 -60 -33.5t-23 -57.5v-317q0 -20 8.5 -37t23 -29.5t34 -20t41.5 -7.5h268q22 0 41.5 7.5t34 20t23 29.5t8.5 37v84h-161v-38h-161v85h322v240zM58 -2q-25 16 -39.5 41
t-14.5 55v317q0 40 29 73t74 43l268 54q45 8 85 -9.5t60 -51.5q15 -15 24 -34t9 -41v-262h-3l3 -3v-106q0 -24 -10 -45t-27.5 -37t-41 -25t-50.5 -9h-268q-58 0 -96 38zM231 165h94v18h-94v-18zM164 250v-135h211v38h111v-59q0 -29 -24 -49t-58 -20h-268q-34 0 -58 20
t-24 49v317q0 23 17.5 42t45.5 25v-1l268 54q19 3 37 -0.5t32.5 -13t23 -23t8.5 -29.5v-215h-322zM164 395v-86h211v128z" />
    <glyph glyph-name="f" unicode="f" horiz-adv-x="429" 
d="M430 498l17 -17v-189l-160 -32v-302h-205l-17 17h-6v240l-38 -8l-18 17l-5 -1v194l61 14v176q0 24 10.5 45.5t28.5 37.5t42 25.5t51 9.5h239v-6l17 -17v-184h-160v-42l143 29v-7zM405 474l-160 -32v118h160v140h-214q-22 0 -41.5 -7.5t-34 -20t-23 -29.5t-8.5 -36v-47
v-150l-61 -14v-142l61 14v-268h161v299l160 32v143zM380 352l-160 -32v-295h-111v274l-27 -6t-34 -8v90l61 15v217q0 28 24 48t58 20h189v-90h-160v-174q33 6 77.5 15t82.5 17v-91z" />
    <glyph glyph-name="g" unicode="g" horiz-adv-x="539" 
d="M327 354q-23 -5 -45.5 -9.5t-48.5 -9.5v-169h94v188zM81 -20q-11 7 -20 16q-26 16 -41 41t-15 57v317q0 43 29 75t74 41l268 54q45 8 85 -9.5t60 -51.5q15 -15 24 -34t9 -41v-558q0 -24 -10 -44.5t-27.5 -36.5t-41 -25t-50.5 -9h-397l-17 17h-6v190zM352 141h-161v233
l161 32v-265zM512 465q0 22 -11 41t-29.5 32t-42 18t-48.5 0l-268 -54q-36 -8 -59.5 -33t-23.5 -58v-317q0 -20 8.5 -37t23 -29.5t34 -20t41.5 -7.5h215v-46h-322v-140h375q22 0 41.5 7.5t34 20t23 29.5t8.5 36v558zM487 -93q0 -28 -24 -48t-58 -20h-350v90h322v96h-240
q-34 0 -58 20t-24 49v317q0 24 18 42.5t45 24.5v-1l268 54q19 3 37 -0.5t32.5 -13t23 -23t8.5 -29.5v-558zM377 437l-211 -42v-279h211v321z" />
    <glyph glyph-name="h" unicode="h" horiz-adv-x="545" 
d="M237 552l19 4q31 7 62.5 13t61.5 12q44 6 84.5 -12t60.5 -51h1q32 -32 32 -73v-487h-205l-17 17h-6v379q-23 -5 -45 -9.5t-48 -9.5v-377h-205l-17 17h-6v751h211v-6l17 -17v-151zM516 465q0 22 -11 41t-29.5 32t-42 18t-48.5 0l-190 -38v183h-161v-607v-94h107h54v374
l160 32v-406h54h107v465zM491 25h-111v412l-210 -42v-370h-111v651h111v-189l220 44q19 4 37.5 0t32.5 -13t22.5 -23t8.5 -30v-440z" />
    <glyph glyph-name="i" unicode="i" horiz-adv-x="224" 
d="M211 718l17 -17l1 -744h-206l-17 17h-6v750h211v-6zM186 699h-161v-109h161v109v0zM186 559h-161v-560h165zM165 24h-115v510h111zM161 615h-111v59h111v-59z" />
    <glyph glyph-name="j" unicode="j" horiz-adv-x="222" 
d="M212 718l17 -17v-815q0 -24 -10 -45t-28 -37t-41.5 -25t-50.5 -9h-145l-17 17h-6v190h70v747h211v-6zM187 699h-161v-109h161v109zM187 559h-161v-560v-47h-70v-140h123q22 0 42 7.5t34.5 20t23 29.5t8.5 37v653zM162 -94q0 -29 -24 -49t-59 -20h-98v90h70v607h111v-628z
M162 615h-111v59h111v-59z" />
    <glyph glyph-name="k" unicode="k" horiz-adv-x="540" 
d="M549 580l18 -18l-225 -314l227 -290h-251l-17 17h-4l-73 92v-109h-204l-17 17h-6v750h210v-6l17 -17v-224l77 107h252zM504 560h-190l-132 -183v323h-160v-700h160v162l127 -162h195l-210 268l210 292v0zM263 267l189 -242h-131l-164 210v-210h-110v650h110v-375l170 235
h128z" />
    <glyph glyph-name="l" unicode="l" horiz-adv-x="228" 
d="M215 715l17 -17v-741h-205l-19 17h-6l-1 747h214v-6zM190 696h-161v-697h165zM169 24h-115v647h111z" />
    <glyph glyph-name="m" unicode="m" horiz-adv-x="764" 
d="M228 528l366 56q45 4 80.5 -12.5t55.5 -48.5q16 -16 25 -37t9 -47v-481h-205l-17 17h-6v387l-40 -6v-398h-205l-17 17h-6v347l-40 -6v-358h-205l-17 17h-6v610h211v-6l17 -17v-34zM722 459q0 24 -10 44t-27 33t-40 19.5t-48 3.5l-411 -62v63h-161v-560h161v355l107 16
v-371h161v395l107 16v-411h161v459zM697 25h-111v415l-157 -23v-392h-111v375l-157 -23v-352h-111v510h111v-67q51 7 107 15.5t113 17.5t113 17t107 16h-1q40 4 68.5 -17t28.5 -58v-434z" />
    <glyph glyph-name="n" unicode="n" horiz-adv-x="542" 
d="M233 552q1 0 2 0.5t3 0.5q34 7 70 14.5t69 13.5q44 6 84.5 -12t60.5 -51h1q32 -32 32 -73v-487h-205l-17 17h-6v379q-23 -5 -45.5 -9.5t-48.5 -9.5v-377h-204l-17 17h-6v611h210v-6l17 -17v-11zM513 465q0 22 -11 41t-29.5 32t-42 18t-48.5 0l-191 -38v43h-160v-561h107
h53v374l161 32v-406h161v465zM488 25h-111v412l-211 -42v-370h-110v511h110v-49l221 44q19 4 37.5 0t32.5 -13t22.5 -23t8.5 -30v-440z" />
    <glyph glyph-name="o" unicode="o" 
d="M316 354q-23 -5 -45 -9.5t-48 -9.5v-170h93v189zM49 -2q-25 16 -39.5 41t-14.5 55v317q0 42 29 74t74 42l268 54q45 8 85 -9.5t60 -51.5q15 -15 24 -34t9 -41v-371q0 -24 -10 -45t-27.5 -37t-41 -25t-50.5 -9h-268q-58 0 -96 38zM341 140h-160v234l160 32v-266zM502 465
q0 22 -11 41t-29.5 32t-42 18t-48.5 0l-268 -54q-37 -8 -60 -33t-23 -58v-317q0 -20 8.5 -37t23 -29.5t34 -20t41.5 -7.5h268q22 0 41.5 7.5t34 20t23 29.5t8.5 37v371zM477 94q0 -29 -24 -49t-58 -20h-268q-34 0 -58 20t-24 49v317q0 24 17.5 42.5t45.5 24.5v-1l268 54
q19 3 37 -0.5t32.5 -13t23 -23t8.5 -29.5v-371zM366 437l-210 -42v-280h210v322z" />
    <glyph glyph-name="p" unicode="p" horiz-adv-x="548" 
d="M328 354q-23 -5 -45 -9.5t-48 -9.5v-170h93v189zM235 552l143 29q45 8 85 -9.5t60 -51.5q15 -15 24 -34t9 -41v-371q0 -24 -10 -45t-27.5 -37t-41 -25t-50.5 -9h-192v-187h-205l-17 17h-6v797h211v-6l17 -17v-10zM353 140h-160v234l160 32v-266zM514 465q0 22 -11 41
t-29.5 32t-42 18t-48.5 0l-190 -39v43h-161v-747h161v187h214q22 0 41.5 7.5t34 20t23 29.5t8.5 37v371zM489 94q0 -29 -24 -49t-58 -20h-239v-187h-111v697h111v-48l220 45v-1q19 4 37.5 0t32.5 -13t22.5 -23t8.5 -30v-371zM378 437l-210 -42v-280h210v322z" />
    <glyph glyph-name="q" unicode="q" horiz-adv-x="550" 
d="M327 354l-94 -19v-170h94v189zM158 -42q-28 0 -52 10t-42 27q-26 16 -42 41.5t-16 56.5v317q0 42 29 74t74 42l268 54q22 3 43.5 -0.5t41 -12t35.5 -22t26 -29.5q32 -32 32 -72v-673h-205l-17 17h-6v170h-169zM352 140h-161v233l161 33v-266zM513 464q0 22 -11 41
t-29.5 32t-42 18t-48.5 0l-268 -54q-37 -7 -60 -32.5t-23 -58.5v-317q0 -19 8.5 -36t23 -29.5t34 -20t41.5 -7.5h214v-187h161v651zM488 -162h-111v187h-239q-34 0 -58 20t-24 48v317q0 23 17.5 42t45.5 24l268 54q19 4 37.5 0.5t32.5 -13t22.5 -23.5t8.5 -30v-626zM377 436
l-211 -43v-278h211v321z" />
    <glyph glyph-name="r" unicode="r" horiz-adv-x="544" 
d="M235 551l19 4q31 7 62.5 13t61.5 12q44 6 84.5 -12t60.5 -51h1q32 -32 32 -73v-151l-204 -44l-17 17l-6 -1l-1 88q-23 -5 -45 -9.5t-48 -9.5v-376h-205l-17 17h-6v610h211v-6l17 -17v-11zM514 464q0 22 -11 41t-29.5 32t-42 18t-48.5 0l-190 -38v43h-161v-560h107h54v373
l160 32l1 -109l160 35v133zM489 351q-30 -6 -57 -12.5t-53 -12.5l-1 110l-210 -42v-369h-111v510h111v-49l220 44q19 4 37.5 0t32.5 -13t22.5 -23t8.5 -30v-113z" />
    <glyph glyph-name="s" unicode="s" horiz-adv-x="549" 
d="M326 340v14l-69 -14h69zM492 310q17 -12 28 -32h1q15 -15 24 -34.5t9 -41.5v-129q0 -24 -10 -44.5t-27.5 -36.5t-41 -25t-50.5 -9h-397l-17 17h-6v190l78 1q-6 3 -10.5 7t-9.5 9q-26 16 -42 41.5t-16 56.5v131q0 41 28.5 74t74.5 42l268 53q22 3 43.5 -0.5t41 -12
t35.5 -22t26 -29.5q32 -32 32 -72v-134h-62zM512 222q0 19 -8.5 36t-23 29.5t-34 20t-41.5 7.5h-215v59l161 32v-54h161v112q0 22 -11 41t-29.5 32t-42 18t-48.5 0l-268 -53q-37 -8 -60 -33.5t-23 -57.5v-131q0 -19 8.5 -36t23 -29.5t34 -20t41.5 -7.5h214v-47h-321v-47v-93
h107h268q22 0 41.5 7.5t34 20t23 29.5t8.5 36v129zM487 93q0 -28 -24 -48t-58 -20h-350v90h321v97h-239q-34 0 -58 20t-24 48v131q0 23 17.5 42t45.5 25v-1l268 53q19 4 37.5 0.5t32.5 -13t22.5 -23.5t8.5 -30v-87h-111v60l-211 -42v-105h240q34 0 58 -20t24 -48v-129z" />
    <glyph glyph-name="t" unicode="t" horiz-adv-x="367" 
d="M372 497l17 -17v-187l-102 -25v-310h-205l-17 17h-6v246l-38 -8l-18 17l-5 -1v194l61 14v290h211v-6l17 -17v-221l85 21v-7zM347 473l-102 -25v254h-161v-286l-61 -14v-142l61 14v-274h161v305l102 25v143zM322 350l-102 -25v-300h-111v280l-27 -6t-34 -8v90l61 15v281
h111v-260l102 25v-92z" />
    <glyph glyph-name="u" unicode="u" 
d="M532 584l17 -17v-609h-397q-58 0 -96 38l-2 2q-25 16 -39.5 41t-14.5 55v413l210 32v-6l17 -17v-351h94v393l211 32v-6zM507 561l-161 -25v-396h-161v370l-160 -25v-74v-317q0 -20 8.5 -37t23 -29.5t34 -20t41.5 -7.5h375v561zM482 25h-350q-34 0 -58 20t-24 49v369
q32 5 57 9t53 9v-366h211v399q32 5 57.5 9t53.5 9v-507z" />
    <glyph glyph-name="v" unicode="v" horiz-adv-x="535" 
d="M533 583l17 -17v-252q0 -39 -10 -73.5t-30 -68.5l-131 -214h-184l-17 17h-4l-120 169q-53 76 -53 162v201l211 32v-6l17 -17v-190q0 -66 32 -118l27 44q18 29 26 57t8 60v188l211 32v-6zM508 560l-161 -25v-166q0 -36 -8.5 -67.5t-28.5 -63.5l-48 -79l-27 40
q-48 67 -48 147v164l-161 -25v-179q0 -42 11.5 -77t36.5 -70l113 -159h160l124 203q19 32 28 63.5t9 67.5v226zM483 334q0 -32 -8.5 -61t-24.5 -57l-116 -191h-134q-28 40 -53 74t-53 74q-23 32 -33 63.5t-10 69.5v157q32 5 57.5 9t53.5 9v-135q0 -46 13 -85t40 -77l-1 1
l49 -72q6 9 15 24t18.5 31t19 31.5t15.5 25.5q41 66 41 144v144q32 5 57.5 9t53.5 9v-197z" />
    <glyph glyph-name="w" unicode="w" horiz-adv-x="863" 
d="M230 326q0 -27 7 -54t27 -62q19 33 31 56.5t18.5 41.5t8.5 32.5t2 28.5v169l211 19v-6l17 -17v-208q0 -63 33 -118l26 43q35 57 35 118v199l210 19v-6l17 -17v-250q0 -39 -9.5 -73.5t-30.5 -69.5h-1l-129 -213h-184l-17 17h-4l-57 80l-60 -97h-185l-17 17h-4l-119 169
q-53 76 -53 162v202l210 19v-6l17 -17v-178zM510 346v184l-161 -15v-146q0 -18 -3 -36t-12 -41.5t-26 -55t-44 -76.5q-23 32 -37.5 57.5t-23 47t-12 41t-3.5 40.5v154l-160 -15v-179q0 -41 11.5 -76.5t36.5 -70.5l112 -159h161l74 122l87 -122h161l123 203q20 32 28.5 64
t8.5 67v226l-160 -15v-176q0 -70 -38 -131l-47 -78l-28 39q-25 35 -36.5 70t-11.5 77zM485 346q0 -45 12.5 -83.5t40.5 -77.5h-1l51 -72l67 113l-1 -1q22 35 32 70t10 74v154l110 9v-198q0 -32 -8 -61t-25 -57q-29 -48 -57.5 -95.5t-57.5 -95.5h-136l-101 142l-86 -142h-134
l-105 148q-23 32 -33 64t-10 69v157l110 9v-126q0 -23 4.5 -45.5t16 -49t31.5 -60t51 -76.5q35 57 56 96.5t32.5 68t15.5 49t4 40.5v124q32 3 57 5t54 4v-156z" />
    <glyph glyph-name="x" unicode="x" horiz-adv-x="554" 
d="M237 328h94v229l211 32v-6l17 -17v-260q0 -29 -9.5 -52.5t-28.5 -39.5l3 -5l4 -3q16 -16 23.5 -38t7.5 -48v-162h-205l-17 17h-6v146h-94v-163h-204l-17 17h-6v165q0 28 8.5 52t27.5 41q-19 16 -27.5 40t-8.5 53v180l210 33v-6l17 -17v-188zM517 140q0 38 -20.5 65.5
t-65.5 27.5q45 0 65.5 27.5t20.5 65.5v234l-161 -25v-232h-161v207l-160 -26v-158q0 -38 19.5 -65.5t64.5 -27.5q-45 0 -64.5 -27.5t-19.5 -65.5v-140h160v163h161v-163h161v140zM492 25h-111v163h-211v-163h-110v115q0 28 14 48t45 20v50q-31 0 -45 20t-14 48v136
q32 5 56.5 9.5t53.5 9.5v-203h211v235q32 5 57.5 9t53.5 9v-205q0 -28 -14.5 -48t-46.5 -20v-50q32 0 46.5 -20t14.5 -48v-115z" />
    <glyph glyph-name="y" unicode="y" horiz-adv-x="556" 
d="M354 549l2 -408h-2h-158v377l-161 -57v-367q0 -20 8.5 -37t23 -29.5t34 -20t41.5 -7.5h214v-46h-321v-140h375q22 0 41.5 7.5t34 20t23 29.5t8.5 36l-1 686zM541 625v-7l17 -17l1 -714q0 -24 -10 -44.5t-27.5 -36.5t-41 -25t-50.5 -9h-397l-17 17h-6v190l76 1
q-11 7 -20 16q-26 16 -41 41t-15 57v385l211 74v-7l17 -17v-363h93v98.5t-1 101.5q0 51 -0.5 102.5t-0.5 99.5zM491 561l1 -654q0 -28 -24 -48t-58 -20h-350v90h321v96h-239q-34 0 -58 20t-24 49v349l111 39v-366h208v414z" />
    <glyph glyph-name="z" unicode="z" horiz-adv-x="518" 
d="M497 416l2 148l-472 -81v-146l227 39l-225 -241v-1l-2 -134h2h473v134l-277 -1zM8 307l-6 -1v198l522 90v-7l17 -17l-2 -183l-221 -229q21 0 42 0.5t44 0.5h123v-6l17 -17v-178h-519l-17 17h-6l2 170l157 169l-136 -24zM167 108h70.5t81 0.5t82.5 0.5h76v-84h-423v99
l269 290l-271 -47v95l422 72q0 -18 -0.5 -30.5t-0.5 -24t-0.5 -24t-0.5 -29.5z" />
  </font>
</defs>
</svg>
